<?xml version="1.0" encoding="UTF-8" standalone="no"?>
<!DOCTYPE svg PUBLIC "-//W3C//DTD SVG 1.1//EN" "http://www.w3.org/Graphics/SVG/1.1/DTD/svg11.dtd">
<svg width="100%" height="100%" viewBox="0 0 3827 3837" version="1.1" xmlns="http://www.w3.org/2000/svg" xmlns:xlink="http://www.w3.org/1999/xlink" xml:space="preserve" xmlns:serif="http://www.serif.com/" style="fill-rule:evenodd;clip-rule:evenodd;stroke-linejoin:round;stroke-miterlimit:2;">
    <g transform="matrix(1,0,0,1,-2259.06,-1444.75)">
        <g transform="matrix(4.16667,0,0,4.16667,0,0)">
            <g>
                <clipPath id="_clip1">
                    <rect x="540" y="347.609" width="920" height="920.001"/>
                </clipPath>
                <g clip-path="url(#_clip1)">
                    <path d="M989.13,635.436C958.696,611.087 941.304,574.565 941.304,534.566C941.304,490.218 963.913,449.348 1000.43,425.87C1036.96,449.348 1059.57,491.087 1059.57,534.566C1059.57,573.696 1042.17,611.087 1011.74,635.436L1000.43,497.174L989.13,635.436ZM843.913,638.914C904.783,645.87 952.609,694.566 958.696,755.436C930.87,713.696 876.957,754.566 816.957,706.74C790,685 772.609,652.827 769.13,618.044C815.217,584.131 876.957,583.261 923.913,614.566L925.652,615.436C968.261,644.131 995.217,692.827 996.087,745C996.957,692.827 1023.91,644.131 1066.52,615.436L1068.26,614.566C1115.22,583.261 1177.83,585 1223.04,618.044C1219.57,652.827 1202.17,685 1175.22,706.74C1115.22,754.566 1061.3,714.566 1034.35,755.436C1040.43,694.566 1088.26,645.87 1149.13,638.914C1050.87,648.479 1003.91,722.392 1008.26,859.783C1000.43,859.783 991.739,858.914 983.043,857.174C986.522,721.522 939.565,649.349 842.174,638.914L843.913,638.914ZM1000.44,346.74C1127.39,346.74 1242.17,398.044 1325.65,481.522C1409.13,565 1460.43,679.783 1460.43,806.74C1460.43,822.392 1459.57,837.174 1458.7,851.957C1444.78,852.827 1433.48,852.827 1423.91,852.827C1425.65,838.044 1426.52,822.392 1426.52,806.74C1426.52,689.349 1378.7,583.261 1302.17,505.87C1225.65,429.349 1118.7,381.522 1001.3,381.522C883.913,381.522 776.957,429.349 700.435,505.87C623.913,583.261 576.087,689.349 576.087,806.74C576.087,822.392 576.957,838.044 578.696,852.827C569.13,852.827 557.826,852.827 543.913,851.957C542.174,837.174 542.174,821.522 542.174,806.74C542.174,679.783 593.479,565 676.957,481.522C760.435,398.914 875.217,346.74 1002.17,346.74L1000.44,346.74Z" style="fill:#4f4f4f;"/>
                    <path d="M681.304,846.74C717.826,831.087 754.348,815.435 799.565,815.435C838.696,815.435 875.217,831.087 911.739,846.74C945.652,861.522 978.696,875.435 1010.87,875.435C1043.04,875.435 1076.96,860.653 1110.87,846.74C1148.26,831.087 1184.78,815.435 1223.91,815.435C1261.3,815.435 1296.96,831.087 1332.61,846.74C1390,872.827 1404.78,877.174 1456.96,875.435C1442.17,975.436 1395.22,1065 1327.39,1132.83C1243.91,1216.3 1129.13,1267.61 1002.17,1267.61C875.217,1267.61 760.435,1216.3 676.957,1132.83C609.131,1065 562.174,975.436 547.392,875.435C600.435,878.044 621.305,873.696 683.043,846.74L681.304,846.74ZM980.435,906.74C976.957,920.653 970,931.087 961.305,938.044C937.826,961.522 902.174,969.349 870.87,958.044C850.87,951.087 833.479,951.957 816.087,959.783C789.13,971.087 756.087,1013.7 726.522,980.653C725.652,978.914 723.043,978.914 721.304,979.783C719.565,980.653 718.696,983.261 719.565,985C743.913,1010.22 768.261,1013.7 793.479,993.696C815.217,973.696 834.348,967.609 850,973.696C854.348,975.435 863.913,979.783 863.913,985.87C863.913,987.609 849.13,1002.39 845.652,1006.74C830.87,1028.48 833.479,1047.61 798.696,1050.22C796.957,1050.22 796.087,1051.96 796.087,1053.7C796.087,1055.44 797.826,1056.3 799.565,1056.3C858.696,1065 850,996.305 892.609,991.087C916.087,987.609 923.913,995.435 950.87,981.522C973.479,972.827 982.174,973.696 978.696,985C974.348,999.783 966.522,1017.17 955.218,1037.17C939.565,1066.74 937.826,1092.83 949.13,1114.57C966.522,1148.48 960.435,1175.44 930,1193.7C928.261,1195.44 928.261,1198.04 929.13,1199.78C930.87,1201.52 933.479,1202.39 935.218,1201.52C974.348,1181.52 986.522,1153.7 970.87,1117.17C956.087,1085 958.696,1060.65 978.696,1044.13C988.261,1036.3 995.218,1060.65 1000.44,1066.74C1016.09,1087.61 1040.43,1092.83 1030.87,1131.09C1030,1132.83 1030.87,1134.57 1031.74,1135.44C1032.61,1136.3 1034.35,1137.17 1036.09,1137.17C1037.83,1137.17 1038.7,1135.44 1039.57,1133.7C1046.52,1114.57 1045.65,1098.04 1037.83,1085.87C1020.43,1056.3 988.261,1038.91 1004.78,999.783C1008.26,992.827 1014.35,991.087 1023.04,994.565C1046.52,1000.65 1065.65,1005 1081.3,1006.74C1117.83,1010.22 1137.83,985.87 1161.3,1004.13C1170.87,1011.96 1177.83,1021.52 1182.17,1034.57C1194.35,1070.22 1177.83,1083.26 1225.65,1105C1227.39,1105.87 1230,1105 1231.74,1102.39C1232.61,1100.65 1232.61,1098.04 1230.87,1096.3C1181.3,1071.09 1226.52,1038.04 1188.26,999.783C1186.52,998.044 1186.52,994.566 1188.26,991.957C1190,989.348 1193.48,989.348 1196.09,991.087C1237.83,1016.3 1273.48,1016.3 1303.91,991.087C1306.52,988.479 1306.52,985 1304.78,982.392C1303.04,979.783 1299.57,978.914 1296.96,979.783C1254.35,1003.26 1234.35,985.87 1198.7,968.479C1178.7,958.914 1157.83,958.914 1134.35,970.218C1090.87,986.74 1056.09,977.174 1029.13,938.914C1023.04,930.218 1018.7,919.783 1015.22,908.479C1003.04,908.479 990.87,906.74 979.565,905L980.435,906.74Z" style="fill:#4f4f4f;"/>
                </g>
            </g>
        </g>
    </g>
</svg>
