<?xml version="1.0" encoding="UTF-8"?>
<svg width="162px" height="51px" viewBox="0 0 162 51" version="1.1" xmlns="http://www.w3.org/2000/svg" xmlns:xlink="http://www.w3.org/1999/xlink">
    <g id="Page-1" stroke="none" stroke-width="1" fill="none" fill-rule="evenodd">
        <g id="STYLEGUIDE-desktop" transform="translate(-135.000000, -247.000000)">
            <g id="LOGO" transform="translate(135.000000, 247.000000)">
                <path d="M27.5315,22.5817 C25.4175,20.1717 25.7925,16.3827 28.9275,13.6337 C32.0615,10.8837 39.9735,9.7037 45.9935,16.5667 C52.0125,23.4307 52.2835,35.9397 43.2795,43.8367 C40.3175,46.4337 37.6425,48.0037 35.5525,48.8467 C34.4455,49.2937 34.3375,48.6047 35.1345,48.0557 C35.9525,47.4927 36.7765,46.8477 37.6525,46.0797 C45.5065,39.1917 47.6765,29.0697 41.6755,22.2267 C39.6575,19.9247 37.7705,18.9167 36.5065,18.9357 C36.4995,20.5757 36.0465,21.8677 34.6535,23.0887 C33.2605,24.3097 30.1105,25.5227 27.5315,22.5817" id="Fill-1" fill="#FFCD00"></path>
                <path d="M22.5217,23.1413 C20.1117,25.2553 16.3227,24.8803 13.5737,21.7443 C10.8237,18.6093 9.6427,10.6983 16.5057,4.6793 C23.3707,-1.3407 35.8787,-1.6107 43.7767,7.3933 C46.3737,10.3553 47.9437,13.0293 48.7867,15.1203 C49.2337,16.2273 48.5437,16.3353 47.9957,15.5383 C47.4317,14.7203 46.7877,13.8963 46.0187,13.0203 C39.1307,5.1663 29.0077,2.9963 22.1667,8.9973 C19.8647,11.0153 18.8567,12.9013 18.8757,14.1653 C20.5147,14.1733 21.8067,14.6263 23.0287,16.0193 C24.2497,17.4113 25.4607,20.5623 22.5217,23.1413" id="Fill-3" fill="#A8C13F"></path>
                <path d="M28.0911,27.5915 C30.5001,25.4775 34.2891,25.8525 37.0381,28.9875 C39.7881,32.1235 40.9701,40.0345 34.1061,46.0535 C27.2411,52.0735 14.7331,52.3445 6.8351,43.3395 C4.2381,40.3775 2.6691,37.7035 1.8251,35.6125 C1.3791,34.5055 2.0681,34.3975 2.6161,35.1945 C3.1801,36.0125 3.8241,36.8365 4.5931,37.7125 C11.4811,45.5665 21.6041,47.7365 28.4451,41.7355 C30.7471,39.7175 31.7561,37.8315 31.7371,36.5665 C30.0971,36.5595 28.8051,36.1065 27.5831,34.7135 C26.3621,33.3215 25.1501,30.1705 28.0911,27.5915" id="Fill-5" fill="#E63B3D"></path>
                <path d="M23.0813,28.151 C25.1943,30.561 24.8193,34.35 21.6853,37.099 C18.5493,39.849 10.6383,41.029 4.6183,34.166 C-1.4007,27.302 -1.6727,14.793 7.3333,6.896 C10.2953,4.299 12.9693,2.729 15.0603,1.886 C16.1673,1.439 16.2743,2.128 15.4773,2.677 C14.6593,3.24 13.8363,3.885 12.9603,4.653 C5.1053,11.541 2.9353,21.664 8.9363,28.506 C10.9553,30.808 12.8413,31.816 14.1043,31.797 C14.1123,30.157 14.5653,28.865 15.9593,27.644 C17.3513,26.423 20.5023,25.21 23.0813,28.151" id="Fill-7" fill="#00BAB3"></path>
                <path d="M59.1497,34.8932 L63.3647,34.8932 L64.7777,28.0382 C65.0327,26.8802 65.2167,25.6522 65.4027,24.5412 L65.4957,24.5412 C65.6577,25.6522 65.8417,26.8802 66.0977,28.0382 L67.5797,34.8932 L71.8637,34.8932 L74.5497,19.7932 L71.2847,19.7932 L70.2427,26.8572 C70.0347,28.4082 69.8257,30.0062 69.6177,31.6282 L69.5247,31.6282 C69.2237,30.0062 68.9227,28.3852 68.6217,26.8572 L67.0007,19.7932 L64.1057,19.7932 L62.4847,26.8572 C62.1837,28.4312 61.8817,30.0292 61.5817,31.6282 L61.4887,31.6282 C61.3037,30.0292 61.0717,28.4312 60.8857,26.8572 L59.8437,19.7932 L56.3477,19.7932 L59.1497,34.8932 Z M81.0347,35.1712 C82.4007,35.1712 83.9287,34.6842 85.1107,33.8742 L83.9767,31.8132 C83.1427,32.3222 82.3547,32.5772 81.4987,32.5772 C79.9687,32.5772 78.8117,31.8132 78.5097,30.1452 L85.3877,30.1452 C85.4587,29.8672 85.5277,29.2422 85.5277,28.6402 C85.5277,25.5132 83.9067,23.1282 80.6407,23.1282 C77.8837,23.1282 75.2217,25.4212 75.2217,29.1502 C75.2217,32.9482 77.7467,35.1712 81.0347,35.1712 Z M78.4877,27.8992 C78.7177,26.4402 79.6457,25.7222 80.7107,25.7222 C82.0777,25.7222 82.6327,26.6252 82.6327,27.8992 L78.4877,27.8992 Z M90.5537,35.1712 C91.3177,35.1712 91.8967,35.0552 92.2667,34.8932 L91.8507,32.3692 C91.6647,32.4152 91.5727,32.4152 91.4337,32.4152 C91.1557,32.4152 90.8307,32.1832 90.8307,31.4662 L90.8307,18.6592 L87.4257,18.6592 L87.4257,31.3272 C87.4257,33.6422 88.2127,35.1712 90.5537,35.1712 Z M96.7127,35.1712 C97.4777,35.1712 98.0567,35.0552 98.4267,34.8932 L98.0097,32.3692 C97.8247,32.4152 97.7327,32.4152 97.5927,32.4152 C97.3157,32.4152 96.9917,32.1832 96.9917,31.4662 L96.9917,18.6592 L93.5867,18.6592 L93.5867,31.3272 C93.5867,33.6422 94.3747,35.1712 96.7127,35.1712 Z M99.7477,34.8932 L103.1517,34.8932 L103.1517,23.4062 L99.7477,23.4062 L99.7477,34.8932 Z M101.4377,21.7152 C102.5947,21.7152 103.4067,20.9742 103.4067,19.9322 C103.4067,18.8902 102.5947,18.1722 101.4377,18.1722 C100.3037,18.1722 99.4687,18.8902 99.4687,19.9322 C99.4687,20.9742 100.3037,21.7152 101.4377,21.7152 Z M105.6747,34.8932 L109.0797,34.8932 L109.0797,27.1352 C109.8217,26.4172 110.3537,26.0232 111.2107,26.0232 C112.1837,26.0232 112.6237,26.5322 112.6237,28.2002 L112.6237,34.8932 L116.0277,34.8932 L116.0277,27.7602 C116.0277,24.8892 114.9627,23.1282 112.4617,23.1282 C110.9097,23.1282 109.7517,23.9392 108.7797,24.8652 L108.6867,24.8652 L108.4547,23.4062 L105.6747,23.4062 L105.6747,34.8932 Z M122.5587,39.7802 C126.4957,39.7802 128.9737,38.0432 128.9737,35.6572 C128.9737,33.5962 127.4217,32.7392 124.5967,32.7392 L122.7437,32.7392 C121.4697,32.7392 121.0057,32.4612 121.0057,31.8822 C121.0057,31.4892 121.1227,31.2802 121.4227,31.0262 C121.9337,31.1872 122.3967,31.2572 122.8137,31.2572 C125.3377,31.2572 127.3297,30.0292 127.3297,27.3902 C127.3297,26.7872 127.1677,26.2322 126.9587,25.8842 L128.7887,25.8842 L128.7887,23.4062 L124.5967,23.4062 C124.0867,23.2212 123.4627,23.1282 122.8137,23.1282 C120.3357,23.1282 118.0657,24.5182 118.0657,27.2742 C118.0657,28.6172 118.8077,29.7052 119.6167,30.2612 L119.6167,30.3542 C118.8767,30.8632 118.3207,31.6742 118.3207,32.5082 C118.3207,33.4572 118.7837,34.0592 119.3857,34.4532 L119.3857,34.5462 C118.3207,35.1482 117.7417,35.9122 117.7417,36.8612 C117.7417,38.8992 119.8717,39.7802 122.5587,39.7802 Z M122.8137,29.1962 C121.9097,29.1962 121.2387,28.5472 121.2387,27.2742 C121.2387,26.0462 121.9097,25.4212 122.8137,25.4212 C123.7157,25.4212 124.3877,26.0692 124.3877,27.2742 C124.3877,28.5472 123.7157,29.1962 122.8137,29.1962 Z M123.0907,37.6492 C121.5627,37.6492 120.5437,37.1862 120.5437,36.3292 C120.5437,35.9122 120.7517,35.5652 121.1687,35.1942 C121.5397,35.2872 122.0027,35.3332 122.7907,35.3332 L123.9717,35.3332 C125.1057,35.3332 125.7317,35.5182 125.7317,36.2362 C125.7317,37.0242 124.6197,37.6492 123.0907,37.6492 Z M134.7867,35.1712 C135.8987,35.1712 136.7327,34.9392 137.3337,34.7542 L136.8007,32.2762 C136.5007,32.3922 136.0827,32.5082 135.7127,32.5082 C134.8097,32.5082 134.2307,31.9752 134.2307,30.6782 L134.2307,26.0692 L136.9877,26.0692 L136.9877,23.4062 L134.2307,23.4062 L134.2307,20.3492 L131.4057,20.3492 L131.0107,23.4062 L129.2517,23.5452 L129.2517,26.0692 L130.8267,26.0692 L130.8267,30.7242 C130.8267,33.3882 131.9377,35.1712 134.7867,35.1712 Z M143.2857,35.1712 C146.1817,35.1712 148.8677,32.9712 148.8677,29.1502 C148.8677,25.3282 146.1817,23.1282 143.2857,23.1282 C140.3687,23.1282 137.6817,25.3282 137.6817,29.1502 C137.6817,32.9712 140.3687,35.1712 143.2857,35.1712 Z M143.2857,32.4152 C141.8737,32.4152 141.1787,31.1412 141.1787,29.1502 C141.1787,27.1572 141.8737,25.8842 143.2857,25.8842 C144.6747,25.8842 145.3937,27.1572 145.3937,29.1502 C145.3937,31.1412 144.6747,32.4152 143.2857,32.4152 Z M150.7437,34.8932 L154.1487,34.8932 L154.1487,27.1352 C154.8877,26.4172 155.4207,26.0232 156.2787,26.0232 C157.2517,26.0232 157.6917,26.5322 157.6917,28.2002 L157.6917,34.8932 L161.0947,34.8932 L161.0947,27.7602 C161.0947,24.8892 160.0307,23.1282 157.5297,23.1282 C155.9777,23.1282 154.8197,23.9392 153.8467,24.8652 L153.7537,24.8652 L153.5227,23.4062 L150.7437,23.4062 L150.7437,34.8932 Z" id="Fill-9" fill="#17495B"></path>
                <path d="M63.8625,16.1003 C65.9705,16.1003 67.8005,15.2893 68.8415,14.2713 L68.8415,7.3233 L63.3295,7.3233 L63.3295,10.1023 L65.8305,10.1023 L65.8305,12.6963 C65.4605,12.9973 64.8355,13.1583 64.2095,13.1583 C61.3845,13.1583 59.9715,11.3523 59.9715,8.2493 C59.9715,5.2153 61.6155,3.3863 63.9555,3.3863 C65.2535,3.3863 66.0395,3.9193 66.8045,4.5903 L68.5885,2.4133 C67.5915,1.3943 66.0165,0.4443 63.8405,0.4443 C59.8095,0.4443 56.4745,3.3633 56.4745,8.3643 C56.4745,13.4373 59.7175,16.1003 63.8625,16.1003 Z M71.2265,15.8223 L74.6315,15.8223 L74.6315,9.1523 C75.2335,7.6003 76.2995,7.0453 77.1555,7.0453 C77.6425,7.0453 77.9895,7.1143 78.4065,7.2303 L78.9625,4.2883 C78.6375,4.1493 78.2445,4.0573 77.5955,4.0573 C76.4145,4.0573 75.1645,4.7983 74.3305,6.3503 L74.2375,6.3503 L74.0065,4.3353 L71.2265,4.3353 L71.2265,15.8223 Z M84.8905,16.1003 C86.2585,16.1003 87.7855,15.6143 88.9665,14.8033 L87.8315,12.7423 C86.9985,13.2513 86.2105,13.5063 85.3535,13.5063 C83.8255,13.5063 82.6675,12.7423 82.3665,11.0743 L89.2445,11.0743 C89.3135,10.7963 89.3835,10.1723 89.3835,9.5693 C89.3835,6.4423 87.7625,4.0573 84.4975,4.0573 C81.7415,4.0573 79.0775,6.3503 79.0775,10.0783 C79.0775,13.8773 81.6025,16.1003 84.8905,16.1003 Z M82.3435,8.8283 C82.5755,7.3693 83.5005,6.6513 84.5665,6.6513 C85.9325,6.6513 86.4885,7.5543 86.4885,8.8283 L82.3435,8.8283 Z M93.9235,16.1003 C95.2205,16.1003 96.2855,15.4983 97.2585,14.6413 L97.3505,14.6413 L97.5825,15.8223 L100.3615,15.8223 L100.3615,9.2453 C100.3615,5.7253 98.7395,4.0573 95.7995,4.0573 C93.9925,4.0573 92.3485,4.6833 90.8895,5.5623 L92.1165,7.8093 C93.2285,7.1603 94.1785,6.7673 95.1505,6.7673 C96.4015,6.7673 96.8875,7.4153 96.9575,8.4343 C92.4175,8.8983 90.4955,10.2173 90.4955,12.6263 C90.4955,14.5723 91.8155,16.1003 93.9235,16.1003 Z M95.0815,13.4603 C94.2705,13.4603 93.7615,13.1133 93.7615,12.3713 C93.7615,11.4913 94.5495,10.7963 96.9575,10.4723 L96.9575,12.4873 C96.3545,13.0893 95.8455,13.4603 95.0815,13.4603 Z M106.7765,16.1003 C107.8885,16.1003 108.7225,15.8683 109.3245,15.6833 L108.7915,13.2053 C108.4905,13.3213 108.0735,13.4373 107.7035,13.4373 C106.8005,13.4373 106.2205,12.9043 106.2205,11.6073 L106.2205,6.9983 L108.9775,6.9983 L108.9775,4.3353 L106.2205,4.3353 L106.2205,1.2783 L103.3955,1.2783 L103.0015,4.3353 L101.2415,4.4743 L101.2415,6.9983 L102.8165,6.9983 L102.8165,11.6533 C102.8165,14.3173 103.9275,16.1003 106.7765,16.1003 Z M115.4845,16.1003 C116.8505,16.1003 118.3805,15.6143 119.5605,14.8033 L118.4255,12.7423 C117.5925,13.2513 116.8055,13.5063 115.9485,13.5063 C114.4195,13.5063 113.2615,12.7423 112.9605,11.0743 L119.8395,11.0743 C119.9085,10.7963 119.9775,10.1723 119.9775,9.5693 C119.9775,6.4423 118.3565,4.0573 115.0915,4.0573 C112.3345,4.0573 109.6725,6.3503 109.6725,10.0783 C109.6725,13.8773 112.1955,16.1003 115.4845,16.1003 Z M112.9375,8.8283 C113.1695,7.3693 114.0945,6.6513 115.1605,6.6513 C116.5275,6.6513 117.0835,7.5543 117.0835,8.8283 L112.9375,8.8283 Z M121.8765,15.8223 L125.2815,15.8223 L125.2815,9.1523 C125.8835,7.6003 126.9485,7.0453 127.8055,7.0453 C128.2915,7.0453 128.6395,7.1143 129.0555,7.2303 L129.6115,4.2883 C129.2875,4.1493 128.8935,4.0573 128.2455,4.0573 C127.0645,4.0573 125.8135,4.7983 124.9795,6.3503 L124.8875,6.3503 L124.6555,4.3353 L121.8765,4.3353 L121.8765,15.8223 Z" id="Fill-11" fill="#17495B"></path>
                <path d="M58.6575,50.2472 L60.4405,50.2472 L60.4405,43.8892 L62.5955,43.8892 L62.5955,42.3952 L56.5025,42.3952 L56.5025,43.8892 L58.6575,43.8892 L58.6575,50.2472 Z M65.1975,50.3922 C65.9075,50.3922 66.7025,50.1392 67.3165,49.7172 L66.7265,48.6452 C66.2935,48.9102 65.8845,49.0432 65.4375,49.0432 C64.6425,49.0432 64.0405,48.6452 63.8845,47.7792 L67.4615,47.7792 C67.4975,47.6342 67.5335,47.3082 67.5335,46.9962 C67.5335,45.3692 66.6905,44.1292 64.9925,44.1292 C63.5585,44.1292 62.1755,45.3212 62.1755,47.2612 C62.1755,49.2362 63.4865,50.3922 65.1975,50.3922 Z M63.8725,46.6102 C63.9925,45.8512 64.4745,45.4782 65.0285,45.4782 C65.7385,45.4782 66.0275,45.9482 66.0275,46.6102 L63.8725,46.6102 Z M70.8335,50.2472 L72.6035,50.2472 L72.6035,47.5862 L73.5785,47.5862 C75.2405,47.5862 76.6495,46.7672 76.6495,44.9242 C76.6495,43.0212 75.2535,42.3952 73.5305,42.3952 L70.8335,42.3952 L70.8335,50.2472 Z M72.6035,46.1772 L72.6035,43.8042 L73.4225,43.8042 C74.3865,43.8042 74.9155,44.1052 74.9155,44.9242 C74.9155,45.7432 74.4465,46.1772 73.4705,46.1772 L72.6035,46.1772 Z M78.7205,50.3922 C79.3955,50.3922 79.9495,50.0792 80.4555,49.6332 L80.5045,49.6332 L80.6235,50.2472 L82.0685,50.2472 L82.0685,46.8272 C82.0685,44.9962 81.2265,44.1292 79.6965,44.1292 C78.7575,44.1292 77.9015,44.4542 77.1435,44.9122 L77.7815,46.0802 C78.3595,45.7432 78.8535,45.5382 79.3595,45.5382 C80.0105,45.5382 80.2625,45.8752 80.2995,46.4052 C77.9385,46.6462 76.9385,47.3332 76.9385,48.5852 C76.9385,49.5972 77.6265,50.3922 78.7205,50.3922 Z M79.3225,49.0182 C78.9015,49.0182 78.6365,48.8382 78.6365,48.4532 C78.6365,47.9952 79.0475,47.6342 80.2995,47.4652 L80.2995,48.5132 C79.9855,48.8262 79.7205,49.0182 79.3225,49.0182 Z M83.3205,50.2472 L85.0925,50.2472 L85.0925,46.2132 C85.4765,45.8392 85.7545,45.6352 86.1995,45.6352 C86.7055,45.6352 86.9335,45.9002 86.9335,46.7672 L86.9335,50.2472 L88.7045,50.2472 L88.7045,46.5382 C88.7045,45.0442 88.1505,44.1292 86.8495,44.1292 C86.0425,44.1292 85.4405,44.5512 84.9345,45.0322 L84.8865,45.0322 L84.7665,44.2742 L83.3205,44.2742 L83.3205,50.2472 Z M92.6425,50.3922 C93.3535,50.3922 94.1475,50.1392 94.7615,49.7172 L94.1725,48.6452 C93.7375,48.9102 93.3285,49.0432 92.8835,49.0432 C92.0895,49.0432 91.4865,48.6452 91.3295,47.7792 L94.9065,47.7792 C94.9425,47.6342 94.9785,47.3082 94.9785,46.9962 C94.9785,45.3692 94.1365,44.1292 92.4375,44.1292 C91.0055,44.1292 89.6195,45.3212 89.6195,47.2612 C89.6195,49.2362 90.9325,50.3922 92.6425,50.3922 Z M91.3175,46.6102 C91.4375,45.8512 91.9205,45.4782 92.4735,45.4782 C93.1845,45.4782 93.4735,45.9482 93.4735,46.6102 L91.3175,46.6102 Z M98.2775,50.2472 L99.8675,50.2472 L99.8675,47.3692 C99.8675,46.5982 99.7235,45.4542 99.6395,44.6952 L99.6865,44.6952 L100.3135,46.5622 L101.4335,49.5612 L102.4085,49.5612 L103.5295,46.5622 L104.1675,44.6952 L104.2165,44.6952 C104.1325,45.4542 103.9865,46.5982 103.9865,47.3692 L103.9865,50.2472 L105.5995,50.2472 L105.5995,42.3952 L103.6745,42.3952 L102.4325,45.8872 C102.2765,46.3452 102.1435,46.8512 101.9875,47.3332 L101.9385,47.3332 C101.7825,46.8512 101.6375,46.3452 101.4805,45.8872 L100.2175,42.3952 L98.2775,42.3952 L98.2775,50.2472 Z M108.5755,50.3922 C109.2485,50.3922 109.8035,50.0792 110.3085,49.6332 L110.3575,49.6332 L110.4775,50.2472 L111.9235,50.2472 L111.9235,46.8272 C111.9235,44.9962 111.0795,44.1292 109.5515,44.1292 C108.6105,44.1292 107.7565,44.4542 106.9965,44.9122 L107.6365,46.0802 C108.2145,45.7432 108.7085,45.5382 109.2135,45.5382 C109.8635,45.5382 110.1155,45.8752 110.1525,46.4052 C107.7925,46.6462 106.7925,47.3332 106.7925,48.5852 C106.7925,49.5972 107.4785,50.3922 108.5755,50.3922 Z M109.1775,49.0182 C108.7555,49.0182 108.4905,48.8382 108.4905,48.4532 C108.4905,47.9952 108.8995,47.6342 110.1525,47.4652 L110.1525,48.5132 C109.8405,48.8262 109.5745,49.0182 109.1775,49.0182 Z M115.2595,50.3922 C115.8375,50.3922 116.2705,50.2712 116.5835,50.1752 L116.3055,48.8862 C116.1495,48.9472 115.9325,49.0062 115.7405,49.0062 C115.2705,49.0062 114.9705,48.7292 114.9705,48.0552 L114.9705,45.6592 L116.4025,45.6592 L116.4025,44.2742 L114.9705,44.2742 L114.9705,42.6842 L113.5015,42.6842 L113.2965,44.2742 L112.3815,44.3462 L112.3815,45.6592 L113.1995,45.6592 L113.1995,48.0792 C113.1995,49.4652 113.7775,50.3922 115.2595,50.3922 Z M119.1245,50.3922 C119.9425,50.3922 120.4975,50.0182 121.0035,49.4162 L121.0385,49.4162 L121.1725,50.2472 L122.6165,50.2472 L122.6165,44.2742 L120.8465,44.2742 L120.8465,48.2242 C120.4975,48.6932 120.2315,48.8862 119.7865,48.8862 C119.2685,48.8862 119.0405,48.6092 119.0405,47.7542 L119.0405,44.2742 L117.2695,44.2742 L117.2695,47.9832 C117.2695,49.4762 117.8235,50.3922 119.1245,50.3922 Z M125.4345,50.3922 C126.1085,50.3922 126.6635,50.0792 127.1695,49.6332 L127.2175,49.6332 L127.3385,50.2472 L128.7825,50.2472 L128.7825,46.8272 C128.7825,44.9962 127.9395,44.1292 126.4105,44.1292 C125.4705,44.1292 124.6155,44.4542 123.8565,44.9122 L124.4955,46.0802 C125.0735,45.7432 125.5675,45.5382 126.0725,45.5382 C126.7225,45.5382 126.9755,45.8752 127.0125,46.4052 C124.6515,46.6462 123.6525,47.3332 123.6525,48.5852 C123.6525,49.5972 124.3395,50.3922 125.4345,50.3922 Z M126.0365,49.0182 C125.6145,49.0182 125.3505,48.8382 125.3505,48.4532 C125.3505,47.9952 125.7605,47.6342 127.0125,47.4652 L127.0125,48.5132 C126.6985,48.8262 126.4345,49.0182 126.0365,49.0182 Z M133.8775,50.2472 L135.6595,50.2472 L135.6595,43.8892 L137.8145,43.8892 L137.8145,42.3952 L131.7205,42.3952 L131.7205,43.8892 L133.8775,43.8892 L133.8775,50.2472 Z M139.3925,50.3922 C140.0665,50.3922 140.6205,50.0792 141.1265,49.6332 L141.1755,49.6332 L141.2955,50.2472 L142.7395,50.2472 L142.7395,46.8272 C142.7395,44.9962 141.8965,44.1292 140.3675,44.1292 C139.4285,44.1292 138.5735,44.4542 137.8145,44.9122 L138.4535,46.0802 C139.0305,45.7432 139.5245,45.5382 140.0305,45.5382 C140.6805,45.5382 140.9335,45.8752 140.9705,46.4052 C138.6095,46.6462 137.6105,47.3332 137.6105,48.5852 C137.6105,49.5972 138.2975,50.3922 139.3925,50.3922 Z M139.9945,49.0182 C139.5725,49.0182 139.3075,48.8382 139.3075,48.4532 C139.3075,47.9952 139.7185,47.6342 140.9705,47.4652 L140.9705,48.5132 C140.6565,48.8262 140.3915,49.0182 139.9945,49.0182 Z M143.9925,50.2472 L145.7635,50.2472 L145.7635,44.2742 L143.9925,44.2742 L143.9925,50.2472 Z M144.8715,43.3952 C145.4735,43.3952 145.8955,43.0092 145.8955,42.4672 C145.8955,41.9262 145.4735,41.5522 144.8715,41.5522 C144.2815,41.5522 143.8475,41.9262 143.8475,42.4672 C143.8475,43.0092 144.2815,43.3952 144.8715,43.3952 Z M148.5805,50.3922 C149.2565,50.3922 149.8095,50.0792 150.3145,49.6332 L150.3625,49.6332 L150.4835,50.2472 L151.9285,50.2472 L151.9285,46.8272 C151.9285,44.9962 151.0865,44.1292 149.5555,44.1292 C148.6165,44.1292 147.7615,44.4542 147.0035,44.9122 L147.6415,46.0802 C148.2205,45.7432 148.7135,45.5382 149.2205,45.5382 C149.8695,45.5382 150.1225,45.8752 150.1585,46.4052 C147.7995,46.6462 146.7985,47.3332 146.7985,48.5852 C146.7985,49.5972 147.4845,50.3922 148.5805,50.3922 Z M149.1825,49.0182 C148.7615,49.0182 148.4965,48.8382 148.4965,48.4532 C148.4965,47.9952 148.9055,47.6342 150.1585,47.4652 L150.1585,48.5132 C149.8455,48.8262 149.5805,49.0182 149.1825,49.0182 Z M155.7455,50.3922 C157.2525,50.3922 158.6485,49.2472 158.6485,47.2612 C158.6485,45.2732 157.2525,44.1292 155.7455,44.1292 C154.2285,44.1292 152.8315,45.2732 152.8315,47.2612 C152.8315,49.2472 154.2285,50.3922 155.7455,50.3922 Z M155.7455,48.9582 C155.0115,48.9582 154.6505,48.2962 154.6505,47.2612 C154.6505,46.2252 155.0115,45.5632 155.7455,45.5632 C156.4695,45.5632 156.8425,46.2252 156.8425,47.2612 C156.8425,48.2962 156.4695,48.9582 155.7455,48.9582 Z" id="Fill-13" fill="#17495B"></path>
            </g>
        </g>
    </g>
</svg>