<?xml version="1.0" encoding="UTF-8" standalone="no"?>
<svg width="17px" height="18px" viewBox="0 0 17 18" version="1.1" xmlns="http://www.w3.org/2000/svg">
  <g id="Styles-&amp;-Symbols" stroke="none" stroke-width="1" fill="none" fill-rule="evenodd">
    <g id="Symbols" transform="translate(-767.000000, -1446.000000)">
      <path
        d="M783.673077,1455 C783.673077,1459.51415 780.014154,1463.17308 775.5,1463.17308 C770.985846,1463.17308 767.326923,1459.51415 767.326923,1455 C767.326923,1450.48585 770.985846,1446.82692 775.5,1446.82692 C780.014154,1446.82692 783.673077,1450.48585 783.673077,1455"
        id="Fill-1-Copy-11" fill="#FFFFFF"></path>
      <path
        d="M777.341885,1454.93462 L774.166154,1456.91512 L771.520038,1455.1955 L770.589615,1456.59081 L774.142615,1459.01919 L777.2935,1457.05438 L779.825846,1458.89888 L780.821,1457.53365 L777.341885,1454.93462"
        id="Fill-2-Copy-2" fill="#1FA7AD"></path>
      <path
        d="M774.142615,1455.21773 L777.2935,1453.25292 L779.825846,1455.09742 L780.821,1453.73219 L777.341885,1451.13315 L774.166154,1453.11365 L771.520038,1451.39404 L770.589615,1452.78935 L774.142615,1455.21773"
        id="Fill-3-Copy" fill="#1FA7AD"></path>
    </g>
  </g>
</svg>
