<?xml version="1.0" encoding="UTF-8"?>
<svg width="195px" height="40px" viewBox="0 0 195 40" version="1.1" xmlns="http://www.w3.org/2000/svg" xmlns:xlink="http://www.w3.org/1999/xlink">
    <title>Logo / Reverse</title>
    <g id="Symbols" stroke="none" stroke-width="1" fill="none" fill-rule="evenodd">
        <g id="Nav-/-Light" transform="translate(-233.000000, -35.000000)">
            <g id="Group" transform="translate(230.500000, 34.000000)">
                <g id="MDC_Logo_FullColour" transform="translate(-0.000000, -2.029688)">
                    <polygon id="Path" fill="#4D4D4F" fill-rule="nonzero" points="57.0947917 21.3364583 57.0947917 11.7645833 53.3552083 21.3364583 52.11875 21.3364583 48.38125 11.7645833 48.38125 21.3364583 45.5552083 21.3364583 45.5552083 8.06666667 49.5125 8.06666667 52.7385417 16.365625 55.9614583 8.06666667 59.940625 8.06666667 59.940625 21.3364583 57.0947917 21.3364583"></polygon>
                    <path d="M68.0583333,10.8916667 L65.990625,16.6020833 L70.128125,16.6020833 L68.0583333,10.8916667 L68.0583333,10.8916667 Z M71.740625,21.3364583 L70.9072917,19.0885417 L65.2197917,19.0885417 L64.3864583,21.3364583 L61.178125,21.3364583 L66.2875,8.07083333 L69.8291667,8.07083333 L74.94375,21.340625 L71.740625,21.3364583 Z" id="Shape" fill="#4D4D4F" fill-rule="nonzero"></path>
                    <path d="M83.9583333,12.3239583 C83.9583333,11.23125 83.1052083,10.553125 81.9895833,10.553125 L79.003125,10.553125 L79.003125,14.1354167 L81.9864583,14.1354167 C83.1020833,14.1354167 83.9552083,13.4583333 83.9552083,12.3239583 L83.9583333,12.3239583 Z M83.6822917,21.3364583 L81.078125,16.621875 L79.003125,16.621875 L79.003125,21.3364583 L76.1770833,21.3364583 L76.1770833,8.07083333 L82.3875,8.07083333 C85.15,8.07083333 86.8666667,9.884375 86.8666667,12.346875 C86.8666667,14.678125 85.375,15.9479167 83.95,16.2854167 L86.9520833,21.340625 L83.6822917,21.3364583 Z" id="Shape" fill="#4D4D4F" fill-rule="nonzero"></path>
                    <polygon id="Path" fill="#4D4D4F" fill-rule="nonzero" points="88.85 21.3364583 88.85 8.06666667 91.6947917 8.06666667 91.6947917 18.8479167 97.3072917 18.8479167 97.3072917 21.3364583 88.85 21.3364583"></polygon>
                    <path d="M107.395833,17.3416667 C107.395833,16.5083333 106.8,15.83125 105.707292,15.83125 L102.041667,15.83125 L102.041667,18.8520833 L105.704167,18.8520833 C106.759375,18.8520833 107.392708,18.2989583 107.392708,17.3416667 L107.395833,17.3416667 Z M107.142708,11.9520833 C107.142708,11.1354167 106.539583,10.5572917 105.590625,10.5572917 L102.048958,10.5572917 L102.048958,13.3447917 L105.590625,13.3447917 C106.539583,13.3447917 107.142708,12.80625 107.142708,11.9520833 Z M99.2260417,21.340625 L99.2260417,8.07083333 L106.205208,8.07083333 C108.733333,8.07083333 110.026042,9.68229167 110.026042,11.4541667 C110.026042,13.1041667 108.984375,14.2354167 107.734375,14.4958333 C109.164583,14.7166667 110.279167,16.0885417 110.279167,17.7395833 C110.279167,19.7479167 108.967708,21.340625 106.41875,21.340625 L99.2260417,21.340625 Z" id="Shape" fill="#4D4D4F" fill-rule="nonzero"></path>
                    <path d="M122.738542,14.7125 C122.738542,12.2270833 121.163542,10.3572917 118.71875,10.3572917 C116.247917,10.3572917 114.675,12.2322917 114.675,14.7125 C114.675,17.1791667 116.247917,19.06875 118.71875,19.06875 C121.163542,19.06875 122.738542,17.1791667 122.738542,14.7125 Z M111.773958,14.7125 C111.773958,10.7135417 114.697917,7.84791667 118.71875,7.84791667 C122.714583,7.84791667 125.638542,10.7135417 125.638542,14.7125 C125.638542,18.7114583 122.714583,21.5760417 118.71875,21.5760417 C114.697917,21.5760417 111.773958,18.7125 111.773958,14.7125 Z" id="Shape" fill="#4D4D4F" fill-rule="nonzero"></path>
                    <path d="M135.410417,12.3239583 C135.410417,11.23125 134.554167,10.553125 133.440625,10.553125 L130.457292,10.553125 L130.457292,14.1354167 L133.4375,14.1354167 C134.551042,14.1354167 135.407292,13.4583333 135.407292,12.3239583 L135.410417,12.3239583 Z M135.133333,21.3364583 L132.529167,16.621875 L130.4625,16.621875 L130.4625,21.3364583 L127.6375,21.3364583 L127.6375,8.07083333 L133.844792,8.07083333 C136.607292,8.07083333 138.323958,9.884375 138.323958,12.346875 C138.323958,14.678125 136.834375,15.9479167 135.407292,16.2854167 L138.410417,21.340625 L135.133333,21.3364583 Z" id="Shape" fill="#4D4D4F" fill-rule="nonzero"></path>
                    <path d="M150.752083,14.7125 C150.752083,12.2270833 149.179167,10.3572917 146.729167,10.3572917 C144.279167,10.3572917 142.691667,12.2322917 142.691667,14.7125 C142.691667,17.1791667 144.263542,19.06875 146.729167,19.06875 C149.194792,19.06875 150.752083,17.1791667 150.752083,14.7125 Z M139.7875,14.7125 C139.7875,10.7135417 142.711458,7.84791667 146.729167,7.84791667 C150.729167,7.84791667 153.652083,10.7135417 153.652083,14.7125 C153.652083,18.7114583 150.729167,21.5760417 146.729167,21.5760417 C142.711458,21.5760417 139.7875,18.7125 139.7875,14.7125 Z" id="Shape" fill="#4D4D4F" fill-rule="nonzero"></path>
                    <path d="M155.646875,16.021875 L155.646875,8.07083333 L158.509375,8.07083333 L158.509375,15.9479167 C158.509375,17.8 159.582292,19.0729167 161.634375,19.0729167 C163.686458,19.0729167 164.738542,17.8 164.738542,15.9479167 L164.738542,8.07083333 L167.623958,8.07083333 L167.623958,16.0260417 C167.623958,19.3135417 165.673958,21.5802083 161.634375,21.5802083 C157.594792,21.5802083 155.646875,19.3135417 155.646875,16.0260417 L155.646875,16.021875 Z" id="Path" fill="#4D4D4F" fill-rule="nonzero"></path>
                    <path d="M169.611458,14.7125 C169.611458,10.5145833 172.794792,7.84791667 176.694792,7.84791667 C179.442708,7.84791667 181.173958,9.23958333 182.164583,10.8125 L179.839583,12.084375 C179.220833,11.146875 178.088542,10.3572917 176.694792,10.3572917 C174.269792,10.3572917 172.517708,12.2052083 172.517708,14.7125 C172.517708,17.2197917 174.269792,19.06875 176.694792,19.06875 C177.866667,19.06875 178.965625,18.5479167 179.5,18.05625 L179.5,16.4635417 L176,16.4635417 L176,13.9947917 L182.325,13.9947917 L182.325,19.0885417 C180.970833,20.6 179.083333,21.5760417 176.7,21.5760417 C172.8,21.5760417 169.616667,18.890625 169.616667,14.7125 L169.611458,14.7125 Z" id="Path" fill="#4D4D4F" fill-rule="nonzero"></path>
                    <polygon id="Path" fill="#4D4D4F" fill-rule="nonzero" points="193.665625 21.3364583 193.665625 15.746875 187.4 15.746875 187.4 21.3364583 184.573958 21.3364583 184.573958 8.06666667 187.4 8.06666667 187.4 13.2791667 193.665625 13.2791667 193.665625 8.06666667 196.5125 8.06666667 196.5125 21.3364583 193.665625 21.3364583"></polygon>
                    <path d="M53.4635417,32.2270833 C53.4635417,30.225 52.23125,28.6625 49.9010417,28.6625 L47.80625,28.6625 L47.80625,35.8104167 L49.8822917,35.8104167 C52.1416667,35.8104167 53.4635417,34.1833333 53.4635417,32.2270833 L53.4635417,32.2270833 Z M45.3760417,37.95625 L45.3760417,26.5229167 L49.8822917,26.5229167 C53.4635417,26.5229167 55.9458333,28.803125 55.9458333,32.2270833 C55.9458333,35.6895833 53.4635417,37.95625 49.9041667,37.95625 L45.3760417,37.95625 Z" id="Shape" fill="#4D4D4F" fill-rule="nonzero"></path>
                    <polygon id="Path" fill="#4D4D4F" fill-rule="nonzero" points="57.678125 37.9510417 57.678125 26.5229167 60.1114583 26.5229167 60.1114583 37.9510417 57.678125 37.9510417"></polygon>
                    <path d="M61.5791667,36.3427083 L62.9166667,34.4416667 C63.8642985,35.4351689 65.1759943,35.99942 66.5489583,36.0041667 C67.903125,36.0041667 68.5375,35.403125 68.5375,34.7354167 C68.5375,32.7489583 61.9583333,34.134375 61.9583333,29.834375 C61.9583333,27.93125 63.6,26.3520833 66.29375,26.3520833 C68.109375,26.3520833 69.6177083,26.903125 70.7520833,27.946875 L69.3979167,29.7645833 C68.4729167,28.909375 67.2375,28.5145833 66.0729167,28.5145833 C65.0447917,28.5145833 64.4614583,28.9614583 64.4614583,29.64375 C64.4614583,31.446875 71.0239583,30.2302083 71.0239583,34.49375 C71.0239583,36.5864583 69.5166667,38.1635417 66.440625,38.1635417 C64.2291667,38.1635417 62.6541667,37.4260417 61.5708333,36.3479167 L61.5791667,36.3427083 Z" id="Path" fill="#4D4D4F" fill-rule="nonzero"></path>
                    <polygon id="Path" fill="#4D4D4F" fill-rule="nonzero" points="75.0677083 37.9510417 75.0677083 28.6625 71.7260417 28.6625 71.7260417 26.5229167 80.84375 26.5229167 80.84375 28.6625 77.5166667 28.6625 77.5166667 37.9510417 75.0677083 37.9510417"></polygon>
                    <path d="M89.1020833,30.1875 C89.1020833,29.2447917 88.3645833,28.6625 87.403125,28.6625 L84.83125,28.6625 L84.83125,31.7479167 L87.403125,31.7479167 C88.3645833,31.7479167 89.1020833,31.165625 89.1020833,30.1854167 L89.1020833,30.1875 Z M88.8604167,37.9510417 L86.6166667,33.8885417 L84.83125,33.8885417 L84.83125,37.9510417 L82.3958333,37.9510417 L82.3958333,26.5229167 L87.7416667,26.5229167 C90.1260417,26.5229167 91.5958333,28.0802083 91.5958333,30.2052083 C91.5958333,32.209375 90.309375,33.3072917 89.0770833,33.6010417 L91.6666667,37.9510417 L88.8604167,37.9510417 Z" id="Shape" fill="#4D4D4F" fill-rule="nonzero"></path>
                    <polygon id="Path" fill="#4D4D4F" fill-rule="nonzero" points="93.4166667 37.9510417 93.4166667 26.5229167 95.85 26.5229167 95.85 37.9510417 93.4166667 37.9510417"></polygon>
                    <path d="M97.5645833,32.246875 C97.5645833,28.715625 100.217708,26.3333333 103.663542,26.3333333 C106.163542,26.3333333 107.621875,27.6875 108.428125,29.125 L106.338542,30.1541667 C105.857292,29.2302083 104.828125,28.4875 103.663542,28.4875 C101.570833,28.4875 100.066667,30.0833333 100.066667,32.2447917 C100.066667,34.40625 101.570833,35.9947917 103.663542,35.9947917 C104.828125,35.9947917 105.857292,35.2583333 106.338542,34.3333333 L108.428125,35.340625 C107.623958,36.7666667 106.163542,38.153125 103.663542,38.153125 C100.217708,38.153125 97.5645833,35.7572917 97.5645833,32.2416667 L97.5645833,32.246875 Z" id="Path" fill="#4D4D4F" fill-rule="nonzero"></path>
                    <polygon id="Path" fill="#4D4D4F" fill-rule="nonzero" points="112.521875 37.9510417 112.521875 28.6625 109.18125 28.6625 109.18125 26.5229167 118.297917 26.5229167 118.297917 28.6625 114.970833 28.6625 114.970833 37.9510417 112.521875 37.9510417"></polygon>
                    <path d="M122.420833,32.246875 C122.420833,28.715625 125.073958,26.3333333 128.51875,26.3333333 C131.01875,26.3333333 132.477083,27.6875 133.283333,29.125 L131.19375,30.1541667 C130.7125,29.2302083 129.685417,28.4875 128.51875,28.4875 C126.428125,28.4875 124.920833,30.0833333 124.920833,32.2447917 C124.920833,34.40625 126.428125,35.9947917 128.51875,35.9947917 C129.685417,35.9947917 130.7125,35.2583333 131.19375,34.3333333 L133.283333,35.340625 C132.479167,36.7666667 131.020833,38.153125 128.51875,38.153125 C125.073958,38.153125 122.420833,35.7572917 122.420833,32.2416667 L122.420833,32.246875 Z" id="Path" fill="#4D4D4F" fill-rule="nonzero"></path>
                    <path d="M143.633333,32.246875 C143.633333,30.1041667 142.279167,28.4895833 140.173958,28.4895833 C138.045833,28.4895833 136.692708,30.1041667 136.692708,32.246875 C136.692708,34.3697917 138.046875,35.996875 140.173958,35.996875 C142.279167,35.996875 143.633333,34.3666667 143.633333,32.246875 Z M134.190625,32.246875 C134.190625,28.803125 136.708333,26.3333333 140.173958,26.3333333 C143.611458,26.3333333 146.134375,28.803125 146.134375,32.246875 C146.134375,35.690625 143.616667,38.1583333 140.173958,38.1583333 C136.708333,38.1583333 134.190625,35.6895833 134.190625,32.246875 Z" id="Shape" fill="#4D4D4F" fill-rule="nonzero"></path>
                    <path d="M147.844792,33.3833333 L147.844792,26.5229167 L150.3125,26.5229167 L150.3125,33.3072917 C150.3125,34.9010417 151.238542,36 153.002083,36 C154.765625,36 155.678125,34.9010417 155.678125,33.3072917 L155.678125,26.5229167 L158.161458,26.5229167 L158.161458,33.3833333 C158.161458,36.2083333 156.484375,38.1635417 153.002083,38.1635417 C149.519792,38.1635417 147.84375,36.2083333 147.84375,33.3833333 L147.844792,33.3833333 Z" id="Path" fill="#4D4D4F" fill-rule="nonzero"></path>
                    <polygon id="Path" fill="#4D4D4F" fill-rule="nonzero" points="168.30625 37.9510417 162.854167 30.4979167 162.854167 37.9510417 160.422917 37.9510417 160.422917 26.5229167 162.925 26.5229167 168.217708 33.703125 168.217708 26.5229167 170.653125 26.5229167 170.653125 37.9510417 168.30625 37.9510417"></polygon>
                    <path d="M172.366667,32.246875 C172.366667,28.715625 175.017708,26.3333333 178.461458,26.3333333 C180.961458,26.3333333 182.419792,27.6875 183.229167,29.125 L181.1375,30.1541667 C180.658333,29.2302083 179.626042,28.4875 178.461458,28.4875 C176.378125,28.4875 174.864583,30.0833333 174.864583,32.2447917 C174.864583,34.40625 176.375,35.9947917 178.461458,35.9947917 C179.626042,35.9947917 180.658333,35.2583333 181.1375,34.3333333 L183.229167,35.340625 C182.421875,36.7666667 180.965625,38.153125 178.461458,38.153125 C175.017708,38.153125 172.366667,35.7572917 172.366667,32.2416667 L172.366667,32.246875 Z" id="Path" fill="#4D4D4F" fill-rule="nonzero"></path>
                    <polygon id="Path" fill="#4D4D4F" fill-rule="nonzero" points="184.682292 37.9510417 184.682292 26.5229167 187.116667 26.5229167 187.116667 37.9510417 184.682292 37.9510417"></polygon>
                    <polygon id="Path" fill="#4D4D4F" fill-rule="nonzero" points="189.275 37.9510417 189.275 26.5229167 191.723958 26.5229167 191.723958 35.8104167 196.557292 35.8104167 196.557292 37.9510417 189.275 37.9510417"></polygon>
                    <rect id="Rectangle" fill="#4D4D4F" fill-rule="nonzero" x="39.415625" y="4.43020833" width="1" height="36.9083333"></rect>
                    <path d="M13.203125,24.1625 C9.99431646,21.7420183 8.14765272,17.9242591 8.24202712,13.906016 C8.33640152,9.8877729 10.3602617,6.16091868 13.6791667,3.89375 C9.02299318,4.97083596 5.68811581,9.06558752 5.57590184,13.8433981 C5.46368787,18.6212086 8.60265155,22.868008 13.203125,24.1625 L13.203125,24.1625 Z" id="Path" fill="#F79420" fill-rule="nonzero"></path>
                    <path d="M12.0083333,6.99583333 C9.60086895,9.96599081 9.00722682,14.0136234 10.4604167,17.55 C10.3918604,13.5328424 12.262593,9.72862472 15.4859827,7.33028898 C18.7093723,4.93195324 22.8906933,4.23319176 26.71875,5.453125 C24.5639412,3.70576512 21.8029523,2.88655535 19.0438326,3.17590928 C16.2847128,3.46526322 13.7537494,4.83944973 12.0083333,6.99583333 Z" id="Path" fill="#F79420" fill-rule="nonzero"></path>
                    <path d="M13.9729167,11.3260417 C17.0968805,8.79722899 21.2477399,7.92814146 25.1237793,8.99132619 C28.9998188,10.0545109 32.1263606,12.9197654 33.5229167,16.6885417 C33.6053818,11.9097112 30.4388636,7.68252533 25.8295757,6.41821298 C21.2202878,5.15390063 16.3401809,7.17392403 13.9729167,11.3260417 Z" id="Path" fill="#F79420" fill-rule="nonzero"></path>
                    <path d="M25.5614583,22.2979167 C23.7362462,25.8789356 20.2974488,28.3611724 16.3238633,28.9659158 C12.3502779,29.5706592 8.32872984,28.2238188 5.52083333,25.3479167 C7.38754072,29.7472819 11.998727,32.3218842 16.7233199,31.6026948 C21.4479127,30.8835054 25.084167,27.053457 25.5572917,22.2979167 L25.5614583,22.2979167 Z" id="Path" fill="#F79420" fill-rule="nonzero"></path>
                    <path d="M21.046875,10.2583333 C24.9637446,11.1608848 28.2055398,13.895873 29.7547316,17.6048447 C31.3039234,21.3138165 30.9705965,25.5420891 28.859375,28.9625 C32.6771747,26.085951 34.0592892,20.9872925 32.2169214,16.5764184 C30.3745537,12.1655443 25.776469,9.56474131 21.046875,10.2583333 Z" id="Path" fill="#F79420" fill-rule="nonzero"></path>
                    <path d="M26.2416667,15.1770833 C27.4866615,17.8302651 27.7480538,20.8395998 26.9791667,23.6677083 C25.6491644,28.6326383 21.4132489,32.2757654 16.3052083,32.8479167 C20.9220504,34.0847907 25.7901042,32.035288 28.1320303,27.8686982 C30.4739563,23.7021084 29.6941462,18.4780961 26.2375,15.1770833 L26.2416667,15.1770833 Z" id="Path" fill="#F79420" fill-rule="nonzero"></path>
                    <path d="M9.484375,26.934375 C12.9498531,28.5541902 17.0234357,28.1510274 20.1041667,25.8833333 C16.2220335,26.924968 12.0758338,26.0317696 8.96693243,23.4840858 C5.85803109,20.936402 4.16753596,17.0465431 4.42604167,13.0354167 C3.25246236,15.5491364 3.12613657,18.426245 4.07488358,21.0331501 C5.02363059,23.6400553 6.96964371,25.7629648 9.484375,26.934375 L9.484375,26.934375 Z" id="Path" fill="#F79420" fill-rule="nonzero"></path>
                    <path d="M10.90625,37.76875 C7.91777493,35.9784167 5.65914397,33.18843 4.53020833,29.8927083 C4.34494985,34.435882 6.65736346,38.7170639 10.5583333,41.053125 C16.4427083,44.5947917 26.2020833,42.48125 28.8583333,38.059375 C24.8104167,40.7135417 16.31875,41.01875 10.90625,37.76875 L10.90625,37.76875 Z" id="Path" fill="#0079C1" fill-rule="nonzero"></path>
                    <path d="M16.7895833,35.4666667 C12.51875,35.3072917 9.22291667,33.6427083 7.37083333,32.1802083 C9.06458333,35.5489583 13.6208333,38.2791667 19.190625,38.3739583 C30.1833333,38.5625 34.4822917,29.2072917 34.5666667,24.55 C33.340625,29.0291667 28.1822917,35.8947917 16.7895833,35.4666667 L16.7895833,35.4666667 Z" id="Path" fill="#0079C1" fill-rule="nonzero"></path>
                    <rect id="Rectangle" x="0" y="0" width="200" height="46.059375"></rect>
                </g>
            </g>
        </g>
    </g>
</svg>