<?xml version="1.0" encoding="UTF-8"?>
<svg xmlns="http://www.w3.org/2000/svg" viewBox="0 0 198 93">
  <defs>
    <style>
      .cls-1 {
        fill: #ffe000;
      }

      .cls-2 {
        fill: #0b3e61;
      }
    </style>
  </defs>
  <g id="Layer_1" data-name="Layer 1">
    <g>
      <path class="cls-2" d="M103.35,17.33c0,5.94-3.94,9.73-8.85,9.73-5.47,0-8.61-4.18-8.61-9,0-5.94,3.97-9.73,8.87-9.73,5.45,0,8.59,4.18,8.59,9Zm-3.58,.54c0-4.2-1.61-7.97-5.45-7.97-3.29,0-4.85,3.32-4.85,7.6s1.63,7.97,5.45,7.97c3.29,0,4.85-3.32,4.85-7.6Z"/>
      <path class="cls-2" d="M110.66,12.89h3.81v1.56h-3.81v8.74c0,1.38,.6,1.87,1.92,1.87,.73,0,1.58-.21,2.23-.54l.34,.8c-.99,1.06-2.41,1.74-4.2,1.74-2.08,0-3.4-.99-3.4-3.37V14.45h-1.87v-.99c1.45-.75,2.85-1.97,4.05-3.63h.93v3.06Z"/>
      <path class="cls-2" d="M128.05,23.4c0,1.04,.34,1.63,1.06,1.63,.23,0,.8-.05,1.19-.16l.16,.83c-.88,.88-1.87,1.35-2.96,1.35-1.38,0-2.13-.96-2.44-2.36-.91,1.09-2.31,2.34-4.28,2.34-2.31,0-3.5-1.56-3.5-3.55,0-2.39,1.84-3.22,3.58-3.81l4.13-1.48v-1.38c0-1.69-.52-2.83-2.23-2.83-1.27,0-1.89,.62-1.89,1.82,0,.49,.05,.93,.18,1.48l-2.28,.34c-.49-.34-.73-.83-.73-1.53,0-2.26,2.21-3.45,5.19-3.45,3.19,0,4.9,1.43,4.9,4.75,0,.62-.08,5.21-.08,6.02Zm-3.06,.6v-4.54l-3.04,1.17c-.96,.36-1.5,1.06-1.5,2.05,0,1.43,.7,2.23,1.95,2.23,1.01,0,1.71-.29,2.59-.91Z"/>
      <path class="cls-2" d="M135.8,21.45c-.7,.73-.96,1.17-.96,1.69,0,.54,.31,.75,.86,.75h5.99c2.54,0,3.97,1.04,3.97,3.29,0,3.04-3.17,4.98-7.71,4.98-3.81,0-6.07-1.04-6.07-3.17,0-1.4,1.22-2.08,2.39-2.52-1.04-.39-1.61-1.06-1.61-2.15,0-1.3,1.04-2.28,2.49-3.19-1.38-.7-2.34-1.92-2.34-3.74,0-2.96,2.36-4.77,5.58-4.77,.96,0,1.76,.18,2.41,.42l4.72-.29v1.95h-1.01l-2.46-.54v.16c1.04,.6,1.79,1.63,1.79,2.98,0,2.78-2.26,4.54-5.55,4.54-.86,0-1.71-.13-2.49-.39Zm-1.04,5.4c-.39,.39-.52,.88-.52,1.38,0,1.84,1.66,2.59,4.07,2.59,2.78,0,4.8-.83,4.8-2.62,0-1.09-.73-1.35-1.92-1.35h-6.43Zm6.05-9.34c0-2.02-.96-3.66-2.67-3.66-1.56,0-2.26,1.27-2.26,3.17,0,2,.91,3.66,2.65,3.66,1.56,0,2.28-1.27,2.28-3.17Z"/>
      <path class="cls-2" d="M147.22,20.11c0-4.54,3.01-7.47,6.8-7.47,4,0,6.59,2.96,6.59,6.95,0,4.54-3.04,7.47-6.82,7.47-4,0-6.56-2.96-6.56-6.95Zm10.14,.13c0-3.37-1.35-6.12-3.68-6.12-2.15,0-3.22,2.18-3.22,5.34,0,3.37,1.32,6.1,3.68,6.1,2.13,0,3.22-2.15,3.22-5.32Z"/>
    </g>
    <g>
      <path class="cls-2" d="M95.19,38.72c4.7,0,6.8,2.08,6.8,5.16,0,2.75-2.26,4.41-4.59,4.75l3.94,5.21c.86,1.17,1.79,1.79,3.17,1.84v1.25h-4.38c-.88-.62-1.48-1.27-2.28-2.46l-3.84-5.34h-1.27v4.7c0,1.53,.73,1.82,2.41,1.87v1.25h-8.17v-1.25c1.74-.05,2.46-.34,2.46-1.87v-12.01c0-1.5-.73-1.79-2.46-1.82v-1.27h8.22Zm-2.46,1.4v7.68h1.43c2.98,0,4.38-1.3,4.38-3.92,0-2.23-1.4-3.76-4.46-3.76h-1.35Z"/>
      <path class="cls-2" d="M117.5,48.61v.86h-9.05c0,3.14,1.76,5.24,4.51,5.24,1.84,0,3.06-.86,4-2.1l.57,.34c-.65,2.52-2.62,4.25-5.66,4.25-3.81,0-6.23-2.88-6.23-6.77,0-4.59,2.8-7.65,6.49-7.65s5.37,2.49,5.37,5.84Zm-8.98-.47h6.05c0-2.39-.96-3.94-2.85-3.94s-2.98,1.84-3.19,3.94Z"/>
      <path class="cls-2" d="M123.49,51.59c-.7,.73-.96,1.17-.96,1.69,0,.54,.31,.75,.86,.75h5.99c2.54,0,3.97,1.04,3.97,3.29,0,3.04-3.17,4.98-7.71,4.98-3.81,0-6.07-1.04-6.07-3.17,0-1.4,1.22-2.08,2.39-2.52-1.04-.39-1.61-1.06-1.61-2.15,0-1.3,1.04-2.28,2.49-3.19-1.38-.7-2.34-1.92-2.34-3.74,0-2.96,2.36-4.77,5.58-4.77,.96,0,1.76,.18,2.41,.42l4.72-.29v1.95h-1.01l-2.46-.54v.16c1.04,.6,1.79,1.63,1.79,2.98,0,2.78-2.26,4.54-5.55,4.54-.86,0-1.71-.13-2.49-.39Zm-1.04,5.4c-.39,.39-.52,.88-.52,1.38,0,1.84,1.66,2.59,4.07,2.59,2.78,0,4.8-.83,4.8-2.62,0-1.09-.73-1.35-1.92-1.35h-6.43Zm6.05-9.34c0-2.02-.96-3.66-2.67-3.66-1.56,0-2.26,1.27-2.26,3.17,0,2,.91,3.66,2.65,3.66,1.56,0,2.28-1.27,2.28-3.17Z"/>
      <path class="cls-2" d="M140.54,54.29c0,1.19,.7,1.32,1.87,1.48v1.17h-6.88v-1.17c1.14-.16,1.87-.29,1.87-1.48v-8.51l-1.74-1.09v-.62l4.15-1.3h.73v11.52Zm-3.66-15.02c0-1.06,.83-1.95,2-1.95s1.97,.88,1.97,1.95-.83,1.95-1.97,1.95-2-.88-2-1.95Z"/>
      <path class="cls-2" d="M144.38,50.24c0-4.54,3.01-7.47,6.8-7.47,4,0,6.59,2.96,6.59,6.95,0,4.54-3.04,7.47-6.82,7.47-4,0-6.56-2.96-6.56-6.95Zm10.14,.13c0-3.37-1.35-6.12-3.68-6.12-2.15,0-3.22,2.18-3.22,5.34,0,3.37,1.32,6.1,3.68,6.1,2.13,0,3.22-2.15,3.22-5.32Z"/>
      <path class="cls-2" d="M170.11,47.29c0-1.61-.65-2.26-2.18-2.26-1.22,0-2.52,.49-3.4,1.12v8.15c0,1.19,.65,1.32,1.82,1.48v1.17h-6.82v-1.17c1.14-.16,1.87-.29,1.87-1.48v-8.46l-1.74-1.12v-.65l4.15-1.35h.73v2.65c1.19-1.25,2.8-2.59,4.98-2.59,2.34,0,3.74,1.27,3.74,4.25v7.26c0,1.19,.7,1.32,1.87,1.48v1.17h-6.85v-1.17c1.17-.16,1.84-.29,1.84-1.48v-7.01Z"/>
      <path class="cls-2" d="M187.16,53.54c0,1.04,.34,1.63,1.06,1.63,.23,0,.8-.05,1.19-.16l.16,.83c-.88,.88-1.87,1.35-2.96,1.35-1.38,0-2.13-.96-2.44-2.36-.91,1.09-2.31,2.34-4.28,2.34-2.31,0-3.5-1.56-3.5-3.55,0-2.39,1.84-3.22,3.58-3.81l4.13-1.48v-1.38c0-1.69-.52-2.83-2.23-2.83-1.27,0-1.89,.62-1.89,1.82,0,.49,.05,.93,.18,1.48l-2.28,.34c-.49-.34-.73-.83-.73-1.53,0-2.26,2.21-3.45,5.19-3.45,3.19,0,4.9,1.43,4.9,4.75,0,.62-.08,5.21-.08,6.02Zm-3.06,.6v-4.54l-3.04,1.17c-.96,.36-1.5,1.06-1.5,2.05,0,1.43,.7,2.23,1.95,2.23,1.01,0,1.71-.29,2.59-.91Z"/>
      <path class="cls-2" d="M196.13,54.29c0,1.19,.73,1.32,1.87,1.48v1.17h-6.88v-1.17c1.17-.16,1.89-.29,1.89-1.48v-14.11l-1.76-1.12v-.65l4.18-1.22h.7v17.1Z"/>
    </g>
    <g>
      <path class="cls-2" d="M100.24,80.42h1.43l-.54,4.59c-1.63,.91-3.45,1.5-6.17,1.5-5.42,0-8.85-3.76-8.85-8.98,0-6.05,4.05-9.76,9.16-9.76,2.65,0,4.54,.7,5.79,1.71v4.05h-1.4c-.7-2.88-2.18-4.25-4.51-4.25-3.84,0-5.42,3.48-5.42,7.5,0,4.7,1.95,8.2,5.76,8.2,2.46,0,3.81-1.53,4.77-4.57Z"/>
      <path class="cls-2" d="M103.97,79.56c0-4.54,3.01-7.47,6.8-7.47,4,0,6.59,2.96,6.59,6.95,0,4.54-3.04,7.47-6.82,7.47-4,0-6.56-2.96-6.56-6.95Zm10.14,.13c0-3.37-1.35-6.12-3.68-6.12-2.15,0-3.22,2.18-3.22,5.34,0,3.37,1.32,6.1,3.68,6.1,2.13,0,3.22-2.15,3.22-5.32Z"/>
      <path class="cls-2" d="M128.7,83.97c-1.17,1.22-2.65,2.54-4.83,2.54s-3.74-1.27-3.74-4.31v-6.8c0-.88-.26-1.22-1.38-1.4l-.42-.08v-1.06l4.41-.78h.54v9.73c0,1.71,.67,2.49,2.15,2.49,1.25,0,2.34-.49,3.24-1.09v-7.81c0-.88-.26-1.22-1.38-1.4l-.39-.08v-1.06l4.36-.78h.57v11.08c0,.88,.23,1.14,1.3,1.25l.65,.05v1.17l-4.54,.88h-.57v-2.54Z"/>
      <path class="cls-2" d="M146.81,76.61c0-1.61-.65-2.26-2.18-2.26-1.22,0-2.52,.49-3.4,1.12v8.15c0,1.19,.65,1.32,1.82,1.48v1.17h-6.82v-1.17c1.14-.16,1.87-.29,1.87-1.48v-8.46l-1.74-1.12v-.65l4.15-1.35h.73v2.65c1.19-1.25,2.8-2.59,4.98-2.59,2.34,0,3.74,1.27,3.74,4.25v7.26c0,1.19,.7,1.32,1.87,1.48v1.17h-6.85v-1.17c1.17-.16,1.84-.29,1.84-1.48v-7.01Z"/>
      <path class="cls-2" d="M160.24,84.03c1.69,0,2.85-.75,3.81-2.1l.6,.36c-.8,2.88-2.78,4.23-5.53,4.23-3.63,0-6.1-2.75-6.1-6.75,0-4.23,2.72-7.68,6.88-7.68,2.72,0,4.59,1.25,4.59,3.37,0,.96-.47,1.43-1.06,1.69h-1.69v-1.01c0-1.48-.62-2.59-2.18-2.59-2.15,0-3.68,2.02-3.68,4.93,0,3.32,1.53,5.55,4.36,5.55Z"/>
      <path class="cls-2" d="M171.97,83.61c0,1.19,.7,1.32,1.87,1.48v1.17h-6.88v-1.17c1.14-.16,1.87-.29,1.87-1.48v-8.51l-1.74-1.09v-.62l4.15-1.3h.73v11.52Zm-3.66-15.02c0-1.06,.83-1.95,2-1.95s1.97,.88,1.97,1.95-.83,1.95-1.97,1.95-2-.88-2-1.95Z"/>
      <path class="cls-2" d="M181.13,83.61c0,1.19,.73,1.32,1.87,1.48v1.17h-6.88v-1.17c1.17-.16,1.89-.29,1.89-1.48v-14.11l-1.76-1.12v-.65l4.18-1.22h.7v17.1Z"/>
    </g>
    <path class="cls-2" d="M65.71,66.76C36.82,74.45,31.48,44.37,.03,55.91v7.96c31.86-12.25,36.32,18.09,65.68,10.78v-7.9Z"/>
    <path class="cls-2" d="M65.71,83.34C36.82,91.03,31.48,60.96,.03,72.49v7.96c31.86-12.25,36.32,18.09,65.68,10.78v-7.9Z"/>
    <polygon class="cls-2" points="65.73 .05 .04 .01 .02 46.03 21.82 10.82 41.95 48.89 53.15 33.42 65.71 58.94 65.73 .05"/>
  </g>
  <g id="Layer_5" data-name="Layer 5">
    <path class="cls-1" d="M53.15,33.46l-11.2,15.44L21.83,10.85,.02,46.03v9.88c31.51-11.54,36.63,18.51,65.69,10.85v-7.82s-12.56-25.48-12.56-25.48Z"/>
  </g>
</svg>