<?xml version="1.0" encoding="UTF-8" standalone="no"?>
<svg
   xmlns:dc="http://purl.org/dc/elements/1.1/"
   xmlns:cc="http://creativecommons.org/ns#"
   xmlns:rdf="http://www.w3.org/1999/02/22-rdf-syntax-ns#"
   xmlns:svg="http://www.w3.org/2000/svg"
   xmlns="http://www.w3.org/2000/svg"
   xmlns:sodipodi="http://sodipodi.sourceforge.net/DTD/sodipodi-0.dtd"
   xmlns:inkscape="http://www.inkscape.org/namespaces/inkscape"
   width="182.99962"
   height="75.602753"
   viewBox="0 0 182.99962 75.602755"
   version="1.1"
   id="svg56"
   sodipodi:docname="header-logo.svg"
   inkscape:version="0.92.3 (2405546, 2018-03-11)">
  <metadata
     id="metadata62">
    <rdf:RDF>
      <cc:Work
         rdf:about="">
        <dc:format>image/svg+xml</dc:format>
        <dc:type
           rdf:resource="http://purl.org/dc/dcmitype/StillImage" />
        <dc:title></dc:title>
      </cc:Work>
    </rdf:RDF>
  </metadata>
  <defs
     id="defs60" />
  <sodipodi:namedview
     pagecolor="#ffffff"
     bordercolor="#666666"
     borderopacity="1"
     objecttolerance="10"
     gridtolerance="10"
     guidetolerance="10"
     inkscape:pageopacity="0"
     inkscape:pageshadow="2"
     inkscape:window-width="1920"
     inkscape:window-height="1027"
     id="namedview58"
     showgrid="false"
     fit-margin-top="0"
     fit-margin-left="0"
     fit-margin-right="0"
     fit-margin-bottom="0"
     inkscape:zoom="1.5519126"
     inkscape:cx="91.499227"
     inkscape:cy="37.802256"
     inkscape:window-x="-8"
     inkscape:window-y="-8"
     inkscape:window-maximized="1"
     inkscape:current-layer="svg56" />
  <g
     id="Group_6763"
     data-name="Group 6763"
     transform="translate(-543.00077,-327)">
    <path
       id="Path_6481"
       data-name="Path 6481"
       d="m 563.927,387.968 c 0,0 -12.316,-1.884 -14.874,-5.925 -1.756,-2.773 -0.6,-9.651 8.515,-21.793 A 170.183,170.183 0 0 1 570.5,345.16 l 10.517,11.24 a 32.021,32.021 0 0 0 -8.3,3.269 15.949,15.949 0 0 0 -7.036,9.322 24.67,24.67 0 0 0 -0.484,4.909 h 4.695 a 10.644,10.644 0 0 1 5.253,-10.282 c 5.221,-3.532 15.28,-3.988 15.28,-3.988 l -19.793,-21.11 c 0,0 0,-0.007 0,-0.007 -0.3,0 -33.59,32.776 -26.69,45.65 1.765,3.294 10.914,5.128 19.985,3.8"
       transform="translate(0,-3.923)"
       inkscape:connector-curvature="0"
       style="fill:#005138" />
    <path
       id="Path_6482"
       data-name="Path 6482"
       d="m 584.469,399.3 c 2.052,-3.15 2.219,-5.931 -3.262,-10.8 -2.818,-2.505 -3.654,-4.752 -2.883,-6.738 1.283,-3.3 7.215,-5.228 16.906,-5.733 l -1.962,-2.224 c -1.243,0.144 -16.2,-0.036 -19.261,8.105 -1.21,3.216 -0.036,5.49 4,9.585 3.448,3.5 2.273,5.747 1.907,6.254 -4.5,6.222 -28.218,6.48 -34.564,2.957 l 0.523,2.751 c 6.8,3.349 31.942,6.061 38.6,-4.155"
       transform="translate(-0.801,-16.022)"
       inkscape:connector-curvature="0"
       style="fill:#003d87" />
    <path
       id="Path_6483"
       data-name="Path 6483"
       d="m 599.8,382.409 -2.033,-2.191 c -7.993,0.034 -13,1.448 -14.429,4.046 -1.475,2.686 2.5,5.769 4.845,7.952 6.952,6.476 1.116,15.722 -10.152,18.245 -11.65,2.609 -25.353,-0.247 -31,-2.177 l 0.56,2.74 a 54.7,54.7 0 0 0 33.345,2.564 c 18.878,-4.62 16.511,-16.159 12.772,-20.688 -3.123,-3.783 -6.056,-4.581 -6.056,-7.214 0,-3.265 11.78,-3.29 12.144,-3.276"
       transform="translate(-1.376,-18.238)"
       inkscape:connector-curvature="0"
       style="fill:#003d87" />
    <path
       id="Path_6484"
       data-name="Path 6484"
       d="m 564.328,348.552 -7.377,-6.117 c -1.861,2.512 -3.044,4.547 -3.044,4.547 l 9.249,2.885 c 0,0 0.473,-0.535 1.171,-1.315"
       transform="translate(-3.717,-5.26)"
       inkscape:connector-curvature="0"
       style="fill:#ffc04f" />
    <path
       id="Path_6485"
       data-name="Path 6485"
       d="m 569.858,342.07 q 0.453,-0.487 0.89,-0.949 l -6.993,-6.869 c -0.534,0.544 -1.083,1.119 -1.637,1.728 -0.647,0.711 -1.26,1.439 -1.832,2.155 l 9.3,4.228 0.271,-0.293"
       transform="translate(-5.89,-2.471)"
       inkscape:connector-curvature="0"
       style="fill:#ffc04f" />
    <path
       id="Path_6486"
       data-name="Path 6486"
       d="M 577.932,333.854 571.455,327 c 0,0 -1.674,1.33 -3.885,3.46 l 9.024,4.721 c 0.827,-0.83 1.338,-1.327 1.338,-1.327"
       transform="translate(-8.372)"
       inkscape:connector-curvature="0"
       style="fill:#ffc04f" />
    <path
       id="Path_6487"
       data-name="Path 6487"
       d="m 641.616,360.95 a 3.122,3.122 0 0 0 -2.32,0.851 4.008,4.008 0 0 0 -1.052,2.36 h 6.3 a 4.11,4.11 0 0 0 -0.195,-1.3 2.884,2.884 0 0 0 -0.571,-1.017 2.562,2.562 0 0 0 -0.92,-0.663 3.1,3.1 0 0 0 -1.24,-0.234 m -0.046,-1.5 a 5.159,5.159 0 0 1 1.92,0.349 4.318,4.318 0 0 1 1.52,1.005 4.58,4.58 0 0 1 1,1.623 6.249,6.249 0 0 1 0.36,2.2 1.329,1.329 0 0 1 -0.1,0.64 0.426,0.426 0 0 1 -0.388,0.16 h -7.7 a 6.39,6.39 0 0 0 0.3,1.908 3.9,3.9 0 0 0 0.754,1.354 3.028,3.028 0 0 0 1.143,0.812 3.922,3.922 0 0 0 1.486,0.268 4.384,4.384 0 0 0 1.32,-0.177 6.272,6.272 0 0 0 0.954,-0.383 7.334,7.334 0 0 0 0.669,-0.383 0.885,0.885 0 0 1 0.463,-0.177 0.448,0.448 0 0 1 0.388,0.194 l 0.572,0.743 a 3.856,3.856 0 0 1 -0.9,0.794 5.6,5.6 0 0 1 -1.126,0.554 7.125,7.125 0 0 1 -1.239,0.326 7.569,7.569 0 0 1 -1.268,0.108 5.885,5.885 0 0 1 -2.211,-0.405 4.843,4.843 0 0 1 -1.748,-1.189 5.446,5.446 0 0 1 -1.148,-1.937 7.867,7.867 0 0 1 -0.411,-2.651 6.753,6.753 0 0 1 0.371,-2.262 5.332,5.332 0 0 1 1.047,-1.821 4.935,4.935 0 0 1 1.7,-1.212 5.6,5.6 0 0 1 2.263,-0.44"
       transform="translate(-31.835,-11.093)"
       inkscape:connector-curvature="0"
       style="fill:#003d87" />
    <path
       id="Path_6488"
       data-name="Path 6488"
       d="m 654.711,371.211 v -11.575 h 1.211 a 0.52,0.52 0 0 1 0.549,0.423 l 0.16,1.257 a 6.5,6.5 0 0 1 1.686,-1.348 4.38,4.38 0 0 1 2.154,-0.514 4.175,4.175 0 0 1 1.674,0.314 3.243,3.243 0 0 1 1.212,0.891 3.949,3.949 0 0 1 0.737,1.388 6.077,6.077 0 0 1 0.251,1.794 v 7.37 h -2.035 v -7.37 a 3.115,3.115 0 0 0 -0.6,-2.04 2.241,2.241 0 0 0 -1.833,-0.726 3.419,3.419 0 0 0 -1.686,0.434 5.556,5.556 0 0 0 -1.446,1.177 v 8.525 z"
       transform="translate(-38.172,-11.093)"
       inkscape:connector-curvature="0"
       style="fill:#003d87" />
    <path
       id="Path_6489"
       data-name="Path 6489"
       d="m 670.345,359.73 h 1.669 a 0.626,0.626 0 0 1 0.4,0.126 0.712,0.712 0 0 1 0.229,0.3 l 2.937,7.45 a 5.589,5.589 0 0 1 0.251,0.823 c 0.061,0.274 0.118,0.545 0.172,0.811 0.06,-0.266 0.125,-0.537 0.194,-0.811 a 7.06,7.06 0 0 1 0.262,-0.823 l 2.971,-7.45 a 0.684,0.684 0 0 1 0.223,-0.3 0.606,0.606 0 0 1 0.382,-0.12 h 1.589 l -4.724,11.57 h -1.84 z"
       transform="translate(-43.516,-11.188)"
       inkscape:connector-curvature="0"
       style="fill:#003d87" />
    <path
       id="Path_6490"
       data-name="Path 6490"
       d="M 691.614,368.672 H 689.58 V 357.1 h 2.034 z m 0.458,-15.209 a 1.3,1.3 0 0 1 -0.12,0.554 1.58,1.58 0 0 1 -0.32,0.457 1.5,1.5 0 0 1 -0.462,0.314 1.389,1.389 0 0 1 -0.56,0.114 1.34,1.34 0 0 1 -0.554,-0.114 1.525,1.525 0 0 1 -0.772,-0.771 1.355,1.355 0 0 1 -0.114,-0.554 1.439,1.439 0 0 1 0.114,-0.566 1.479,1.479 0 0 1 0.315,-0.468 1.5,1.5 0 0 1 0.458,-0.314 1.341,1.341 0 0 1 0.554,-0.114 1.39,1.39 0 0 1 0.56,0.114 1.484,1.484 0 0 1 0.462,0.314 1.539,1.539 0 0 1 0.32,0.468 1.378,1.378 0 0 1 0.12,0.566"
       transform="translate(-49.942,-8.548)"
       inkscape:connector-curvature="0"
       style="fill:#003d87" />
    <path
       id="Path_6491"
       data-name="Path 6491"
       d="m 697.455,371.2 v -11.576 h 1.165 a 0.643,0.643 0 0 1 0.457,0.126 0.768,0.768 0 0 1 0.171,0.434 l 0.137,1.8 a 5.3,5.3 0 0 1 1.469,-1.891 3.465,3.465 0 0 1 2.919,-0.571 3.044,3.044 0 0 1 0.72,0.3 l -0.262,1.52 a 0.344,0.344 0 0 1 -0.355,0.285 1.79,1.79 0 0 1 -0.491,-0.108 3.1,3.1 0 0 0 -0.926,-0.109 2.623,2.623 0 0 0 -1.777,0.616 4.639,4.639 0 0 0 -1.195,1.794 v 7.37 z"
       transform="translate(-52.776,-11.082)"
       inkscape:connector-curvature="0"
       style="fill:#003d87" />
    <path
       id="Path_6492"
       data-name="Path 6492"
       d="m 714.807,369.783 a 2.973,2.973 0 0 0 2.559,-1.148 6.533,6.533 0 0 0 0,-6.428 2.967,2.967 0 0 0 -2.559,-1.154 3.543,3.543 0 0 0 -1.508,0.3 2.816,2.816 0 0 0 -1.069,0.857 3.816,3.816 0 0 0 -0.64,1.376 7.383,7.383 0 0 0 -0.211,1.846 7.3,7.3 0 0 0 0.211,1.839 3.752,3.752 0 0 0 0.64,1.366 2.839,2.839 0 0 0 1.069,0.851 3.543,3.543 0 0 0 1.508,0.3 m 0,-10.33 a 5.949,5.949 0 0 1 2.29,0.423 4.83,4.83 0 0 1 1.738,1.2 5.325,5.325 0 0 1 1.1,1.88 8.128,8.128 0 0 1 0,4.931 5.333,5.333 0 0 1 -1.1,1.874 4.761,4.761 0 0 1 -1.738,1.194 6.5,6.5 0 0 1 -4.582,0 4.811,4.811 0 0 1 -1.742,-1.194 5.335,5.335 0 0 1 -1.108,-1.874 8.009,8.009 0 0 1 0,-4.931 5.326,5.326 0 0 1 1.108,-1.88 4.882,4.882 0 0 1 1.742,-1.2 5.956,5.956 0 0 1 2.292,-0.423"
       transform="translate(-56.819,-11.093)"
       inkscape:connector-curvature="0"
       style="fill:#003d87" />
    <path
       id="Path_6493"
       data-name="Path 6493"
       d="m 728.967,371.211 v -11.575 h 1.211 a 0.52,0.52 0 0 1 0.549,0.423 l 0.16,1.257 a 6.5,6.5 0 0 1 1.686,-1.348 4.381,4.381 0 0 1 2.154,-0.514 4.175,4.175 0 0 1 1.674,0.314 3.242,3.242 0 0 1 1.212,0.891 3.946,3.946 0 0 1 0.737,1.388 6.075,6.075 0 0 1 0.251,1.794 v 7.37 h -2.034 v -7.37 a 3.114,3.114 0 0 0 -0.6,-2.04 2.241,2.241 0 0 0 -1.833,-0.726 3.419,3.419 0 0 0 -1.686,0.434 5.557,5.557 0 0 0 -1.448,1.178 v 8.525 z"
       transform="translate(-63.546,-11.093)"
       inkscape:connector-curvature="0"
       style="fill:#003d87" />
    <path
       id="Path_6494"
       data-name="Path 6494"
       d="m 747.375,371.211 v -11.575 h 1.211 a 0.519,0.519 0 0 1 0.549,0.423 l 0.148,1.188 a 5.95,5.95 0 0 1 1.435,-1.291 3.372,3.372 0 0 1 1.845,-0.5 2.74,2.74 0 0 1 1.9,0.651 1.035,1.035 0 1 0 1.68,0.674 3.713,3.713 0 0 1 0.885,-0.754 3.77,3.77 0 0 1 1.046,-0.434 4.663,4.663 0 0 1 1.126,-0.137 4.279,4.279 0 0 1 1.628,0.291 3.224,3.224 0 0 1 1.211,0.851 3.8,3.8 0 0 1 0.76,1.377 6.114,6.114 0 0 1 0.262,1.868 v 7.37 h -2.031 v -7.37 a 3.124,3.124 0 0 0 -0.594,-2.063 2.134,2.134 0 0 0 -1.725,-0.7 2.59,2.59 0 0 0 -0.955,0.177 2.287,2.287 0 0 0 -0.794,0.52 2.433,2.433 0 0 0 -0.543,0.862 3.354,3.354 0 0 0 -0.2,1.206 v 7.37 h -2.034 v -7.37 a 3.244,3.244 0 0 0 -0.56,-2.08 1.988,1.988 0 0 0 -1.634,-0.686 2.585,2.585 0 0 0 -1.4,0.406 4.577,4.577 0 0 0 -1.183,1.1 v 8.627 z"
       transform="translate(-69.843,-11.093)"
       inkscape:connector-curvature="0"
       style="fill:#003d87" />
    <path
       id="Path_6495"
       data-name="Path 6495"
       d="m 779.173,360.95 a 3.122,3.122 0 0 0 -2.32,0.851 4.008,4.008 0 0 0 -1.052,2.36 h 6.3 a 4.11,4.11 0 0 0 -0.195,-1.3 2.886,2.886 0 0 0 -0.571,-1.017 2.559,2.559 0 0 0 -0.92,-0.663 3.1,3.1 0 0 0 -1.239,-0.234 m -0.046,-1.5 a 5.158,5.158 0 0 1 1.92,0.349 4.317,4.317 0 0 1 1.52,1.005 4.58,4.58 0 0 1 1,1.623 6.251,6.251 0 0 1 0.36,2.2 1.329,1.329 0 0 1 -0.1,0.64 0.427,0.427 0 0 1 -0.388,0.16 h -7.7 a 6.388,6.388 0 0 0 0.3,1.908 3.905,3.905 0 0 0 0.754,1.354 3.029,3.029 0 0 0 1.142,0.812 3.921,3.921 0 0 0 1.486,0.268 4.384,4.384 0 0 0 1.32,-0.177 6.268,6.268 0 0 0 0.954,-0.383 7.438,7.438 0 0 0 0.669,-0.383 0.885,0.885 0 0 1 0.463,-0.177 0.448,0.448 0 0 1 0.388,0.194 l 0.572,0.743 a 3.855,3.855 0 0 1 -0.9,0.794 5.607,5.607 0 0 1 -1.126,0.554 7.124,7.124 0 0 1 -1.239,0.326 7.569,7.569 0 0 1 -1.268,0.108 5.885,5.885 0 0 1 -2.211,-0.405 4.843,4.843 0 0 1 -1.748,-1.189 5.447,5.447 0 0 1 -1.148,-1.937 7.868,7.868 0 0 1 -0.411,-2.651 6.753,6.753 0 0 1 0.371,-2.262 5.334,5.334 0 0 1 1.069,-1.823 4.936,4.936 0 0 1 1.7,-1.212 5.6,5.6 0 0 1 2.263,-0.44"
       transform="translate(-78.87,-11.093)"
       inkscape:connector-curvature="0"
       style="fill:#003d87" />
    <path
       id="Path_6496"
       data-name="Path 6496"
       d="m 792.267,371.211 v -11.575 h 1.211 a 0.519,0.519 0 0 1 0.549,0.423 l 0.16,1.257 a 6.5,6.5 0 0 1 1.686,-1.348 4.38,4.38 0 0 1 2.154,-0.514 4.175,4.175 0 0 1 1.674,0.314 3.236,3.236 0 0 1 1.211,0.891 3.939,3.939 0 0 1 0.738,1.388 6.075,6.075 0 0 1 0.251,1.794 v 7.37 h -2.034 v -7.37 a 3.114,3.114 0 0 0 -0.6,-2.04 2.241,2.241 0 0 0 -1.833,-0.726 3.419,3.419 0 0 0 -1.686,0.434 5.557,5.557 0 0 0 -1.446,1.177 v 8.525 z"
       transform="translate(-85.19,-11.093)"
       inkscape:connector-curvature="0"
       style="fill:#003d87" />
    <path
       id="Path_6497"
       data-name="Path 6497"
       d="m 813.58,369.545 a 2.788,2.788 0 0 1 -2.108,-0.766 3.054,3.054 0 0 1 -0.737,-2.205 v -7.085 h -1.395 a 0.457,0.457 0 0 1 -0.308,-0.108 0.422,0.422 0 0 1 -0.126,-0.337 v -0.812 l 1.9,-0.24 0.468,-3.576 a 0.433,0.433 0 0 1 0.149,-0.28 0.472,0.472 0 0 1 0.32,-0.109 h 1.029 v 3.988 h 3.314 v 1.474 h -3.314 v 6.948 a 1.476,1.476 0 0 0 0.355,1.086 1.237,1.237 0 0 0 0.914,0.354 1.608,1.608 0 0 0 0.554,-0.086 A 2.385,2.385 0 0 0 815,367.6 c 0.114,-0.069 0.212,-0.131 0.291,-0.189 a 0.381,0.381 0 0 1 0.212,-0.086 0.35,0.35 0 0 1 0.285,0.194 l 0.594,0.971 a 3.785,3.785 0 0 1 -1.268,0.771 4.307,4.307 0 0 1 -1.531,0.28"
       transform="translate(-90.86,-9.24)"
       inkscape:connector-curvature="0"
       style="fill:#003d87" />
    <path
       id="Path_6498"
       data-name="Path 6498"
       d="m 645.62,383.138 a 1.27,1.27 0 0 1 -0.311,0.355 0.694,0.694 0 0 1 -0.421,0.119 1.022,1.022 0 0 1 -0.489,-0.144 l -0.593,-0.321 a 4.988,4.988 0 0 0 -0.756,-0.321 3.045,3.045 0 0 0 -0.969,-0.143 2.085,2.085 0 0 0 -1.4,0.4 1.363,1.363 0 0 0 -0.459,1.082 1,1 0 0 0 0.277,0.722 2.355,2.355 0 0 0 0.726,0.494 7.6,7.6 0 0 0 1.028,0.38 c 0.385,0.115 0.779,0.245 1.181,0.386 a 10.89,10.89 0 0 1 1.181,0.5 3.938,3.938 0 0 1 1.028,0.73 3.44,3.44 0 0 1 0.727,1.083 3.865,3.865 0 0 1 0.277,1.537 5.007,5.007 0 0 1 -0.346,1.869 4.4,4.4 0 0 1 -1,1.518 4.663,4.663 0 0 1 -1.622,1.018 6.065,6.065 0 0 1 -2.19,0.371 7.018,7.018 0 0 1 -1.369,-0.138 8.193,8.193 0 0 1 -1.349,-0.39 7.819,7.819 0 0 1 -1.226,-0.6 5.26,5.26 0 0 1 -1,-0.771 l 0.989,-1.562 a 0.8,0.8 0 0 1 0.307,-0.287 0.866,0.866 0 0 1 0.425,-0.109 1.132,1.132 0 0 1 0.6,0.188 c 0.2,0.125 0.429,0.264 0.682,0.415 a 5.532,5.532 0 0 0 0.875,0.415 3.279,3.279 0 0 0 1.167,0.188 2.225,2.225 0 0 0 1.413,-0.4 1.527,1.527 0 0 0 0.5,-1.272 1.2,1.2 0 0 0 -0.277,-0.819 2.14,2.14 0 0 0 -0.727,-0.525 6.793,6.793 0 0 0 -1.024,-0.366 q -0.573,-0.157 -1.176,-0.35 a 8.689,8.689 0 0 1 -1.177,-0.475 3.712,3.712 0 0 1 -1.023,-0.742 3.471,3.471 0 0 1 -0.726,-1.148 4.546,4.546 0 0 1 -0.277,-1.695 4.026,4.026 0 0 1 0.326,-1.582 4.1,4.1 0 0 1 0.958,-1.375 4.725,4.725 0 0 1 1.553,-0.963 5.744,5.744 0 0 1 2.106,-0.361 7.9,7.9 0 0 1 1.29,0.1 6.841,6.841 0 0 1 1.191,0.306 6.606,6.606 0 0 1 1.053,0.485 4.883,4.883 0 0 1 0.875,0.638 z"
       transform="translate(-31.965,-18.138)"
       inkscape:connector-curvature="0"
       style="fill:#003d87" />
    <path
       id="Path_6499"
       data-name="Path 6499"
       d="m 664.8,387.408 a 6.228,6.228 0 0 0 -0.277,-1.923 4.076,4.076 0 0 0 -0.8,-1.448 3.434,3.434 0 0 0 -1.27,-0.91 4.381,4.381 0 0 0 -1.709,-0.316 4.446,4.446 0 0 0 -1.726,0.316 3.431,3.431 0 0 0 -1.276,0.91 4.076,4.076 0 0 0 -0.8,1.448 6.866,6.866 0 0 0 0,3.856 4.071,4.071 0 0 0 0.8,1.448 3.376,3.376 0 0 0 1.276,0.9 4.5,4.5 0 0 0 1.726,0.311 4.43,4.43 0 0 0 1.709,-0.311 3.378,3.378 0 0 0 1.27,-0.9 4.071,4.071 0 0 0 0.8,-1.448 6.263,6.263 0 0 0 0.277,-1.933 m 3.421,0 a 7.75,7.75 0 0 1 -0.539,2.907 6.865,6.865 0 0 1 -3.876,3.895 8.593,8.593 0 0 1 -6.125,0 6.876,6.876 0 0 1 -3.89,-3.895 8.1,8.1 0 0 1 0,-5.813 6.914,6.914 0 0 1 1.522,-2.334 7.045,7.045 0 0 1 2.367,-1.552 8.062,8.062 0 0 1 3.066,-0.564 7.953,7.953 0 0 1 3.059,0.569 7.067,7.067 0 0 1 2.359,1.557 6.957,6.957 0 0 1 1.517,2.333 7.726,7.726 0 0 1 0.539,2.9"
       transform="translate(-37.676,-18.137)"
       inkscape:connector-curvature="0"
       style="fill:#003d87" />
    <path
       id="Path_6500"
       data-name="Path 6500"
       d="m 684.273,392.058 a 3.072,3.072 0 0 0 1.2,-0.223 2.42,2.42 0 0 0 0.895,-0.637 2.818,2.818 0 0 0 0.559,-1.013 4.445,4.445 0 0 0 0.193,-1.359 v -8.532 h 3.342 v 8.532 a 6.658,6.658 0 0 1 -0.431,2.432 5.444,5.444 0 0 1 -1.231,1.908 5.553,5.553 0 0 1 -1.947,1.246 7.732,7.732 0 0 1 -5.17,0 5.556,5.556 0 0 1 -1.948,-1.246 5.4,5.4 0 0 1 -1.226,-1.908 6.729,6.729 0 0 1 -0.425,-2.432 v -8.532 h 3.342 v 8.522 a 4.445,4.445 0 0 0 0.193,1.359 2.87,2.87 0 0 0 0.559,1.019 2.394,2.394 0 0 0 0.895,0.642 3.072,3.072 0 0 0 1.2,0.223"
       transform="translate(-46.161,-18.219)"
       inkscape:connector-curvature="0"
       style="fill:#003d87" />
    <path
       id="Path_6501"
       data-name="Path 6501"
       d="m 710.107,380.293 v 2.649 h -4.053 V 394.7 h -3.342 v -11.758 h -4.054 v -2.649 z"
       transform="translate(-53.191,-18.219)"
       inkscape:connector-curvature="0"
       style="fill:#003d87" />
    <path
       id="Path_6502"
       data-name="Path 6502"
       d="m 730.7,394.7 h -3.362 v -6.09 h -5.853 v 6.09 h -3.361 v -14.4 h 3.361 v 6.021 h 5.853 V 380.3 h 3.362 z"
       transform="translate(-59.844,-18.219)"
       inkscape:connector-curvature="0"
       style="fill:#003d87" />
    <path
       id="Path_6503"
       data-name="Path 6503"
       d="m 744.14,392.027 h 5.339 V 394.7 H 740.8 v -14.4 h 3.342 z"
       transform="translate(-67.588,-18.219)"
       inkscape:connector-curvature="0"
       style="fill:#003d87" />
    <path
       id="Path_6504"
       data-name="Path 6504"
       d="m 759.915,389.191 h 3.935 l -1.325,-3.945 q -0.129,-0.376 -0.3,-0.885 -0.171,-0.509 -0.341,-1.1 -0.158,0.6 -0.326,1.117 -0.168,0.517 -0.316,0.889 z m 9.254,5.507 h -2.59 a 1.2,1.2 0 0 1 -0.717,-0.2 1.044,1.044 0 0 1 -0.391,-0.519 l -0.85,-2.511 h -5.478 l -0.85,2.511 a 1.147,1.147 0 0 1 -1.088,0.722 H 754.6 l 5.576,-14.4 h 3.421 z"
       transform="translate(-72.31,-18.219)"
       inkscape:connector-curvature="0"
       style="fill:#003d87" />
    <path
       id="Path_6505"
       data-name="Path 6505"
       d="m 780.6,380.313 a 0.844,0.844 0 0 1 0.494,0.227 2.531,2.531 0 0 1 0.247,0.267 l 6.842,8.65 q -0.04,-0.414 -0.059,-0.8 c -0.013,-0.26 -0.02,-0.507 -0.02,-0.738 v -7.622 h 2.946 v 14.4 h -1.74 a 1.6,1.6 0 0 1 -0.653,-0.119 1.41,1.41 0 0 1 -0.514,-0.435 l -6.792,-8.582 q 0.03,0.376 0.049,0.736 c 0.013,0.241 0.02,0.467 0.02,0.678 v 7.725 h -2.95 v -14.4 h 1.76 a 2.844,2.844 0 0 1 0.366,0.02"
       transform="translate(-80.488,-18.219)"
       inkscape:connector-curvature="0"
       style="fill:#003d87" />
    <path
       id="Path_6506"
       data-name="Path 6506"
       d="m 810.794,387.49 a 6.268,6.268 0 0 0 -0.277,-1.928 4.119,4.119 0 0 0 -0.8,-1.458 3.462,3.462 0 0 0 -1.27,-0.92 4.313,4.313 0 0 0 -1.71,-0.321 h -2.235 v 9.263 h 2.235 a 4.313,4.313 0 0 0 1.71,-0.321 3.462,3.462 0 0 0 1.27,-0.92 4.114,4.114 0 0 0 0.8,-1.458 6.306,6.306 0 0 0 0.277,-1.937 m 3.421,0 a 7.566,7.566 0 0 1 -0.539,2.882 6.757,6.757 0 0 1 -1.518,2.284 6.883,6.883 0 0 1 -2.358,1.5 8.343,8.343 0 0 1 -3.06,0.539 h -5.6 v -14.4 h 5.6 a 8.289,8.289 0 0 1 3.06,0.544 6.985,6.985 0 0 1 2.358,1.5 6.7,6.7 0 0 1 1.518,2.278 7.539,7.539 0 0 1 0.539,2.872"
       transform="translate(-88.215,-18.219)"
       inkscape:connector-curvature="0"
       style="fill:#003d87" />
    <path
       id="Path_6507"
       data-name="Path 6507"
       d="m 642.376,429.182 v 1.018 h -2.008 v 5.654 h -1.241 V 430.2 h -2.017 v -1.021 z"
       transform="translate(-32.156,-34.923)"
       inkscape:connector-curvature="0"
       style="fill:#003d87" />
    <path
       id="Path_6508"
       data-name="Path 6508"
       d="m 647.286,432.827 a 1.052,1.052 0 0 0 -0.78,0.282 1.392,1.392 0 0 0 -0.361,0.8 h 2.142 a 1.417,1.417 0 0 0 -0.06,-0.418 0.96,0.96 0 0 0 -0.185,-0.343 0.884,0.884 0 0 0 -0.314,-0.233 1.071,1.071 0 0 0 -0.443,-0.085 m -0.023,-0.817 a 2.3,2.3 0 0 1 0.824,0.144 1.8,1.8 0 0 1 0.649,0.417 1.916,1.916 0 0 1 0.425,0.674 2.551,2.551 0 0 1 0.152,0.912 1.748,1.748 0 0 1 -0.011,0.214 0.341,0.341 0 0 1 -0.042,0.134 0.167,0.167 0 0 1 -0.08,0.069 0.346,0.346 0 0 1 -0.129,0.021 h -2.927 a 1.63,1.63 0 0 0 0.393,1.071 1.22,1.22 0 0 0 0.9,0.341 1.555,1.555 0 0 0 0.478,-0.065 2.186,2.186 0 0 0 0.351,-0.143 c 0.1,-0.052 0.187,-0.1 0.263,-0.143 a 0.443,0.443 0 0 1 0.22,-0.065 0.248,0.248 0 0 1 0.12,0.028 0.274,0.274 0 0 1 0.088,0.078 l 0.332,0.415 a 1.9,1.9 0 0 1 -0.424,0.372 2.39,2.39 0 0 1 -0.492,0.24 2.724,2.724 0 0 1 -0.521,0.127 3.776,3.776 0 0 1 -0.515,0.037 2.523,2.523 0 0 1 -0.918,-0.164 2.048,2.048 0 0 1 -0.739,-0.485 2.278,2.278 0 0 1 -0.494,-0.794 3.075,3.075 0 0 1 -0.18,-1.1 2.614,2.614 0 0 1 0.157,-0.912 2.191,2.191 0 0 1 0.45,-0.744 2.135,2.135 0 0 1 0.716,-0.5 2.364,2.364 0 0 1 0.953,-0.185"
       transform="translate(-34.847,-35.886)"
       inkscape:connector-curvature="0"
       style="fill:#003d87" />
    <path
       id="Path_6509"
       data-name="Path 6509"
       d="m 661.569,429.182 v 1.018 h -2.008 v 5.654 H 658.32 V 430.2 h -2.02 v -1.021 z"
       transform="translate(-38.714,-34.923)"
       inkscape:connector-curvature="0"
       style="fill:#003d87" />
    <path
       id="Path_6510"
       data-name="Path 6510"
       d="m 665.757,436.1 a 1.546,1.546 0 0 0 0.323,-0.032 1.247,1.247 0 0 0 0.279,-0.1 1.457,1.457 0 0 0 0.254,-0.157 2.16,2.16 0 0 0 0.247,-0.22 v -0.793 a 4.6,4.6 0 0 0 -0.833,0.063 2.179,2.179 0 0 0 -0.537,0.16 0.692,0.692 0 0 0 -0.289,0.227 0.506,0.506 0 0 0 -0.085,0.284 0.5,0.5 0 0 0 0.177,0.432 0.769,0.769 0 0 0 0.464,0.13 m 2.216,0.711 h -0.512 a 0.551,0.551 0 0 1 -0.254,-0.048 0.312,0.312 0 0 1 -0.139,-0.2 l -0.1,-0.337 a 3.891,3.891 0 0 1 -0.353,0.284 2.124,2.124 0 0 1 -0.358,0.205 1.829,1.829 0 0 1 -0.392,0.125 2.355,2.355 0 0 1 -0.461,0.042 1.836,1.836 0 0 1 -0.555,-0.08 1.212,1.212 0 0 1 -0.436,-0.243 1.106,1.106 0 0 1 -0.284,-0.4 1.434,1.434 0 0 1 -0.1,-0.561 1.1,1.1 0 0 1 0.141,-0.53 1.325,1.325 0 0 1 0.468,-0.473 2.982,2.982 0 0 1 0.873,-0.349 5.556,5.556 0 0 1 1.352,-0.139 v -0.279 a 1.057,1.057 0 0 0 -0.2,-0.709 0.733,0.733 0 0 0 -0.584,-0.23 1.417,1.417 0 0 0 -0.461,0.064 1.8,1.8 0 0 0 -0.321,0.146 c -0.091,0.054 -0.175,0.1 -0.252,0.146 a 0.511,0.511 0 0 1 -0.254,0.064 0.333,0.333 0 0 1 -0.2,-0.059 0.479,0.479 0 0 1 -0.134,-0.148 l -0.208,-0.365 a 2.817,2.817 0 0 1 1.971,-0.748 1.914,1.914 0 0 1 0.741,0.136 1.582,1.582 0 0 1 0.552,0.379 1.635,1.635 0 0 1 0.344,0.579 2.224,2.224 0 0 1 0.117,0.738 z"
       transform="translate(-41.352,-35.879)"
       inkscape:connector-curvature="0"
       style="fill:#003d87" />
    <path
       id="Path_6511"
       data-name="Path 6511"
       d="m 673.591,435.769 h -1.14 v -4.736 h 1.14 z m 0.171,-6.116 a 0.645,0.645 0 0 1 -0.06,0.277 0.755,0.755 0 0 1 -0.159,0.226 0.767,0.767 0 0 1 -0.233,0.155 0.718,0.718 0 0 1 -0.286,0.058 0.691,0.691 0 0 1 -0.279,-0.058 0.735,0.735 0 0 1 -0.228,-0.155 0.754,0.754 0 0 1 -0.155,-0.226 0.672,0.672 0 0 1 -0.057,-0.277 0.717,0.717 0 0 1 0.057,-0.286 0.728,0.728 0 0 1 0.383,-0.386 0.691,0.691 0 0 1 0.279,-0.057 0.718,0.718 0 0 1 0.286,0.057 0.78,0.78 0 0 1 0.233,0.155 0.742,0.742 0 0 1 0.159,0.231 0.688,0.688 0 0 1 0.06,0.286"
       transform="translate(-44.178,-34.834)"
       inkscape:connector-curvature="0"
       style="fill:#003d87" />
    <path
       id="Path_6512"
       data-name="Path 6512"
       d="m 678.284,436.1 a 1.546,1.546 0 0 0 0.323,-0.032 1.247,1.247 0 0 0 0.279,-0.1 1.452,1.452 0 0 0 0.254,-0.157 2.161,2.161 0 0 0 0.247,-0.22 v -0.793 a 4.594,4.594 0 0 0 -0.833,0.063 2.177,2.177 0 0 0 -0.537,0.16 0.692,0.692 0 0 0 -0.289,0.227 0.574,0.574 0 0 0 0.092,0.717 0.769,0.769 0 0 0 0.464,0.13 m 2.216,0.711 h -0.512 a 0.551,0.551 0 0 1 -0.254,-0.048 0.312,0.312 0 0 1 -0.139,-0.2 l -0.1,-0.337 a 3.883,3.883 0 0 1 -0.353,0.284 2.115,2.115 0 0 1 -0.358,0.205 1.826,1.826 0 0 1 -0.392,0.125 2.356,2.356 0 0 1 -0.461,0.042 1.836,1.836 0 0 1 -0.555,-0.08 1.213,1.213 0 0 1 -0.436,-0.243 1.106,1.106 0 0 1 -0.284,-0.4 1.433,1.433 0 0 1 -0.1,-0.561 1.1,1.1 0 0 1 0.141,-0.53 1.324,1.324 0 0 1 0.468,-0.473 2.982,2.982 0 0 1 0.873,-0.349 5.555,5.555 0 0 1 1.352,-0.139 v -0.279 a 1.057,1.057 0 0 0 -0.2,-0.709 0.733,0.733 0 0 0 -0.584,-0.23 1.418,1.418 0 0 0 -0.461,0.064 1.8,1.8 0 0 0 -0.321,0.146 c -0.091,0.054 -0.175,0.1 -0.252,0.146 a 0.511,0.511 0 0 1 -0.254,0.064 0.333,0.333 0 0 1 -0.2,-0.059 0.479,0.479 0 0 1 -0.134,-0.148 l -0.208,-0.365 a 2.817,2.817 0 0 1 1.971,-0.748 1.914,1.914 0 0 1 0.741,0.136 1.582,1.582 0 0 1 0.552,0.379 1.635,1.635 0 0 1 0.344,0.579 2.224,2.224 0 0 1 0.117,0.738 z"
       transform="translate(-45.632,-35.879)"
       inkscape:connector-curvature="0"
       style="fill:#003d87" />
    <path
       id="Path_6513"
       data-name="Path 6513"
       d="m 686.795,436.013 a 1,1 0 0 0 0.875,-0.4 1.993,1.993 0 0 0 0.284,-1.164 2.016,2.016 0 0 0 -0.284,-1.168 1,1 0 0 0 -0.875,-0.4 1.014,1.014 0 0 0 -0.887,0.4 2,2 0 0 0 -0.286,1.166 1.982,1.982 0 0 0 0.286,1.161 1.018,1.018 0 0 0 0.887,0.4 m 0,-4 a 2.592,2.592 0 0 1 0.963,0.171 2.084,2.084 0 0 1 0.736,0.484 2.151,2.151 0 0 1 0.471,0.766 3.173,3.173 0 0 1 0,2.026 2.191,2.191 0 0 1 -0.471,0.771 2.052,2.052 0 0 1 -0.736,0.489 2.806,2.806 0 0 1 -1.928,0 2.067,2.067 0 0 1 -0.74,-0.489 2.2,2.2 0 0 1 -0.476,-0.771 3.137,3.137 0 0 1 0,-2.026 2.161,2.161 0 0 1 0.476,-0.766 2.1,2.1 0 0 1 0.74,-0.484 2.612,2.612 0 0 1 0.965,-0.171"
       transform="translate(-48.329,-35.887)"
       inkscape:connector-curvature="0"
       style="fill:#003d87" />
    <path
       id="Path_6514"
       data-name="Path 6514"
       d="m 701.517,429.182 v 1.018 h -2.008 v 5.654 h -1.241 V 430.2 h -2.017 v -1.021 z"
       transform="translate(-52.363,-34.923)"
       inkscape:connector-curvature="0"
       style="fill:#003d87" />
    <path
       id="Path_6515"
       data-name="Path 6515"
       d="m 706.464,436.013 a 1,1 0 0 0 0.875,-0.4 1.993,1.993 0 0 0 0.284,-1.164 2.016,2.016 0 0 0 -0.284,-1.168 1,1 0 0 0 -0.875,-0.4 1.014,1.014 0 0 0 -0.887,0.4 2,2 0 0 0 -0.286,1.166 1.982,1.982 0 0 0 0.286,1.161 1.017,1.017 0 0 0 0.887,0.4 m 0,-4 a 2.592,2.592 0 0 1 0.962,0.171 2.084,2.084 0 0 1 0.736,0.484 2.151,2.151 0 0 1 0.471,0.766 3.173,3.173 0 0 1 0,2.026 2.191,2.191 0 0 1 -0.471,0.771 2.052,2.052 0 0 1 -0.736,0.489 2.806,2.806 0 0 1 -1.928,0 2.068,2.068 0 0 1 -0.74,-0.489 2.2,2.2 0 0 1 -0.476,-0.771 3.138,3.138 0 0 1 0,-2.026 2.163,2.163 0 0 1 0.476,-0.766 2.1,2.1 0 0 1 0.74,-0.484 2.611,2.611 0 0 1 0.965,-0.171"
       transform="translate(-55.05,-35.887)"
       inkscape:connector-curvature="0"
       style="fill:#003d87" />
    <path
       id="Path_6516"
       data-name="Path 6516"
       d="m 713.273,436.821 v -4.736 h 0.7 a 0.28,0.28 0 0 1 0.291,0.208 l 0.079,0.374 a 2.5,2.5 0 0 1 0.3,-0.268 2.162,2.162 0 0 1 0.337,-0.208 1.726,1.726 0 0 1 0.381,-0.134 2.027,2.027 0 0 1 0.443,-0.046 1.7,1.7 0 0 1 0.688,0.132 1.371,1.371 0 0 1 0.5,0.369 1.639,1.639 0 0 1 0.3,0.568 2.407,2.407 0 0 1 0.1,0.727 v 3.015 h -1.14 v -3.015 a 1.014,1.014 0 0 0 -0.2,-0.672 0.745,0.745 0 0 0 -0.6,-0.237 1.188,1.188 0 0 0 -0.554,0.134 1.989,1.989 0 0 0 -0.489,0.365 v 3.425 z"
       transform="translate(-58.178,-35.886)"
       inkscape:connector-curvature="0"
       style="fill:#003d87" />
    <path
       id="Path_6517"
       data-name="Path 6517"
       d="m 723.334,434.333 a 1.054,1.054 0 0 0 0.369,-0.058 0.712,0.712 0 0 0 0.261,-0.159 0.65,0.65 0 0 0 0.157,-0.245 0.886,0.886 0 0 0 0.053,-0.314 0.744,0.744 0 0 0 -0.21,-0.556 1.067,1.067 0 0 0 -1.26,0 0.741,0.741 0 0 0 -0.21,0.556 0.892,0.892 0 0 0 0.052,0.309 0.671,0.671 0 0 0 0.158,0.247 0.7,0.7 0 0 0 0.262,0.162 1.068,1.068 0 0 0 0.367,0.058 m 1.252,2.682 a 0.325,0.325 0 0 0 -0.084,-0.231 0.544,0.544 0 0 0 -0.226,-0.139 1.65,1.65 0 0 0 -0.335,-0.073 3.3,3.3 0 0 0 -0.406,-0.024 h -0.444 a 1.872,1.872 0 0 1 -0.44,-0.051 1.048,1.048 0 0 0 -0.312,0.252 0.519,0.519 0 0 0 -0.117,0.334 0.454,0.454 0 0 0 0.063,0.233 0.516,0.516 0 0 0 0.2,0.187 1.174,1.174 0 0 0 0.353,0.122 2.7,2.7 0 0 0 0.531,0.044 2.651,2.651 0 0 0 0.549,-0.049 1.3,1.3 0 0 0 0.381,-0.136 0.588,0.588 0 0 0 0.22,-0.208 0.511,0.511 0 0 0 0.07,-0.262 M 723.334,432 a 2.485,2.485 0 0 1 0.573,0.063 1.954,1.954 0 0 1 0.489,0.182 h 1.362 v 0.425 a 0.234,0.234 0 0 1 -0.055,0.166 0.329,0.329 0 0 1 -0.19,0.084 l -0.424,0.078 a 1.444,1.444 0 0 1 0.071,0.254 1.489,1.489 0 0 1 0.026,0.281 1.4,1.4 0 0 1 -0.529,1.117 1.807,1.807 0 0 1 -0.587,0.307 2.4,2.4 0 0 1 -0.736,0.109 2.656,2.656 0 0 1 -0.521,-0.051 q -0.222,0.134 -0.222,0.3 a 0.222,0.222 0 0 0 0.131,0.212 1.075,1.075 0 0 0 0.346,0.095 3.716,3.716 0 0 0 0.487,0.028 c 0.182,0 0.369,0.007 0.559,0.023 a 4.412,4.412 0 0 1 0.559,0.081 1.667,1.667 0 0 1 0.487,0.183 0.987,0.987 0 0 1 0.347,0.341 1.049,1.049 0 0 1 0.13,0.553 1.317,1.317 0 0 1 -0.154,0.612 1.663,1.663 0 0 1 -0.448,0.528 2.349,2.349 0 0 1 -0.718,0.372 3.065,3.065 0 0 1 -0.97,0.141 3.729,3.729 0 0 1 -0.936,-0.1 2.168,2.168 0 0 1 -0.659,-0.278 1.2,1.2 0 0 1 -0.39,-0.4 0.93,0.93 0 0 1 -0.13,-0.471 0.8,0.8 0 0 1 0.2,-0.558 1.384,1.384 0 0 1 0.563,-0.361 0.786,0.786 0 0 1 -0.281,-0.258 0.748,0.748 0 0 1 -0.107,-0.42 0.735,0.735 0 0 1 0.037,-0.22 0.909,0.909 0 0 1 0.113,-0.224 1.133,1.133 0 0 1 0.192,-0.21 1.384,1.384 0 0 1 0.272,-0.178 1.491,1.491 0 0 1 -0.564,-0.517 1.374,1.374 0 0 1 -0.206,-0.757 1.395,1.395 0 0 1 0.534,-1.119 1.8,1.8 0 0 1 0.595,-0.307 2.542,2.542 0 0 1 0.75,-0.106"
       transform="translate(-60.899,-35.882)"
       inkscape:connector-curvature="0"
       style="fill:#003d87" />
    <path
       id="Path_6518"
       data-name="Path 6518"
       d="m 731.256,436.1 a 1.545,1.545 0 0 0 0.323,-0.032 1.249,1.249 0 0 0 0.28,-0.1 1.459,1.459 0 0 0 0.254,-0.157 2.176,2.176 0 0 0 0.247,-0.22 v -0.793 a 4.594,4.594 0 0 0 -0.833,0.063 2.178,2.178 0 0 0 -0.537,0.16 0.692,0.692 0 0 0 -0.289,0.227 0.575,0.575 0 0 0 0.092,0.717 0.769,0.769 0 0 0 0.464,0.13 m 2.216,0.711 h -0.512 a 0.556,0.556 0 0 1 -0.254,-0.048 0.313,0.313 0 0 1 -0.138,-0.2 l -0.1,-0.337 a 3.883,3.883 0 0 1 -0.353,0.284 2.118,2.118 0 0 1 -0.358,0.205 1.826,1.826 0 0 1 -0.392,0.125 2.356,2.356 0 0 1 -0.461,0.042 1.836,1.836 0 0 1 -0.554,-0.08 1.206,1.206 0 0 1 -0.436,-0.243 1.105,1.105 0 0 1 -0.284,-0.4 1.432,1.432 0 0 1 -0.1,-0.561 1.1,1.1 0 0 1 0.141,-0.53 1.324,1.324 0 0 1 0.468,-0.473 2.982,2.982 0 0 1 0.873,-0.349 5.557,5.557 0 0 1 1.352,-0.139 v -0.279 a 1.057,1.057 0 0 0 -0.2,-0.709 0.733,0.733 0 0 0 -0.584,-0.23 1.418,1.418 0 0 0 -0.461,0.064 1.8,1.8 0 0 0 -0.321,0.146 c -0.091,0.054 -0.175,0.1 -0.252,0.146 a 0.511,0.511 0 0 1 -0.254,0.064 0.333,0.333 0 0 1 -0.2,-0.059 0.48,0.48 0 0 1 -0.134,-0.148 l -0.208,-0.365 a 2.817,2.817 0 0 1 1.971,-0.748 1.913,1.913 0 0 1 0.741,0.136 1.581,1.581 0 0 1 0.552,0.379 1.637,1.637 0 0 1 0.344,0.579 2.224,2.224 0 0 1 0.117,0.738 z"
       transform="translate(-63.731,-35.879)"
       inkscape:connector-curvature="0"
       style="fill:#003d87" />
    <path
       id="Path_6519"
       data-name="Path 6519"
       d="m 640.071,411.237 h 0.475 a 1.237,1.237 0 0 0 0.411,-0.061 0.745,0.745 0 0 0 0.278,-0.169 0.665,0.665 0 0 0 0.157,-0.254 0.964,0.964 0 0 0 0.049,-0.312 0.659,0.659 0 0 0 -0.218,-0.525 1.024,1.024 0 0 0 -0.677,-0.188 h -0.475 z m 0,0.815 v 1.885 h -1.182 v -5.1 h 1.657 a 3.417,3.417 0 0 1 0.942,0.113 1.756,1.756 0 0 1 0.637,0.316 1.193,1.193 0 0 1 0.359,0.479 1.584,1.584 0 0 1 0.112,0.6 1.614,1.614 0 0 1 -0.066,0.469 1.46,1.46 0 0 1 -0.2,0.408 1.522,1.522 0 0 1 -0.322,0.333 1.66,1.66 0 0 1 -0.438,0.242 1.187,1.187 0 0 1 0.222,0.146 0.882,0.882 0 0 1 0.18,0.214 l 1.084,1.773 h -1.07 a 0.452,0.452 0 0 1 -0.427,-0.225 l -0.847,-1.479 a 0.359,0.359 0 0 0 -0.131,-0.139 0.427,0.427 0 0 0 -0.212,-0.042 z"
       transform="translate(-32.763,-27.967)"
       inkscape:connector-curvature="0"
       style="fill:#003d87" />
    <path
       id="Path_6520"
       data-name="Path 6520"
       d="m 654.531,408.841 v 0.91 h -2.092 v 1.189 h 1.6 v 0.874 h -1.6 v 1.214 h 2.092 v 0.91 h -3.28 v -5.1 z"
       transform="translate(-36.986,-27.967)"
       inkscape:connector-curvature="0"
       style="fill:#003d87" />
    <path
       id="Path_6521"
       data-name="Path 6521"
       d="m 664.8,413.055 a 2.083,2.083 0 0 0 0.434,-0.042 2.226,2.226 0 0 0 0.356,-0.113 v -0.773 h -0.5 a 0.245,0.245 0 0 1 -0.175,-0.059 0.2,0.2 0 0 1 -0.063,-0.151 v -0.65 h 1.812 v 2.151 a 2.668,2.668 0 0 1 -0.407,0.247 2.57,2.57 0 0 1 -0.451,0.169 3.236,3.236 0 0 1 -0.511,0.1 5.038,5.038 0 0 1 -0.582,0.032 2.661,2.661 0 0 1 -1.036,-0.2 2.471,2.471 0 0 1 -1.377,-1.366 2.666,2.666 0 0 1 -0.2,-1.037 2.833,2.833 0 0 1 0.189,-1.047 2.368,2.368 0 0 1 0.541,-0.824 2.452,2.452 0 0 1 0.849,-0.539 3.087,3.087 0 0 1 1.114,-0.192 3.186,3.186 0 0 1 0.6,0.053 2.934,2.934 0 0 1 0.516,0.143 2.388,2.388 0 0 1 0.432,0.216 2.314,2.314 0 0 1 0.349,0.274 l -0.342,0.52 a 0.382,0.382 0 0 1 -0.117,0.115 0.275,0.275 0 0 1 -0.148,0.043 0.413,0.413 0 0 1 -0.217,-0.071 c -0.094,-0.056 -0.181,-0.1 -0.264,-0.145 a 1.767,1.767 0 0 0 -0.254,-0.1 1.836,1.836 0 0 0 -0.273,-0.056 2.793,2.793 0 0 0 -0.322,-0.016 1.477,1.477 0 0 0 -0.6,0.117 1.265,1.265 0 0 0 -0.452,0.331 1.479,1.479 0 0 0 -0.289,0.513 2.063,2.063 0 0 0 -0.1,0.665 2.153,2.153 0 0 0 0.112,0.721 1.561,1.561 0 0 0 0.309,0.531 1.313,1.313 0 0 0 0.469,0.331 1.519,1.519 0 0 0 0.593,0.113"
       transform="translate(-40.696,-27.938)"
       inkscape:connector-curvature="0"
       style="fill:#003d87" />
    <rect
       id="Rectangle_407"
       data-name="Rectangle 407"
       width="1.189"
       height="5.0970001"
       transform="translate(630.277,380.873)"
       x="0"
       y="0"
       style="fill:#003d87" />
    <path
       id="Path_6522"
       data-name="Path 6522"
       d="m 687.8,411.358 a 2.215,2.215 0 0 0 -0.1,-0.68 1.446,1.446 0 0 0 -0.282,-0.512 1.218,1.218 0 0 0 -0.45,-0.322 1.535,1.535 0 0 0 -0.6,-0.111 1.558,1.558 0 0 0 -0.61,0.111 1.221,1.221 0 0 0 -0.452,0.322 1.443,1.443 0 0 0 -0.281,0.512 2.416,2.416 0 0 0 0,1.364 1.448,1.448 0 0 0 0.281,0.512 1.209,1.209 0 0 0 0.452,0.32 1.6,1.6 0 0 0 0.61,0.109 1.572,1.572 0 0 0 0.6,-0.109 1.206,1.206 0 0 0 0.45,-0.32 1.451,1.451 0 0 0 0.282,-0.512 2.233,2.233 0 0 0 0.1,-0.684 m 1.21,0 a 2.749,2.749 0 0 1 -0.19,1.028 2.428,2.428 0 0 1 -1.371,1.379 3.046,3.046 0 0 1 -2.166,0 2.43,2.43 0 0 1 -1.377,-1.379 2.87,2.87 0 0 1 0,-2.057 2.453,2.453 0 0 1 0.539,-0.825 2.492,2.492 0 0 1 0.839,-0.55 2.867,2.867 0 0 1 1.085,-0.2 2.821,2.821 0 0 1 1.082,0.2 2.5,2.5 0 0 1 0.835,0.551 2.45,2.45 0 0 1 0.537,0.826 2.736,2.736 0 0 1 0.19,1.024"
       transform="translate(-48.079,-27.938)"
       inkscape:connector-curvature="0"
       style="fill:#003d87" />
    <path
       id="Path_6523"
       data-name="Path 6523"
       d="m 698.662,408.848 a 0.375,0.375 0 0 1 0.094,0.026 0.289,0.289 0 0 1 0.08,0.055 0.835,0.835 0 0 1 0.088,0.094 l 2.421,3.061 c -0.01,-0.1 -0.016,-0.193 -0.021,-0.285 -0.005,-0.092 -0.008,-0.179 -0.008,-0.26 v -2.7 h 1.043 v 5.1 h -0.616 a 0.569,0.569 0 0 1 -0.23,-0.042 0.489,0.489 0 0 1 -0.183,-0.154 l -2.4,-3.036 c 0.007,0.089 0.013,0.176 0.017,0.26 0.004,0.084 0.007,0.165 0.007,0.24 v 2.732 h -1.041 v -5.1 h 0.622 a 1,1 0 0 1 0.129,0.007"
       transform="translate(-52.93,-27.967)"
       inkscape:connector-curvature="0"
       style="fill:#003d87" />
    <path
       id="Path_6524"
       data-name="Path 6524"
       d="m 712.493,411.988 h 1.392 l -0.469,-1.4 c -0.03,-0.088 -0.066,-0.193 -0.106,-0.312 -0.04,-0.119 -0.082,-0.251 -0.121,-0.39 -0.038,0.143 -0.076,0.274 -0.115,0.4 -0.039,0.126 -0.077,0.226 -0.111,0.315 z m 3.274,1.949 h -0.916 a 0.436,0.436 0 0 1 -0.254,-0.071 0.371,0.371 0 0 1 -0.137,-0.184 l -0.3,-0.889 h -1.94 l -0.3,0.889 a 0.388,0.388 0 0 1 -0.137,0.176 0.393,0.393 0 0 1 -0.248,0.079 h -0.924 l 1.972,-5.1 h 1.211 z"
       transform="translate(-57.27,-27.967)"
       inkscape:connector-curvature="0"
       style="fill:#003d87" />
    <path
       id="Path_6525"
       data-name="Path 6525"
       d="m 725.548,412.992 h 1.888 v 0.945 h -3.07 v -5.1 h 1.182 z"
       transform="translate(-61.968,-27.967)"
       inkscape:connector-curvature="0"
       style="fill:#003d87" />
    <path
       id="Path_6526"
       data-name="Path 6526"
       d="m 745.805,412.589 a 0.253,0.253 0 0 1 0.084,0.015 0.24,0.24 0 0 1 0.08,0.055 l 0.469,0.492 a 1.948,1.948 0 0 1 -0.771,0.607 2.7,2.7 0 0 1 -1.1,0.2 2.618,2.618 0 0 1 -1.042,-0.2 2.258,2.258 0 0 1 -0.779,-0.545 2.392,2.392 0 0 1 -0.492,-0.826 3.032,3.032 0 0 1 -0.171,-1.037 2.734,2.734 0 0 1 0.2,-1.048 2.432,2.432 0 0 1 0.546,-0.823 2.48,2.48 0 0 1 0.842,-0.539 2.954,2.954 0 0 1 1.08,-0.192 2.813,2.813 0 0 1 0.541,0.051 2.559,2.559 0 0 1 0.474,0.141 2.182,2.182 0 0 1 0.405,0.213 1.9,1.9 0 0 1 0.329,0.274 l -0.4,0.535 a 0.508,0.508 0 0 1 -0.091,0.089 0.242,0.242 0 0 1 -0.148,0.04 0.265,0.265 0 0 1 -0.119,-0.027 c -0.038,-0.019 -0.077,-0.042 -0.119,-0.069 l -0.138,-0.087 a 1,1 0 0 0 -0.179,-0.088 1.468,1.468 0 0 0 -0.241,-0.068 1.615,1.615 0 0 0 -0.324,-0.028 1.481,1.481 0 0 0 -0.588,0.113 1.278,1.278 0 0 0 -0.456,0.325 1.525,1.525 0 0 0 -0.3,0.513 2.005,2.005 0 0 0 -0.107,0.674 2.09,2.09 0 0 0 0.107,0.7 1.532,1.532 0 0 0 0.291,0.512 1.231,1.231 0 0 0 0.428,0.316 1.263,1.263 0 0 0 0.525,0.109 2.5,2.5 0 0 0 0.293,-0.016 1.213,1.213 0 0 0 0.247,-0.054 1.1,1.1 0 0 0 0.217,-0.1 1.38,1.38 0 0 0 0.208,-0.152 0.389,0.389 0 0 1 0.092,-0.057 0.241,0.241 0 0 1 0.1,-0.023"
       transform="translate(-68.024,-27.938)"
       inkscape:connector-curvature="0"
       style="fill:#003d87" />
    <path
       id="Path_6527"
       data-name="Path 6527"
       d="m 758.492,411.358 a 2.219,2.219 0 0 0 -0.1,-0.68 1.445,1.445 0 0 0 -0.282,-0.512 1.218,1.218 0 0 0 -0.45,-0.322 1.534,1.534 0 0 0 -0.6,-0.111 1.558,1.558 0 0 0 -0.61,0.111 1.223,1.223 0 0 0 -0.452,0.322 1.446,1.446 0 0 0 -0.281,0.512 2.416,2.416 0 0 0 0,1.364 1.451,1.451 0 0 0 0.281,0.512 1.211,1.211 0 0 0 0.452,0.32 1.6,1.6 0 0 0 0.61,0.109 1.571,1.571 0 0 0 0.6,-0.109 1.205,1.205 0 0 0 0.45,-0.32 1.45,1.45 0 0 0 0.282,-0.512 2.237,2.237 0 0 0 0.1,-0.684 m 1.21,0 a 2.75,2.75 0 0 1 -0.191,1.028 2.427,2.427 0 0 1 -1.371,1.379 3.046,3.046 0 0 1 -2.166,0 2.43,2.43 0 0 1 -1.377,-1.379 2.871,2.871 0 0 1 0,-2.057 2.454,2.454 0 0 1 0.539,-0.825 2.491,2.491 0 0 1 0.839,-0.55 2.866,2.866 0 0 1 1.084,-0.2 2.821,2.821 0 0 1 1.082,0.2 2.5,2.5 0 0 1 0.835,0.551 2.451,2.451 0 0 1 0.537,0.826 2.736,2.736 0 0 1 0.191,1.024"
       transform="translate(-72.234,-27.938)"
       inkscape:connector-curvature="0"
       style="fill:#003d87" />
    <path
       id="Path_6528"
       data-name="Path 6528"
       d="m 770.688,413 a 1.081,1.081 0 0 0 0.424,-0.079 0.85,0.85 0 0 0 0.316,-0.225 0.991,0.991 0 0 0 0.2,-0.359 1.583,1.583 0 0 0 0.068,-0.481 v -3.019 h 1.183 v 3.019 a 2.355,2.355 0 0 1 -0.152,0.86 1.951,1.951 0 0 1 -0.435,0.675 1.976,1.976 0 0 1 -0.69,0.441 2.744,2.744 0 0 1 -1.829,0 1.975,1.975 0 0 1 -0.69,-0.441 1.9,1.9 0 0 1 -0.433,-0.675 2.383,2.383 0 0 1 -0.151,-0.86 v -3.019 h 1.183 v 3.015 a 1.584,1.584 0 0 0 0.068,0.481 1.015,1.015 0 0 0 0.2,0.361 0.838,0.838 0 0 0 0.316,0.227 1.081,1.081 0 0 0 0.425,0.079"
       transform="translate(-77.09,-27.967)"
       inkscape:connector-curvature="0"
       style="fill:#003d87" />
    <path
       id="Path_6529"
       data-name="Path 6529"
       d="m 782.368,408.848 a 0.376,0.376 0 0 1 0.094,0.026 0.291,0.291 0 0 1 0.08,0.055 0.841,0.841 0 0 1 0.088,0.094 l 2.421,3.061 c -0.01,-0.1 -0.017,-0.193 -0.021,-0.285 -0.004,-0.092 -0.008,-0.179 -0.008,-0.26 v -2.7 h 1.043 v 5.1 h -0.616 a 0.568,0.568 0 0 1 -0.229,-0.042 0.489,0.489 0 0 1 -0.183,-0.154 l -2.4,-3.036 c 0.007,0.089 0.013,0.176 0.017,0.26 0.004,0.084 0.007,0.165 0.007,0.24 v 2.732 h -1.041 v -5.1 h 0.622 a 1,1 0 0 1 0.129,0.007"
       transform="translate(-81.561,-27.967)"
       inkscape:connector-curvature="0"
       style="fill:#003d87" />
    <path
       id="Path_6530"
       data-name="Path 6530"
       d="m 798.215,412.589 a 0.254,0.254 0 0 1 0.084,0.015 0.242,0.242 0 0 1 0.08,0.055 l 0.469,0.492 a 1.947,1.947 0 0 1 -0.771,0.607 2.7,2.7 0 0 1 -1.1,0.2 2.618,2.618 0 0 1 -1.042,-0.2 2.258,2.258 0 0 1 -0.779,-0.545 2.394,2.394 0 0 1 -0.492,-0.826 3.032,3.032 0 0 1 -0.171,-1.037 2.736,2.736 0 0 1 0.2,-1.048 2.432,2.432 0 0 1 0.547,-0.823 2.479,2.479 0 0 1 0.842,-0.539 2.953,2.953 0 0 1 1.08,-0.192 2.811,2.811 0 0 1 0.541,0.051 2.559,2.559 0 0 1 0.474,0.141 2.188,2.188 0 0 1 0.405,0.213 1.9,1.9 0 0 1 0.329,0.274 l -0.4,0.535 a 0.506,0.506 0 0 1 -0.091,0.089 0.241,0.241 0 0 1 -0.148,0.04 0.265,0.265 0 0 1 -0.119,-0.027 c -0.038,-0.019 -0.077,-0.042 -0.119,-0.069 l -0.138,-0.087 a 1,1 0 0 0 -0.179,-0.088 1.466,1.466 0 0 0 -0.241,-0.068 1.615,1.615 0 0 0 -0.324,-0.028 1.482,1.482 0 0 0 -0.588,0.113 1.278,1.278 0 0 0 -0.456,0.325 1.526,1.526 0 0 0 -0.3,0.513 2.007,2.007 0 0 0 -0.107,0.674 2.092,2.092 0 0 0 0.107,0.7 1.534,1.534 0 0 0 0.291,0.512 1.232,1.232 0 0 0 0.429,0.316 1.263,1.263 0 0 0 0.525,0.109 2.5,2.5 0 0 0 0.293,-0.016 1.215,1.215 0 0 0 0.247,-0.054 1.1,1.1 0 0 0 0.217,-0.1 1.383,1.383 0 0 0 0.208,-0.152 0.389,0.389 0 0 1 0.092,-0.057 0.241,0.241 0 0 1 0.1,-0.023"
       transform="translate(-85.95,-27.938)"
       inkscape:connector-curvature="0"
       style="fill:#003d87" />
    <rect
       id="Rectangle_408"
       data-name="Rectangle 408"
       width="1.189"
       height="5.0970001"
       transform="translate(717.041,380.873)"
       x="0"
       y="0"
       style="fill:#003d87" />
    <path
       id="Path_6531"
       data-name="Path 6531"
       d="m 817.107,412.992 h 1.888 v 0.945 h -3.07 v -5.1 h 1.182 z"
       transform="translate(-93.251,-27.967)"
       inkscape:connector-curvature="0"
       style="fill:#003d87" />
  </g>
</svg>
