<svg id="Group_6650" data-name="Group 6650" xmlns="http://www.w3.org/2000/svg" viewBox="0 0 292.056 52">
  <defs>
    <style>
      .cls-1 {
        fill: #fff;
      }

      .cls-2 {
        fill: #223a76;
      }

      .cls-3 {
        fill: #29aa49;
      }
    </style>
  </defs>
  <g id="Group_6648" data-name="Group 6648">
    <path id="Path_6343" data-name="Path 6343" class="cls-1" d="M47.346,25.732a4.96,4.96,0,0,1-3.378.626,1.4,1.4,0,0,1-1.076-1.351c-.075-.7.6-1.476,1.476-2.227a3.089,3.089,0,0,0,1.126-2.753A1.788,1.788,0,0,0,44.142,18.4a6.716,6.716,0,0,0-3.3-.325,24.281,24.281,0,0,0-6.932,1.5,34.151,34.151,0,0,0-6.056,3.278A41.86,41.86,0,0,1,21.6,25.907a4.3,4.3,0,0,1-2.9.2c-.7-.225-1.1-.626-1.276-1.677s.551-1.827,1.426-2.6,3-1.877,3.453-2.327a1.178,1.178,0,0,0-.025-1.727c-.526-.626-2.2-.951-3.353-1.026a24.31,24.31,0,0,0-6.756.8,22.432,22.432,0,0,0-5.731,2.277C4.4,20.852,0,23.479,0,23.479v5.455a25.254,25.254,0,0,1,4.3-3.829A11.2,11.2,0,0,1,9.96,22.754a2.54,2.54,0,0,1,2.427,4.054c-1.6,2.1-2.4,2.352-3.854,4.73-1.4,2.377-3.028,5.28-2.7,7.582S7.257,41.8,8.884,41.8c1.6,0,3.353-1.351,6.556-4.4A86.834,86.834,0,0,1,26.2,28.734c2.152-1.276,4.955-2.4,6.756-2.327s2.427,1.151,2.2,2.077a6.291,6.291,0,0,1-2.027,3.028c-1.326,1.326-5.781,3.929-7.732,7.732-1.977,3.8-2.2,6.106-.2,7.808,2.027,1.7,5.856.45,8.633-2.1s8.208-7.432,10.885-8.884,6.756-2.878,9.559-2.3V20.552A12.563,12.563,0,0,0,51.2,23.029,14.617,14.617,0,0,1,47.346,25.732Z" transform="translate(0 -12.544)"/>
    <path id="Path_6344" data-name="Path 6344" class="cls-2" d="M44.718,54.115C42.04,55.567,36.61,60.446,33.833,63s-6.606,3.8-8.633,2.1c-2.027-1.727-1.777-4,.2-7.808s6.406-6.406,7.732-7.732a6.291,6.291,0,0,0,2.027-3.028c.225-.926-.425-2-2.2-2.077-1.8-.075-4.579,1.051-6.756,2.327a86.833,86.833,0,0,0-10.76,8.658c-3.2,3.053-4.955,4.4-6.556,4.4s-2.7-.375-3.053-2.678c-.325-2.327,1.3-5.23,2.753-7.607,1.426-2.377,2.227-2.628,3.829-4.73a2.545,2.545,0,0,0-2.427-4.054A11.071,11.071,0,0,0,4.329,43.13,23.975,23.975,0,0,0,0,46.933V82.568H54.252V51.813C51.449,51.238,47.4,52.689,44.718,54.115Z" transform="translate(0 -30.568)"/>
    <path id="Path_6345" data-name="Path 6345" class="cls-3" d="M0,0V10.936s4.4-2.6,6.406-3.7a22.432,22.432,0,0,1,5.731-2.277,24.4,24.4,0,0,1,6.756-.8c1.151.075,2.8.425,3.353,1.026a1.2,1.2,0,0,1,.025,1.727c-.45.45-2.577,1.551-3.453,2.327s-1.6,1.551-1.426,2.6a1.8,1.8,0,0,0,1.276,1.677,4.3,4.3,0,0,0,2.9-.2,43.072,43.072,0,0,0,6.256-3.053,34.319,34.319,0,0,1,6.056-3.278,24.281,24.281,0,0,1,6.932-1.5,6.657,6.657,0,0,1,3.3.325,1.76,1.76,0,0,1,1.351,1.627,3.089,3.089,0,0,1-1.126,2.753c-.876.751-1.551,1.526-1.476,2.227a1.448,1.448,0,0,0,1.076,1.351,4.96,4.96,0,0,0,3.378-.626,13.494,13.494,0,0,0,3.829-2.678,12.432,12.432,0,0,1,3.078-2.477V0Z"/>
  </g>
  <g id="Group_6649" data-name="Group 6649" transform="translate(64.362 5.23)">
    <path id="Path_6346" data-name="Path 6346" d="M479.436,130.65c.525.551.525,2.7.525,6.531v.876c0,3.654-.025,5.705-.525,6.231h.751c1.777,0,3.228.05,4.354.05a12.1,12.1,0,0,0,2.127-.175l.476-2.127c-.826,1.2-2.052,1.476-4.029,1.476-.35,0-.726,0-1.126-.025a48.6,48.6,0,0,1-.2-5.756v-.876c0-3.629.025-5.68.526-6.206Zm-8.558,13.638h2.878c-.5-.5-.526-2.477-.526-6.006v-1.652c0-3.5.025-5.455.526-5.981h-2.878c.526.551.526,2.7.526,6.531v.876c.025,3.654,0,5.705-.526,6.231m-5.831-13.638c-1.051,0-2.1-.25-3.178-.25-4.579,0-7.232,2.753-7.232,7.207,0,4.129,2.7,6.932,6.356,6.932,2.477,0,4.3-1.326,4.8-3.253a5.007,5.007,0,0,1-3.8,1.677c-3.1,0-5.255-2.227-5.255-5.981,0-3.528,1.852-5.655,4.88-5.655a3.3,3.3,0,0,1,3.278,2.227Zm-25.775,1.627c4.029,6.006,6.882,9.96,8.233,12.087h1.376v-7.057c0-4,.05-6.181.551-6.656h-2.027c.5.6.551,2.3.551,5.255l-.025,5.956c-2.577-3.5-4.6-6.807-6.531-9.634-.776-1.176-.926-1.577-1.627-1.577h-2.2c.776.551.776,2.327.776,5.555,0,4.654-.2,7.332-.776,8.083h2.452c-.6-.9-.676-2.577-.7-5.155Zm-9.409,12.012h2.327c-.551-.551-.551-2.8-.551-6.832s0-6.256.551-6.807h-2.9c.525.551.525,2.778.525,6.807,0,4-.7,5.931-3.478,5.931-3,0-3.328-1.9-3.328-5.355,0-4.454.025-6.882.551-7.382h-2.878c.526.576.526,2.778.526,6.807,0,.551-.025,1.4-.025,2.527,0,3.053,1.251,4.554,4.329,4.554a4.927,4.927,0,0,0,4.4-2.252Zm-20.67-.776c-2.953,0-4.755-2.277-4.755-6.356,0-3.754,1.752-5.806,4.479-5.806,2.7,0,4.429,2.377,4.429,6.481-.025,3.654-1.627,5.68-4.154,5.68m-.676,1.026c4.179,0,6.932-2.9,6.932-7.457,0-4.429-2.127-6.681-6.306-6.681-4.454,0-6.857,2.6-6.857,7.332,0,4.354,2.252,6.807,6.231,6.807M396.881,130.65c-1.051,0-2.1-.25-3.178-.25-4.579,0-7.232,2.753-7.232,7.207,0,4.129,2.7,6.932,6.356,6.932,2.477,0,4.329-1.326,4.8-3.253a5.007,5.007,0,0,1-3.8,1.677c-3.1,0-5.255-2.227-5.255-5.981,0-3.528,1.852-5.655,4.88-5.655a3.3,3.3,0,0,1,3.278,2.227Zm-31.255,0c.525.551.525,2.7.525,6.531v.876c0,3.654-.025,5.705-.525,6.231h.751c1.777,0,3.228.05,4.354.05a12.1,12.1,0,0,0,2.127-.175l.475-2.127c-.826,1.2-2.052,1.476-4.029,1.476-.35,0-.726,0-1.126-.025a48.6,48.6,0,0,1-.2-5.756v-.876c0-3.629.025-5.68.526-6.206Zm-13.238,6.932,2.3-5.48,2,5.48Zm-4.73,6.706h2.728a1.869,1.869,0,0,1-.1-.651,8.283,8.283,0,0,1,.876-3.028l.926-2.227h4.955l2.152,5.906h2.327c-1.2-1.727-3.053-6.256-5.28-13.638h-2.628a1.486,1.486,0,0,1,.175.651,32.211,32.211,0,0,1-2.077,5.756,31.841,31.841,0,0,1-4.054,7.232m-13.938-12.012c4.029,6.006,6.882,9.96,8.233,12.087h1.376v-7.057c0-4,.05-6.181.551-6.656h-2.027c.5.6.551,2.3.551,5.255l-.025,5.956c-2.577-3.5-4.6-6.807-6.531-9.634-.776-1.176-.926-1.577-1.627-1.577h-2.2c.776.551.776,2.327.776,5.555,0,4.654-.2,7.332-.776,8.083h2.452c-.6-.9-.676-2.577-.7-5.155Zm-12.912,11.236c-2.953,0-4.755-2.277-4.755-6.356,0-3.754,1.752-5.806,4.479-5.806,2.7,0,4.429,2.377,4.429,6.481-.025,3.654-1.627,5.68-4.154,5.68m-.676,1.026c4.179,0,6.932-2.9,6.932-7.457,0-4.429-2.127-6.681-6.306-6.681-4.454,0-6.857,2.6-6.857,7.332,0,4.354,2.252,6.807,6.231,6.807m-14.339-.25h2.878c-.5-.5-.525-2.477-.525-6.006v-1.652c0-3.5.025-5.455.525-5.981h-2.878c.526.551.526,2.7.526,6.531v.876c0,3.654-.025,5.705-.526,6.231m-8.433-6.857c.4.5.526,1.627.526,3.378a15.715,15.715,0,0,1-.175,2.5,6.481,6.481,0,0,1-1.576.175c-3.754,0-6.056-2.177-6.056-6.006,0-3.779,2.127-6.131,5.48-6.131a5.284,5.284,0,0,1,4.129,1.777l.025-2.477a24.888,24.888,0,0,0-3.328-.25c-5.33,0-8.508,2.9-8.508,7.432,0,4.279,2.528,6.706,7.232,6.706.951,0,2.577-.225,4.855-.35a10.632,10.632,0,0,1-.225-2.853c0-1.977.05-3.253.5-3.9Zm-22.747,6.857h1.752c1.777,0,3.228.05,4.354.05a12.1,12.1,0,0,0,2.127-.175l.35-2.127c-.9,1.2-2.4,1.476-4.8,1.476h-1.226a27.743,27.743,0,0,1-.2-4.479v-1.376c.225,0,.425.025.551.025,2.2,0,3.754-.075,4.729-1.226a20.141,20.141,0,0,1-3.628.225c-.626,0-1.176,0-1.652-.05v-.7a27.743,27.743,0,0,1,.2-4.479h1.2c2.227,0,3.453.1,3.879,1.176l-.175-2c-.425,0-.651-.025-.751-.025-1.1,0-2.9.075-5.38.075h-1.326c.526.551.526,2.7.526,6.531v.876c.025,3.628,0,5.68-.526,6.206M260.826,130.65H260.2c.526.551.526,2.7.526,6.531v.876c0,3.654-.025,5.705-.526,6.231h2.878c-.525-.6-.525-2.327-.525-5.28v-1.3h.175a1.706,1.706,0,0,1,1.627.926l3.628,5.1a1.046,1.046,0,0,0,1.051.551h2.027a12.783,12.783,0,0,1-2.552-2.8l-3.028-4.229c2.127-.9,3.228-2.277,3.228-4.029,0-1.777-1.1-2.728-3.278-2.728-.9,0-2.452.15-4.6.15m1.727,6.231v-1.2a25.778,25.778,0,0,1,.2-4.254,8.78,8.78,0,0,1,1.351-.075c1.752,0,2.577.8,2.577,2.477a2.869,2.869,0,0,1-3.2,3.128,2.787,2.787,0,0,1-.926-.075" transform="translate(-259.449 -102.999)"/>
    <path id="Path_6347" data-name="Path 6347" d="M474.284,40.919h4.154c-.776-.8-.776-3.854-.776-9.409,0-2.552.025-5.43.15-8.633l3.729-.025a3.441,3.441,0,0,0,3.3-1.551H469.279l-.726,2.427a4.962,4.962,0,0,1,3.028-.776h3.253c.15,2.9.175,5.605.175,8.158v1.2c.05,5.03,0,7.833-.726,8.608m-20.044-.8a15.688,15.688,0,0,0,5.43,1.151c4.1,0,7.007-2.778,7.007-5.931,0-2.377-1.6-3.979-4.7-5.63-2.377-1.251-4.254-2.177-4.254-4.354,0-1.777,1.451-3.1,4.129-3.1a4.413,4.413,0,0,1,4.054,2V21.075h-.776c-.25,0-.425-.025-.576-.025-.576,0-1.677-.125-3.253-.125-3.979,0-6.381,2.277-6.381,5.1,0,3.053,2.377,4.229,5.58,5.981,2.152,1.176,3.278,2.327,3.278,4.154a3.705,3.705,0,0,1-4,3.729,6.115,6.115,0,0,1-5.505-3.128v3.353ZM440.651,31.26l3.3-7.908,2.878,7.908Zm-6.807,9.659h3.929a2.914,2.914,0,0,1-.15-.951,11.974,11.974,0,0,1,1.251-4.354l1.326-3.2h7.132l3.1,8.508h3.328c-1.752-2.477-4.4-9.009-7.582-19.619h-3.8a2.07,2.07,0,0,1,.25.951c0,.425-.851,3.3-3,8.308a44.453,44.453,0,0,1-5.781,10.36m-9.234-1.1c-4.254,0-6.857-3.278-6.857-9.159,0-5.43,2.5-8.358,6.456-8.358,3.879,0,6.381,3.428,6.381,9.334,0,5.23-2.327,8.183-5.981,8.183m-.951,1.476c6.031,0,9.985-4.2,9.985-10.76,0-6.356-3.053-9.609-9.084-9.609-6.431,0-9.884,3.729-9.884,10.56,0,6.281,3.228,9.809,8.984,9.809M411.473,21.275c-1.526,0-3.028-.375-4.554-.375-6.581,0-10.41,3.979-10.41,10.385,0,5.931,3.879,9.985,9.159,9.985,3.578,0,6.206-1.9,6.932-4.679a7.205,7.205,0,0,1-5.48,2.427c-4.479,0-7.557-3.2-7.557-8.608,0-5.08,2.653-8.158,7.032-8.158a4.706,4.706,0,0,1,4.7,3.2ZM376.915,40.919h4.154c-.776-.8-.776-3.854-.776-9.409,0-2.552.025-5.43.15-8.633l3.729-.025a3.441,3.441,0,0,0,3.3-1.551H371.91l-.726,2.427a4.962,4.962,0,0,1,3.028-.776h3.253c.15,2.9.175,5.605.175,8.158v1.2c.025,5.03,0,7.833-.726,8.608m-20.069-.8a15.688,15.688,0,0,0,5.43,1.151c4.1,0,7.007-2.778,7.007-5.931,0-2.377-1.6-3.979-4.7-5.63-2.377-1.251-4.254-2.177-4.254-4.354,0-1.777,1.451-3.1,4.129-3.1a4.413,4.413,0,0,1,4.054,2V21.075h-.776c-.25,0-.425-.025-.576-.025-.576,0-1.677-.125-3.253-.125-3.979,0-6.381,2.277-6.381,5.1,0,3.053,2.377,4.229,5.58,5.981,2.152,1.176,3.278,2.327,3.278,4.154a3.705,3.705,0,0,1-4,3.729,6.115,6.115,0,0,1-5.505-3.128v3.353Zm-14.264.8h2.5c2.577,0,4.654.05,6.281.05a16.619,16.619,0,0,0,3.053-.25l.526-3.053c-1.276,1.752-3.453,2.1-6.932,2.1h-1.777a39.52,39.52,0,0,1-.275-6.456v-2c.325,0,.6.025.8.025,3.153,0,5.38-.125,6.832-1.777a30.347,30.347,0,0,1-5.23.325c-.876,0-1.677,0-2.377-.05v-1a39.142,39.142,0,0,1,.275-6.431h1.727c3.2,0,4.98.15,5.58,1.677l-.25-2.878c-.6,0-.951-.025-1.076-.025-1.6,0-4.154.1-7.757.1h-1.9c.776.8.776,3.879.776,9.409v1.251c0,5.28-.05,8.208-.776,8.984m-9.859.15h2.552c2.6-11.111,4.229-17.767,6.106-19.794h-4.054a3.5,3.5,0,0,1,.576,2.177,31.641,31.641,0,0,1-1.176,6.406l-2.152,8.658L331.021,25.2a8.751,8.751,0,0,1-.375-2.027,3.309,3.309,0,0,1,.7-1.9h-5.23a3.63,3.63,0,0,1,.8,2.227,22.07,22.07,0,0,1-1.326,6.031l-2.978,8.984c-.525-3.7-1.2-8.533-2.427-14.539-.525-2.477-.676-2.7-2.077-2.7h-1.952c.851.851,2.928,7.532,4.479,19.794h2.627c1.076-4.354,3.253-9.734,4.955-16.591l3.428,12.137a29.808,29.808,0,0,1,1.076,4.454m-38.062-.15h2.5c2.578,0,4.655.05,6.281.05a16.619,16.619,0,0,0,3.053-.25l.526-3.053c-1.276,1.752-3.453,2.1-6.932,2.1h-1.777a39.511,39.511,0,0,1-.275-6.456v-2c.325,0,.6.025.8.025,3.153,0,5.38-.125,6.832-1.777a30.349,30.349,0,0,1-5.23.325c-.876,0-1.677,0-2.377-.05v-1a39.147,39.147,0,0,1,.275-6.431h1.727c3.2,0,4.98.15,5.58,1.677L305.4,21.2c-.6,0-.951-.025-1.076-.025-1.6,0-4.154.1-7.757.1h-1.9c.776.8.776,3.879.776,9.409v1.251c-.025,5.28-.05,8.208-.776,8.984M287.7,29.859h-9.159v-1c0-4.254,0-6.706.776-7.557h-4.154c.751.776.751,3.879.751,9.384v1.251c0,5.255-.025,8.208-.776,8.984H279.3c-.776-.851-.776-3.328-.776-7.582V31.01h9.159v2.327c0,4.254-.05,6.731-.8,7.582h4.2c-.726-.726-.776-3.578-.776-8.633V29.909c0-5.055.025-7.858.776-8.608h-4.2c.776.851.8,3.3.8,7.557v1ZM262.931,40.919h4.154c-.776-.8-.776-3.854-.776-9.409,0-2.552.025-5.43.15-8.633l3.729-.025a3.441,3.441,0,0,0,3.3-1.551H257.926l-.726,2.427a4.962,4.962,0,0,1,3.028-.776h3.253c.15,2.9.175,5.605.175,8.158v1.2c.05,5.03,0,7.833-.726,8.608" transform="translate(-257.2 -20.9)"/>
  </g>
</svg>
