<svg xmlns="http://www.w3.org/2000/svg" xmlns:xlink="http://www.w3.org/1999/xlink" version="1.1" viewBox="0 0 2500 500" style="background: #ffffff"><defs><style>@import url(https://fonts.googleapis.com/css?family=Open+Sans:400,700);</style></defs><g transform="translate(25,100)"><rect width="150" height="75" rx="15" ry="15" x="15" y="0" fill="#ffe9a2" stroke-width="2" stroke="#e6d292"/><rect width="450" height="262.5" rx="6" ry="6" x="0" y="37.5" fill="#ffe9a2" stroke-width="2" stroke="#e6d292"/><text x="225" y="150.75" text-anchor="middle" fill="#ffffff" font-size="30px" font-family="Open Sans"><tspan x="225" dy="40px">Document</tspan></text></g><g transform="translate(525,25)"><rect x="0" y="180" width="450" height="270" rx="90" fill="#08427b" stroke-width="2" stroke="#073b6f"/><circle cx="225" cy="100" r="100" fill="#08427b" stroke-width="2" stroke="#073b6f"/><line x1="90" y1="300" x2="90" y2="450" stroke-width="2" stroke="#073b6f"/><line x1="360" y1="300" x2="360" y2="450" stroke-width="2" stroke="#073b6f"/><text x="225" y="257" text-anchor="middle" fill="#ffffff" font-size="30px" font-family="Open Sans"><tspan x="225" dy="40px">Person</tspan></text></g><g transform="translate(1025,100)"><rect width="450" height="300" rx="3" ry="3" x="0" y="0" fill="#1168bd" stroke-width="2" stroke="#0f5eaa"/><text x="225" y="132" text-anchor="middle" fill="#ffffff" font-size="30px" font-family="Open Sans"><tspan x="225" dy="40px">Software System</tspan></text></g><g transform="translate(1525,100)"><rect width="450" height="300" rx="20" ry="20" x="0" y="0" fill="#999999" stroke-width="2" stroke="#8a8a8a"/><text x="225" y="114" text-anchor="middle" fill="#ffffff" font-size="30px" font-family="Open Sans"><tspan x="225" dy="40px">Software System, Existing</tspan><tspan x="225" dy="40px">System</tspan></text></g><g transform="translate(2025,170)"><path d="M390,0 L390,60 L450,30 L 390,0" style="fill:#707070" stroke-dasharray="" /><path d="M0,30 L390,30" style="stroke:#707070; stroke-width: 6; fill: none; stroke-dasharray: 30 30;" /><text x="225" y="77" text-anchor="middle" fill="#707070" font-size="30px" font-family="Open Sans"><tspan x="225" dy="40px">Relationship</tspan></text></g></svg>