<svg xmlns="http://www.w3.org/2000/svg" xmlns:xlink="http://www.w3.org/1999/xlink" version="1.1" viewBox="0 0 2550 2566" style="background: #ffffff"><defs><style>@import url(https://fonts.googleapis.com/css?family=Open+Sans:400,700);</style></defs><defs joint-selector="defs"></defs><g joint-selector="layers"  transform="matrix(1,0,0,1,0,0)"><g ></g><g ><!--z-index:1--><!--z-index:2--><!--z-index:3--><!--z-index:4--><!--z-index:5--><!--z-index:6--><!--z-index:7--><!--z-index:8--><!--z-index:9--><!--z-index:10--><!--z-index:11--><!--z-index:12--><!--z-index:13--><!--z-index:14--><!--z-index:15--><!--z-index:16--><!--z-index:17--><g   id="j_226"  transform="translate(20,2529.6)"><g id="v-2895"><text  id="v-2896" font-size="22px" xml:space="preserve" y="0.8em" font-weight="normal" text-anchor="start" fill="#aaaaaa" pointer-events="none" display="block" font-family="Open Sans"><tspan dy="0" >Monday, 17 March 2025 at 9:21 pm New Zealand Daylight Time</tspan></text></g></g><!--z-index:18--><g   id="j_225"  transform="translate(20,2486.4)"><g id="v-2893"><text  id="v-2894" font-size="36px" xml:space="preserve" y="0.8em" font-weight="normal" text-anchor="start" fill="#000000" pointer-events="none" display="block" font-family="Open Sans"><tspan dy="0" >[Component] EOP Hub - Management API</tspan></text></g></g><!--z-index:19--><g   id="j_227"  transform="translate(1900,165)" style=""><g  id="v-2903" style="opacity: 1;"><rect  id="v-2904" rx="1" ry="1" stroke="#0f5eaa" stroke-width="2" pointer-events="visiblePainted" fill="#1168bd" width="450" height="300" style="fill: rgb(17, 104, 189); stroke: rgb(15, 94, 170);"></rect><text  id="v-2905" font-size="34" xml:space="preserve" y="0.8em" font-weight="bold" text-anchor="middle" pointer-events="visible" font-family="Open Sans" fill="#ffffff" transform="matrix(1,0,0,1,225,88.1)" style="fill: rgb(255, 255, 255);"><tspan dy="0" >Plan Limits Viewer</tspan></text><text  id="v-2906" font-size="17" xml:space="preserve" y="0.8em" text-anchor="middle" font-family="Open Sans" fill="#ffffff" transform="matrix(1,0,0,1,225,128.9)" style="fill: rgb(255, 255, 255);"><tspan dy="0" >[Software System]</tspan></text><text  id="v-2907" font-size="24" xml:space="preserve" y="0.8em" text-anchor="middle" font-family="Open Sans" fill="#ffffff" transform="matrix(1,0,0,1,225,159.3)" style="fill: rgb(255, 255, 255);"><tspan dy="0" >The system for providing Plan Limits</tspan><tspan dy="1.2em" x="0" >information.</tspan></text><g  id="v-2908" color="#ffffff" transform="matrix(1,0,0,1,210,268)" display="none" style="fill: rgb(255, 255, 255);"><g  transform="translate(5 0)"><svg xmlns="http://www.w3.org/2000/svg" width="20" height="20" fill="currentColor" viewBox="0 0 16 16"><path fill-rule="evenodd" d="M6.5 12a5.5 5.5 0 1 0 0-11 5.5 5.5 0 0 0 0 11zM13 6.5a6.5 6.5 0 1 1-13 0 6.5 6.5 0 0 1 13 0z"></path><path d="M10.344 11.742c.03.04.062.078.098.115l3.85 3.85a1 1 0 0 0 1.415-1.414l-3.85-3.85a1.007 1.007 0 0 0-.115-.1 6.538 6.538 0 0 1-1.398 1.4z"></path><path fill-rule="evenodd" d="M6.5 3a.5.5 0 0 1 .5.5V6h2.5a.5.5 0 0 1 0 1H7v2.5a.5.5 0 0 1-1 0V7H3.5a.5.5 0 0 1 0-1H6V3.5a.5.5 0 0 1 .5-.5z"></path></svg></g><g ></g><g ></g><g ></g></g><image  id="v-2909"></image></g></g><!--z-index:20--><g   id="j_229"  transform="translate(1030,520)" style=""><g id="v-2923"><rect  id="v-2924" width="490" height="1811" rx="0" ry="0" fill="#ffffff" stroke="#3c7fc0" stroke-width="1" stroke-dasharray="20,20" pointer-events="none"></rect><text  id="v-2925" font-size="24px" xml:space="preserve" y="1772" font-weight="normal" fill="#3c7fc0" text-anchor="start" pointer-events="visible" font-family="Open Sans" transform="matrix(1,0,0,1,15,0)"><tspan dy="0" >Management API</tspan></text><text  id="v-2926" font-size="17px" xml:space="preserve" y="1796" font-weight="normal" fill="#3c7fc0" text-anchor="start" pointer-events="visible" font-family="Open Sans" transform="matrix(1,0,0,1,15,0)"><tspan dy="0" >[Container]</tspan></text><image  id="v-2927" pointer-events="visible"></image></g></g><!--z-index:21--><g   id="j_228"  transform="translate(1050,540)" style=""><g  id="v-2916" style="opacity: 1;"><rect  id="v-2917" rx="1" ry="1" stroke="#78a8d8" stroke-width="2" pointer-events="visiblePainted" fill="#85bbf0" width="450" height="300" style="fill: rgb(133, 187, 240); stroke: rgb(120, 168, 216);"></rect><text  id="v-2918" font-size="34" xml:space="preserve" y="0.8em" font-weight="bold" text-anchor="middle" pointer-events="visible" font-family="Open Sans" fill="#000000" transform="matrix(1,0,0,1,225,102.5)" style="fill: rgb(0, 0, 0);"><tspan dy="0" >REST API</tspan></text><text  id="v-2919" font-size="17" xml:space="preserve" y="0.8em" text-anchor="middle" font-family="Open Sans" fill="#000000" transform="matrix(1,0,0,1,225,143.3)" style="fill: rgb(0, 0, 0);"><tspan dy="0" >[Component: Spring Boot Endpoints]</tspan></text><text  id="v-2920" font-size="24" xml:space="preserve" y="0.8em" text-anchor="middle" font-family="Open Sans" fill="#000000" transform="matrix(1,0,0,1,225,173.7)" style="fill: rgb(0, 0, 0);"><tspan dy="0" >Allow access to data in the system.</tspan></text><g  id="v-2921" color="#000000" transform="matrix(1,0,0,1,222.5,268)" display="none" style="fill: rgb(0, 0, 0);"><g ></g><g ></g><g ></g><g ></g></g><image  id="v-2922"></image></g></g><!--z-index:22--><g   id="j_230"  transform="translate(1050,1240)" style=""><g  id="v-2937" style="opacity: 1;"><rect  id="v-2938" rx="1" ry="1" stroke="#78a8d8" stroke-width="2" pointer-events="visiblePainted" fill="#85bbf0" width="450" height="300" style="fill: rgb(133, 187, 240); stroke: rgb(120, 168, 216);"></rect><text  id="v-2939" font-size="34" xml:space="preserve" y="0.8em" font-weight="bold" text-anchor="middle" pointer-events="visible" font-family="Open Sans" fill="#000000" transform="matrix(1,0,0,1,225,88.1)" style="fill: rgb(0, 0, 0);"><tspan dy="0" >Data Fetcher - GIS</tspan></text><text  id="v-2940" font-size="17" xml:space="preserve" y="0.8em" text-anchor="middle" font-family="Open Sans" fill="#000000" transform="matrix(1,0,0,1,225,128.9)" style="fill: rgb(0, 0, 0);"><tspan dy="0" >[Component: Spring Scheduled Http Sync]</tspan></text><text  id="v-2941" font-size="24" xml:space="preserve" y="0.8em" text-anchor="middle" font-family="Open Sans" fill="#000000" transform="matrix(1,0,0,1,225,159.3)" style="fill: rgb(0, 0, 0);"><tspan dy="0" >Keeps data store in sync latest</tspan><tspan dy="1.2em" x="0" >version of data from the GIS system</tspan></text><g  id="v-2942" color="#000000" transform="matrix(1,0,0,1,222.5,268)" display="none" style="fill: rgb(0, 0, 0);"><g ></g><g ></g><g ></g><g ></g></g><image  id="v-2943"></image></g></g><!--z-index:23--><g   id="j_231"  transform="translate(1050,1940)" style=""><g  id="v-2950" style="opacity: 1;"><rect  id="v-2951" rx="1" ry="1" stroke="#78a8d8" stroke-width="2" pointer-events="visiblePainted" fill="#85bbf0" width="450" height="300" style="fill: rgb(133, 187, 240); stroke: rgb(120, 168, 216);"></rect><text  id="v-2952" font-size="34" xml:space="preserve" y="0.8em" font-weight="bold" text-anchor="middle" pointer-events="visible" font-family="Open Sans" fill="#000000" transform="matrix(1,0,0,1,225,88.1)" style="fill: rgb(0, 0, 0);"><tspan dy="0" >Loader - Plan Limits</tspan></text><text  id="v-2953" font-size="17" xml:space="preserve" y="0.8em" text-anchor="middle" font-family="Open Sans" fill="#000000" transform="matrix(1,0,0,1,225,128.9)" style="fill: rgb(0, 0, 0);"><tspan dy="0" >[Component: Redgate Flyway]</tspan></text><text  id="v-2954" font-size="24" xml:space="preserve" y="0.8em" text-anchor="middle" font-family="Open Sans" fill="#000000" transform="matrix(1,0,0,1,225,159.3)" style="fill: rgb(0, 0, 0);"><tspan dy="0" >Loads data store with the static plan</tspan><tspan dy="1.2em" x="0" >limits data (SQL Scripts)</tspan></text><g  id="v-2955" color="#000000" transform="matrix(1,0,0,1,222.5,268)" display="none" style="fill: rgb(0, 0, 0);"><g ></g><g ></g><g ></g><g ></g></g><image  id="v-2956"></image></g></g><!--z-index:24--><g   id="j_232"  transform="translate(1900,1240)" style=""><g  id="v-2960" style="opacity: 1;"><path  d="M 0,30 a 225,30 0,0,0 450 0 a 225,30 0,0,0 -450 0 l 0,240 a 225,30 0,0,0 450 0 l 0,-240" id="v-2961" stroke="#3c7fc0" stroke-width="2" pointer-events="visiblePainted" fill="#438dd5" style="fill: rgb(67, 141, 213); stroke: rgb(60, 127, 192);"></path><rect  id="v-2962" stroke-width="0" pointer-events="visiblePainted" fill="none" stroke="none" width="450" height="270" x="0" y="30"></rect><text  id="v-2963" font-size="34" xml:space="preserve" y="0.8em" font-weight="bold" text-anchor="middle" pointer-events="visible" font-family="Open Sans" fill="#ffffff" transform="matrix(1,0,0,1,225,96.2)" style="fill: rgb(255, 255, 255);"><tspan dy="0" >Database</tspan></text><text  id="v-2964" font-size="17" xml:space="preserve" y="0.8em" text-anchor="middle" font-family="Open Sans" fill="#ffffff" transform="matrix(1,0,0,1,225,137)" style="fill: rgb(255, 255, 255);"><tspan dy="0" >[Container: Postgis]</tspan></text><text  id="v-2965" font-size="24" xml:space="preserve" y="0.8em" text-anchor="middle" font-family="Open Sans" fill="#ffffff" transform="matrix(1,0,0,1,225,167.4)" style="fill: rgb(255, 255, 255);"><tspan dy="0" >Persistant storage for the Plan</tspan><tspan dy="1.2em" x="0" >limits and Geospatial data, alloing</tspan><tspan dy="1.2em" x="0" >for the Limits and Geospatial</tspan></text><g  id="v-2966" font-weight="normal" text-anchor="middle" color="#ffffff" transform="matrix(1,0,0,1,222.5,268)" display="none" style="fill: rgb(255, 255, 255);"><g ></g><g ></g><g ></g><g ></g></g><image  id="v-2967"></image></g></g><!--z-index:25--><g   id="j_233"  transform="translate(200,515)" style=""><g  id="v-2971" style="opacity: 1;"><rect  id="v-2972" rx="20" ry="20" stroke="#8a8a8a" stroke-width="2" pointer-events="visiblePainted" fill="#999999" width="450" height="300" style="fill: rgb(153, 153, 153); stroke: rgb(138, 138, 138);"></rect><text  id="v-2973" font-size="34" xml:space="preserve" y="0.8em" font-weight="bold" text-anchor="middle" pointer-events="visible" font-family="Open Sans" fill="#ffffff" transform="matrix(1,0,0,1,225,102.5)" style="fill: rgb(255, 255, 255);"><tspan dy="0" >GWRC [ARC]GIS System</tspan></text><text  id="v-2974" font-size="17" xml:space="preserve" y="0.8em" text-anchor="middle" font-family="Open Sans" fill="#ffffff" transform="matrix(1,0,0,1,225,143.3)" style="fill: rgb(255, 255, 255);"><tspan dy="0" >[Software System]</tspan></text><text  id="v-2975" font-size="24" xml:space="preserve" y="0.8em" text-anchor="middle" font-family="Open Sans" fill="#ffffff" transform="matrix(1,0,0,1,225,173.7)" style="fill: rgb(255, 255, 255);"><tspan dy="0" >The GWRC GIS system(s)</tspan></text><g  id="v-2976" color="#ffffff" transform="matrix(1,0,0,1,222.5,268)" display="none" style="fill: rgb(255, 255, 255);"><g ></g><g ></g><g ></g><g ></g></g><image  id="v-2977"></image></g></g><!--z-index:26--><g   id="j_234" ><path  stroke="#707070" d="M 650 523 L 938 341 C 943.3333333333333 337.66666666666663 949.3333333333333 336 956 336 L 1900 319" id="v-2991" stroke-width="2" stroke-dasharray="30 30" fill="none" style="opacity: 1;"></path><path  fill="black" stroke="black" d="M 0 0 0 0" transform="matrix(0.8455242584852433,-0.5339370078136367,0.5339370078136367,0.8455242584852433,650,522.9199829101562)"></path><path  fill="#707070" stroke="#707070" d="M 20 0 L 0 10 L 20 20 z" id="v-2993" transform="matrix(-0.9998414555294637,0.017806285539761758,-0.017806285539761758,-0.9998414555294637,1900.1780643247546,329.00840101630325)" style="opacity: 1;"></path><path  d="M 650 523 L 938 341 C 943.3333333333333 337.66666666666663 949.3333333333333 336 956 336 L 1900 319" id="v-2992" fill="none" style="cursor: auto; pointer-events: visiblepainted;"></path><g ><g id="v-2985"  label-idx="0" cursor="move" transform="matrix(1,0,0,1,1248.22021484375,330.737548828125)" style="cursor: default; opacity: 1;"><rect joint-selector="rect" id="v-2988" fill="#ffffff" rx="3" ry="3" pointer-events="none" width="188.08958435058594" height="60.56182861328125" transform="matrix(1,0,0,1,-94,-30.3)"></rect><text joint-selector="text" id="v-2987" font-size="24px" xml:space="preserve" y="0.8em" fill="#707070" text-anchor="middle" pointer-events="none" font-family="Open Sans" font-weight="normal" transform="matrix(1,0,0,1,0,-24.1)"><tspan dy="0" >Pulls Geospatial</tspan><tspan dy="1.2em" x="0" >boundaries from</tspan></text></g><g id="v-2986"  label-idx="1" cursor="move" transform="matrix(1,0,0,1,1238.22021484375,371.5375671386719)" style="cursor: default; opacity: 1;"><rect joint-selector="rect" id="v-2990" fill="#ffffff" rx="3" ry="3"  width="0" height="0" transform="matrix(1,0,0,1,0,0)" display="none"></rect><text joint-selector="text" id="v-2989" fill="#000000" font-size="14" text-anchor="middle" pointer-events="none"></text></g></g><g  display="none" style="display: none;"><g  transform="translate(946, 336)" id="v-3093"><circle  idx="0" r="10"></circle><path  idx="0" d="M16,5.333c-7.732,0-14,4.701-14,10.5c0,1.982,0.741,3.833,2.016,5.414L2,25.667l5.613-1.441c2.339,1.317,5.237,2.107,8.387,2.107c7.732,0,14-4.701,14-10.5C30,10.034,23.732,5.333,16,5.333z" transform="translate(5, -33)"></path><path  idx="0" transform="scale(.8) translate(9.5, -37)" d="M24.778,21.419 19.276,15.917 24.777,10.415 21.949,7.585 16.447,13.087 10.945,7.585 8.117,10.415 13.618,15.917 8.116,21.419 10.946,24.248 16.447,18.746 21.948,24.248z"><title>Remove vertex.</title></path></g></g><g  id="v-2995" display="none"><g  id="v-2983"><path  end="source" d="M 26 0 L 0 13 L 26 26 z"></path></g><g  id="v-2984"><path  end="target" d="M 26 0 L 0 13 L 26 26 z"></path></g></g><g  id="v-2994" display="none"><g  id="v-2981" transform="translate(683.8139751033917, 501.63144628882884) "><g  event="remove"><circle r="11"></circle><path transform="scale(.8) translate(-16, -16)" d="M24.778,21.419 19.276,15.917 24.777,10.415 21.949,7.585 16.447,13.087 10.945,7.585 8.117,10.415 13.618,15.917 8.116,21.419 10.946,24.248 16.447,18.746 21.948,24.248z"></path><title>Remove link.</title></g><g  event="link:options"><circle r="11" transform="translate(25)"></circle><path fill="white" transform="scale(.55) translate(29, -16)" d="M31.229,17.736c0.064-0.571,0.104-1.148,0.104-1.736s-0.04-1.166-0.104-1.737l-4.377-1.557c-0.218-0.716-0.504-1.401-0.851-2.05l1.993-4.192c-0.725-0.91-1.549-1.734-2.458-2.459l-4.193,1.994c-0.647-0.347-1.334-0.632-2.049-0.849l-1.558-4.378C17.165,0.708,16.588,0.667,16,0.667s-1.166,0.041-1.737,0.105L12.707,5.15c-0.716,0.217-1.401,0.502-2.05,0.849L6.464,4.005C5.554,4.73,4.73,5.554,4.005,6.464l1.994,4.192c-0.347,0.648-0.632,1.334-0.849,2.05l-4.378,1.557C0.708,14.834,0.667,15.412,0.667,16s0.041,1.165,0.105,1.736l4.378,1.558c0.217,0.715,0.502,1.401,0.849,2.049l-1.994,4.193c0.725,0.909,1.549,1.733,2.459,2.458l4.192-1.993c0.648,0.347,1.334,0.633,2.05,0.851l1.557,4.377c0.571,0.064,1.148,0.104,1.737,0.104c0.588,0,1.165-0.04,1.736-0.104l1.558-4.377c0.715-0.218,1.399-0.504,2.049-0.851l4.193,1.993c0.909-0.725,1.733-1.549,2.458-2.458l-1.993-4.193c0.347-0.647,0.633-1.334,0.851-2.049L31.229,17.736zM16,20.871c-2.69,0-4.872-2.182-4.872-4.871c0-2.69,2.182-4.872,4.872-4.872c2.689,0,4.871,2.182,4.871,4.872C20.871,18.689,18.689,20.871,16,20.871z"></path><title>Link options.</title></g></g></g></g><!--z-index:27--><g   id="j_235" ><path  stroke="#707070" d="M 1500 591 L 1900 414" id="v-3011" stroke-width="2" stroke-dasharray="30 30" fill="none" style="opacity: 1;"></path><path  fill="black" stroke="black" d="M 0 0 0 0" transform="matrix(0.9149098805004301,-0.40365816053027936,0.40365816053027936,0.9149098805004301,1500,590.739990234375)"></path><path  fill="#707070" stroke="#707070" d="M 20 0 L 0 10 L 20 20 z" id="v-3013" transform="matrix(-0.9149098805004301,0.40365816053027925,-0.40365816053027925,-0.9149098805004301,1904.0366325587443,423.40908702392034)" style="opacity: 1;"></path><path  d="M 1500 591 L 1900 414" id="v-3012" fill="none" style="cursor: auto; pointer-events: visiblepainted;"></path><g ><g id="v-3002"  label-idx="0" cursor="move" transform="matrix(1,0,0,1,1700,502.5)" style="cursor: default; opacity: 1;"><rect joint-selector="rect" id="v-3006" fill="#ffffff" rx="3" ry="3" pointer-events="none" width="158.80914306640625" height="60.56182861328125" transform="matrix(1,0,0,1,-79.4,-30.3)"></rect><text joint-selector="text" id="v-3005" font-size="24px" xml:space="preserve" y="0.8em" fill="#707070" text-anchor="middle" pointer-events="none" font-family="Open Sans" font-weight="normal" transform="matrix(1,0,0,1,0,-24.1)"><tspan dy="0" >Gets GeoJSON</tspan><tspan dy="1.2em" x="0" >data from</tspan></text></g><g id="v-3003"  label-idx="1" cursor="move" transform="matrix(1,0,0,1,1700,543.2999877929688)" style="cursor: default; opacity: 1;"><rect joint-selector="rect" id="v-3008" fill="#ffffff" rx="3" ry="3" pointer-events="none" width="133.49893188476562" height="23.29200839996338" transform="matrix(1,0,0,1,-66.7,-11.7)"></rect><text joint-selector="text" id="v-3007" font-size="17px" xml:space="preserve" y="0.8em" fill="#707070" text-anchor="middle" pointer-events="none" font-family="Open Sans" font-weight="normal" transform="matrix(1,0,0,1,0,-6.2)"><tspan dy="0" >[GeoJson/HTTPS]</tspan></text></g><g id="v-3004"  label-idx="2" cursor="move" transform="matrix(1,0,0,1,1690,551.7000122070312)" style="cursor: default; opacity: 1;"><rect joint-selector="rect" id="v-3010" fill="#ffffff" rx="3" ry="3"  width="0" height="0" transform="matrix(1,0,0,1,0,0)" display="none"></rect><text joint-selector="text" id="v-3009" fill="#000000" font-size="14" text-anchor="middle" pointer-events="none"></text></g></g><g  display="none" style="display: none;"></g><g  id="v-3015" display="none"><g  id="v-3000"><path  end="source" d="M 26 0 L 0 13 L 26 26 z"></path></g><g  id="v-3001"><path  end="target" d="M 26 0 L 0 13 L 26 26 z"></path></g></g><g  id="v-3014" display="none"><g  id="v-2999" transform="translate(1536.5788107710648, 574.8138762338037) "><g  event="remove"><circle r="11"></circle><path transform="scale(.8) translate(-16, -16)" d="M24.778,21.419 19.276,15.917 24.777,10.415 21.949,7.585 16.447,13.087 10.945,7.585 8.117,10.415 13.618,15.917 8.116,21.419 10.946,24.248 16.447,18.746 21.948,24.248z"></path><title>Remove link.</title></g><g  event="link:options"><circle r="11" transform="translate(25)"></circle><path fill="white" transform="scale(.55) translate(29, -16)" d="M31.229,17.736c0.064-0.571,0.104-1.148,0.104-1.736s-0.04-1.166-0.104-1.737l-4.377-1.557c-0.218-0.716-0.504-1.401-0.851-2.05l1.993-4.192c-0.725-0.91-1.549-1.734-2.458-2.459l-4.193,1.994c-0.647-0.347-1.334-0.632-2.049-0.849l-1.558-4.378C17.165,0.708,16.588,0.667,16,0.667s-1.166,0.041-1.737,0.105L12.707,5.15c-0.716,0.217-1.401,0.502-2.05,0.849L6.464,4.005C5.554,4.73,4.73,5.554,4.005,6.464l1.994,4.192c-0.347,0.648-0.632,1.334-0.849,2.05l-4.378,1.557C0.708,14.834,0.667,15.412,0.667,16s0.041,1.165,0.105,1.736l4.378,1.558c0.217,0.715,0.502,1.401,0.849,2.049l-1.994,4.193c0.725,0.909,1.549,1.733,2.459,2.458l4.192-1.993c0.648,0.347,1.334,0.633,2.05,0.851l1.557,4.377c0.571,0.064,1.148,0.104,1.737,0.104c0.588,0,1.165-0.04,1.736-0.104l1.558-4.377c0.715-0.218,1.399-0.504,2.049-0.851l4.193,1.993c0.909-0.725,1.733-1.549,2.458-2.458l-1.993-4.193c0.347-0.647,0.633-1.334,0.851-2.049L31.229,17.736zM16,20.871c-2.69,0-4.872-2.182-4.872-4.871c0-2.69,2.182-4.872,4.872-4.872c2.689,0,4.871,2.182,4.871,4.872C20.871,18.689,18.689,20.871,16,20.871z"></path><title>Link options.</title></g></g></g></g><!--z-index:28--><g   id="j_236" ><path  stroke="#707070" d="M 1500 1390 L 1900 1390" id="v-3028" stroke-width="2" stroke-dasharray="30 30" fill="none" style="opacity: 1;"></path><path  fill="black" stroke="black" d="M 0 0 0 0" transform="matrix(1,0,0,1,1500,1390)"></path><path  fill="#707070" stroke="#707070" d="M 20 0 L 0 10 L 20 20 z" id="v-3030" transform="matrix(-1,1.2246467991473532e-16,-1.2246467991473532e-16,-1,1899.9999999999998,1400)" style="opacity: 1;"></path><path  d="M 1500 1390 L 1900 1390" id="v-3029" fill="none" style="cursor: auto; pointer-events: visiblepainted;"></path><g ><g id="v-3019"  label-idx="0" cursor="move" transform="matrix(1,0,0,1,1700,1390)" style="cursor: default; opacity: 1;"><rect joint-selector="rect" id="v-3023" fill="#ffffff" rx="3" ry="3" pointer-events="none" width="100.08284759521484" height="31.76183032989502" transform="matrix(1,0,0,1,-50,-15.9)"></rect><text joint-selector="text" id="v-3022" font-size="24px" xml:space="preserve" y="0.8em" fill="#707070" text-anchor="middle" pointer-events="none" font-family="Open Sans" font-weight="normal" transform="matrix(1,0,0,1,0,-9.7)"><tspan dy="0" >Stores to</tspan></text></g><g id="v-3020"  label-idx="1" cursor="move" transform="matrix(1,0,0,1,1700,1416.4000244140625)" style="cursor: default; opacity: 1;"><rect joint-selector="rect" id="v-3025" fill="#ffffff" rx="3" ry="3" pointer-events="none" width="49.66094207763672" height="23.29200839996338" transform="matrix(1,0,0,1,-24.8,-11.7)"></rect><text joint-selector="text" id="v-3024" font-size="17px" xml:space="preserve" y="0.8em" fill="#707070" text-anchor="middle" pointer-events="none" font-family="Open Sans" font-weight="normal" transform="matrix(1,0,0,1,0,-6.2)"><tspan dy="0" >[JDBC]</tspan></text></g><g id="v-3021"  label-idx="2" cursor="move" transform="matrix(1,0,0,1,1690,1424.800048828125)" style="cursor: default; opacity: 1;"><rect joint-selector="rect" id="v-3027" fill="#ffffff" rx="3" ry="3"  width="0" height="0" transform="matrix(1,0,0,1,0,0)" display="none"></rect><text joint-selector="text" id="v-3026" fill="#000000" font-size="14" text-anchor="middle" pointer-events="none"></text></g></g><g  display="none" style="display: none;"></g><g  id="v-3032" display="none"><g  id="v-3017"><path  end="source" d="M 26 0 L 0 13 L 26 26 z"></path></g><g  id="v-3018"><path  end="target" d="M 26 0 L 0 13 L 26 26 z"></path></g></g><g  id="v-3031" display="none"><g  id="v-3016" transform="translate(1540, 1390) "><g  event="remove"><circle r="11"></circle><path transform="scale(.8) translate(-16, -16)" d="M24.778,21.419 19.276,15.917 24.777,10.415 21.949,7.585 16.447,13.087 10.945,7.585 8.117,10.415 13.618,15.917 8.116,21.419 10.946,24.248 16.447,18.746 21.948,24.248z"></path><title>Remove link.</title></g><g  event="link:options"><circle r="11" transform="translate(25)"></circle><path fill="white" transform="scale(.55) translate(29, -16)" d="M31.229,17.736c0.064-0.571,0.104-1.148,0.104-1.736s-0.04-1.166-0.104-1.737l-4.377-1.557c-0.218-0.716-0.504-1.401-0.851-2.05l1.993-4.192c-0.725-0.91-1.549-1.734-2.458-2.459l-4.193,1.994c-0.647-0.347-1.334-0.632-2.049-0.849l-1.558-4.378C17.165,0.708,16.588,0.667,16,0.667s-1.166,0.041-1.737,0.105L12.707,5.15c-0.716,0.217-1.401,0.502-2.05,0.849L6.464,4.005C5.554,4.73,4.73,5.554,4.005,6.464l1.994,4.192c-0.347,0.648-0.632,1.334-0.849,2.05l-4.378,1.557C0.708,14.834,0.667,15.412,0.667,16s0.041,1.165,0.105,1.736l4.378,1.558c0.217,0.715,0.502,1.401,0.849,2.049l-1.994,4.193c0.725,0.909,1.549,1.733,2.459,2.458l4.192-1.993c0.648,0.347,1.334,0.633,2.05,0.851l1.557,4.377c0.571,0.064,1.148,0.104,1.737,0.104c0.588,0,1.165-0.04,1.736-0.104l1.558-4.377c0.715-0.218,1.399-0.504,2.049-0.851l4.193,1.993c0.909-0.725,1.733-1.549,2.458-2.458l-1.993-4.193c0.347-0.647,0.633-1.334,0.851-2.049L31.229,17.736zM16,20.871c-2.69,0-4.872-2.182-4.872-4.871c0-2.69,2.182-4.872,4.872-4.872c2.689,0,4.871,2.182,4.871,4.872C20.871,18.689,18.689,20.871,16,20.871z"></path><title>Link options.</title></g></g></g></g><!--z-index:29--><g   id="j_237" ><path  stroke="#707070" d="M 601 815 L 1099 1240" id="v-3048" stroke-width="2" stroke-dasharray="30 30" fill="none" style="opacity: 1;"></path><path  fill="black" stroke="black" d="M 0 0 0 0" transform="matrix(0.76083659460535,0.6489435077950425,-0.6489435077950425,0.76083659460535,600.8599853515625,815)"></path><path  fill="#707070" stroke="#707070" d="M 20 0 L 0 10 L 20 20 z" id="v-3050" transform="matrix(-0.760836637811376,-0.6489434571392805,0.6489434571392805,-0.760836637811376,1092.6505480176584,1247.6084210666938)" style="opacity: 1;"></path><path  d="M 601 815 L 1099 1240" id="v-3049" fill="none" style="cursor: auto; pointer-events: visiblepainted;"></path><g ><g id="v-3039"  label-idx="0" cursor="move" transform="matrix(1,0,0,1,850,1027.5)" style="cursor: default; opacity: 1;"><rect joint-selector="rect" id="v-3043" fill="#ffffff" rx="3" ry="3" pointer-events="none" width="153.61476135253906" height="60.56182861328125" transform="matrix(1,0,0,1,-76.8,-30.3)"></rect><text joint-selector="text" id="v-3042" font-size="24px" xml:space="preserve" y="0.8em" fill="#707070" text-anchor="middle" pointer-events="none" font-family="Open Sans" font-weight="normal" transform="matrix(1,0,0,1,0,-24.1)"><tspan dy="0" >Syncs spatial</tspan><tspan dy="1.2em" x="0" >features from</tspan></text></g><g id="v-3040"  label-idx="1" cursor="move" transform="matrix(1,0,0,1,850,1068.300048828125)" style="cursor: default; opacity: 1;"><rect joint-selector="rect" id="v-3045" fill="#ffffff" rx="3" ry="3" pointer-events="none" width="107.99021911621094" height="23.29200839996338" transform="matrix(1,0,0,1,-54,-11.7)"></rect><text joint-selector="text" id="v-3044" font-size="17px" xml:space="preserve" y="0.8em" fill="#707070" text-anchor="middle" pointer-events="none" font-family="Open Sans" font-weight="normal" transform="matrix(1,0,0,1,0,-6.2)"><tspan dy="0" >[JSON/HTTPS]</tspan></text></g><g id="v-3041"  label-idx="2" cursor="move" transform="matrix(1,0,0,1,840,1076.699951171875)" style="cursor: default; opacity: 1;"><rect joint-selector="rect" id="v-3047" fill="#ffffff" rx="3" ry="3"  width="0" height="0" transform="matrix(1,0,0,1,0,0)" display="none"></rect><text joint-selector="text" id="v-3046" fill="#000000" font-size="14" text-anchor="middle" pointer-events="none"></text></g></g><g  display="none" style="display: none;"></g><g  id="v-3052" display="none"><g  id="v-3037"><path  end="source" d="M 26 0 L 0 13 L 26 26 z"></path></g><g  id="v-3038"><path  end="target" d="M 26 0 L 0 13 L 26 26 z"></path></g></g><g  id="v-3051" display="none"><g  id="v-3036" transform="translate(631.4262590527344, 840.9661849345624) "><g  event="remove"><circle r="11"></circle><path transform="scale(.8) translate(-16, -16)" d="M24.778,21.419 19.276,15.917 24.777,10.415 21.949,7.585 16.447,13.087 10.945,7.585 8.117,10.415 13.618,15.917 8.116,21.419 10.946,24.248 16.447,18.746 21.948,24.248z"></path><title>Remove link.</title></g><g  event="link:options"><circle r="11" transform="translate(25)"></circle><path fill="white" transform="scale(.55) translate(29, -16)" d="M31.229,17.736c0.064-0.571,0.104-1.148,0.104-1.736s-0.04-1.166-0.104-1.737l-4.377-1.557c-0.218-0.716-0.504-1.401-0.851-2.05l1.993-4.192c-0.725-0.91-1.549-1.734-2.458-2.459l-4.193,1.994c-0.647-0.347-1.334-0.632-2.049-0.849l-1.558-4.378C17.165,0.708,16.588,0.667,16,0.667s-1.166,0.041-1.737,0.105L12.707,5.15c-0.716,0.217-1.401,0.502-2.05,0.849L6.464,4.005C5.554,4.73,4.73,5.554,4.005,6.464l1.994,4.192c-0.347,0.648-0.632,1.334-0.849,2.05l-4.378,1.557C0.708,14.834,0.667,15.412,0.667,16s0.041,1.165,0.105,1.736l4.378,1.558c0.217,0.715,0.502,1.401,0.849,2.049l-1.994,4.193c0.725,0.909,1.549,1.733,2.459,2.458l4.192-1.993c0.648,0.347,1.334,0.633,2.05,0.851l1.557,4.377c0.571,0.064,1.148,0.104,1.737,0.104c0.588,0,1.165-0.04,1.736-0.104l1.558-4.377c0.715-0.218,1.399-0.504,2.049-0.851l4.193,1.993c0.909-0.725,1.733-1.549,2.458-2.458l-1.993-4.193c0.347-0.647,0.633-1.334,0.851-2.049L31.229,17.736zM16,20.871c-2.69,0-4.872-2.182-4.872-4.871c0-2.69,2.182-4.872,4.872-4.872c2.689,0,4.871,2.182,4.871,4.872C20.871,18.689,18.689,20.871,16,20.871z"></path><title>Link options.</title></g></g></g></g><!--z-index:30--><g   id="j_238" ><path  stroke="#707070" d="M 1457 1940 L 1943 1540" id="v-3065" stroke-width="2" stroke-dasharray="30 30" fill="none" style="opacity: 1;"></path><path  fill="black" stroke="black" d="M 0 0 0 0" transform="matrix(0.7719338126609797,-0.6357029092828532,0.6357029092828532,0.7719338126609797,1457.1400146484375,1940)"></path><path  fill="#707070" stroke="#707070" d="M 20 0 L 0 10 L 20 20 z" id="v-3067" transform="matrix(-0.7719339819588779,0.6357027037044211,-0.6357027037044211,-0.7719339819588779,1949.2169918566328,1547.7193684466072)" style="opacity: 1;"></path><path  d="M 1457 1940 L 1943 1540" id="v-3066" fill="none" style="cursor: auto; pointer-events: visiblepainted;"></path><g ><g id="v-3056"  label-idx="0" cursor="move" transform="matrix(1,0,0,1,1700,1740)" style="cursor: default; opacity: 1;"><rect joint-selector="rect" id="v-3060" fill="#ffffff" rx="3" ry="3" pointer-events="none" width="100.08284759521484" height="31.76183032989502" transform="matrix(1,0,0,1,-50,-15.9)"></rect><text joint-selector="text" id="v-3059" font-size="24px" xml:space="preserve" y="0.8em" fill="#707070" text-anchor="middle" pointer-events="none" font-family="Open Sans" font-weight="normal" transform="matrix(1,0,0,1,0,-9.7)"><tspan dy="0" >Stores to</tspan></text></g><g id="v-3057"  label-idx="1" cursor="move" transform="matrix(1,0,0,1,1700,1766.4000244140625)" style="cursor: default; opacity: 1;"><rect joint-selector="rect" id="v-3062" fill="#ffffff" rx="3" ry="3" pointer-events="none" width="49.66094207763672" height="23.29200839996338" transform="matrix(1,0,0,1,-24.8,-11.7)"></rect><text joint-selector="text" id="v-3061" font-size="17px" xml:space="preserve" y="0.8em" fill="#707070" text-anchor="middle" pointer-events="none" font-family="Open Sans" font-weight="normal" transform="matrix(1,0,0,1,0,-6.2)"><tspan dy="0" >[JDBC]</tspan></text></g><g id="v-3058"  label-idx="2" cursor="move" transform="matrix(1,0,0,1,1690,1774.800048828125)" style="cursor: default; opacity: 1;"><rect joint-selector="rect" id="v-3064" fill="#ffffff" rx="3" ry="3"  width="0" height="0" transform="matrix(1,0,0,1,0,0)" display="none"></rect><text joint-selector="text" id="v-3063" fill="#000000" font-size="14" text-anchor="middle" pointer-events="none"></text></g></g><g  display="none" style="display: none;"></g><g  id="v-3069" display="none"><g  id="v-3054"><path  end="source" d="M 26 0 L 0 13 L 26 26 z"></path></g><g  id="v-3055"><path  end="target" d="M 26 0 L 0 13 L 26 26 z"></path></g></g><g  id="v-3068" display="none"><g  id="v-3053" transform="translate(1487.8845456919198, 1914.5806208296956) "><g  event="remove"><circle r="11"></circle><path transform="scale(.8) translate(-16, -16)" d="M24.778,21.419 19.276,15.917 24.777,10.415 21.949,7.585 16.447,13.087 10.945,7.585 8.117,10.415 13.618,15.917 8.116,21.419 10.946,24.248 16.447,18.746 21.948,24.248z"></path><title>Remove link.</title></g><g  event="link:options"><circle r="11" transform="translate(25)"></circle><path fill="white" transform="scale(.55) translate(29, -16)" d="M31.229,17.736c0.064-0.571,0.104-1.148,0.104-1.736s-0.04-1.166-0.104-1.737l-4.377-1.557c-0.218-0.716-0.504-1.401-0.851-2.05l1.993-4.192c-0.725-0.91-1.549-1.734-2.458-2.459l-4.193,1.994c-0.647-0.347-1.334-0.632-2.049-0.849l-1.558-4.378C17.165,0.708,16.588,0.667,16,0.667s-1.166,0.041-1.737,0.105L12.707,5.15c-0.716,0.217-1.401,0.502-2.05,0.849L6.464,4.005C5.554,4.73,4.73,5.554,4.005,6.464l1.994,4.192c-0.347,0.648-0.632,1.334-0.849,2.05l-4.378,1.557C0.708,14.834,0.667,15.412,0.667,16s0.041,1.165,0.105,1.736l4.378,1.558c0.217,0.715,0.502,1.401,0.849,2.049l-1.994,4.193c0.725,0.909,1.549,1.733,2.459,2.458l4.192-1.993c0.648,0.347,1.334,0.633,2.05,0.851l1.557,4.377c0.571,0.064,1.148,0.104,1.737,0.104c0.588,0,1.165-0.04,1.736-0.104l1.558-4.377c0.715-0.218,1.399-0.504,2.049-0.851l4.193,1.993c0.909-0.725,1.733-1.549,2.458-2.458l-1.993-4.193c0.347-0.647,0.633-1.334,0.851-2.049L31.229,17.736zM16,20.871c-2.69,0-4.872-2.182-4.872-4.871c0-2.69,2.182-4.872,4.872-4.872c2.689,0,4.871,2.182,4.871,4.872C20.871,18.689,18.689,20.871,16,20.871z"></path><title>Link options.</title></g></g></g></g><!--z-index:31--><g   id="j_239" ><path  stroke="#707070" d="M 1457 840 L 1943 1240" id="v-3082" stroke-width="2" stroke-dasharray="30 30" fill="none" style="opacity: 1;"></path><path  fill="black" stroke="black" d="M 0 0 0 0" transform="matrix(0.7719338973099357,0.6357028064936426,-0.6357028064936426,0.7719338973099357,1457.1400146484375,840)"></path><path  fill="#707070" stroke="#707070" d="M 20 0 L 0 10 L 20 20 z" id="v-3084" transform="matrix(-0.7719339819588777,-0.6357027037044212,0.6357027037044212,-0.7719339819588777,1936.5029377825444,1247.7193111925703)" style="opacity: 1;"></path><path  d="M 1457 840 L 1943 1240" id="v-3083" fill="none" style="cursor: auto; pointer-events: visiblepainted;"></path><g ><g id="v-3073"  label-idx="0" cursor="move" transform="matrix(1,0,0,1,1700,1040)" style="cursor: default; opacity: 1;"><rect joint-selector="rect" id="v-3077" fill="#ffffff" rx="3" ry="3" pointer-events="none" width="128.46998596191406" height="31.76183032989502" transform="matrix(1,0,0,1,-64.2,-15.9)"></rect><text joint-selector="text" id="v-3076" font-size="24px" xml:space="preserve" y="0.8em" fill="#707070" text-anchor="middle" pointer-events="none" font-family="Open Sans" font-weight="normal" transform="matrix(1,0,0,1,0,-9.7)"><tspan dy="0" >Reads from</tspan></text></g><g id="v-3074"  label-idx="1" cursor="move" transform="matrix(1,0,0,1,1700,1066.4000244140625)" style="cursor: default; opacity: 1;"><rect joint-selector="rect" id="v-3079" fill="#ffffff" rx="3" ry="3" pointer-events="none" width="49.66094207763672" height="23.29200839996338" transform="matrix(1,0,0,1,-24.8,-11.7)"></rect><text joint-selector="text" id="v-3078" font-size="17px" xml:space="preserve" y="0.8em" fill="#707070" text-anchor="middle" pointer-events="none" font-family="Open Sans" font-weight="normal" transform="matrix(1,0,0,1,0,-6.2)"><tspan dy="0" >[JDBC]</tspan></text></g><g id="v-3075"  label-idx="2" cursor="move" transform="matrix(1,0,0,1,1690,1074.800048828125)" style="cursor: default; opacity: 1;"><rect joint-selector="rect" id="v-3081" fill="#ffffff" rx="3" ry="3"  width="0" height="0" transform="matrix(1,0,0,1,0,0)" display="none"></rect><text joint-selector="text" id="v-3080" fill="#000000" font-size="14" text-anchor="middle" pointer-events="none"></text></g></g><g  display="none" style="display: none;"></g><g  id="v-3086" display="none"><g  id="v-3071"><path  end="source" d="M 26 0 L 0 13 L 26 26 z"></path></g><g  id="v-3072"><path  end="target" d="M 26 0 L 0 13 L 26 26 z"></path></g></g><g  id="v-3085" display="none"><g  id="v-3070" transform="translate(1487.8845456919198, 865.4193791703044) "><g  event="remove"><circle r="11"></circle><path transform="scale(.8) translate(-16, -16)" d="M24.778,21.419 19.276,15.917 24.777,10.415 21.949,7.585 16.447,13.087 10.945,7.585 8.117,10.415 13.618,15.917 8.116,21.419 10.946,24.248 16.447,18.746 21.948,24.248z"></path><title>Remove link.</title></g><g  event="link:options"><circle r="11" transform="translate(25)"></circle><path fill="white" transform="scale(.55) translate(29, -16)" d="M31.229,17.736c0.064-0.571,0.104-1.148,0.104-1.736s-0.04-1.166-0.104-1.737l-4.377-1.557c-0.218-0.716-0.504-1.401-0.851-2.05l1.993-4.192c-0.725-0.91-1.549-1.734-2.458-2.459l-4.193,1.994c-0.647-0.347-1.334-0.632-2.049-0.849l-1.558-4.378C17.165,0.708,16.588,0.667,16,0.667s-1.166,0.041-1.737,0.105L12.707,5.15c-0.716,0.217-1.401,0.502-2.05,0.849L6.464,4.005C5.554,4.73,4.73,5.554,4.005,6.464l1.994,4.192c-0.347,0.648-0.632,1.334-0.849,2.05l-4.378,1.557C0.708,14.834,0.667,15.412,0.667,16s0.041,1.165,0.105,1.736l4.378,1.558c0.217,0.715,0.502,1.401,0.849,2.049l-1.994,4.193c0.725,0.909,1.549,1.733,2.459,2.458l4.192-1.993c0.648,0.347,1.334,0.633,2.05,0.851l1.557,4.377c0.571,0.064,1.148,0.104,1.737,0.104c0.588,0,1.165-0.04,1.736-0.104l1.558-4.377c0.715-0.218,1.399-0.504,2.049-0.851l4.193,1.993c0.909-0.725,1.733-1.549,2.458-2.458l-1.993-4.193c0.347-0.647,0.633-1.334,0.851-2.049L31.229,17.736zM16,20.871c-2.69,0-4.872-2.182-4.872-4.871c0-2.69,2.182-4.872,4.872-4.872c2.689,0,4.871,2.182,4.871,4.872C20.871,18.689,18.689,20.871,16,20.871z"></path><title>Link options.</title></g></g></g></g><!--z-index:32--><!--z-index:33--><!--z-index:34--><!--z-index:35--><!--z-index:36--><!--z-index:37--><!--z-index:38--><!--z-index:39--><!--z-index:40--><!--z-index:41--><!--z-index:42--><!--z-index:43--><!--z-index:44--><!--z-index:45--><!--z-index:46--><!--z-index:47--><!--z-index:48--><!--z-index:49--><!--z-index:50--><!--z-index:51--><!--z-index:52--><!--z-index:53--><!--z-index:54--><!--z-index:55--><!--z-index:56--><!--z-index:57--><!--z-index:58--><!--z-index:59--><!--z-index:60--><!--z-index:61--><!--z-index:62--><!--z-index:63--><!--z-index:64--><!--z-index:65--><!--z-index:66--><!--z-index:67--><!--z-index:68--><!--z-index:69--><!--z-index:70--><!--z-index:71--><!--z-index:72--><!--z-index:73--><!--z-index:74--><!--z-index:75--><!--z-index:76--><!--z-index:77--><!--z-index:78--></g><g ></g><g ></g><g ></g></g></svg>