<svg xmlns="http://www.w3.org/2000/svg" xmlns:xlink="http://www.w3.org/1999/xlink" version="1.1" viewBox="0 0 2898 3594" style="background: #ffffff"><defs><style>@import url(https://fonts.googleapis.com/css?family=Open+Sans:400,700);</style></defs><defs joint-selector="defs"></defs><g joint-selector="layers"  transform="matrix(1,0,0,1,0,0)"><g ></g><g ><!--z-index:1--><!--z-index:2--><!--z-index:3--><!--z-index:4--><!--z-index:5--><!--z-index:6--><!--z-index:7--><!--z-index:8--><!--z-index:9--><!--z-index:10--><!--z-index:11--><!--z-index:12--><!--z-index:13--><!--z-index:14--><!--z-index:15--><!--z-index:16--><!--z-index:17--><!--z-index:18--><!--z-index:19--><!--z-index:20--><!--z-index:21--><!--z-index:22--><!--z-index:23--><!--z-index:24--><!--z-index:25--><!--z-index:26--><!--z-index:27--><!--z-index:28--><!--z-index:29--><g   id="j_241"  transform="translate(20,3557.6)"><g id="v-3096"><text  id="v-3097" font-size="22px" xml:space="preserve" y="0.8em" font-weight="normal" text-anchor="start" fill="#aaaaaa" pointer-events="none" display="block" font-family="Open Sans"><tspan dy="0" >Monday, 17 March 2025 at 9:21 pm New Zealand Daylight Time</tspan></text></g></g><!--z-index:30--><g   id="j_240"  transform="translate(20,3514.4)"><g id="v-3094"><text  id="v-3095" font-size="36px" xml:space="preserve" y="0.8em" font-weight="normal" text-anchor="start" fill="#000000" pointer-events="none" display="block" font-family="Open Sans"><tspan dy="0" >[System Context] Plan Limits Viewer</tspan></text></g></g><!--z-index:31--><g   id="j_242"  transform="translate(2298,1135)" style=""><g  id="v-3104" style="opacity: 1;"><rect  x="0" y="160" width="400" height="240" rx="70" id="v-3106" stroke="#073b6f" stroke-width="2" pointer-events="visiblePainted" fill="#08427b" style="fill: rgb(8, 66, 123); stroke: rgb(7, 59, 111);"></rect><circle  cx="200" cy="88.88888888888889" r="88.88888888888889" id="v-3105" stroke="#073b6f" stroke-width="2" pointer-events="visiblePainted" fill="#08427b" style="fill: rgb(8, 66, 123); stroke: rgb(7, 59, 111);"></circle><line  x1="80" y1="266.6666666666667" x2="80" y2="400" id="v-3112" stroke="#073b6f" stroke-width="2" style="stroke: rgb(7, 59, 111);"></line><line  x1="320" y1="266.6666666666667" x2="320" y2="400" id="v-3113" stroke="#073b6f" stroke-width="2" style="stroke: rgb(7, 59, 111);"></line><text  id="v-3107" font-size="34" xml:space="preserve" y="0.8em" font-weight="bold" text-anchor="middle" pointer-events="visible" font-family="Open Sans" fill="#ffffff" transform="matrix(1,0,0,1,200,203.7)" style="fill: rgb(255, 255, 255);"><tspan dy="0" >Plan Limits observer</tspan></text><text  id="v-3108" font-size="17" xml:space="preserve" y="0.8em" text-anchor="middle" font-family="Open Sans" fill="#ffffff" transform="matrix(1,0,0,1,200,244.5)" style="fill: rgb(255, 255, 255);"><tspan dy="0" >[Person]</tspan></text><text  id="v-3109" font-size="24" xml:space="preserve" y="0.8em" text-anchor="middle" font-family="Open Sans" fill="#ffffff" transform="matrix(1,0,0,1,200,274.9)" style="fill: rgb(255, 255, 255);"><tspan dy="0" >A person wanting to</tspan><tspan dy="1.2em" x="0" >understand what NRPlan Limits</tspan><tspan dy="1.2em" x="0" >apply to a area.</tspan></text><g  id="v-3110" font-weight="normal" text-anchor="middle" color="#ffffff" transform="matrix(1,0,0,1,197.5,368)" display="none" style="fill: rgb(255, 255, 255);"><g ></g><g ></g><g ></g><g ></g></g><image  id="v-3111"></image></g></g><!--z-index:32--><g   id="j_243"  transform="translate(2298,1935)" style=""><g  id="v-3117" style="opacity: 1;"><rect  x="0" y="160" width="400" height="240" rx="70" id="v-3119" stroke="#073b6f" stroke-width="2" pointer-events="visiblePainted" fill="#08427b" style="fill: rgb(8, 66, 123); stroke: rgb(7, 59, 111);"></rect><circle  cx="200" cy="88.88888888888889" r="88.88888888888889" id="v-3118" stroke="#073b6f" stroke-width="2" pointer-events="visiblePainted" fill="#08427b" style="fill: rgb(8, 66, 123); stroke: rgb(7, 59, 111);"></circle><line  x1="80" y1="266.6666666666667" x2="80" y2="400" id="v-3125" stroke="#073b6f" stroke-width="2" style="stroke: rgb(7, 59, 111);"></line><line  x1="320" y1="266.6666666666667" x2="320" y2="400" id="v-3126" stroke="#073b6f" stroke-width="2" style="stroke: rgb(7, 59, 111);"></line><text  id="v-3120" font-size="34" xml:space="preserve" y="0.8em" font-weight="bold" text-anchor="middle" pointer-events="visible" font-family="Open Sans" fill="#ffffff" transform="matrix(1,0,0,1,200,203.7)" style="fill: rgb(255, 255, 255);"><tspan dy="0" >Hydrologist</tspan></text><text  id="v-3121" font-size="17" xml:space="preserve" y="0.8em" text-anchor="middle" font-family="Open Sans" fill="#ffffff" transform="matrix(1,0,0,1,200,244.5)" style="fill: rgb(255, 255, 255);"><tspan dy="0" >[Person]</tspan></text><text  id="v-3122" font-size="24" xml:space="preserve" y="0.8em" text-anchor="middle" font-family="Open Sans" fill="#ffffff" transform="matrix(1,0,0,1,200,274.9)" style="fill: rgb(255, 255, 255);"><tspan dy="0" >A person managing the</tspan><tspan dy="1.2em" x="0" >hydrological catchments and</tspan><tspan dy="1.2em" x="0" >rivers.</tspan></text><g  id="v-3123" font-weight="normal" text-anchor="middle" color="#ffffff" transform="matrix(1,0,0,1,197.5,368)" display="none" style="fill: rgb(255, 255, 255);"><g ></g><g ></g><g ></g><g ></g></g><image  id="v-3124"></image></g></g><!--z-index:33--><g   id="j_245"  transform="translate(1428,1565)" style=""><g id="v-3140"><rect  id="v-3141" width="490" height="394" rx="0" ry="0" fill="#ffffff" stroke="#444444" stroke-width="1" stroke-dasharray="5,5" pointer-events="none"></rect><text  id="v-3142" font-size="24px" xml:space="preserve" y="379" font-weight="normal" fill="#444444" text-anchor="start" pointer-events="visible" font-family="Open Sans" transform="matrix(1,0,0,1,15,0)"><tspan dy="0" >PlanLimitsViewer</tspan></text><text  id="v-3143" font-size="17px" xml:space="preserve" display="none" y="379" font-weight="normal" fill="#444444" text-anchor="start" pointer-events="visible" font-family="Open Sans" transform="matrix(1,0,0,1,15,0)"><tspan dy="0" style="fill-opacity: 0; stroke-opacity: 0;" >-</tspan></text><image  id="v-3144" pointer-events="visible"></image></g></g><!--z-index:34--><g   id="j_244"  transform="translate(1448,1585)" style=""><g  id="v-3133" style="opacity: 1;"><rect  id="v-3134" rx="1" ry="1" stroke="#0f5eaa" stroke-width="2" pointer-events="visiblePainted" fill="#1168bd" width="450" height="300" style="fill: rgb(17, 104, 189); stroke: rgb(15, 94, 170);"></rect><text  id="v-3135" font-size="34" xml:space="preserve" y="0.8em" font-weight="bold" text-anchor="middle" pointer-events="visible" font-family="Open Sans" fill="#ffffff" transform="matrix(1,0,0,1,225,88.1)" style="fill: rgb(255, 255, 255);"><tspan dy="0" >Plan Limits Viewer</tspan></text><text  id="v-3136" font-size="17" xml:space="preserve" y="0.8em" text-anchor="middle" font-family="Open Sans" fill="#ffffff" transform="matrix(1,0,0,1,225,128.9)" style="fill: rgb(255, 255, 255);"><tspan dy="0" >[Software System]</tspan></text><text  id="v-3137" font-size="24" xml:space="preserve" y="0.8em" text-anchor="middle" font-family="Open Sans" fill="#ffffff" transform="matrix(1,0,0,1,225,159.3)" style="fill: rgb(255, 255, 255);"><tspan dy="0" >The system for providing Plan Limits</tspan><tspan dy="1.2em" x="0" >information.</tspan></text><g  id="v-3138" color="#ffffff" transform="matrix(1,0,0,1,210,268)" display="none" style="fill: rgb(255, 255, 255);"><g  transform="translate(5 0)"><svg xmlns="http://www.w3.org/2000/svg" width="20" height="20" fill="currentColor" viewBox="0 0 16 16"><path fill-rule="evenodd" d="M6.5 12a5.5 5.5 0 1 0 0-11 5.5 5.5 0 0 0 0 11zM13 6.5a6.5 6.5 0 1 1-13 0 6.5 6.5 0 0 1 13 0z"></path><path d="M10.344 11.742c.03.04.062.078.098.115l3.85 3.85a1 1 0 0 0 1.415-1.414l-3.85-3.85a1.007 1.007 0 0 0-.115-.1 6.538 6.538 0 0 1-1.398 1.4z"></path><path fill-rule="evenodd" d="M6.5 3a.5.5 0 0 1 .5.5V6h2.5a.5.5 0 0 1 0 1H7v2.5a.5.5 0 0 1-1 0V7H3.5a.5.5 0 0 1 0-1H6V3.5a.5.5 0 0 1 .5-.5z"></path></svg></g><g ></g><g ></g><g ></g></g><image  id="v-3139"></image></g></g><!--z-index:35--><g   id="j_247"  transform="translate(578,165)" style=""><g id="v-3152"><rect  id="v-3153" width="490" height="394" rx="0" ry="0" fill="#ffffff" stroke="#444444" stroke-width="1" stroke-dasharray="5,5" pointer-events="none"></rect><text  id="v-3154" font-size="24px" xml:space="preserve" y="379" font-weight="normal" fill="#444444" text-anchor="start" pointer-events="visible" font-family="Open Sans" transform="matrix(1,0,0,1,15,0)"><tspan dy="0" >EOP/He Kākāno</tspan></text><text  id="v-3155" font-size="17px" xml:space="preserve" display="none" y="379" font-weight="normal" fill="#444444" text-anchor="start" pointer-events="visible" font-family="Open Sans" transform="matrix(1,0,0,1,15,0)"><tspan dy="0" style="fill-opacity: 0; stroke-opacity: 0;" >-</tspan></text><image  id="v-3156" pointer-events="visible"></image></g></g><!--z-index:36--><g   id="j_246"  transform="translate(598,185)" style=""><g  id="v-3145" style="opacity: 1;"><rect  id="v-3146" rx="20" ry="20" stroke="#8a8a8a" stroke-width="2" pointer-events="visiblePainted" fill="#999999" width="450" height="300" style="fill: rgb(153, 153, 153); stroke: rgb(138, 138, 138);"></rect><text  id="v-3147" font-size="34" xml:space="preserve" y="0.8em" font-weight="bold" text-anchor="middle" pointer-events="visible" font-family="Open Sans" fill="#ffffff" transform="matrix(1,0,0,1,225,102.5)" style="fill: rgb(255, 255, 255);"><tspan dy="0" >EOP Hub</tspan></text><text  id="v-3148" font-size="17" xml:space="preserve" y="0.8em" text-anchor="middle" font-family="Open Sans" fill="#ffffff" transform="matrix(1,0,0,1,225,143.3)" style="fill: rgb(255, 255, 255);"><tspan dy="0" >[Software System]</tspan></text><text  id="v-3149" font-size="24" xml:space="preserve" y="0.8em" text-anchor="middle" font-family="Open Sans" fill="#ffffff" transform="matrix(1,0,0,1,225,173.7)" style="fill: rgb(255, 255, 255);"><tspan dy="0" >The EOP Hub system</tspan></text><g  id="v-3150" color="#ffffff" transform="matrix(1,0,0,1,222.5,268)" display="none" style="fill: rgb(255, 255, 255);"><g ></g><g ></g><g ></g><g ></g></g><image  id="v-3151"></image></g></g><!--z-index:37--><g   id="j_249"  transform="translate(578,2265)" style=""><g id="v-3167"><rect  id="v-3168" width="490" height="1094" rx="0" ry="0" fill="#ffffff" stroke="#444444" stroke-width="1" stroke-dasharray="5,5" pointer-events="none"></rect><text  id="v-3169" font-size="24px" xml:space="preserve" y="1079" font-weight="normal" fill="#444444" text-anchor="start" pointer-events="visible" font-family="Open Sans" transform="matrix(1,0,0,1,15,0)"><tspan dy="0" >GWRC</tspan></text><text  id="v-3170" font-size="17px" xml:space="preserve" display="none" y="1079" font-weight="normal" fill="#444444" text-anchor="start" pointer-events="visible" font-family="Open Sans" transform="matrix(1,0,0,1,15,0)"><tspan dy="0" style="fill-opacity: 0; stroke-opacity: 0;" >-</tspan></text><image  id="v-3171" pointer-events="visible"></image></g></g><!--z-index:38--><g   id="j_248"  transform="translate(598,2285)" style=""><g  id="v-3160" style="opacity: 1;"><rect  id="v-3161" rx="20" ry="20" stroke="#8a8a8a" stroke-width="2" pointer-events="visiblePainted" fill="#999999" width="450" height="300" style="fill: rgb(153, 153, 153); stroke: rgb(138, 138, 138);"></rect><text  id="v-3162" font-size="34" xml:space="preserve" y="0.8em" font-weight="bold" text-anchor="middle" pointer-events="visible" font-family="Open Sans" fill="#ffffff" transform="matrix(1,0,0,1,225,102.5)" style="fill: rgb(255, 255, 255);"><tspan dy="0" >GWRC [ARC]GIS System</tspan></text><text  id="v-3163" font-size="17" xml:space="preserve" y="0.8em" text-anchor="middle" font-family="Open Sans" fill="#ffffff" transform="matrix(1,0,0,1,225,143.3)" style="fill: rgb(255, 255, 255);"><tspan dy="0" >[Software System]</tspan></text><text  id="v-3164" font-size="24" xml:space="preserve" y="0.8em" text-anchor="middle" font-family="Open Sans" fill="#ffffff" transform="matrix(1,0,0,1,225,173.7)" style="fill: rgb(255, 255, 255);"><tspan dy="0" >The GWRC GIS system(s)</tspan></text><g  id="v-3165" color="#ffffff" transform="matrix(1,0,0,1,222.5,268)" display="none" style="fill: rgb(255, 255, 255);"><g ></g><g ></g><g ></g><g ></g></g><image  id="v-3166"></image></g></g><!--z-index:39--><g   id="j_250"  transform="translate(598,2985)" style=""><g  id="v-3175" style="opacity: 1;"><rect  id="v-3176" rx="10" ry="10" stroke="#e6d292" stroke-width="2" pointer-events="visiblePainted" fill="#ffe9a2" x="10" y="0" width="150" height="75" style="fill: rgb(255, 233, 162); stroke: rgb(230, 210, 146);"></rect><rect  id="v-3177" rx="5" ry="5" stroke="#e6d292" stroke-width="2" pointer-events="visiblePainted" fill="#ffe9a2" x="0" y="37.5" width="450" height="262.5" style="fill: rgb(255, 233, 162); stroke: rgb(230, 210, 146);"></rect><text  id="v-3178" font-size="34" xml:space="preserve" y="0.8em" font-weight="bold" text-anchor="middle" pointer-events="visible" font-family="Open Sans" fill="#ffffff" transform="matrix(1,0,0,1,225,121.3)" style="fill: rgb(255, 255, 255);"><tspan dy="0" >GWRC NRPlan</tspan></text><text  id="v-3179" font-size="17" xml:space="preserve" y="0.8em" text-anchor="middle" font-family="Open Sans" fill="#ffffff" transform="matrix(1,0,0,1,225,162.1)" style="fill: rgb(255, 255, 255);"><tspan dy="0" >[Documents]</tspan></text><text  id="v-3180" font-size="24" xml:space="preserve" y="0.8em" text-anchor="middle" font-family="Open Sans" fill="#ffffff" transform="matrix(1,0,0,1,225,192.5)" style="fill: rgb(255, 255, 255);"><tspan dy="0" >The Natural Resources Plan</tspan></text><g  id="v-3181" font-weight="normal" text-anchor="middle" color="#ffffff" transform="matrix(1,0,0,1,222.5,268)" display="none" style="fill: rgb(255, 255, 255);"><g ></g><g ></g><g ></g><g ></g></g><image  id="v-3182"></image></g></g><!--z-index:40--><g   id="j_252"  transform="translate(578,865)" style=""><g id="v-3194"><rect  id="v-3195" width="490" height="1094" rx="0" ry="0" fill="#ffffff" stroke="#444444" stroke-width="1" stroke-dasharray="5,5" pointer-events="none"></rect><text  id="v-3196" font-size="24px" xml:space="preserve" y="1079" font-weight="normal" fill="#444444" text-anchor="start" pointer-events="visible" font-family="Open Sans" transform="matrix(1,0,0,1,15,0)"><tspan dy="0" >External parties and sources</tspan></text><text  id="v-3197" font-size="17px" xml:space="preserve" display="none" y="1079" font-weight="normal" fill="#444444" text-anchor="start" pointer-events="visible" font-family="Open Sans" transform="matrix(1,0,0,1,15,0)"><tspan dy="0" style="fill-opacity: 0; stroke-opacity: 0;" >-</tspan></text><image  id="v-3198" pointer-events="visible"></image></g></g><!--z-index:41--><g   id="j_251"  transform="translate(598,885)" style=""><g  id="v-3186" style="opacity: 1;"><rect  id="v-3187" rx="10" ry="10" stroke="#e6d292" stroke-width="2" pointer-events="visiblePainted" fill="#ffe9a2" x="10" y="0" width="150" height="75" style="fill: rgb(255, 233, 162); stroke: rgb(230, 210, 146);"></rect><rect  id="v-3188" rx="5" ry="5" stroke="#e6d292" stroke-width="2" pointer-events="visiblePainted" fill="#ffe9a2" x="0" y="37.5" width="450" height="262.5" style="fill: rgb(255, 233, 162); stroke: rgb(230, 210, 146);"></rect><text  id="v-3189" font-size="34" xml:space="preserve" y="0.8em" font-weight="bold" text-anchor="middle" pointer-events="visible" font-family="Open Sans" fill="#ffffff" transform="matrix(1,0,0,1,225,106.9)" style="fill: rgb(255, 255, 255);"><tspan dy="0" >NIWA REC</tspan></text><text  id="v-3190" font-size="17" xml:space="preserve" y="0.8em" text-anchor="middle" font-family="Open Sans" fill="#ffffff" transform="matrix(1,0,0,1,225,147.7)" style="fill: rgb(255, 255, 255);"><tspan dy="0" >[Documents]</tspan></text><text  id="v-3191" font-size="24" xml:space="preserve" y="0.8em" text-anchor="middle" font-family="Open Sans" fill="#ffffff" transform="matrix(1,0,0,1,225,178.1)" style="fill: rgb(255, 255, 255);"><tspan dy="0" >River Environment Classification</tspan><tspan dy="1.2em" x="0" >(REC2) Model</tspan></text><g  id="v-3192" font-weight="normal" text-anchor="middle" color="#ffffff" transform="matrix(1,0,0,1,222.5,268)" display="none" style="fill: rgb(255, 255, 255);"><g ></g><g ></g><g ></g><g ></g></g><image  id="v-3193"></image></g></g><!--z-index:42--><g   id="j_253"  transform="translate(598,1585)" style=""><g  id="v-3202" style="opacity: 1;"><rect  id="v-3203" rx="20" ry="20" stroke="#8a8a8a" stroke-width="2" pointer-events="visiblePainted" fill="#999999" width="450" height="300" style="fill: rgb(153, 153, 153); stroke: rgb(138, 138, 138);"></rect><text  id="v-3204" font-size="34" xml:space="preserve" y="0.8em" font-weight="bold" text-anchor="middle" pointer-events="visible" font-family="Open Sans" fill="#ffffff" transform="matrix(1,0,0,1,225,102.5)" style="fill: rgb(255, 255, 255);"><tspan dy="0" >LINZ Basemaps System</tspan></text><text  id="v-3205" font-size="17" xml:space="preserve" y="0.8em" text-anchor="middle" font-family="Open Sans" fill="#ffffff" transform="matrix(1,0,0,1,225,143.3)" style="fill: rgb(255, 255, 255);"><tspan dy="0" >[Software System]</tspan></text><text  id="v-3206" font-size="24" xml:space="preserve" y="0.8em" text-anchor="middle" font-family="Open Sans" fill="#ffffff" transform="matrix(1,0,0,1,225,173.7)" style="fill: rgb(255, 255, 255);"><tspan dy="0" >The LINZ Basemaps</tspan></text><g  id="v-3207" color="#ffffff" transform="matrix(1,0,0,1,222.5,268)" display="none" style="fill: rgb(255, 255, 255);"><g ></g><g ></g><g ></g><g ></g></g><image  id="v-3208"></image></g></g><!--z-index:43--><g   id="j_254" ><path  stroke="#707070" d="M 678 485 L 301 874 C 296.3333333333333 878.6666666666665 294 884.3333333333333 294 891 L 294 1879 C 294 1885.6666666666665 296.3333333333333 1891.3333333333333 301 1896 L 678 2285" id="v-3223" stroke-width="2" stroke-dasharray="30 30" fill="none" style="opacity: 1;"></path><path  fill="black" stroke="black" d="M 0 0 0 0" transform="matrix(-0.6958373260516654,0.7181994261159419,-0.7181994261159419,-0.6958373260516654,677.6699829101562,485)"></path><path  fill="#707070" stroke="#707070" d="M 20 0 L 0 10 L 20 20 z" id="v-3225" transform="matrix(-0.6958373260516655,-0.7181994261159418,0.7181994261159418,-0.6958373260516655,670.4879878860756,2291.9584827560507)" style="opacity: 1;"></path><path  d="M 678 485 L 301 874 C 296.3333333333333 878.6666666666665 294 884.3333333333333 294 891 L 294 1879 C 294 1885.6666666666665 296.3333333333333 1891.3333333333333 301 1896 L 678 2285" id="v-3224" fill="none" style="cursor: auto; pointer-events: visiblepainted;"></path><g ><g id="v-3217"  label-idx="0" cursor="move" transform="matrix(1,0,0,1,294,1385)" style="cursor: default; opacity: 1;"><rect joint-selector="rect" id="v-3220" fill="#ffffff" rx="3" ry="3" pointer-events="none" width="188.09390258789062" height="61.423336029052734" transform="matrix(1,0,0,1,-94,-30.7)"></rect><text joint-selector="text" id="v-3219" font-size="24px" xml:space="preserve" y="0.8em" fill="#707070" text-anchor="middle" pointer-events="none" font-family="Open Sans" font-weight="normal" transform="matrix(1,0,0,1,0,-23.2)"><tspan dy="0" >Gets FMU</tspan><tspan dy="1.2em" x="0" >boundaries from</tspan></text></g><g id="v-3218"  label-idx="1" cursor="move" transform="matrix(1,0,0,1,284,1425.800048828125)" style="cursor: default; opacity: 1;"><rect joint-selector="rect" id="v-3222" fill="#ffffff" rx="3" ry="3"  width="0" height="0" transform="matrix(1,0,0,1,0,0)" display="none"></rect><text joint-selector="text" id="v-3221" fill="#000000" font-size="14" text-anchor="middle" pointer-events="none"></text></g></g><g  display="none" style="display: none;"><g  transform="translate(294, 881)" id="v-3415"><circle  idx="0" r="10"></circle><path  idx="0" d="M16,5.333c-7.732,0-14,4.701-14,10.5c0,1.982,0.741,3.833,2.016,5.414L2,25.667l5.613-1.441c2.339,1.317,5.237,2.107,8.387,2.107c7.732,0,14-4.701,14-10.5C30,10.034,23.732,5.333,16,5.333z" transform="translate(5, -33)"></path><path  idx="0" transform="scale(.8) translate(9.5, -37)" d="M24.778,21.419 19.276,15.917 24.777,10.415 21.949,7.585 16.447,13.087 10.945,7.585 8.117,10.415 13.618,15.917 8.116,21.419 10.946,24.248 16.447,18.746 21.948,24.248z"><title>Remove vertex.</title></path></g><g  transform="translate(294, 1889)" id="v-3416"><circle  idx="1" r="10"></circle><path  idx="1" d="M16,5.333c-7.732,0-14,4.701-14,10.5c0,1.982,0.741,3.833,2.016,5.414L2,25.667l5.613-1.441c2.339,1.317,5.237,2.107,8.387,2.107c7.732,0,14-4.701,14-10.5C30,10.034,23.732,5.333,16,5.333z" transform="translate(5, -33)"></path><path  idx="1" transform="scale(.8) translate(9.5, -37)" d="M24.778,21.419 19.276,15.917 24.777,10.415 21.949,7.585 16.447,13.087 10.945,7.585 8.117,10.415 13.618,15.917 8.116,21.419 10.946,24.248 16.447,18.746 21.948,24.248z"><title>Remove vertex.</title></path></g></g><g  id="v-3227" display="none"><g  id="v-3215"><path  end="source" d="M 26 0 L 0 13 L 26 26 z"></path></g><g  id="v-3216"><path  end="target" d="M 26 0 L 0 13 L 26 26 z"></path></g></g><g  id="v-3226" display="none"><g  id="v-3212" transform="translate(650.1622401082983, 513.7238424346738) "><g  event="remove"><circle r="11"></circle><path transform="scale(.8) translate(-16, -16)" d="M24.778,21.419 19.276,15.917 24.777,10.415 21.949,7.585 16.447,13.087 10.945,7.585 8.117,10.415 13.618,15.917 8.116,21.419 10.946,24.248 16.447,18.746 21.948,24.248z"></path><title>Remove link.</title></g><g  event="link:options"><circle r="11" transform="translate(25)"></circle><path fill="white" transform="scale(.55) translate(29, -16)" d="M31.229,17.736c0.064-0.571,0.104-1.148,0.104-1.736s-0.04-1.166-0.104-1.737l-4.377-1.557c-0.218-0.716-0.504-1.401-0.851-2.05l1.993-4.192c-0.725-0.91-1.549-1.734-2.458-2.459l-4.193,1.994c-0.647-0.347-1.334-0.632-2.049-0.849l-1.558-4.378C17.165,0.708,16.588,0.667,16,0.667s-1.166,0.041-1.737,0.105L12.707,5.15c-0.716,0.217-1.401,0.502-2.05,0.849L6.464,4.005C5.554,4.73,4.73,5.554,4.005,6.464l1.994,4.192c-0.347,0.648-0.632,1.334-0.849,2.05l-4.378,1.557C0.708,14.834,0.667,15.412,0.667,16s0.041,1.165,0.105,1.736l4.378,1.558c0.217,0.715,0.502,1.401,0.849,2.049l-1.994,4.193c0.725,0.909,1.549,1.733,2.459,2.458l4.192-1.993c0.648,0.347,1.334,0.633,2.05,0.851l1.557,4.377c0.571,0.064,1.148,0.104,1.737,0.104c0.588,0,1.165-0.04,1.736-0.104l1.558-4.377c0.715-0.218,1.399-0.504,2.049-0.851l4.193,1.993c0.909-0.725,1.733-1.549,2.458-2.458l-1.993-4.193c0.347-0.647,0.633-1.334,0.851-2.049L31.229,17.736zM16,20.871c-2.69,0-4.872-2.182-4.872-4.871c0-2.69,2.182-4.872,4.872-4.872c2.689,0,4.871,2.182,4.871,4.872C20.871,18.689,18.689,20.871,16,20.871z"></path><title>Link options.</title></g></g></g></g><!--z-index:44--><g   id="j_255" ><path  stroke="#707070" d="M 1005 2285 L 1491 1885" id="v-3240" stroke-width="2" stroke-dasharray="30 30" fill="none" style="opacity: 1;"></path><path  fill="black" stroke="black" d="M 0 0 0 0" transform="matrix(0.7719338126609797,-0.6357029092828532,0.6357029092828532,0.7719338126609797,1005.1400146484375,2285)"></path><path  fill="#707070" stroke="#707070" d="M 20 0 L 0 10 L 20 20 z" id="v-3242" transform="matrix(-0.7719339819588779,0.6357027037044211,-0.6357027037044211,-0.7719339819588779,1497.2169918566326,1892.7193684466074)" style="opacity: 1;"></path><path  d="M 1005 2285 L 1491 1885" id="v-3241" fill="none" style="cursor: auto; pointer-events: visiblepainted;"></path><g ><g id="v-3234"  label-idx="0" cursor="move" transform="matrix(1,0,0,1,1248,2085)" style="cursor: default; opacity: 1;"><rect joint-selector="rect" id="v-3237" fill="#ffffff" rx="3" ry="3" pointer-events="none" width="188.09390258789062" height="61.423336029052734" transform="matrix(1,0,0,1,-94,-30.7)"></rect><text joint-selector="text" id="v-3236" font-size="24px" xml:space="preserve" y="0.8em" fill="#707070" text-anchor="middle" pointer-events="none" font-family="Open Sans" font-weight="normal" transform="matrix(1,0,0,1,0,-23.2)"><tspan dy="0" >Pulls Geospatial</tspan><tspan dy="1.2em" x="0" >boundaries from</tspan></text></g><g id="v-3235"  label-idx="1" cursor="move" transform="matrix(1,0,0,1,1238,2125.800048828125)" style="cursor: default; opacity: 1;"><rect joint-selector="rect" id="v-3239" fill="#ffffff" rx="3" ry="3"  width="0" height="0" transform="matrix(1,0,0,1,0,0)" display="none"></rect><text joint-selector="text" id="v-3238" fill="#000000" font-size="14" text-anchor="middle" pointer-events="none"></text></g></g><g  display="none" style="display: none;"></g><g  id="v-3244" display="none"><g  id="v-3232"><path  end="source" d="M 26 0 L 0 13 L 26 26 z"></path></g><g  id="v-3233"><path  end="target" d="M 26 0 L 0 13 L 26 26 z"></path></g></g><g  id="v-3243" display="none"><g  id="v-3231" transform="translate(1035.88454569192, 2259.5806208296954) "><g  event="remove"><circle r="11"></circle><path transform="scale(.8) translate(-16, -16)" d="M24.778,21.419 19.276,15.917 24.777,10.415 21.949,7.585 16.447,13.087 10.945,7.585 8.117,10.415 13.618,15.917 8.116,21.419 10.946,24.248 16.447,18.746 21.948,24.248z"></path><title>Remove link.</title></g><g  event="link:options"><circle r="11" transform="translate(25)"></circle><path fill="white" transform="scale(.55) translate(29, -16)" d="M31.229,17.736c0.064-0.571,0.104-1.148,0.104-1.736s-0.04-1.166-0.104-1.737l-4.377-1.557c-0.218-0.716-0.504-1.401-0.851-2.05l1.993-4.192c-0.725-0.91-1.549-1.734-2.458-2.459l-4.193,1.994c-0.647-0.347-1.334-0.632-2.049-0.849l-1.558-4.378C17.165,0.708,16.588,0.667,16,0.667s-1.166,0.041-1.737,0.105L12.707,5.15c-0.716,0.217-1.401,0.502-2.05,0.849L6.464,4.005C5.554,4.73,4.73,5.554,4.005,6.464l1.994,4.192c-0.347,0.648-0.632,1.334-0.849,2.05l-4.378,1.557C0.708,14.834,0.667,15.412,0.667,16s0.041,1.165,0.105,1.736l4.378,1.558c0.217,0.715,0.502,1.401,0.849,2.049l-1.994,4.193c0.725,0.909,1.549,1.733,2.459,2.458l4.192-1.993c0.648,0.347,1.334,0.633,2.05,0.851l1.557,4.377c0.571,0.064,1.148,0.104,1.737,0.104c0.588,0,1.165-0.04,1.736-0.104l1.558-4.377c0.715-0.218,1.399-0.504,2.049-0.851l4.193,1.993c0.909-0.725,1.733-1.549,2.458-2.458l-1.993-4.193c0.347-0.647,0.633-1.334,0.851-2.049L31.229,17.736zM16,20.871c-2.69,0-4.872-2.182-4.872-4.871c0-2.69,2.182-4.872,4.872-4.872c2.689,0,4.871,2.182,4.871,4.872C20.871,18.689,18.689,20.871,16,20.871z"></path><title>Link options.</title></g></g></g></g><!--z-index:45--><g   id="j_256" ><path  stroke="#707070" d="M 964 2985 L 1146 2792 C 1150.6666666666665 2787.333333333333 1154.3333333333333 2782 1157 2776 L 1599 1885" id="v-3258" stroke-width="2" stroke-dasharray="30 30" fill="none" style="opacity: 1;"></path><path  fill="black" stroke="black" d="M 0 0 0 0" transform="matrix(0.6860100535059471,-0.7275920604904699,0.7275920604904699,0.6860100535059471,964.4299926757812,2985)"></path><path  fill="#707070" stroke="#707070" d="M 20 0 L 0 10 L 20 20 z" id="v-3260" transform="matrix(-0.44379307109943583,0.8961292931514576,-0.8961292931514576,-0.44379307109943583,1607.6713183690713,1889.4379414904176)" style="opacity: 1;"></path><path  d="M 964 2985 L 1146 2792 C 1150.6666666666665 2787.333333333333 1154.3333333333333 2782 1157 2776 L 1599 1885" id="v-3259" fill="none" style="cursor: auto; pointer-events: visiblepainted;"></path><g ><g id="v-3252"  label-idx="0" cursor="move" transform="matrix(1,0,0,1,1314.7169189453125,2458.068359375)" style="cursor: default; opacity: 1;"><rect joint-selector="rect" id="v-3255" fill="#ffffff" rx="3" ry="3" pointer-events="none" width="148.6122589111328" height="90.22333908081055" transform="matrix(1,0,0,1,-74.3,-45.1)"></rect><text joint-selector="text" id="v-3254" font-size="24px" xml:space="preserve" y="0.8em" fill="#707070" text-anchor="middle" pointer-events="none" font-family="Open Sans" font-weight="normal" transform="matrix(1,0,0,1,0,-37.6)"><tspan dy="0" >Stores the</tspan><tspan dy="1.2em" x="0" >digitized Plan</tspan><tspan dy="1.2em" x="0" >limits</tspan></text></g><g id="v-3253"  label-idx="1" cursor="move" transform="matrix(1,0,0,1,1304.7169189453125,2513.268310546875)" style="cursor: default; opacity: 1;"><rect joint-selector="rect" id="v-3257" fill="#ffffff" rx="3" ry="3"  width="0" height="0" transform="matrix(1,0,0,1,0,0)" display="none"></rect><text joint-selector="text" id="v-3256" fill="#000000" font-size="14" text-anchor="middle" pointer-events="none"></text></g></g><g  display="none" style="display: none;"><g  transform="translate(1153, 2785)" id="v-3417"><circle  idx="0" r="10"></circle><path  idx="0" d="M16,5.333c-7.732,0-14,4.701-14,10.5c0,1.982,0.741,3.833,2.016,5.414L2,25.667l5.613-1.441c2.339,1.317,5.237,2.107,8.387,2.107c7.732,0,14-4.701,14-10.5C30,10.034,23.732,5.333,16,5.333z" transform="translate(5, -33)"></path><path  idx="0" transform="scale(.8) translate(9.5, -37)" d="M24.778,21.419 19.276,15.917 24.777,10.415 21.949,7.585 16.447,13.087 10.945,7.585 8.117,10.415 13.618,15.917 8.116,21.419 10.946,24.248 16.447,18.746 21.948,24.248z"><title>Remove vertex.</title></path></g></g><g  id="v-3262" display="none"><g  id="v-3250"><path  end="source" d="M 26 0 L 0 13 L 26 26 z"></path></g><g  id="v-3251"><path  end="target" d="M 26 0 L 0 13 L 26 26 z"></path></g></g><g  id="v-3261" display="none"><g  id="v-3248" transform="translate(991.4427953290965, 2955.89857418398) "><g  event="remove"><circle r="11"></circle><path transform="scale(.8) translate(-16, -16)" d="M24.778,21.419 19.276,15.917 24.777,10.415 21.949,7.585 16.447,13.087 10.945,7.585 8.117,10.415 13.618,15.917 8.116,21.419 10.946,24.248 16.447,18.746 21.948,24.248z"></path><title>Remove link.</title></g><g  event="link:options"><circle r="11" transform="translate(25)"></circle><path fill="white" transform="scale(.55) translate(29, -16)" d="M31.229,17.736c0.064-0.571,0.104-1.148,0.104-1.736s-0.04-1.166-0.104-1.737l-4.377-1.557c-0.218-0.716-0.504-1.401-0.851-2.05l1.993-4.192c-0.725-0.91-1.549-1.734-2.458-2.459l-4.193,1.994c-0.647-0.347-1.334-0.632-2.049-0.849l-1.558-4.378C17.165,0.708,16.588,0.667,16,0.667s-1.166,0.041-1.737,0.105L12.707,5.15c-0.716,0.217-1.401,0.502-2.05,0.849L6.464,4.005C5.554,4.73,4.73,5.554,4.005,6.464l1.994,4.192c-0.347,0.648-0.632,1.334-0.849,2.05l-4.378,1.557C0.708,14.834,0.667,15.412,0.667,16s0.041,1.165,0.105,1.736l4.378,1.558c0.217,0.715,0.502,1.401,0.849,2.049l-1.994,4.193c0.725,0.909,1.549,1.733,2.459,2.458l4.192-1.993c0.648,0.347,1.334,0.633,2.05,0.851l1.557,4.377c0.571,0.064,1.148,0.104,1.737,0.104c0.588,0,1.165-0.04,1.736-0.104l1.558-4.377c0.715-0.218,1.399-0.504,2.049-0.851l4.193,1.993c0.909-0.725,1.733-1.549,2.458-2.458l-1.993-4.193c0.347-0.647,0.633-1.334,0.851-2.049L31.229,17.736zM16,20.871c-2.69,0-4.872-2.182-4.872-4.871c0-2.69,2.182-4.872,4.872-4.872c2.689,0,4.871,2.182,4.871,4.872C20.871,18.689,18.689,20.871,16,20.871z"></path><title>Link options.</title></g></g></g></g><!--z-index:46--><g   id="j_257" ><path  stroke="#707070" d="M 1005 1185 L 1491 1585" id="v-3275" stroke-width="2" stroke-dasharray="30 30" fill="none" style="opacity: 1;"></path><path  fill="black" stroke="black" d="M 0 0 0 0" transform="matrix(0.7719338973099357,0.6357028064936426,-0.6357028064936426,0.7719338973099357,1005.1400146484375,1185)"></path><path  fill="#707070" stroke="#707070" d="M 20 0 L 0 10 L 20 20 z" id="v-3277" transform="matrix(-0.7719339819588777,-0.6357027037044212,0.6357027037044212,-0.7719339819588777,1484.5029377825442,1592.71931119257)" style="opacity: 1;"></path><path  d="M 1005 1185 L 1491 1585" id="v-3276" fill="none" style="cursor: auto; pointer-events: visiblepainted;"></path><g ><g id="v-3269"  label-idx="0" cursor="move" transform="matrix(1,0,0,1,1248,1385)" style="cursor: default; opacity: 1;"><rect joint-selector="rect" id="v-3272" fill="#ffffff" rx="3" ry="3" pointer-events="none" width="179.10360717773438" height="61.423336029052734" transform="matrix(1,0,0,1,-89,-30.7)"></rect><text joint-selector="text" id="v-3271" font-size="24px" xml:space="preserve" y="0.8em" fill="#707070" text-anchor="middle" pointer-events="none" font-family="Open Sans" font-weight="normal" transform="matrix(1,0,0,1,0,-23.2)"><tspan dy="0" >Stores a copy of</tspan><tspan dy="1.2em" x="0" >the REC model</tspan></text></g><g id="v-3270"  label-idx="1" cursor="move" transform="matrix(1,0,0,1,1238,1425.800048828125)" style="cursor: default; opacity: 1;"><rect joint-selector="rect" id="v-3274" fill="#ffffff" rx="3" ry="3"  width="0" height="0" transform="matrix(1,0,0,1,0,0)" display="none"></rect><text joint-selector="text" id="v-3273" fill="#000000" font-size="14" text-anchor="middle" pointer-events="none"></text></g></g><g  display="none" style="display: none;"></g><g  id="v-3279" display="none"><g  id="v-3267"><path  end="source" d="M 26 0 L 0 13 L 26 26 z"></path></g><g  id="v-3268"><path  end="target" d="M 26 0 L 0 13 L 26 26 z"></path></g></g><g  id="v-3278" display="none"><g  id="v-3266" transform="translate(1035.88454569192, 1210.4193791703046) "><g  event="remove"><circle r="11"></circle><path transform="scale(.8) translate(-16, -16)" d="M24.778,21.419 19.276,15.917 24.777,10.415 21.949,7.585 16.447,13.087 10.945,7.585 8.117,10.415 13.618,15.917 8.116,21.419 10.946,24.248 16.447,18.746 21.948,24.248z"></path><title>Remove link.</title></g><g  event="link:options"><circle r="11" transform="translate(25)"></circle><path fill="white" transform="scale(.55) translate(29, -16)" d="M31.229,17.736c0.064-0.571,0.104-1.148,0.104-1.736s-0.04-1.166-0.104-1.737l-4.377-1.557c-0.218-0.716-0.504-1.401-0.851-2.05l1.993-4.192c-0.725-0.91-1.549-1.734-2.458-2.459l-4.193,1.994c-0.647-0.347-1.334-0.632-2.049-0.849l-1.558-4.378C17.165,0.708,16.588,0.667,16,0.667s-1.166,0.041-1.737,0.105L12.707,5.15c-0.716,0.217-1.401,0.502-2.05,0.849L6.464,4.005C5.554,4.73,4.73,5.554,4.005,6.464l1.994,4.192c-0.347,0.648-0.632,1.334-0.849,2.05l-4.378,1.557C0.708,14.834,0.667,15.412,0.667,16s0.041,1.165,0.105,1.736l4.378,1.558c0.217,0.715,0.502,1.401,0.849,2.049l-1.994,4.193c0.725,0.909,1.549,1.733,2.459,2.458l4.192-1.993c0.648,0.347,1.334,0.633,2.05,0.851l1.557,4.377c0.571,0.064,1.148,0.104,1.737,0.104c0.588,0,1.165-0.04,1.736-0.104l1.558-4.377c0.715-0.218,1.399-0.504,2.049-0.851l4.193,1.993c0.909-0.725,1.733-1.549,2.458-2.458l-1.993-4.193c0.347-0.647,0.633-1.334,0.851-2.049L31.229,17.736zM16,20.871c-2.69,0-4.872-2.182-4.872-4.871c0-2.69,2.182-4.872,4.872-4.872c2.689,0,4.871,2.182,4.871,4.872C20.871,18.689,18.689,20.871,16,20.871z"></path><title>Link options.</title></g></g></g></g><!--z-index:47--><g   id="j_258" ><path  stroke="#707070" d="M 1048 1735 L 1448 1735" id="v-3292" stroke-width="2" stroke-dasharray="30 30" fill="none" style="opacity: 1;"></path><path  fill="black" stroke="black" d="M 0 0 0 0" transform="matrix(1,0,0,1,1048,1735)"></path><path  fill="#707070" stroke="#707070" d="M 20 0 L 0 10 L 20 20 z" id="v-3294" transform="matrix(-1,1.2246467991473532e-16,-1.2246467991473532e-16,-1,1447.9999999999995,1745)" style="opacity: 1;"></path><path  d="M 1048 1735 L 1448 1735" id="v-3293" fill="none" style="cursor: auto; pointer-events: visiblepainted;"></path><g ><g id="v-3286"  label-idx="0" cursor="move" transform="matrix(1,0,0,1,1248,1735)" style="cursor: default; opacity: 1;"><rect joint-selector="rect" id="v-3289" fill="#ffffff" rx="3" ry="3" pointer-events="none" width="186.79638671875" height="90.22333908081055" transform="matrix(1,0,0,1,-93.4,-45.1)"></rect><text joint-selector="text" id="v-3288" font-size="24px" xml:space="preserve" y="0.8em" fill="#707070" text-anchor="middle" pointer-events="none" font-family="Open Sans" font-weight="normal" transform="matrix(1,0,0,1,0,-37.6)"><tspan dy="0" >Pulls NZ</tspan><tspan dy="1.2em" x="0" >Basemap imegry</tspan><tspan dy="1.2em" x="0" >from</tspan></text></g><g id="v-3287"  label-idx="1" cursor="move" transform="matrix(1,0,0,1,1238,1790.199951171875)" style="cursor: default; opacity: 1;"><rect joint-selector="rect" id="v-3291" fill="#ffffff" rx="3" ry="3"  width="0" height="0" transform="matrix(1,0,0,1,0,0)" display="none"></rect><text joint-selector="text" id="v-3290" fill="#000000" font-size="14" text-anchor="middle" pointer-events="none"></text></g></g><g  display="none" style="display: none;"></g><g  id="v-3296" display="none"><g  id="v-3284"><path  end="source" d="M 26 0 L 0 13 L 26 26 z"></path></g><g  id="v-3285"><path  end="target" d="M 26 0 L 0 13 L 26 26 z"></path></g></g><g  id="v-3295" display="none"><g  id="v-3283" transform="translate(1088, 1735) "><g  event="remove"><circle r="11"></circle><path transform="scale(.8) translate(-16, -16)" d="M24.778,21.419 19.276,15.917 24.777,10.415 21.949,7.585 16.447,13.087 10.945,7.585 8.117,10.415 13.618,15.917 8.116,21.419 10.946,24.248 16.447,18.746 21.948,24.248z"></path><title>Remove link.</title></g><g  event="link:options"><circle r="11" transform="translate(25)"></circle><path fill="white" transform="scale(.55) translate(29, -16)" d="M31.229,17.736c0.064-0.571,0.104-1.148,0.104-1.736s-0.04-1.166-0.104-1.737l-4.377-1.557c-0.218-0.716-0.504-1.401-0.851-2.05l1.993-4.192c-0.725-0.91-1.549-1.734-2.458-2.459l-4.193,1.994c-0.647-0.347-1.334-0.632-2.049-0.849l-1.558-4.378C17.165,0.708,16.588,0.667,16,0.667s-1.166,0.041-1.737,0.105L12.707,5.15c-0.716,0.217-1.401,0.502-2.05,0.849L6.464,4.005C5.554,4.73,4.73,5.554,4.005,6.464l1.994,4.192c-0.347,0.648-0.632,1.334-0.849,2.05l-4.378,1.557C0.708,14.834,0.667,15.412,0.667,16s0.041,1.165,0.105,1.736l4.378,1.558c0.217,0.715,0.502,1.401,0.849,2.049l-1.994,4.193c0.725,0.909,1.549,1.733,2.459,2.458l4.192-1.993c0.648,0.347,1.334,0.633,2.05,0.851l1.557,4.377c0.571,0.064,1.148,0.104,1.737,0.104c0.588,0,1.165-0.04,1.736-0.104l1.558-4.377c0.715-0.218,1.399-0.504,2.049-0.851l4.193,1.993c0.909-0.725,1.733-1.549,2.458-2.458l-1.993-4.193c0.347-0.647,0.633-1.334,0.851-2.049L31.229,17.736zM16,20.871c-2.69,0-4.872-2.182-4.872-4.871c0-2.69,2.182-4.872,4.872-4.872c2.689,0,4.871,2.182,4.871,4.872C20.871,18.689,18.689,20.871,16,20.871z"></path><title>Link options.</title></g></g></g></g><!--z-index:48--><g   id="j_259" ><path  stroke="#707070" d="M 1898 1704 L 2140 1670 C 2146.6666666666665 1669.333333333333 2152.333333333333 1666.6666666666665 2157 1662 L 2298 1527" id="v-3310" stroke-width="2" stroke-dasharray="30 30" fill="none" style="opacity: 1;"></path><path  fill="black" stroke="black" d="M 0 0 0 0" transform="matrix(0.9905617492963218,-0.13706721282280052,0.13706721282280052,0.9905617492963218,1898,1703.8699951171875)"></path><path  fill="#707070" stroke="#707070" d="M 20 0 L 0 10 L 20 20 z" id="v-3312" transform="matrix(-0.7214604048009777,0.6924556912210408,-0.6924556912210408,-0.7214604048009777,2304.9245613508447,1534.1645588545496)" style="opacity: 1;"></path><path  d="M 1898 1704 L 2140 1670 C 2146.6666666666665 1669.333333333333 2152.333333333333 1666.6666666666665 2157 1662 L 2298 1527" id="v-3311" fill="none" style="cursor: auto; pointer-events: visiblepainted;"></path><g ><g id="v-3304"  label-idx="0" cursor="move" transform="matrix(1,0,0,1,2125.1484375,1672.0865478515625)" style="cursor: default; opacity: 1;"><rect joint-selector="rect" id="v-3307" fill="#ffffff" rx="3" ry="3" pointer-events="none" width="179.24298095703125" height="61.423336029052734" transform="matrix(1,0,0,1,-89.6,-30.7)"></rect><text joint-selector="text" id="v-3306" font-size="24px" xml:space="preserve" y="0.8em" fill="#707070" text-anchor="middle" pointer-events="none" font-family="Open Sans" font-weight="normal" transform="matrix(1,0,0,1,0,-23.2)"><tspan dy="0" >Visits Plan limits</tspan><tspan dy="1.2em" x="0" >viewer using</tspan></text></g><g id="v-3305"  label-idx="1" cursor="move" transform="matrix(1,0,0,1,2115.1484375,1712.8865966796875)" style="cursor: default; opacity: 1;"><rect joint-selector="rect" id="v-3309" fill="#ffffff" rx="3" ry="3"  width="0" height="0" transform="matrix(1,0,0,1,0,0)" display="none"></rect><text joint-selector="text" id="v-3308" fill="#000000" font-size="14" text-anchor="middle" pointer-events="none"></text></g></g><g  display="none" style="display: none;"><g  transform="translate(2150, 1669)" id="v-3418"><circle  idx="0" r="10"></circle><path  idx="0" d="M16,5.333c-7.732,0-14,4.701-14,10.5c0,1.982,0.741,3.833,2.016,5.414L2,25.667l5.613-1.441c2.339,1.317,5.237,2.107,8.387,2.107c7.732,0,14-4.701,14-10.5C30,10.034,23.732,5.333,16,5.333z" transform="translate(5, -33)"></path><path  idx="0" transform="scale(.8) translate(9.5, -37)" d="M24.778,21.419 19.276,15.917 24.777,10.415 21.949,7.585 16.447,13.087 10.945,7.585 8.117,10.415 13.618,15.917 8.116,21.419 10.946,24.248 16.447,18.746 21.948,24.248z"><title>Remove vertex.</title></path></g></g><g  id="v-3314" display="none"><g  id="v-3302"><path  end="source" d="M 26 0 L 0 13 L 26 26 z"></path></g><g  id="v-3303"><path  end="target" d="M 26 0 L 0 13 L 26 26 z"></path></g></g><g  id="v-3313" display="none"><g  id="v-3300" transform="translate(1937.6109681915461, 1698.4348226507745) "><g  event="remove"><circle r="11"></circle><path transform="scale(.8) translate(-16, -16)" d="M24.778,21.419 19.276,15.917 24.777,10.415 21.949,7.585 16.447,13.087 10.945,7.585 8.117,10.415 13.618,15.917 8.116,21.419 10.946,24.248 16.447,18.746 21.948,24.248z"></path><title>Remove link.</title></g><g  event="link:options"><circle r="11" transform="translate(25)"></circle><path fill="white" transform="scale(.55) translate(29, -16)" d="M31.229,17.736c0.064-0.571,0.104-1.148,0.104-1.736s-0.04-1.166-0.104-1.737l-4.377-1.557c-0.218-0.716-0.504-1.401-0.851-2.05l1.993-4.192c-0.725-0.91-1.549-1.734-2.458-2.459l-4.193,1.994c-0.647-0.347-1.334-0.632-2.049-0.849l-1.558-4.378C17.165,0.708,16.588,0.667,16,0.667s-1.166,0.041-1.737,0.105L12.707,5.15c-0.716,0.217-1.401,0.502-2.05,0.849L6.464,4.005C5.554,4.73,4.73,5.554,4.005,6.464l1.994,4.192c-0.347,0.648-0.632,1.334-0.849,2.05l-4.378,1.557C0.708,14.834,0.667,15.412,0.667,16s0.041,1.165,0.105,1.736l4.378,1.558c0.217,0.715,0.502,1.401,0.849,2.049l-1.994,4.193c0.725,0.909,1.549,1.733,2.459,2.458l4.192-1.993c0.648,0.347,1.334,0.633,2.05,0.851l1.557,4.377c0.571,0.064,1.148,0.104,1.737,0.104c0.588,0,1.165-0.04,1.736-0.104l1.558-4.377c0.715-0.218,1.399-0.504,2.049-0.851l4.193,1.993c0.909-0.725,1.733-1.549,2.458-2.458l-1.993-4.193c0.347-0.647,0.633-1.334,0.851-2.049L31.229,17.736zM16,20.871c-2.69,0-4.872-2.182-4.872-4.871c0-2.69,2.182-4.872,4.872-4.872c2.689,0,4.871,2.182,4.871,4.872C20.871,18.689,18.689,20.871,16,20.871z"></path><title>Link options.</title></g></g></g></g><!--z-index:49--><g   id="j_260" ><path  stroke="#707070" d="M 1829 1885 L 2013 2062 C 2017.6666666666665 2066.6666666666665 2023.333333333333 2069.333333333333 2030 2070 L 2298 2107" id="v-3328" stroke-width="2" stroke-dasharray="30 30" fill="none" style="opacity: 1;"></path><path  fill="black" stroke="black" d="M 0 0 0 0" transform="matrix(0.720470851846453,0.6934852209237385,-0.6934852209237385,0.720470851846453,1828.8399658203125,1885)"></path><path  fill="#707070" stroke="#707070" d="M 20 0 L 0 10 L 20 20 z" id="v-3330" transform="matrix(-0.9906041550128631,-0.13676040388669317,0.13676040388669317,-0.9906041550128631,2296.6324316518862,2117.2860967608704)" style="opacity: 1;"></path><path  d="M 1829 1885 L 2013 2062 C 2017.6666666666665 2066.6666666666665 2023.333333333333 2069.333333333333 2030 2070 L 2298 2107" id="v-3329" fill="none" style="cursor: auto; pointer-events: visiblepainted;"></path><g ><g id="v-3322"  label-idx="0" cursor="move" transform="matrix(1,0,0,1,2028.03759765625,2069.7412109375)" style="cursor: default; opacity: 1;"><rect joint-selector="rect" id="v-3325" fill="#ffffff" rx="3" ry="3" pointer-events="none" width="179.24298095703125" height="61.423336029052734" transform="matrix(1,0,0,1,-89.6,-30.7)"></rect><text joint-selector="text" id="v-3324" font-size="24px" xml:space="preserve" y="0.8em" fill="#707070" text-anchor="middle" pointer-events="none" font-family="Open Sans" font-weight="normal" transform="matrix(1,0,0,1,0,-23.2)"><tspan dy="0" >Visits Plan limits</tspan><tspan dy="1.2em" x="0" >viewer using</tspan></text></g><g id="v-3323"  label-idx="1" cursor="move" transform="matrix(1,0,0,1,2018.03759765625,2110.541259765625)" style="cursor: default; opacity: 1;"><rect joint-selector="rect" id="v-3327" fill="#ffffff" rx="3" ry="3"  width="0" height="0" transform="matrix(1,0,0,1,0,0)" display="none"></rect><text joint-selector="text" id="v-3326" fill="#000000" font-size="14" text-anchor="middle" pointer-events="none"></text></g></g><g  display="none" style="display: none;"><g  transform="translate(2020, 2069)" id="v-3419"><circle  idx="0" r="10"></circle><path  idx="0" d="M16,5.333c-7.732,0-14,4.701-14,10.5c0,1.982,0.741,3.833,2.016,5.414L2,25.667l5.613-1.441c2.339,1.317,5.237,2.107,8.387,2.107c7.732,0,14-4.701,14-10.5C30,10.034,23.732,5.333,16,5.333z" transform="translate(5, -33)"></path><path  idx="0" transform="scale(.8) translate(9.5, -37)" d="M24.778,21.419 19.276,15.917 24.777,10.415 21.949,7.585 16.447,13.087 10.945,7.585 8.117,10.415 13.618,15.917 8.116,21.419 10.946,24.248 16.447,18.746 21.948,24.248z"><title>Remove vertex.</title></path></g></g><g  id="v-3332" display="none"><g  id="v-3320"><path  end="source" d="M 26 0 L 0 13 L 26 26 z"></path></g><g  id="v-3321"><path  end="target" d="M 26 0 L 0 13 L 26 26 z"></path></g></g><g  id="v-3331" display="none"><g  id="v-3318" transform="translate(1857.8273007741632, 1912.7306099838415) "><g  event="remove"><circle r="11"></circle><path transform="scale(.8) translate(-16, -16)" d="M24.778,21.419 19.276,15.917 24.777,10.415 21.949,7.585 16.447,13.087 10.945,7.585 8.117,10.415 13.618,15.917 8.116,21.419 10.946,24.248 16.447,18.746 21.948,24.248z"></path><title>Remove link.</title></g><g  event="link:options"><circle r="11" transform="translate(25)"></circle><path fill="white" transform="scale(.55) translate(29, -16)" d="M31.229,17.736c0.064-0.571,0.104-1.148,0.104-1.736s-0.04-1.166-0.104-1.737l-4.377-1.557c-0.218-0.716-0.504-1.401-0.851-2.05l1.993-4.192c-0.725-0.91-1.549-1.734-2.458-2.459l-4.193,1.994c-0.647-0.347-1.334-0.632-2.049-0.849l-1.558-4.378C17.165,0.708,16.588,0.667,16,0.667s-1.166,0.041-1.737,0.105L12.707,5.15c-0.716,0.217-1.401,0.502-2.05,0.849L6.464,4.005C5.554,4.73,4.73,5.554,4.005,6.464l1.994,4.192c-0.347,0.648-0.632,1.334-0.849,2.05l-4.378,1.557C0.708,14.834,0.667,15.412,0.667,16s0.041,1.165,0.105,1.736l4.378,1.558c0.217,0.715,0.502,1.401,0.849,2.049l-1.994,4.193c0.725,0.909,1.549,1.733,2.459,2.458l4.192-1.993c0.648,0.347,1.334,0.633,2.05,0.851l1.557,4.377c0.571,0.064,1.148,0.104,1.737,0.104c0.588,0,1.165-0.04,1.736-0.104l1.558-4.377c0.715-0.218,1.399-0.504,2.049-0.851l4.193,1.993c0.909-0.725,1.733-1.549,2.458-2.458l-1.993-4.193c0.347-0.647,0.633-1.334,0.851-2.049L31.229,17.736zM16,20.871c-2.69,0-4.872-2.182-4.872-4.871c0-2.69,2.182-4.872,4.872-4.872c2.689,0,4.871,2.182,4.871,4.872C20.871,18.689,18.689,20.871,16,20.871z"></path><title>Link options.</title></g></g></g></g><!--z-index:50--><g   id="j_261" ><path  stroke="#707070" d="M 966 485 L 1146 674 C 1150.6666666666665 678.6666666666666 1154.3333333333333 684 1157 690 L 1599 1585" id="v-3349" stroke-width="2" stroke-dasharray="30 30" fill="none" style="opacity: 1;"></path><path  fill="black" stroke="black" d="M 0 0 0 0" transform="matrix(0.6901841493585867,0.7236337747605235,-0.7236337747605235,0.6901841493585867,966.0599975585938,485)"></path><path  fill="#707070" stroke="#707070" d="M 20 0 L 0 10 L 20 20 z" id="v-3351" transform="matrix(-0.4424456089878332,-0.8967953406922816,0.8967953406922816,-0.4424456089878332,1590.0320642063928,1589.4245139889883)" style="opacity: 1;"></path><path  d="M 966 485 L 1146 674 C 1150.6666666666665 678.6666666666666 1154.3333333333333 684 1157 690 L 1599 1585" id="v-3350" fill="none" style="cursor: auto; pointer-events: visiblepainted;"></path><g ><g id="v-3340"  label-idx="0" cursor="move" transform="matrix(1,0,0,1,1315.8916015625,1011.7374267578125)" style="cursor: default; opacity: 1;"><rect joint-selector="rect" id="v-3344" fill="#ffffff" rx="3" ry="3" pointer-events="none" width="158.8533935546875" height="61.423336029052734" transform="matrix(1,0,0,1,-79.4,-30.7)"></rect><text joint-selector="text" id="v-3343" font-size="24px" xml:space="preserve" y="0.8em" fill="#707070" text-anchor="middle" pointer-events="none" font-family="Open Sans" font-weight="normal" transform="matrix(1,0,0,1,0,-23.2)"><tspan dy="0" >Gets GeoJSON</tspan><tspan dy="1.2em" x="0" >data from</tspan></text></g><g id="v-3341"  label-idx="1" cursor="move" transform="matrix(1,0,0,1,1315.8916015625,1052.5374755859375)" style="cursor: default; opacity: 1;"><rect joint-selector="rect" id="v-3346" fill="#ffffff" rx="3" ry="3" pointer-events="none" width="133.59811401367188" height="23.726061820983887" transform="matrix(1,0,0,1,-66.8,-11.9)"></rect><text joint-selector="text" id="v-3345" font-size="17px" xml:space="preserve" y="0.8em" fill="#707070" text-anchor="middle" pointer-events="none" font-family="Open Sans" font-weight="normal" transform="matrix(1,0,0,1,0,-7.7)"><tspan dy="0" >[GeoJson/HTTPS]</tspan></text></g><g id="v-3342"  label-idx="2" cursor="move" transform="matrix(1,0,0,1,1305.8916015625,1060.9375)" style="cursor: default; opacity: 1;"><rect joint-selector="rect" id="v-3348" fill="#ffffff" rx="3" ry="3"  width="0" height="0" transform="matrix(1,0,0,1,0,0)" display="none"></rect><text joint-selector="text" id="v-3347" fill="#000000" font-size="14" text-anchor="middle" pointer-events="none"></text></g></g><g  display="none" style="display: none;"><g  transform="translate(1153, 681)" id="v-3420"><circle  idx="0" r="10"></circle><path  idx="0" d="M16,5.333c-7.732,0-14,4.701-14,10.5c0,1.982,0.741,3.833,2.016,5.414L2,25.667l5.613-1.441c2.339,1.317,5.237,2.107,8.387,2.107c7.732,0,14-4.701,14-10.5C30,10.034,23.732,5.333,16,5.333z" transform="translate(5, -33)"></path><path  idx="0" transform="scale(.8) translate(9.5, -37)" d="M24.778,21.419 19.276,15.917 24.777,10.415 21.949,7.585 16.447,13.087 10.945,7.585 8.117,10.415 13.618,15.917 8.116,21.419 10.946,24.248 16.447,18.746 21.948,24.248z"><title>Remove vertex.</title></path></g></g><g  id="v-3353" display="none"><g  id="v-3338"><path  end="source" d="M 26 0 L 0 13 L 26 26 z"></path></g><g  id="v-3339"><path  end="target" d="M 26 0 L 0 13 L 26 26 z"></path></g></g><g  id="v-3352" display="none"><g  id="v-3336" transform="translate(993.5862068965517, 513.9655172413793) "><g  event="remove"><circle r="11"></circle><path transform="scale(.8) translate(-16, -16)" d="M24.778,21.419 19.276,15.917 24.777,10.415 21.949,7.585 16.447,13.087 10.945,7.585 8.117,10.415 13.618,15.917 8.116,21.419 10.946,24.248 16.447,18.746 21.948,24.248z"></path><title>Remove link.</title></g><g  event="link:options"><circle r="11" transform="translate(25)"></circle><path fill="white" transform="scale(.55) translate(29, -16)" d="M31.229,17.736c0.064-0.571,0.104-1.148,0.104-1.736s-0.04-1.166-0.104-1.737l-4.377-1.557c-0.218-0.716-0.504-1.401-0.851-2.05l1.993-4.192c-0.725-0.91-1.549-1.734-2.458-2.459l-4.193,1.994c-0.647-0.347-1.334-0.632-2.049-0.849l-1.558-4.378C17.165,0.708,16.588,0.667,16,0.667s-1.166,0.041-1.737,0.105L12.707,5.15c-0.716,0.217-1.401,0.502-2.05,0.849L6.464,4.005C5.554,4.73,4.73,5.554,4.005,6.464l1.994,4.192c-0.347,0.648-0.632,1.334-0.849,2.05l-4.378,1.557C0.708,14.834,0.667,15.412,0.667,16s0.041,1.165,0.105,1.736l4.378,1.558c0.217,0.715,0.502,1.401,0.849,2.049l-1.994,4.193c0.725,0.909,1.549,1.733,2.459,2.458l4.192-1.993c0.648,0.347,1.334,0.633,2.05,0.851l1.557,4.377c0.571,0.064,1.148,0.104,1.737,0.104c0.588,0,1.165-0.04,1.736-0.104l1.558-4.377c0.715-0.218,1.399-0.504,2.049-0.851l4.193,1.993c0.909-0.725,1.733-1.549,2.458-2.458l-1.993-4.193c0.347-0.647,0.633-1.334,0.851-2.049L31.229,17.736zM16,20.871c-2.69,0-4.872-2.182-4.872-4.871c0-2.69,2.182-4.872,4.872-4.872c2.689,0,4.871,2.182,4.871,4.872C20.871,18.689,18.689,20.871,16,20.871z"></path><title>Link options.</title></g></g></g></g><!--z-index:51--><g   id="j_262" ><path  stroke="#707070" d="M 678 2285 L 301 1896 C 296.3333333333333 1891.3333333333333 294 1885.6666666666665 294 1879 L 294 891 C 294 884.3333333333333 296.3333333333333 878.6666666666665 301 874 L 678 485" id="v-3371" stroke-width="2" stroke-dasharray="30 30" fill="none" style="opacity: 1;"></path><path  fill="black" stroke="black" d="M 0 0 0 0" transform="matrix(-0.6958373260516655,-0.7181994261159418,0.7181994261159418,-0.6958373260516655,677.6699829101562,2285)"></path><path  fill="#707070" stroke="#707070" d="M 20 0 L 0 10 L 20 20 z" id="v-3373" transform="matrix(-0.6958373260516654,0.7181994261159419,-0.7181994261159419,-0.6958373260516654,684.8519764083945,491.958385835295)" style="opacity: 1;"></path><path  d="M 678 2285 L 301 1896 C 296.3333333333333 1891.3333333333333 294 1885.6666666666665 294 1879 L 294 891 C 294 884.3333333333333 296.3333333333333 878.6666666666665 301 874 L 678 485" id="v-3372" fill="none" style="cursor: auto; pointer-events: visiblepainted;"></path><g ><g id="v-3362"  label-idx="0" cursor="move" transform="matrix(1,0,0,1,294,1385)" style="cursor: default; opacity: 1;"><rect joint-selector="rect" id="v-3366" fill="#ffffff" rx="3" ry="3" pointer-events="none" width="153.61697387695312" height="61.423336029052734" transform="matrix(1,0,0,1,-76.8,-30.7)"></rect><text joint-selector="text" id="v-3365" font-size="24px" xml:space="preserve" y="0.8em" fill="#707070" text-anchor="middle" pointer-events="none" font-family="Open Sans" font-weight="normal" transform="matrix(1,0,0,1,0,-23.2)"><tspan dy="0" >Syncs spatial</tspan><tspan dy="1.2em" x="0" >features from</tspan></text></g><g id="v-3363"  label-idx="1" cursor="move" transform="matrix(1,0,0,1,294,1425.800048828125)" style="cursor: default; opacity: 1;"><rect joint-selector="rect" id="v-3368" fill="#ffffff" rx="3" ry="3" pointer-events="none" width="108.0647964477539" height="23.726061820983887" transform="matrix(1,0,0,1,-54,-11.9)"></rect><text joint-selector="text" id="v-3367" font-size="17px" xml:space="preserve" y="0.8em" fill="#707070" text-anchor="middle" pointer-events="none" font-family="Open Sans" font-weight="normal" transform="matrix(1,0,0,1,0,-7.7)"><tspan dy="0" >[JSON/HTTPS]</tspan></text></g><g id="v-3364"  label-idx="2" cursor="move" transform="matrix(1,0,0,1,284,1434.199951171875)" style="cursor: default; opacity: 1;"><rect joint-selector="rect" id="v-3370" fill="#ffffff" rx="3" ry="3"  width="0" height="0" transform="matrix(1,0,0,1,0,0)" display="none"></rect><text joint-selector="text" id="v-3369" fill="#000000" font-size="14" text-anchor="middle" pointer-events="none"></text></g></g><g  display="none" style="display: none;"><g  transform="translate(294, 1889)" id="v-3421"><circle  idx="0" r="10"></circle><path  idx="0" d="M16,5.333c-7.732,0-14,4.701-14,10.5c0,1.982,0.741,3.833,2.016,5.414L2,25.667l5.613-1.441c2.339,1.317,5.237,2.107,8.387,2.107c7.732,0,14-4.701,14-10.5C30,10.034,23.732,5.333,16,5.333z" transform="translate(5, -33)"></path><path  idx="0" transform="scale(.8) translate(9.5, -37)" d="M24.778,21.419 19.276,15.917 24.777,10.415 21.949,7.585 16.447,13.087 10.945,7.585 8.117,10.415 13.618,15.917 8.116,21.419 10.946,24.248 16.447,18.746 21.948,24.248z"><title>Remove vertex.</title></path></g><g  transform="translate(294, 881)" id="v-3422"><circle  idx="1" r="10"></circle><path  idx="1" d="M16,5.333c-7.732,0-14,4.701-14,10.5c0,1.982,0.741,3.833,2.016,5.414L2,25.667l5.613-1.441c2.339,1.317,5.237,2.107,8.387,2.107c7.732,0,14-4.701,14-10.5C30,10.034,23.732,5.333,16,5.333z" transform="translate(5, -33)"></path><path  idx="1" transform="scale(.8) translate(9.5, -37)" d="M24.778,21.419 19.276,15.917 24.777,10.415 21.949,7.585 16.447,13.087 10.945,7.585 8.117,10.415 13.618,15.917 8.116,21.419 10.946,24.248 16.447,18.746 21.948,24.248z"><title>Remove vertex.</title></path></g></g><g  id="v-3375" display="none"><g  id="v-3360"><path  end="source" d="M 26 0 L 0 13 L 26 26 z"></path></g><g  id="v-3361"><path  end="target" d="M 26 0 L 0 13 L 26 26 z"></path></g></g><g  id="v-3374" display="none"><g  id="v-3357" transform="translate(650.1622401082983, 2256.2761575653267) "><g  event="remove"><circle r="11"></circle><path transform="scale(.8) translate(-16, -16)" d="M24.778,21.419 19.276,15.917 24.777,10.415 21.949,7.585 16.447,13.087 10.945,7.585 8.117,10.415 13.618,15.917 8.116,21.419 10.946,24.248 16.447,18.746 21.948,24.248z"></path><title>Remove link.</title></g><g  event="link:options"><circle r="11" transform="translate(25)"></circle><path fill="white" transform="scale(.55) translate(29, -16)" d="M31.229,17.736c0.064-0.571,0.104-1.148,0.104-1.736s-0.04-1.166-0.104-1.737l-4.377-1.557c-0.218-0.716-0.504-1.401-0.851-2.05l1.993-4.192c-0.725-0.91-1.549-1.734-2.458-2.459l-4.193,1.994c-0.647-0.347-1.334-0.632-2.049-0.849l-1.558-4.378C17.165,0.708,16.588,0.667,16,0.667s-1.166,0.041-1.737,0.105L12.707,5.15c-0.716,0.217-1.401,0.502-2.05,0.849L6.464,4.005C5.554,4.73,4.73,5.554,4.005,6.464l1.994,4.192c-0.347,0.648-0.632,1.334-0.849,2.05l-4.378,1.557C0.708,14.834,0.667,15.412,0.667,16s0.041,1.165,0.105,1.736l4.378,1.558c0.217,0.715,0.502,1.401,0.849,2.049l-1.994,4.193c0.725,0.909,1.549,1.733,2.459,2.458l4.192-1.993c0.648,0.347,1.334,0.633,2.05,0.851l1.557,4.377c0.571,0.064,1.148,0.104,1.737,0.104c0.588,0,1.165-0.04,1.736-0.104l1.558-4.377c0.715-0.218,1.399-0.504,2.049-0.851l4.193,1.993c0.909-0.725,1.733-1.549,2.458-2.458l-1.993-4.193c0.347-0.647,0.633-1.334,0.851-2.049L31.229,17.736zM16,20.871c-2.69,0-4.872-2.182-4.872-4.871c0-2.69,2.182-4.872,4.872-4.872c2.689,0,4.871,2.182,4.871,4.872C20.871,18.689,18.689,20.871,16,20.871z"></path><title>Link options.</title></g></g></g></g><!--z-index:52--><g   id="j_263" ><path  stroke="#707070" d="M 2298 1362 L 2030 1399 C 2023.333333333333 1399.6666666666665 2017.6666666666665 1402.3333333333333 2013 1407 L 1828 1585" id="v-3389" stroke-width="2" stroke-dasharray="30 30" fill="none" style="opacity: 1;"></path><path  fill="black" stroke="black" d="M 0 0 0 0" transform="matrix(-0.9908821587538599,0.13473139004437815,-0.13473139004437815,-0.9908821587538599,2298,1362.199951171875)"></path><path  fill="#707070" stroke="#707070" d="M 20 0 L 0 10 L 20 20 z" id="v-3391" transform="matrix(0.7194430216781706,-0.694551465737841,0.694551465737841,0.7194430216781706,1821.4245082508403,1577.8055277999715)" style="opacity: 1;"></path><path  d="M 2298 1362 L 2030 1399 C 2023.333333333333 1399.6666666666665 2017.6666666666665 1402.3333333333333 2013 1407 L 1828 1585" id="v-3390" fill="none" style="cursor: auto; pointer-events: visiblepainted;"></path><g ><g id="v-3383"  label-idx="0" cursor="move" transform="matrix(1,0,0,1,2027.359130859375,1399.3785400390625)" style="cursor: default; opacity: 1;"><rect joint-selector="rect" id="v-3386" fill="#ffffff" rx="3" ry="3" pointer-events="none" width="196.713134765625" height="119.02334213256836" transform="matrix(1,0,0,1,-98.4,-59.5)"></rect><text joint-selector="text" id="v-3385" font-size="24px" xml:space="preserve" y="0.8em" fill="#707070" text-anchor="middle" pointer-events="none" font-family="Open Sans" font-weight="normal" transform="matrix(1,0,0,1,0,-52)"><tspan dy="0" >Uses to</tspan><tspan dy="1.2em" x="0" >understand limits</tspan><tspan dy="1.2em" x="0" >from the Natural</tspan><tspan dy="1.2em" x="0" >Resources Plan</tspan></text></g><g id="v-3384"  label-idx="1" cursor="move" transform="matrix(1,0,0,1,2017.359130859375,1468.978515625)" style="cursor: default; opacity: 1;"><rect joint-selector="rect" id="v-3388" fill="#ffffff" rx="3" ry="3"  width="0" height="0" transform="matrix(1,0,0,1,0,0)" display="none"></rect><text joint-selector="text" id="v-3387" fill="#000000" font-size="14" text-anchor="middle" pointer-events="none"></text></g></g><g  display="none" style="display: none;"><g  transform="translate(2020, 1400)" id="v-3423"><circle  idx="0" r="10"></circle><path  idx="0" d="M16,5.333c-7.732,0-14,4.701-14,10.5c0,1.982,0.741,3.833,2.016,5.414L2,25.667l5.613-1.441c2.339,1.317,5.237,2.107,8.387,2.107c7.732,0,14-4.701,14-10.5C30,10.034,23.732,5.333,16,5.333z" transform="translate(5, -33)"></path><path  idx="0" transform="scale(.8) translate(9.5, -37)" d="M24.778,21.419 19.276,15.917 24.777,10.415 21.949,7.585 16.447,13.087 10.945,7.585 8.117,10.415 13.618,15.917 8.116,21.419 10.946,24.248 16.447,18.746 21.948,24.248z"><title>Remove vertex.</title></path></g></g><g  id="v-3393" display="none"><g  id="v-3381"><path  end="source" d="M 26 0 L 0 13 L 26 26 z"></path></g><g  id="v-3382"><path  end="target" d="M 26 0 L 0 13 L 26 26 z"></path></g></g><g  id="v-3392" display="none"><g  id="v-3379" transform="translate(2258.3758452339744, 1367.4704989788916) "><g  event="remove"><circle r="11"></circle><path transform="scale(.8) translate(-16, -16)" d="M24.778,21.419 19.276,15.917 24.777,10.415 21.949,7.585 16.447,13.087 10.945,7.585 8.117,10.415 13.618,15.917 8.116,21.419 10.946,24.248 16.447,18.746 21.948,24.248z"></path><title>Remove link.</title></g><g  event="link:options"><circle r="11" transform="translate(25)"></circle><path fill="white" transform="scale(.55) translate(29, -16)" d="M31.229,17.736c0.064-0.571,0.104-1.148,0.104-1.736s-0.04-1.166-0.104-1.737l-4.377-1.557c-0.218-0.716-0.504-1.401-0.851-2.05l1.993-4.192c-0.725-0.91-1.549-1.734-2.458-2.459l-4.193,1.994c-0.647-0.347-1.334-0.632-2.049-0.849l-1.558-4.378C17.165,0.708,16.588,0.667,16,0.667s-1.166,0.041-1.737,0.105L12.707,5.15c-0.716,0.217-1.401,0.502-2.05,0.849L6.464,4.005C5.554,4.73,4.73,5.554,4.005,6.464l1.994,4.192c-0.347,0.648-0.632,1.334-0.849,2.05l-4.378,1.557C0.708,14.834,0.667,15.412,0.667,16s0.041,1.165,0.105,1.736l4.378,1.558c0.217,0.715,0.502,1.401,0.849,2.049l-1.994,4.193c0.725,0.909,1.549,1.733,2.459,2.458l4.192-1.993c0.648,0.347,1.334,0.633,2.05,0.851l1.557,4.377c0.571,0.064,1.148,0.104,1.737,0.104c0.588,0,1.165-0.04,1.736-0.104l1.558-4.377c0.715-0.218,1.399-0.504,2.049-0.851l4.193,1.993c0.909-0.725,1.733-1.549,2.458-2.458l-1.993-4.193c0.347-0.647,0.633-1.334,0.851-2.049L31.229,17.736zM16,20.871c-2.69,0-4.872-2.182-4.872-4.871c0-2.69,2.182-4.872,4.872-4.872c2.689,0,4.871,2.182,4.871,4.872C20.871,18.689,18.689,20.871,16,20.871z"></path><title>Link options.</title></g></g></g></g><!--z-index:53--><g   id="j_264" ><path  stroke="#707070" d="M 2298 1942 L 2157 1807 C 2152.333333333333 1802.3333333333333 2146.6666666666665 1799.6666666666665 2140 1799 L 1898 1766" id="v-3407" stroke-width="2" stroke-dasharray="30 30" fill="none" style="opacity: 1;"></path><path  fill="black" stroke="black" d="M 0 0 0 0" transform="matrix(-0.7204381615734595,-0.693519181673192,0.693519181673192,-0.7204381615734595,2298,1942.469970703125)"></path><path  fill="#707070" stroke="#707070" d="M 20 0 L 0 10 L 20 20 z" id="v-3409" transform="matrix(0.9908426054059698,0.13502196603630698,-0.13502196603630698,0.9908426054059698,1899.350240871929,1755.7516081918272)" style="opacity: 1;"></path><path  d="M 2298 1942 L 2157 1807 C 2152.333333333333 1802.3333333333333 2146.6666666666665 1799.6666666666665 2140 1799 L 1898 1766" id="v-3408" fill="none" style="cursor: auto; pointer-events: visiblepainted;"></path><g ><g id="v-3401"  label-idx="0" cursor="move" transform="matrix(1,0,0,1,2125.2080078125,1796.98291015625)" style="cursor: default; opacity: 1;"><rect joint-selector="rect" id="v-3404" fill="#ffffff" rx="3" ry="3" pointer-events="none" width="179.38198852539062" height="119.02334213256836" transform="matrix(1,0,0,1,-89.7,-59.5)"></rect><text joint-selector="text" id="v-3403" font-size="24px" xml:space="preserve" y="0.8em" fill="#707070" text-anchor="middle" pointer-events="none" font-family="Open Sans" font-weight="normal" transform="matrix(1,0,0,1,0,-52)"><tspan dy="0" >Uses to manage</tspan><tspan dy="1.2em" x="0" >hydrological</tspan><tspan dy="1.2em" x="0" >catchments and</tspan><tspan dy="1.2em" x="0" >rivers</tspan></text></g><g id="v-3402"  label-idx="1" cursor="move" transform="matrix(1,0,0,1,2115.2080078125,1866.5828857421875)" style="cursor: default; opacity: 1;"><rect joint-selector="rect" id="v-3406" fill="#ffffff" rx="3" ry="3"  width="0" height="0" transform="matrix(1,0,0,1,0,0)" display="none"></rect><text joint-selector="text" id="v-3405" fill="#000000" font-size="14" text-anchor="middle" pointer-events="none"></text></g></g><g  display="none" style="display: none;"><g  transform="translate(2150, 1800)" id="v-3424"><circle  idx="0" r="10"></circle><path  idx="0" d="M16,5.333c-7.732,0-14,4.701-14,10.5c0,1.982,0.741,3.833,2.016,5.414L2,25.667l5.613-1.441c2.339,1.317,5.237,2.107,8.387,2.107c7.732,0,14-4.701,14-10.5C30,10.034,23.732,5.333,16,5.333z" transform="translate(5, -33)"></path><path  idx="0" transform="scale(.8) translate(9.5, -37)" d="M24.778,21.419 19.276,15.917 24.777,10.415 21.949,7.585 16.447,13.087 10.945,7.585 8.117,10.415 13.618,15.917 8.116,21.419 10.946,24.248 16.447,18.746 21.948,24.248z"><title>Remove vertex.</title></path></g></g><g  id="v-3411" display="none"><g  id="v-3399"><path  end="source" d="M 26 0 L 0 13 L 26 26 z"></path></g><g  id="v-3400"><path  end="target" d="M 26 0 L 0 13 L 26 26 z"></path></g></g><g  id="v-3410" display="none"><g  id="v-3397" transform="translate(2269.107679592069, 1914.3371400349597) "><g  event="remove"><circle r="11"></circle><path transform="scale(.8) translate(-16, -16)" d="M24.778,21.419 19.276,15.917 24.777,10.415 21.949,7.585 16.447,13.087 10.945,7.585 8.117,10.415 13.618,15.917 8.116,21.419 10.946,24.248 16.447,18.746 21.948,24.248z"></path><title>Remove link.</title></g><g  event="link:options"><circle r="11" transform="translate(25)"></circle><path fill="white" transform="scale(.55) translate(29, -16)" d="M31.229,17.736c0.064-0.571,0.104-1.148,0.104-1.736s-0.04-1.166-0.104-1.737l-4.377-1.557c-0.218-0.716-0.504-1.401-0.851-2.05l1.993-4.192c-0.725-0.91-1.549-1.734-2.458-2.459l-4.193,1.994c-0.647-0.347-1.334-0.632-2.049-0.849l-1.558-4.378C17.165,0.708,16.588,0.667,16,0.667s-1.166,0.041-1.737,0.105L12.707,5.15c-0.716,0.217-1.401,0.502-2.05,0.849L6.464,4.005C5.554,4.73,4.73,5.554,4.005,6.464l1.994,4.192c-0.347,0.648-0.632,1.334-0.849,2.05l-4.378,1.557C0.708,14.834,0.667,15.412,0.667,16s0.041,1.165,0.105,1.736l4.378,1.558c0.217,0.715,0.502,1.401,0.849,2.049l-1.994,4.193c0.725,0.909,1.549,1.733,2.459,2.458l4.192-1.993c0.648,0.347,1.334,0.633,2.05,0.851l1.557,4.377c0.571,0.064,1.148,0.104,1.737,0.104c0.588,0,1.165-0.04,1.736-0.104l1.558-4.377c0.715-0.218,1.399-0.504,2.049-0.851l4.193,1.993c0.909-0.725,1.733-1.549,2.458-2.458l-1.993-4.193c0.347-0.647,0.633-1.334,0.851-2.049L31.229,17.736zM16,20.871c-2.69,0-4.872-2.182-4.872-4.871c0-2.69,2.182-4.872,4.872-4.872c2.689,0,4.871,2.182,4.871,4.872C20.871,18.689,18.689,20.871,16,20.871z"></path><title>Link options.</title></g></g></g></g><!--z-index:54--><!--z-index:55--><!--z-index:56--><!--z-index:57--><!--z-index:58--><!--z-index:59--><!--z-index:60--><!--z-index:61--><!--z-index:62--><!--z-index:63--><!--z-index:64--><!--z-index:65--><!--z-index:66--><!--z-index:67--><!--z-index:68--><!--z-index:69--><!--z-index:70--><!--z-index:71--><!--z-index:72--><!--z-index:73--><!--z-index:74--><!--z-index:75--><!--z-index:76--><!--z-index:77--><!--z-index:78--></g><g ></g><g ></g><g ></g></g></svg>