<svg xmlns="http://www.w3.org/2000/svg" xmlns:xlink="http://www.w3.org/1999/xlink" version="1.1" viewBox="0 0 3970 2548" style="background: #ffffff"><defs><style>@import url(https://fonts.googleapis.com/css?family=Open+Sans:400,700);</style></defs><defs joint-selector="defs"></defs><g joint-selector="layers"  transform="matrix(1,0,0,1,0,0)"><g ></g><g ><!--z-index:1--><!--z-index:2--><!--z-index:3--><!--z-index:4--><!--z-index:5--><!--z-index:6--><!--z-index:7--><!--z-index:8--><!--z-index:9--><!--z-index:10--><!--z-index:11--><!--z-index:12--><!--z-index:13--><!--z-index:14--><!--z-index:15--><!--z-index:16--><!--z-index:17--><!--z-index:18--><!--z-index:19--><!--z-index:20--><!--z-index:21--><!--z-index:22--><!--z-index:23--><!--z-index:24--><!--z-index:25--><!--z-index:26--><!--z-index:27--><!--z-index:28--><!--z-index:29--><!--z-index:30--><!--z-index:31--><g   id="j_147"  transform="translate(20,2511.6)"><g id="v-1881"><text  id="v-1882" font-size="22px" xml:space="preserve" y="0.8em" font-weight="normal" text-anchor="start" fill="#aaaaaa" pointer-events="none" display="block" font-family="Open Sans"><tspan dy="0"  display="block">Monday, 17 March 2025 at 9:21 pm New Zealand Daylight Time</tspan></text></g></g><!--z-index:32--><g   id="j_146"  transform="translate(20,2468.4)"><g id="v-1879"><text  id="v-1880" font-size="36px" xml:space="preserve" y="0.8em" font-weight="normal" text-anchor="start" fill="#000000" pointer-events="none" display="block" font-family="Open Sans"><tspan dy="0"  display="block">[System Context] CCCV Application</tspan></text></g></g><!--z-index:33--><g   id="j_148"  transform="translate(1224,438)" style=""><g  id="v-1889" style="opacity: 1;"><rect  x="0" y="160" width="400" height="240" rx="70" id="v-1891" stroke="#073b6f" stroke-width="2" pointer-events="visiblePainted" fill="#08427b" style="fill: rgb(8, 66, 123); stroke: rgb(7, 59, 111);"></rect><circle  cx="200" cy="88.88888888888889" r="88.88888888888889" id="v-1890" stroke="#073b6f" stroke-width="2" pointer-events="visiblePainted" fill="#08427b" style="fill: rgb(8, 66, 123); stroke: rgb(7, 59, 111);"></circle><line  x1="80" y1="266.6666666666667" x2="80" y2="400" id="v-1897" stroke="#073b6f" stroke-width="2" style="stroke: rgb(7, 59, 111);"></line><line  x1="320" y1="266.6666666666667" x2="320" y2="400" id="v-1898" stroke="#073b6f" stroke-width="2" style="stroke: rgb(7, 59, 111);"></line><text  id="v-1892" font-size="34" xml:space="preserve" y="0.8em" font-weight="bold" text-anchor="middle" pointer-events="visible" font-family="Open Sans" fill="#ffffff" transform="matrix(1,0,0,1,200,218.1)" style="fill: rgb(255, 255, 255);"><tspan dy="0" >Farm Plan Creator</tspan></text><text  id="v-1893" font-size="17" xml:space="preserve" y="0.8em" text-anchor="middle" font-family="Open Sans" fill="#ffffff" transform="matrix(1,0,0,1,200,258.9)" style="fill: rgb(255, 255, 255);"><tspan dy="0" >[Person]</tspan></text><text  id="v-1894" font-size="24" xml:space="preserve" y="0.8em" text-anchor="middle" font-family="Open Sans" fill="#ffffff" transform="matrix(1,0,0,1,200,289.3)" style="fill: rgb(255, 255, 255);"><tspan dy="0" >A person wanting to create a</tspan><tspan dy="1.2em" x="0" >Farm Plan.</tspan></text><g  id="v-1895" font-weight="normal" text-anchor="middle" color="#ffffff" transform="matrix(1,0,0,1,197.5,368)" display="none" style="fill: rgb(255, 255, 255);"><g ></g><g ></g><g ></g><g ></g></g><image  id="v-1896"></image></g></g><!--z-index:34--><g   id="j_149"  transform="translate(199,763)" style=""><g  id="v-1905" style="opacity: 1;"><rect  x="0" y="160" width="400" height="240" rx="70" id="v-1907" stroke="#073b6f" stroke-width="2" pointer-events="visiblePainted" fill="#08427b" style="fill: rgb(8, 66, 123); stroke: rgb(7, 59, 111);"></rect><circle  cx="200" cy="88.88888888888889" r="88.88888888888889" id="v-1906" stroke="#073b6f" stroke-width="2" pointer-events="visiblePainted" fill="#08427b" style="fill: rgb(8, 66, 123); stroke: rgb(7, 59, 111);"></circle><line  x1="80" y1="266.6666666666667" x2="80" y2="400" id="v-1913" stroke="#073b6f" stroke-width="2" style="stroke: rgb(7, 59, 111);"></line><line  x1="320" y1="266.6666666666667" x2="320" y2="400" id="v-1914" stroke="#073b6f" stroke-width="2" style="stroke: rgb(7, 59, 111);"></line><text  id="v-1908" font-size="34" xml:space="preserve" y="0.8em" font-weight="bold" text-anchor="middle" pointer-events="visible" font-family="Open Sans" fill="#ffffff" transform="matrix(1,0,0,1,200,197.7)" style="fill: rgb(255, 255, 255);"><tspan dy="0" >Freshwater</tspan><tspan dy="1.2em" x="0" >Management Staff</tspan></text><text  id="v-1909" font-size="17" xml:space="preserve" y="0.8em" text-anchor="middle" font-family="Open Sans" fill="#ffffff" transform="matrix(1,0,0,1,200,279.3)" style="fill: rgb(255, 255, 255);"><tspan dy="0" >[Person]</tspan></text><text  id="v-1910" font-size="24" xml:space="preserve" y="0.8em" text-anchor="middle" font-family="Open Sans" fill="#ffffff" transform="matrix(1,0,0,1,200,309.7)" style="fill: rgb(255, 255, 255);"><tspan dy="0" >A person managing FMU</tspan><tspan dy="1.2em" x="0" >information.</tspan></text><g  id="v-1911" font-weight="normal" text-anchor="middle" color="#ffffff" transform="matrix(1,0,0,1,197.5,368)" display="none" style="fill: rgb(255, 255, 255);"><g ></g><g ></g><g ></g><g ></g></g><image  id="v-1912"></image></g></g><!--z-index:35--><g   id="j_151"  transform="translate(2229,1218)" style=""><g id="v-1928"><rect  id="v-1929" width="490" height="394" rx="0" ry="0" fill="#ffffff" stroke="#444444" stroke-width="1" stroke-dasharray="5,5" pointer-events="none"></rect><text  id="v-1930" font-size="24px" xml:space="preserve" y="379" font-weight="normal" fill="#444444" text-anchor="start" pointer-events="visible" font-family="Open Sans" transform="matrix(1,0,0,1,15,0)"><tspan dy="0" >CCCV</tspan></text><text  id="v-1931" font-size="17px" xml:space="preserve" display="none" y="379" font-weight="normal" fill="#444444" text-anchor="start" pointer-events="visible" font-family="Open Sans" transform="matrix(1,0,0,1,15,0)"><tspan dy="0" style="fill-opacity: 0; stroke-opacity: 0;" >-</tspan></text><image  id="v-1932" pointer-events="visible"></image></g></g><!--z-index:36--><g   id="j_150"  transform="translate(2249,1238)" style=""><g  id="v-1921" style="opacity: 1;"><rect  id="v-1922" rx="1" ry="1" stroke="#0f5eaa" stroke-width="2" pointer-events="visiblePainted" fill="#1168bd" width="450" height="300" style="fill: rgb(17, 104, 189); stroke: rgb(15, 94, 170);"></rect><text  id="v-1923" font-size="34" xml:space="preserve" y="0.8em" font-weight="bold" text-anchor="middle" pointer-events="visible" font-family="Open Sans" fill="#ffffff" transform="matrix(1,0,0,1,225,88.1)" style="fill: rgb(255, 255, 255);"><tspan dy="0" >CCCV Application</tspan></text><text  id="v-1924" font-size="17" xml:space="preserve" y="0.8em" text-anchor="middle" font-family="Open Sans" fill="#ffffff" transform="matrix(1,0,0,1,225,128.9)" style="fill: rgb(255, 255, 255);"><tspan dy="0" >[Software System]</tspan></text><text  id="v-1925" font-size="24" xml:space="preserve" y="0.8em" text-anchor="middle" font-family="Open Sans" fill="#ffffff" transform="matrix(1,0,0,1,225,159.3)" style="fill: rgb(255, 255, 255);"><tspan dy="0" >The system for providing FMU</tspan><tspan dy="1.2em" x="0" >information.</tspan></text><g  id="v-1926" color="#ffffff" transform="matrix(1,0,0,1,210,268)" display="none" style="fill: rgb(255, 255, 255);"><g  transform="translate(5 0)"><svg xmlns="http://www.w3.org/2000/svg" width="20" height="20" fill="currentColor" viewBox="0 0 16 16"><path fill-rule="evenodd" d="M6.5 12a5.5 5.5 0 1 0 0-11 5.5 5.5 0 0 0 0 11zM13 6.5a6.5 6.5 0 1 1-13 0 6.5 6.5 0 0 1 13 0z"></path><path d="M10.344 11.742c.03.04.062.078.098.115l3.85 3.85a1 1 0 0 0 1.415-1.414l-3.85-3.85a1.007 1.007 0 0 0-.115-.1 6.538 6.538 0 0 1-1.398 1.4z"></path><path fill-rule="evenodd" d="M6.5 3a.5.5 0 0 1 .5.5V6h2.5a.5.5 0 0 1 0 1H7v2.5a.5.5 0 0 1-1 0V7H3.5a.5.5 0 0 1 0-1H6V3.5a.5.5 0 0 1 .5-.5z"></path></svg></g><g ></g><g ></g><g ></g></g><image  id="v-1927"></image></g></g><!--z-index:37--><g   id="j_153"  transform="translate(2229,1918)" style=""><g id="v-1940"><rect  id="v-1941" width="490" height="394" rx="0" ry="0" fill="#ffffff" stroke="#444444" stroke-width="1" stroke-dasharray="5,5" pointer-events="none"></rect><text  id="v-1942" font-size="24px" xml:space="preserve" y="379" font-weight="normal" fill="#444444" text-anchor="start" pointer-events="visible" font-family="Open Sans" transform="matrix(1,0,0,1,15,0)"><tspan dy="0" >EOP/He Kākāno</tspan></text><text  id="v-1943" font-size="17px" xml:space="preserve" display="none" y="379" font-weight="normal" fill="#444444" text-anchor="start" pointer-events="visible" font-family="Open Sans" transform="matrix(1,0,0,1,15,0)"><tspan dy="0" style="fill-opacity: 0; stroke-opacity: 0;" >-</tspan></text><image  id="v-1944" pointer-events="visible"></image></g></g><!--z-index:38--><g   id="j_152"  transform="translate(2249,1938)" style=""><g  id="v-1933" style="opacity: 1;"><rect  id="v-1934" rx="20" ry="20" stroke="#8a8a8a" stroke-width="2" pointer-events="visiblePainted" fill="#999999" width="450" height="300" style="fill: rgb(153, 153, 153); stroke: rgb(138, 138, 138);"></rect><text  id="v-1935" font-size="34" xml:space="preserve" y="0.8em" font-weight="bold" text-anchor="middle" pointer-events="visible" font-family="Open Sans" fill="#ffffff" transform="matrix(1,0,0,1,225,102.5)" style="fill: rgb(255, 255, 255);"><tspan dy="0" >EOP Hub</tspan></text><text  id="v-1936" font-size="17" xml:space="preserve" y="0.8em" text-anchor="middle" font-family="Open Sans" fill="#ffffff" transform="matrix(1,0,0,1,225,143.3)" style="fill: rgb(255, 255, 255);"><tspan dy="0" >[Software System]</tspan></text><text  id="v-1937" font-size="24" xml:space="preserve" y="0.8em" text-anchor="middle" font-family="Open Sans" fill="#ffffff" transform="matrix(1,0,0,1,225,173.7)" style="fill: rgb(255, 255, 255);"><tspan dy="0" >The EOP Hub system</tspan></text><g  id="v-1938" color="#ffffff" transform="matrix(1,0,0,1,222.5,268)" display="none" style="fill: rgb(255, 255, 255);"><g ></g><g ></g><g ></g><g ></g></g><image  id="v-1939"></image></g></g><!--z-index:39--><g   id="j_155"  transform="translate(1179,1218)" style=""><g id="v-1955"><rect  id="v-1956" width="490" height="1094" rx="0" ry="0" fill="#ffffff" stroke="#444444" stroke-width="1" stroke-dasharray="5,5" pointer-events="none"></rect><text  id="v-1957" font-size="24px" xml:space="preserve" y="1079" font-weight="normal" fill="#444444" text-anchor="start" pointer-events="visible" font-family="Open Sans" transform="matrix(1,0,0,1,15,0)"><tspan dy="0" >GWRC</tspan></text><text  id="v-1958" font-size="17px" xml:space="preserve" display="none" y="1079" font-weight="normal" fill="#444444" text-anchor="start" pointer-events="visible" font-family="Open Sans" transform="matrix(1,0,0,1,15,0)"><tspan dy="0" style="fill-opacity: 0; stroke-opacity: 0;" >-</tspan></text><image  id="v-1959" pointer-events="visible"></image></g></g><!--z-index:40--><g   id="j_154"  transform="translate(1199,1938)" style=""><g  id="v-1948" style="opacity: 1;"><rect  id="v-1949" rx="20" ry="20" stroke="#8a8a8a" stroke-width="2" pointer-events="visiblePainted" fill="#999999" width="450" height="300" style="fill: rgb(153, 153, 153); stroke: rgb(138, 138, 138);"></rect><text  id="v-1950" font-size="34" xml:space="preserve" y="0.8em" font-weight="bold" text-anchor="middle" pointer-events="visible" font-family="Open Sans" fill="#ffffff" transform="matrix(1,0,0,1,225,102.5)" style="fill: rgb(255, 255, 255);"><tspan dy="0" >GWRC [ARC]GIS System</tspan></text><text  id="v-1951" font-size="17" xml:space="preserve" y="0.8em" text-anchor="middle" font-family="Open Sans" fill="#ffffff" transform="matrix(1,0,0,1,225,143.3)" style="fill: rgb(255, 255, 255);"><tspan dy="0" >[Software System]</tspan></text><text  id="v-1952" font-size="24" xml:space="preserve" y="0.8em" text-anchor="middle" font-family="Open Sans" fill="#ffffff" transform="matrix(1,0,0,1,225,173.7)" style="fill: rgb(255, 255, 255);"><tspan dy="0" >The GWRC GIS system(s)</tspan></text><g  id="v-1953" color="#ffffff" transform="matrix(1,0,0,1,222.5,268)" display="none" style="fill: rgb(255, 255, 255);"><g ></g><g ></g><g ></g><g ></g></g><image  id="v-1954"></image></g></g><!--z-index:41--><g   id="j_156"  transform="translate(1199,1238)" style=""><g  id="v-1963" style="opacity: 1;"><rect  id="v-1964" rx="10" ry="10" stroke="#e6d292" stroke-width="2" pointer-events="visiblePainted" fill="#ffe9a2" x="10" y="0" width="150" height="75" style="fill: rgb(255, 233, 162); stroke: rgb(230, 210, 146);"></rect><rect  id="v-1965" rx="5" ry="5" stroke="#e6d292" stroke-width="2" pointer-events="visiblePainted" fill="#ffe9a2" x="0" y="37.5" width="450" height="262.5" style="fill: rgb(255, 233, 162); stroke: rgb(230, 210, 146);"></rect><text  id="v-1966" font-size="34" xml:space="preserve" y="0.8em" font-weight="bold" text-anchor="middle" pointer-events="visible" font-family="Open Sans" fill="#ffffff" transform="matrix(1,0,0,1,225,121.3)" style="fill: rgb(255, 255, 255);"><tspan dy="0" >GWRC NRPlan</tspan></text><text  id="v-1967" font-size="17" xml:space="preserve" y="0.8em" text-anchor="middle" font-family="Open Sans" fill="#ffffff" transform="matrix(1,0,0,1,225,162.1)" style="fill: rgb(255, 255, 255);"><tspan dy="0" >[Documents]</tspan></text><text  id="v-1968" font-size="24" xml:space="preserve" y="0.8em" text-anchor="middle" font-family="Open Sans" fill="#ffffff" transform="matrix(1,0,0,1,225,192.5)" style="fill: rgb(255, 255, 255);"><tspan dy="0" >The Natural Resources Plan</tspan></text><g  id="v-1969" font-weight="normal" text-anchor="middle" color="#ffffff" transform="matrix(1,0,0,1,222.5,268)" display="none" style="fill: rgb(255, 255, 255);"><g ></g><g ></g><g ></g><g ></g></g><image  id="v-1970"></image></g></g><!--z-index:42--><g   id="j_158"  transform="translate(3279,518)" style=""><g id="v-1982"><rect  id="v-1983" width="490" height="1794" rx="0" ry="0" fill="#ffffff" stroke="#444444" stroke-width="1" stroke-dasharray="5,5" pointer-events="none"></rect><text  id="v-1984" font-size="24px" xml:space="preserve" y="1779" font-weight="normal" fill="#444444" text-anchor="start" pointer-events="visible" font-family="Open Sans" transform="matrix(1,0,0,1,15,0)"><tspan dy="0" >External parties and sources</tspan></text><text  id="v-1985" font-size="17px" xml:space="preserve" display="none" y="1779" font-weight="normal" fill="#444444" text-anchor="start" pointer-events="visible" font-family="Open Sans" transform="matrix(1,0,0,1,15,0)"><tspan dy="0" style="fill-opacity: 0; stroke-opacity: 0;" >-</tspan></text><image  id="v-1986" pointer-events="visible"></image></g></g><!--z-index:43--><g   id="j_157"  transform="translate(3299,538)" style=""><g  id="v-1974" style="opacity: 1;"><rect  id="v-1975" rx="10" ry="10" stroke="#e6d292" stroke-width="2" pointer-events="visiblePainted" fill="#ffe9a2" x="10" y="0" width="150" height="75" style="fill: rgb(255, 233, 162); stroke: rgb(230, 210, 146);"></rect><rect  id="v-1976" rx="5" ry="5" stroke="#e6d292" stroke-width="2" pointer-events="visiblePainted" fill="#ffe9a2" x="0" y="37.5" width="450" height="262.5" style="fill: rgb(255, 233, 162); stroke: rgb(230, 210, 146);"></rect><text  id="v-1977" font-size="34" xml:space="preserve" y="0.8em" font-weight="bold" text-anchor="middle" pointer-events="visible" font-family="Open Sans" fill="#ffffff" transform="matrix(1,0,0,1,225,106.9)" style="fill: rgb(255, 255, 255);"><tspan dy="0" >NIWA REC</tspan></text><text  id="v-1978" font-size="17" xml:space="preserve" y="0.8em" text-anchor="middle" font-family="Open Sans" fill="#ffffff" transform="matrix(1,0,0,1,225,147.7)" style="fill: rgb(255, 255, 255);"><tspan dy="0" >[Documents]</tspan></text><text  id="v-1979" font-size="24" xml:space="preserve" y="0.8em" text-anchor="middle" font-family="Open Sans" fill="#ffffff" transform="matrix(1,0,0,1,225,178.1)" style="fill: rgb(255, 255, 255);"><tspan dy="0" >River Environment Classification</tspan><tspan dy="1.2em" x="0" >(REC2) Model</tspan></text><g  id="v-1980" font-weight="normal" text-anchor="middle" color="#ffffff" transform="matrix(1,0,0,1,222.5,268)" display="none" style="fill: rgb(255, 255, 255);"><g ></g><g ></g><g ></g><g ></g></g><image  id="v-1981"></image></g></g><!--z-index:44--><g   id="j_159"  transform="translate(3299,1238)" style=""><g  id="v-1990" style="opacity: 1;"><rect  id="v-1991" rx="20" ry="20" stroke="#8a8a8a" stroke-width="2" pointer-events="visiblePainted" fill="#999999" width="450" height="300" style="fill: rgb(153, 153, 153); stroke: rgb(138, 138, 138);"></rect><text  id="v-1992" font-size="34" xml:space="preserve" y="0.8em" font-weight="bold" text-anchor="middle" pointer-events="visible" font-family="Open Sans" fill="#ffffff" transform="matrix(1,0,0,1,225,102.5)" style="fill: rgb(255, 255, 255);"><tspan dy="0" >LINZ Basemaps System</tspan></text><text  id="v-1993" font-size="17" xml:space="preserve" y="0.8em" text-anchor="middle" font-family="Open Sans" fill="#ffffff" transform="matrix(1,0,0,1,225,143.3)" style="fill: rgb(255, 255, 255);"><tspan dy="0" >[Software System]</tspan></text><text  id="v-1994" font-size="24" xml:space="preserve" y="0.8em" text-anchor="middle" font-family="Open Sans" fill="#ffffff" transform="matrix(1,0,0,1,225,173.7)" style="fill: rgb(255, 255, 255);"><tspan dy="0" >The LINZ Basemaps</tspan></text><g  id="v-1995" color="#ffffff" transform="matrix(1,0,0,1,222.5,268)" display="none" style="fill: rgb(255, 255, 255);"><g ></g><g ></g><g ></g><g ></g></g><image  id="v-1996"></image></g></g><!--z-index:45--><g   id="j_160"  transform="translate(3299,1938)" style=""><g  id="v-1997" style="opacity: 1;"><rect  id="v-1998" rx="20" ry="20" stroke="#8a8a8a" stroke-width="2" pointer-events="visiblePainted" fill="#999999" width="450" height="300" style="fill: rgb(153, 153, 153); stroke: rgb(138, 138, 138);"></rect><text  id="v-1999" font-size="34" xml:space="preserve" y="0.8em" font-weight="bold" text-anchor="middle" pointer-events="visible" font-family="Open Sans" fill="#ffffff" transform="matrix(1,0,0,1,225,102.5)" style="fill: rgb(255, 255, 255);"><tspan dy="0" >Mapbox GL</tspan></text><text  id="v-2000" font-size="17" xml:space="preserve" y="0.8em" text-anchor="middle" font-family="Open Sans" fill="#ffffff" transform="matrix(1,0,0,1,225,143.3)" style="fill: rgb(255, 255, 255);"><tspan dy="0" >[Software System]</tspan></text><text  id="v-2001" font-size="24" xml:space="preserve" y="0.8em" text-anchor="middle" font-family="Open Sans" fill="#ffffff" transform="matrix(1,0,0,1,225,173.7)" style="fill: rgb(255, 255, 255);"><tspan dy="0" >The Mapbox GL system</tspan></text><g  id="v-2002" color="#ffffff" transform="matrix(1,0,0,1,222.5,268)" display="none" style="fill: rgb(255, 255, 255);"><g ></g><g ></g><g ></g><g ></g></g><image  id="v-2003"></image></g></g><!--z-index:46--><g   id="j_161" ><path  stroke="#707070" d="M 2249 2024 L 1959 1941 C 1952.3333333333333 1939 1945.6666666666665 1939 1939 1941 L 1649 2024" id="v-2017" stroke-width="2" stroke-dasharray="30 30" fill="none" style="opacity: 1;"></path><path  fill="black" stroke="black" d="M 0 0 0 0" transform="matrix(-0.9615275666042731,-0.274708461209452,0.274708461209452,-0.9615275666042731,2249,2023.7099609375)"></path><path  fill="#707070" stroke="#707070" d="M 20 0 L 0 10 L 20 20 z" id="v-2019" transform="matrix(0.961527566604273,-0.2747084612094524,0.2747084612094524,0.961527566604273,1646.2528740968626,2014.0946995710517)" style="opacity: 1;"></path><path  d="M 2249 2024 L 1959 1941 C 1952.3333333333333 1939 1945.6666666666665 1939 1939 1941 L 1649 2024" id="v-2018" fill="none" style="cursor: auto; pointer-events: visiblepainted;"></path><g ><g id="v-2011"  label-idx="0" cursor="move" transform="matrix(1,0,0,1,1949,1939.5)" style="cursor: default; opacity: 1;"><rect joint-selector="rect" id="v-2014" fill="#ffffff" rx="3" ry="3" pointer-events="none" width="187.99752807617188" height="60.57423400878906" transform="matrix(1,0,0,1,-94,-30.3)"></rect><text joint-selector="text" id="v-2013" font-size="24px" xml:space="preserve" y="0.8em" fill="#707070" text-anchor="middle" pointer-events="none" font-family="Open Sans" font-weight="normal" transform="matrix(1,0,0,1,0,-24.1)"><tspan dy="0" >Gets FMU</tspan><tspan dy="1.2em" x="0" >boundaries from</tspan></text></g><g id="v-2012"  label-idx="1" cursor="move" transform="matrix(1,0,0,1,1939,1980.300048828125)" style="cursor: default; opacity: 1;"><rect joint-selector="rect" id="v-2016" fill="#ffffff" rx="3" ry="3"  width="0" height="0" transform="matrix(1,0,0,1,0,0)" display="none"></rect><text joint-selector="text" id="v-2015" fill="#000000" font-size="14" text-anchor="middle" pointer-events="none"></text></g></g><g  display="none" style="display: none;"><g  transform="translate(1949, 1938)" id="v-2223"><circle  idx="0" r="10"></circle><path  idx="0" d="M16,5.333c-7.732,0-14,4.701-14,10.5c0,1.982,0.741,3.833,2.016,5.414L2,25.667l5.613-1.441c2.339,1.317,5.237,2.107,8.387,2.107c7.732,0,14-4.701,14-10.5C30,10.034,23.732,5.333,16,5.333z" transform="translate(5, -33)"></path><path  idx="0" transform="scale(.8) translate(9.5, -37)" d="M24.778,21.419 19.276,15.917 24.777,10.415 21.949,7.585 16.447,13.087 10.945,7.585 8.117,10.415 13.618,15.917 8.116,21.419 10.946,24.248 16.447,18.746 21.948,24.248z"><title>Remove vertex.</title></path></g></g><g  id="v-2021" display="none"><g  id="v-2009"><path  end="source" d="M 26 0 L 0 13 L 26 26 z"></path></g><g  id="v-2010"><path  end="target" d="M 26 0 L 0 13 L 26 26 z"></path></g></g><g  id="v-2020" display="none"><g  id="v-2007" transform="translate(2210.5440501094054, 2012.9936419278642) "><g  event="remove"><circle r="11"></circle><path transform="scale(.8) translate(-16, -16)" d="M24.778,21.419 19.276,15.917 24.777,10.415 21.949,7.585 16.447,13.087 10.945,7.585 8.117,10.415 13.618,15.917 8.116,21.419 10.946,24.248 16.447,18.746 21.948,24.248z"></path><title>Remove link.</title></g><g  event="link:options"><circle r="11" transform="translate(25)"></circle><path fill="white" transform="scale(.55) translate(29, -16)" d="M31.229,17.736c0.064-0.571,0.104-1.148,0.104-1.736s-0.04-1.166-0.104-1.737l-4.377-1.557c-0.218-0.716-0.504-1.401-0.851-2.05l1.993-4.192c-0.725-0.91-1.549-1.734-2.458-2.459l-4.193,1.994c-0.647-0.347-1.334-0.632-2.049-0.849l-1.558-4.378C17.165,0.708,16.588,0.667,16,0.667s-1.166,0.041-1.737,0.105L12.707,5.15c-0.716,0.217-1.401,0.502-2.05,0.849L6.464,4.005C5.554,4.73,4.73,5.554,4.005,6.464l1.994,4.192c-0.347,0.648-0.632,1.334-0.849,2.05l-4.378,1.557C0.708,14.834,0.667,15.412,0.667,16s0.041,1.165,0.105,1.736l4.378,1.558c0.217,0.715,0.502,1.401,0.849,2.049l-1.994,4.193c0.725,0.909,1.549,1.733,2.459,2.458l4.192-1.993c0.648,0.347,1.334,0.633,2.05,0.851l1.557,4.377c0.571,0.064,1.148,0.104,1.737,0.104c0.588,0,1.165-0.04,1.736-0.104l1.558-4.377c0.715-0.218,1.399-0.504,2.049-0.851l4.193,1.993c0.909-0.725,1.733-1.549,2.458-2.458l-1.993-4.193c0.347-0.647,0.633-1.334,0.851-2.049L31.229,17.736zM16,20.871c-2.69,0-4.872-2.182-4.872-4.871c0-2.69,2.182-4.872,4.872-4.872c2.689,0,4.871,2.182,4.871,4.872C20.871,18.689,18.689,20.871,16,20.871z"></path><title>Link options.</title></g></g></g></g><!--z-index:47--><g   id="j_162" ><path  stroke="#707070" d="M 1649 1938 L 2249 1538" id="v-2034" stroke-width="2" stroke-dasharray="30 30" fill="none" style="opacity: 1;"></path><path  fill="black" stroke="black" d="M 0 0 0 0" transform="matrix(0.8320503335416466,-0.55470013741952,0.55470013741952,0.8320503335416466,1649,1938)"></path><path  fill="#707070" stroke="#707070" d="M 20 0 L 0 10 L 20 20 z" id="v-2036" transform="matrix(-0.8320503335416465,0.5547001374195202,-0.5547001374195202,-0.8320503335416465,2254.5469480689867,1546.3204990315337)" style="opacity: 1;"></path><path  d="M 1649 1938 L 2249 1538" id="v-2035" fill="none" style="cursor: auto; pointer-events: visiblepainted;"></path><g ><g id="v-2028"  label-idx="0" cursor="move" transform="matrix(1,0,0,1,1949,1738)" style="cursor: default; opacity: 1;"><rect joint-selector="rect" id="v-2031" fill="#ffffff" rx="3" ry="3" pointer-events="none" width="187.99752807617188" height="60.57423400878906" transform="matrix(1,0,0,1,-94,-30.3)"></rect><text joint-selector="text" id="v-2030" font-size="24px" xml:space="preserve" y="0.8em" fill="#707070" text-anchor="middle" pointer-events="none" font-family="Open Sans" font-weight="normal" transform="matrix(1,0,0,1,0,-24.1)"><tspan dy="0" >Pulls Geospatial</tspan><tspan dy="1.2em" x="0" >boundaries from</tspan></text></g><g id="v-2029"  label-idx="1" cursor="move" transform="matrix(1,0,0,1,1939,1778.800048828125)" style="cursor: default; opacity: 1;"><rect joint-selector="rect" id="v-2033" fill="#ffffff" rx="3" ry="3"  width="0" height="0" transform="matrix(1,0,0,1,0,0)" display="none"></rect><text joint-selector="text" id="v-2032" fill="#000000" font-size="14" text-anchor="middle" pointer-events="none"></text></g></g><g  display="none" style="display: none;"></g><g  id="v-2038" display="none"><g  id="v-2026"><path  end="source" d="M 26 0 L 0 13 L 26 26 z"></path></g><g  id="v-2027"><path  end="target" d="M 26 0 L 0 13 L 26 26 z"></path></g></g><g  id="v-2037" display="none"><g  id="v-2025" transform="translate(1682.2820117735137, 1915.8119921509908) "><g  event="remove"><circle r="11"></circle><path transform="scale(.8) translate(-16, -16)" d="M24.778,21.419 19.276,15.917 24.777,10.415 21.949,7.585 16.447,13.087 10.945,7.585 8.117,10.415 13.618,15.917 8.116,21.419 10.946,24.248 16.447,18.746 21.948,24.248z"></path><title>Remove link.</title></g><g  event="link:options"><circle r="11" transform="translate(25)"></circle><path fill="white" transform="scale(.55) translate(29, -16)" d="M31.229,17.736c0.064-0.571,0.104-1.148,0.104-1.736s-0.04-1.166-0.104-1.737l-4.377-1.557c-0.218-0.716-0.504-1.401-0.851-2.05l1.993-4.192c-0.725-0.91-1.549-1.734-2.458-2.459l-4.193,1.994c-0.647-0.347-1.334-0.632-2.049-0.849l-1.558-4.378C17.165,0.708,16.588,0.667,16,0.667s-1.166,0.041-1.737,0.105L12.707,5.15c-0.716,0.217-1.401,0.502-2.05,0.849L6.464,4.005C5.554,4.73,4.73,5.554,4.005,6.464l1.994,4.192c-0.347,0.648-0.632,1.334-0.849,2.05l-4.378,1.557C0.708,14.834,0.667,15.412,0.667,16s0.041,1.165,0.105,1.736l4.378,1.558c0.217,0.715,0.502,1.401,0.849,2.049l-1.994,4.193c0.725,0.909,1.549,1.733,2.459,2.458l4.192-1.993c0.648,0.347,1.334,0.633,2.05,0.851l1.557,4.377c0.571,0.064,1.148,0.104,1.737,0.104c0.588,0,1.165-0.04,1.736-0.104l1.558-4.377c0.715-0.218,1.399-0.504,2.049-0.851l4.193,1.993c0.909-0.725,1.733-1.549,2.458-2.458l-1.993-4.193c0.347-0.647,0.633-1.334,0.851-2.049L31.229,17.736zM16,20.871c-2.69,0-4.872-2.182-4.872-4.871c0-2.69,2.182-4.872,4.872-4.872c2.689,0,4.871,2.182,4.871,4.872C20.871,18.689,18.689,20.871,16,20.871z"></path><title>Link options.</title></g></g></g></g><!--z-index:48--><g   id="j_163" ><path  stroke="#707070" d="M 1649 1388 L 2249 1388" id="v-2051" stroke-width="2" stroke-dasharray="30 30" fill="none" style="opacity: 1;"></path><path  fill="black" stroke="black" d="M 0 0 0 0" transform="matrix(0.9999999999999999,0,0,0.9999999999999999,1649,1388)"></path><path  fill="#707070" stroke="#707070" d="M 20 0 L 0 10 L 20 20 z" id="v-2053" transform="matrix(-0.9999999999999999,1.224646799147353e-16,-1.224646799147353e-16,-0.9999999999999999,2249,1398)" style="opacity: 1;"></path><path  d="M 1649 1388 L 2249 1388" id="v-2052" fill="none" style="cursor: auto; pointer-events: visiblepainted;"></path><g ><g id="v-2045"  label-idx="0" cursor="move" transform="matrix(1,0,0,1,1949,1388)" style="cursor: default; opacity: 1;"><rect joint-selector="rect" id="v-2048" fill="#ffffff" rx="3" ry="3" pointer-events="none" width="187.99752807617188" height="89.37423706054688" transform="matrix(1,0,0,1,-94,-44.7)"></rect><text joint-selector="text" id="v-2047" font-size="24px" xml:space="preserve" y="0.8em" fill="#707070" text-anchor="middle" pointer-events="none" font-family="Open Sans" font-weight="normal" transform="matrix(1,0,0,1,0,-38.5)"><tspan dy="0" >Gets digitized</tspan><tspan dy="1.2em" x="0" >catchment</tspan><tspan dy="1.2em" x="0" >boundaries from</tspan></text></g><g id="v-2046"  label-idx="1" cursor="move" transform="matrix(1,0,0,1,1939,1443.199951171875)" style="cursor: default; opacity: 1;"><rect joint-selector="rect" id="v-2050" fill="#ffffff" rx="3" ry="3"  width="0" height="0" transform="matrix(1,0,0,1,0,0)" display="none"></rect><text joint-selector="text" id="v-2049" fill="#000000" font-size="14" text-anchor="middle" pointer-events="none"></text></g></g><g  display="none" style="display: none;"></g><g  id="v-2055" display="none"><g  id="v-2043"><path  end="source" d="M 26 0 L 0 13 L 26 26 z"></path></g><g  id="v-2044"><path  end="target" d="M 26 0 L 0 13 L 26 26 z"></path></g></g><g  id="v-2054" display="none"><g  id="v-2042" transform="translate(1689, 1388) "><g  event="remove"><circle r="11"></circle><path transform="scale(.8) translate(-16, -16)" d="M24.778,21.419 19.276,15.917 24.777,10.415 21.949,7.585 16.447,13.087 10.945,7.585 8.117,10.415 13.618,15.917 8.116,21.419 10.946,24.248 16.447,18.746 21.948,24.248z"></path><title>Remove link.</title></g><g  event="link:options"><circle r="11" transform="translate(25)"></circle><path fill="white" transform="scale(.55) translate(29, -16)" d="M31.229,17.736c0.064-0.571,0.104-1.148,0.104-1.736s-0.04-1.166-0.104-1.737l-4.377-1.557c-0.218-0.716-0.504-1.401-0.851-2.05l1.993-4.192c-0.725-0.91-1.549-1.734-2.458-2.459l-4.193,1.994c-0.647-0.347-1.334-0.632-2.049-0.849l-1.558-4.378C17.165,0.708,16.588,0.667,16,0.667s-1.166,0.041-1.737,0.105L12.707,5.15c-0.716,0.217-1.401,0.502-2.05,0.849L6.464,4.005C5.554,4.73,4.73,5.554,4.005,6.464l1.994,4.192c-0.347,0.648-0.632,1.334-0.849,2.05l-4.378,1.557C0.708,14.834,0.667,15.412,0.667,16s0.041,1.165,0.105,1.736l4.378,1.558c0.217,0.715,0.502,1.401,0.849,2.049l-1.994,4.193c0.725,0.909,1.549,1.733,2.459,2.458l4.192-1.993c0.648,0.347,1.334,0.633,2.05,0.851l1.557,4.377c0.571,0.064,1.148,0.104,1.737,0.104c0.588,0,1.165-0.04,1.736-0.104l1.558-4.377c0.715-0.218,1.399-0.504,2.049-0.851l4.193,1.993c0.909-0.725,1.733-1.549,2.458-2.458l-1.993-4.193c0.347-0.647,0.633-1.334,0.851-2.049L31.229,17.736zM16,20.871c-2.69,0-4.872-2.182-4.872-4.871c0-2.69,2.182-4.872,4.872-4.872c2.689,0,4.871,2.182,4.871,4.872C20.871,18.689,18.689,20.871,16,20.871z"></path><title>Link options.</title></g></g></g></g><!--z-index:49--><g   id="j_164" ><path  stroke="#707070" d="M 3299 838 L 2699 1238" id="v-2068" stroke-width="2" stroke-dasharray="30 30" fill="none" style="opacity: 1;"></path><path  fill="black" stroke="black" d="M 0 0 0 0" transform="matrix(-0.8320503335416465,0.5547001374195202,-0.5547001374195202,-0.8320503335416465,3299,838)"></path><path  fill="#707070" stroke="#707070" d="M 20 0 L 0 10 L 20 20 z" id="v-2070" transform="matrix(0.8320503335416466,-0.55470013741952,0.55470013741952,0.8320503335416466,2693.4530519310133,1229.6795009684663)" style="opacity: 1;"></path><path  d="M 3299 838 L 2699 1238" id="v-2069" fill="none" style="cursor: auto; pointer-events: visiblepainted;"></path><g ><g id="v-2062"  label-idx="0" cursor="move" transform="matrix(1,0,0,1,2999,1038)" style="cursor: default; opacity: 1;"><rect joint-selector="rect" id="v-2065" fill="#ffffff" rx="3" ry="3" pointer-events="none" width="196.9340362548828" height="60.57423400878906" transform="matrix(1,0,0,1,-98.5,-30.3)"></rect><text joint-selector="text" id="v-2064" font-size="24px" xml:space="preserve" y="0.8em" fill="#707070" text-anchor="middle" pointer-events="none" font-family="Open Sans" font-weight="normal" transform="matrix(1,0,0,1,0,-24.1)"><tspan dy="0" >Gets a REC model</tspan><tspan dy="1.2em" x="0" >from</tspan></text></g><g id="v-2063"  label-idx="1" cursor="move" transform="matrix(1,0,0,1,2989,1078.800048828125)" style="cursor: default; opacity: 1;"><rect joint-selector="rect" id="v-2067" fill="#ffffff" rx="3" ry="3"  width="0" height="0" transform="matrix(1,0,0,1,0,0)" display="none"></rect><text joint-selector="text" id="v-2066" fill="#000000" font-size="14" text-anchor="middle" pointer-events="none"></text></g></g><g  display="none" style="display: none;"></g><g  id="v-2072" display="none"><g  id="v-2060"><path  end="source" d="M 26 0 L 0 13 L 26 26 z"></path></g><g  id="v-2061"><path  end="target" d="M 26 0 L 0 13 L 26 26 z"></path></g></g><g  id="v-2071" display="none"><g  id="v-2059" transform="translate(3265.717988226486, 860.1880078490091) "><g  event="remove"><circle r="11"></circle><path transform="scale(.8) translate(-16, -16)" d="M24.778,21.419 19.276,15.917 24.777,10.415 21.949,7.585 16.447,13.087 10.945,7.585 8.117,10.415 13.618,15.917 8.116,21.419 10.946,24.248 16.447,18.746 21.948,24.248z"></path><title>Remove link.</title></g><g  event="link:options"><circle r="11" transform="translate(25)"></circle><path fill="white" transform="scale(.55) translate(29, -16)" d="M31.229,17.736c0.064-0.571,0.104-1.148,0.104-1.736s-0.04-1.166-0.104-1.737l-4.377-1.557c-0.218-0.716-0.504-1.401-0.851-2.05l1.993-4.192c-0.725-0.91-1.549-1.734-2.458-2.459l-4.193,1.994c-0.647-0.347-1.334-0.632-2.049-0.849l-1.558-4.378C17.165,0.708,16.588,0.667,16,0.667s-1.166,0.041-1.737,0.105L12.707,5.15c-0.716,0.217-1.401,0.502-2.05,0.849L6.464,4.005C5.554,4.73,4.73,5.554,4.005,6.464l1.994,4.192c-0.347,0.648-0.632,1.334-0.849,2.05l-4.378,1.557C0.708,14.834,0.667,15.412,0.667,16s0.041,1.165,0.105,1.736l4.378,1.558c0.217,0.715,0.502,1.401,0.849,2.049l-1.994,4.193c0.725,0.909,1.549,1.733,2.459,2.458l4.192-1.993c0.648,0.347,1.334,0.633,2.05,0.851l1.557,4.377c0.571,0.064,1.148,0.104,1.737,0.104c0.588,0,1.165-0.04,1.736-0.104l1.558-4.377c0.715-0.218,1.399-0.504,2.049-0.851l4.193,1.993c0.909-0.725,1.733-1.549,2.458-2.458l-1.993-4.193c0.347-0.647,0.633-1.334,0.851-2.049L31.229,17.736zM16,20.871c-2.69,0-4.872-2.182-4.872-4.871c0-2.69,2.182-4.872,4.872-4.872c2.689,0,4.871,2.182,4.871,4.872C20.871,18.689,18.689,20.871,16,20.871z"></path><title>Link options.</title></g></g></g></g><!--z-index:50--><g   id="j_165" ><path  stroke="#707070" d="M 3299 1324 L 3009 1241 C 3002.333333333333 1239 2995.6666666666665 1239 2989 1241 L 2699 1324" id="v-2086" stroke-width="2" stroke-dasharray="30 30" fill="none" style="opacity: 1;"></path><path  fill="black" stroke="black" d="M 0 0 0 0" transform="matrix(-0.9615275666042731,-0.274708461209452,0.274708461209452,-0.9615275666042731,3299,1323.7099609375)"></path><path  fill="#707070" stroke="#707070" d="M 20 0 L 0 10 L 20 20 z" id="v-2088" transform="matrix(0.961527566604273,-0.2747084612094524,0.2747084612094524,0.961527566604273,2696.252874096863,1314.0946995710517)" style="opacity: 1;"></path><path  d="M 3299 1324 L 3009 1241 C 3002.333333333333 1239 2995.6666666666665 1239 2989 1241 L 2699 1324" id="v-2087" fill="none" style="cursor: auto; pointer-events: visiblepainted;"></path><g ><g id="v-2080"  label-idx="0" cursor="move" transform="matrix(1,0,0,1,2999,1239.5)" style="cursor: default; opacity: 1;"><rect joint-selector="rect" id="v-2083" fill="#ffffff" rx="3" ry="3" pointer-events="none" width="150.59661865234375" height="89.37423706054688" transform="matrix(1,0,0,1,-75.3,-44.7)"></rect><text joint-selector="text" id="v-2082" font-size="24px" xml:space="preserve" y="0.8em" fill="#707070" text-anchor="middle" pointer-events="none" font-family="Open Sans" font-weight="normal" transform="matrix(1,0,0,1,0,-38.5)"><tspan dy="0" >Pulls NZ</tspan><tspan dy="1.2em" x="0" >Basemap</tspan><tspan dy="1.2em" x="0" >imagery from</tspan></text></g><g id="v-2081"  label-idx="1" cursor="move" transform="matrix(1,0,0,1,2989,1294.699951171875)" style="cursor: default; opacity: 1;"><rect joint-selector="rect" id="v-2085" fill="#ffffff" rx="3" ry="3"  width="0" height="0" transform="matrix(1,0,0,1,0,0)" display="none"></rect><text joint-selector="text" id="v-2084" fill="#000000" font-size="14" text-anchor="middle" pointer-events="none"></text></g></g><g  display="none" style="display: none;"><g  transform="translate(2999, 1238)" id="v-2224"><circle  idx="0" r="10"></circle><path  idx="0" d="M16,5.333c-7.732,0-14,4.701-14,10.5c0,1.982,0.741,3.833,2.016,5.414L2,25.667l5.613-1.441c2.339,1.317,5.237,2.107,8.387,2.107c7.732,0,14-4.701,14-10.5C30,10.034,23.732,5.333,16,5.333z" transform="translate(5, -33)"></path><path  idx="0" transform="scale(.8) translate(9.5, -37)" d="M24.778,21.419 19.276,15.917 24.777,10.415 21.949,7.585 16.447,13.087 10.945,7.585 8.117,10.415 13.618,15.917 8.116,21.419 10.946,24.248 16.447,18.746 21.948,24.248z"><title>Remove vertex.</title></path></g></g><g  id="v-2090" display="none"><g  id="v-2078"><path  end="source" d="M 26 0 L 0 13 L 26 26 z"></path></g><g  id="v-2079"><path  end="target" d="M 26 0 L 0 13 L 26 26 z"></path></g></g><g  id="v-2089" display="none"><g  id="v-2076" transform="translate(3260.544050109405, 1312.9936419278642) "><g  event="remove"><circle r="11"></circle><path transform="scale(.8) translate(-16, -16)" d="M24.778,21.419 19.276,15.917 24.777,10.415 21.949,7.585 16.447,13.087 10.945,7.585 8.117,10.415 13.618,15.917 8.116,21.419 10.946,24.248 16.447,18.746 21.948,24.248z"></path><title>Remove link.</title></g><g  event="link:options"><circle r="11" transform="translate(25)"></circle><path fill="white" transform="scale(.55) translate(29, -16)" d="M31.229,17.736c0.064-0.571,0.104-1.148,0.104-1.736s-0.04-1.166-0.104-1.737l-4.377-1.557c-0.218-0.716-0.504-1.401-0.851-2.05l1.993-4.192c-0.725-0.91-1.549-1.734-2.458-2.459l-4.193,1.994c-0.647-0.347-1.334-0.632-2.049-0.849l-1.558-4.378C17.165,0.708,16.588,0.667,16,0.667s-1.166,0.041-1.737,0.105L12.707,5.15c-0.716,0.217-1.401,0.502-2.05,0.849L6.464,4.005C5.554,4.73,4.73,5.554,4.005,6.464l1.994,4.192c-0.347,0.648-0.632,1.334-0.849,2.05l-4.378,1.557C0.708,14.834,0.667,15.412,0.667,16s0.041,1.165,0.105,1.736l4.378,1.558c0.217,0.715,0.502,1.401,0.849,2.049l-1.994,4.193c0.725,0.909,1.549,1.733,2.459,2.458l4.192-1.993c0.648,0.347,1.334,0.633,2.05,0.851l1.557,4.377c0.571,0.064,1.148,0.104,1.737,0.104c0.588,0,1.165-0.04,1.736-0.104l1.558-4.377c0.715-0.218,1.399-0.504,2.049-0.851l4.193,1.993c0.909-0.725,1.733-1.549,2.458-2.458l-1.993-4.193c0.347-0.647,0.633-1.334,0.851-2.049L31.229,17.736zM16,20.871c-2.69,0-4.872-2.182-4.872-4.871c0-2.69,2.182-4.872,4.872-4.872c2.689,0,4.871,2.182,4.871,4.872C20.871,18.689,18.689,20.871,16,20.871z"></path><title>Link options.</title></g></g></g></g><!--z-index:51--><g   id="j_166" ><path  stroke="#707070" d="M 1649 2152 L 1939 2235 C 1945.6666666666665 2237 1952.3333333333333 2237 1959 2235 L 2249 2152" id="v-2107" stroke-width="2" stroke-dasharray="30 30" fill="none" style="opacity: 1;"></path><path  fill="black" stroke="black" d="M 0 0 0 0" transform="matrix(0.9615275757491836,0.2747084292006668,-0.2747084292006668,0.9615275757491836,1649,2152.2900390625)"></path><path  fill="#707070" stroke="#707070" d="M 20 0 L 0 10 L 20 20 z" id="v-2109" transform="matrix(-0.9615275666042731,0.27470846120945186,-0.27470846120945186,-0.9615275666042731,2251.747125903137,2161.905300428948)" style="opacity: 1;"></path><path  d="M 1649 2152 L 1939 2235 C 1945.6666666666665 2237 1952.3333333333333 2237 1959 2235 L 2249 2152" id="v-2108" fill="none" style="cursor: auto; pointer-events: visiblepainted;"></path><g ><g id="v-2098"  label-idx="0" cursor="move" transform="matrix(1,0,0,1,1949,2236.5)" style="cursor: default; opacity: 1;"><rect joint-selector="rect" id="v-2102" fill="#ffffff" rx="3" ry="3" pointer-events="none" width="153.5423583984375" height="60.57423400878906" transform="matrix(1,0,0,1,-76.8,-30.3)"></rect><text joint-selector="text" id="v-2101" font-size="24px" xml:space="preserve" y="0.8em" fill="#707070" text-anchor="middle" pointer-events="none" font-family="Open Sans" font-weight="normal" transform="matrix(1,0,0,1,0,-24.1)"><tspan dy="0" >Syncs spatial</tspan><tspan dy="1.2em" x="0" >features from</tspan></text></g><g id="v-2099"  label-idx="1" cursor="move" transform="matrix(1,0,0,1,1949,2277.300048828125)" style="cursor: default; opacity: 1;"><rect joint-selector="rect" id="v-2104" fill="#ffffff" rx="3" ry="3" pointer-events="none" width="108.03238677978516" height="23.30110454559326" transform="matrix(1,0,0,1,-54,-11.7)"></rect><text joint-selector="text" id="v-2103" font-size="17px" xml:space="preserve" y="0.8em" fill="#707070" text-anchor="middle" pointer-events="none" font-family="Open Sans" font-weight="normal" transform="matrix(1,0,0,1,0,-6.2)"><tspan dy="0" >[JSON/HTTPS]</tspan></text></g><g id="v-2100"  label-idx="2" cursor="move" transform="matrix(1,0,0,1,1939,2285.699951171875)" style="cursor: default; opacity: 1;"><rect joint-selector="rect" id="v-2106" fill="#ffffff" rx="3" ry="3"  width="0" height="0" transform="matrix(1,0,0,1,0,0)" display="none"></rect><text joint-selector="text" id="v-2105" fill="#000000" font-size="14" text-anchor="middle" pointer-events="none"></text></g></g><g  display="none" style="display: none;"><g  transform="translate(1949, 2238)" id="v-2225"><circle  idx="0" r="10"></circle><path  idx="0" d="M16,5.333c-7.732,0-14,4.701-14,10.5c0,1.982,0.741,3.833,2.016,5.414L2,25.667l5.613-1.441c2.339,1.317,5.237,2.107,8.387,2.107c7.732,0,14-4.701,14-10.5C30,10.034,23.732,5.333,16,5.333z" transform="translate(5, -33)"></path><path  idx="0" transform="scale(.8) translate(9.5, -37)" d="M24.778,21.419 19.276,15.917 24.777,10.415 21.949,7.585 16.447,13.087 10.945,7.585 8.117,10.415 13.618,15.917 8.116,21.419 10.946,24.248 16.447,18.746 21.948,24.248z"><title>Remove vertex.</title></path></g></g><g  id="v-2111" display="none"><g  id="v-2096"><path  end="source" d="M 26 0 L 0 13 L 26 26 z"></path></g><g  id="v-2097"><path  end="target" d="M 26 0 L 0 13 L 26 26 z"></path></g></g><g  id="v-2110" display="none"><g  id="v-2094" transform="translate(1687.4559498905946, 2163.0063580721358) "><g  event="remove"><circle r="11"></circle><path transform="scale(.8) translate(-16, -16)" d="M24.778,21.419 19.276,15.917 24.777,10.415 21.949,7.585 16.447,13.087 10.945,7.585 8.117,10.415 13.618,15.917 8.116,21.419 10.946,24.248 16.447,18.746 21.948,24.248z"></path><title>Remove link.</title></g><g  event="link:options"><circle r="11" transform="translate(25)"></circle><path fill="white" transform="scale(.55) translate(29, -16)" d="M31.229,17.736c0.064-0.571,0.104-1.148,0.104-1.736s-0.04-1.166-0.104-1.737l-4.377-1.557c-0.218-0.716-0.504-1.401-0.851-2.05l1.993-4.192c-0.725-0.91-1.549-1.734-2.458-2.459l-4.193,1.994c-0.647-0.347-1.334-0.632-2.049-0.849l-1.558-4.378C17.165,0.708,16.588,0.667,16,0.667s-1.166,0.041-1.737,0.105L12.707,5.15c-0.716,0.217-1.401,0.502-2.05,0.849L6.464,4.005C5.554,4.73,4.73,5.554,4.005,6.464l1.994,4.192c-0.347,0.648-0.632,1.334-0.849,2.05l-4.378,1.557C0.708,14.834,0.667,15.412,0.667,16s0.041,1.165,0.105,1.736l4.378,1.558c0.217,0.715,0.502,1.401,0.849,2.049l-1.994,4.193c0.725,0.909,1.549,1.733,2.459,2.458l4.192-1.993c0.648,0.347,1.334,0.633,2.05,0.851l1.557,4.377c0.571,0.064,1.148,0.104,1.737,0.104c0.588,0,1.165-0.04,1.736-0.104l1.558-4.377c0.715-0.218,1.399-0.504,2.049-0.851l4.193,1.993c0.909-0.725,1.733-1.549,2.458-2.458l-1.993-4.193c0.347-0.647,0.633-1.334,0.851-2.049L31.229,17.736zM16,20.871c-2.69,0-4.872-2.182-4.872-4.871c0-2.69,2.182-4.872,4.872-4.872c2.689,0,4.871,2.182,4.871,4.872C20.871,18.689,18.689,20.871,16,20.871z"></path><title>Link options.</title></g></g></g></g><!--z-index:52--><g   id="j_167" ><path  stroke="#707070" d="M 579 1163 L 1088 1731 C 1092.6666666666665 1735.6666666666665 1097.3333333333333 1740.333333333333 1102 1745 L 1283 1938" id="v-2125" stroke-width="2" stroke-dasharray="30 30" fill="none" style="opacity: 1;"></path><path  fill="black" stroke="black" d="M 0 0 0 0" transform="matrix(0.6681708219485735,0.7440078982756617,-0.7440078982756617,0.6681708219485735,578.6099853515625,1163)"></path><path  fill="#707070" stroke="#707070" d="M 20 0 L 0 10 L 20 20 z" id="v-2127" transform="matrix(-0.6849100167010155,-0.7286276614448661,0.7286276614448661,-0.6849100167010155,1275.7137024588114,1944.8491218986464)" style="opacity: 1;"></path><path  d="M 579 1163 L 1088 1731 C 1092.6666666666665 1735.6666666666665 1097.3333333333333 1740.333333333333 1102 1745 L 1283 1938" id="v-2126" fill="none" style="cursor: auto; pointer-events: visiblepainted;"></path><g ><g id="v-2119"  label-idx="0" cursor="move" transform="matrix(1,0,0,1,928.3976440429688,1552.8975830078125)" style="cursor: default; opacity: 1;"><rect joint-selector="rect" id="v-2122" fill="#ffffff" rx="3" ry="3" pointer-events="none" width="199.4825897216797" height="89.37423706054688" transform="matrix(1,0,0,1,-99.7,-44.7)"></rect><text joint-selector="text" id="v-2121" font-size="24px" xml:space="preserve" y="0.8em" fill="#707070" text-anchor="middle" pointer-events="none" font-family="Open Sans" font-weight="normal" transform="matrix(1,0,0,1,0,-38.5)"><tspan dy="0" >Uses to provide</tspan><tspan dy="1.2em" x="0" >FMU text and</tspan><tspan dy="1.2em" x="0" >other information</tspan></text></g><g id="v-2120"  label-idx="1" cursor="move" transform="matrix(1,0,0,1,918.3976440429688,1608.0975341796875)" style="cursor: default; opacity: 1;"><rect joint-selector="rect" id="v-2124" fill="#ffffff" rx="3" ry="3"  width="0" height="0" transform="matrix(1,0,0,1,0,0)" display="none"></rect><text joint-selector="text" id="v-2123" fill="#000000" font-size="14" text-anchor="middle" pointer-events="none"></text></g></g><g  display="none" style="display: none;"><g  transform="translate(1095, 1738)" id="v-2226"><circle  idx="0" r="10"></circle><path  idx="0" d="M16,5.333c-7.732,0-14,4.701-14,10.5c0,1.982,0.741,3.833,2.016,5.414L2,25.667l5.613-1.441c2.339,1.317,5.237,2.107,8.387,2.107c7.732,0,14-4.701,14-10.5C30,10.034,23.732,5.333,16,5.333z" transform="translate(5, -33)"></path><path  idx="0" transform="scale(.8) translate(9.5, -37)" d="M24.778,21.419 19.276,15.917 24.777,10.415 21.949,7.585 16.447,13.087 10.945,7.585 8.117,10.415 13.618,15.917 8.116,21.419 10.946,24.248 16.447,18.746 21.948,24.248z"><title>Remove vertex.</title></path></g></g><g  id="v-2129" display="none"><g  id="v-2117"><path  end="source" d="M 26 0 L 0 13 L 26 26 z"></path></g><g  id="v-2118"><path  end="target" d="M 26 0 L 0 13 L 26 26 z"></path></g></g><g  id="v-2128" display="none"><g  id="v-2115" transform="translate(605.6947817968527, 1192.7890688813602) "><g  event="remove"><circle r="11"></circle><path transform="scale(.8) translate(-16, -16)" d="M24.778,21.419 19.276,15.917 24.777,10.415 21.949,7.585 16.447,13.087 10.945,7.585 8.117,10.415 13.618,15.917 8.116,21.419 10.946,24.248 16.447,18.746 21.948,24.248z"></path><title>Remove link.</title></g><g  event="link:options"><circle r="11" transform="translate(25)"></circle><path fill="white" transform="scale(.55) translate(29, -16)" d="M31.229,17.736c0.064-0.571,0.104-1.148,0.104-1.736s-0.04-1.166-0.104-1.737l-4.377-1.557c-0.218-0.716-0.504-1.401-0.851-2.05l1.993-4.192c-0.725-0.91-1.549-1.734-2.458-2.459l-4.193,1.994c-0.647-0.347-1.334-0.632-2.049-0.849l-1.558-4.378C17.165,0.708,16.588,0.667,16,0.667s-1.166,0.041-1.737,0.105L12.707,5.15c-0.716,0.217-1.401,0.502-2.05,0.849L6.464,4.005C5.554,4.73,4.73,5.554,4.005,6.464l1.994,4.192c-0.347,0.648-0.632,1.334-0.849,2.05l-4.378,1.557C0.708,14.834,0.667,15.412,0.667,16s0.041,1.165,0.105,1.736l4.378,1.558c0.217,0.715,0.502,1.401,0.849,2.049l-1.994,4.193c0.725,0.909,1.549,1.733,2.459,2.458l4.192-1.993c0.648,0.347,1.334,0.633,2.05,0.851l1.557,4.377c0.571,0.064,1.148,0.104,1.737,0.104c0.588,0,1.165-0.04,1.736-0.104l1.558-4.377c0.715-0.218,1.399-0.504,2.049-0.851l4.193,1.993c0.909-0.725,1.733-1.549,2.458-2.458l-1.993-4.193c0.347-0.647,0.633-1.334,0.851-2.049L31.229,17.736zM16,20.871c-2.69,0-4.872-2.182-4.872-4.871c0-2.69,2.182-4.872,4.872-4.872c2.689,0,4.871,2.182,4.871,4.872C20.871,18.689,18.689,20.871,16,20.871z"></path><title>Link options.</title></g></g></g></g><!--z-index:53--><g   id="j_168" ><path  stroke="#707070" d="M 1624 781 L 2264 1238" id="v-2142" stroke-width="2" stroke-dasharray="30 30" fill="none" style="opacity: 1;"></path><path  fill="black" stroke="black" d="M 0 0 0 0" transform="matrix(0.8137351742020097,0.5812358095183268,-0.5812358095183268,0.8137351742020097,1624,780.8599853515625)"></path><path  fill="#707070" stroke="#707070" d="M 20 0 L 0 10 L 20 20 z" id="v-2144" transform="matrix(-0.8137352129001229,-0.5812357553406289,0.5812357553406289,-0.8137352129001229,2258.18754340372,1246.13733175272)" style="opacity: 1;"></path><path  d="M 1624 781 L 2264 1238" id="v-2143" fill="none" style="cursor: auto; pointer-events: visiblepainted;"></path><g ><g id="v-2136"  label-idx="0" cursor="move" transform="matrix(1,0,0,1,1944,1009.5)" style="cursor: default; opacity: 1;"><rect joint-selector="rect" id="v-2139" fill="#ffffff" rx="3" ry="3" pointer-events="none" width="175.81741333007812" height="89.37423706054688" transform="matrix(1,0,0,1,-87.9,-44.7)"></rect><text joint-selector="text" id="v-2138" font-size="24px" xml:space="preserve" y="0.8em" fill="#707070" text-anchor="middle" pointer-events="none" font-family="Open Sans" font-weight="normal" transform="matrix(1,0,0,1,0,-38.5)"><tspan dy="0" >Uses to retrieve</tspan><tspan dy="1.2em" x="0" >FMU info for</tspan><tspan dy="1.2em" x="0" >Farm Plan</tspan></text></g><g id="v-2137"  label-idx="1" cursor="move" transform="matrix(1,0,0,1,1934,1064.699951171875)" style="cursor: default; opacity: 1;"><rect joint-selector="rect" id="v-2141" fill="#ffffff" rx="3" ry="3"  width="0" height="0" transform="matrix(1,0,0,1,0,0)" display="none"></rect><text joint-selector="text" id="v-2140" fill="#000000" font-size="14" text-anchor="middle" pointer-events="none"></text></g></g><g  display="none" style="display: none;"></g><g  id="v-2146" display="none"><g  id="v-2134"><path  end="source" d="M 26 0 L 0 13 L 26 26 z"></path></g><g  id="v-2135"><path  end="target" d="M 26 0 L 0 13 L 26 26 z"></path></g></g><g  id="v-2145" display="none"><g  id="v-2133" transform="translate(1656.5527752299072, 804.2447160626054) "><g  event="remove"><circle r="11"></circle><path transform="scale(.8) translate(-16, -16)" d="M24.778,21.419 19.276,15.917 24.777,10.415 21.949,7.585 16.447,13.087 10.945,7.585 8.117,10.415 13.618,15.917 8.116,21.419 10.946,24.248 16.447,18.746 21.948,24.248z"></path><title>Remove link.</title></g><g  event="link:options"><circle r="11" transform="translate(25)"></circle><path fill="white" transform="scale(.55) translate(29, -16)" d="M31.229,17.736c0.064-0.571,0.104-1.148,0.104-1.736s-0.04-1.166-0.104-1.737l-4.377-1.557c-0.218-0.716-0.504-1.401-0.851-2.05l1.993-4.192c-0.725-0.91-1.549-1.734-2.458-2.459l-4.193,1.994c-0.647-0.347-1.334-0.632-2.049-0.849l-1.558-4.378C17.165,0.708,16.588,0.667,16,0.667s-1.166,0.041-1.737,0.105L12.707,5.15c-0.716,0.217-1.401,0.502-2.05,0.849L6.464,4.005C5.554,4.73,4.73,5.554,4.005,6.464l1.994,4.192c-0.347,0.648-0.632,1.334-0.849,2.05l-4.378,1.557C0.708,14.834,0.667,15.412,0.667,16s0.041,1.165,0.105,1.736l4.378,1.558c0.217,0.715,0.502,1.401,0.849,2.049l-1.994,4.193c0.725,0.909,1.549,1.733,2.459,2.458l4.192-1.993c0.648,0.347,1.334,0.633,2.05,0.851l1.557,4.377c0.571,0.064,1.148,0.104,1.737,0.104c0.588,0,1.165-0.04,1.736-0.104l1.558-4.377c0.715-0.218,1.399-0.504,2.049-0.851l4.193,1.993c0.909-0.725,1.733-1.549,2.458-2.458l-1.993-4.193c0.347-0.647,0.633-1.334,0.851-2.049L31.229,17.736zM16,20.871c-2.69,0-4.872-2.182-4.872-4.871c0-2.69,2.182-4.872,4.872-4.872c2.689,0,4.871,2.182,4.871,4.872C20.871,18.689,18.689,20.871,16,20.871z"></path><title>Link options.</title></g></g></g></g><!--z-index:54--><g   id="j_169" ><path  stroke="#707070" d="M 591 763 L 1088 245 C 1092.6666666666665 240.33333333333331 1098.3333333333333 238 1105 238 L 1743 238 C 1749.6666666666665 238 1754.6666666666665 240.66666666666666 1758 246 L 2380 1238" id="v-2161" stroke-width="2" stroke-dasharray="30 30" fill="none" style="opacity: 1;"></path><path  fill="black" stroke="black" d="M 0 0 0 0" transform="matrix(0.6925319655521993,-0.7213871891629399,0.7213871891629399,0.6925319655521993,591,763)"></path><path  fill="#707070" stroke="#707070" d="M 20 0 L 0 10 L 20 20 z" id="v-2163" transform="matrix(-0.5311924536085771,-0.8472511889807528,0.8472511889807528,-0.5311924536085771,2371.487606005653,1243.3119022462058)" style="opacity: 1;"></path><path  d="M 591 763 L 1088 245 C 1092.6666666666665 240.33333333333331 1098.3333333333333 238 1105 238 L 1743 238 C 1749.6666666666665 238 1754.6666666666665 240.66666666666666 1758 246 L 2380 1238" id="v-2162" fill="none" style="cursor: auto; pointer-events: visiblepainted;"></path><g ><g id="v-2155"  label-idx="0" cursor="move" transform="matrix(1,0,0,1,1649.970947265625,238)" style="cursor: default; opacity: 1;"><rect joint-selector="rect" id="v-2158" fill="#ffffff" rx="3" ry="3" pointer-events="none" width="191.6714324951172" height="146.97423553466797" transform="matrix(1,0,0,1,-95.8,-73.5)"></rect><text joint-selector="text" id="v-2157" font-size="24px" xml:space="preserve" y="0.8em" fill="#707070" text-anchor="middle" pointer-events="none" font-family="Open Sans" font-weight="normal" transform="matrix(1,0,0,1,0,-67.3)"><tspan dy="0" >Uses to monitor</tspan><tspan dy="1.2em" x="0" >and provide FMU</tspan><tspan dy="1.2em" x="0" >info for</tspan><tspan dy="1.2em" x="0" >Freshwater</tspan><tspan dy="1.2em" x="0" >Management</tspan></text></g><g id="v-2156"  label-idx="1" cursor="move" transform="matrix(1,0,0,1,1639.970947265625,322)" style="cursor: default; opacity: 1;"><rect joint-selector="rect" id="v-2160" fill="#ffffff" rx="3" ry="3"  width="0" height="0" transform="matrix(1,0,0,1,0,0)" display="none"></rect><text joint-selector="text" id="v-2159" fill="#000000" font-size="14" text-anchor="middle" pointer-events="none"></text></g></g><g  display="none" style="display: none;"><g  transform="translate(1095, 238)" id="v-2227"><circle  idx="0" r="10"></circle><path  idx="0" d="M16,5.333c-7.732,0-14,4.701-14,10.5c0,1.982,0.741,3.833,2.016,5.414L2,25.667l5.613-1.441c2.339,1.317,5.237,2.107,8.387,2.107c7.732,0,14-4.701,14-10.5C30,10.034,23.732,5.333,16,5.333z" transform="translate(5, -33)"></path><path  idx="0" transform="scale(.8) translate(9.5, -37)" d="M24.778,21.419 19.276,15.917 24.777,10.415 21.949,7.585 16.447,13.087 10.945,7.585 8.117,10.415 13.618,15.917 8.116,21.419 10.946,24.248 16.447,18.746 21.948,24.248z"><title>Remove vertex.</title></path></g><g  transform="translate(1753, 238)" id="v-2228"><circle  idx="1" r="10"></circle><path  idx="1" d="M16,5.333c-7.732,0-14,4.701-14,10.5c0,1.982,0.741,3.833,2.016,5.414L2,25.667l5.613-1.441c2.339,1.317,5.237,2.107,8.387,2.107c7.732,0,14-4.701,14-10.5C30,10.034,23.732,5.333,16,5.333z" transform="translate(5, -33)"></path><path  idx="1" transform="scale(.8) translate(9.5, -37)" d="M24.778,21.419 19.276,15.917 24.777,10.415 21.949,7.585 16.447,13.087 10.945,7.585 8.117,10.415 13.618,15.917 8.116,21.419 10.946,24.248 16.447,18.746 21.948,24.248z"><title>Remove vertex.</title></path></g></g><g  id="v-2165" display="none"><g  id="v-2153"><path  end="source" d="M 26 0 L 0 13 L 26 26 z"></path></g><g  id="v-2154"><path  end="target" d="M 26 0 L 0 13 L 26 26 z"></path></g></g><g  id="v-2164" display="none"><g  id="v-2150" transform="translate(618.6931528718499, 734.1367139082129) "><g  event="remove"><circle r="11"></circle><path transform="scale(.8) translate(-16, -16)" d="M24.778,21.419 19.276,15.917 24.777,10.415 21.949,7.585 16.447,13.087 10.945,7.585 8.117,10.415 13.618,15.917 8.116,21.419 10.946,24.248 16.447,18.746 21.948,24.248z"></path><title>Remove link.</title></g><g  event="link:options"><circle r="11" transform="translate(25)"></circle><path fill="white" transform="scale(.55) translate(29, -16)" d="M31.229,17.736c0.064-0.571,0.104-1.148,0.104-1.736s-0.04-1.166-0.104-1.737l-4.377-1.557c-0.218-0.716-0.504-1.401-0.851-2.05l1.993-4.192c-0.725-0.91-1.549-1.734-2.458-2.459l-4.193,1.994c-0.647-0.347-1.334-0.632-2.049-0.849l-1.558-4.378C17.165,0.708,16.588,0.667,16,0.667s-1.166,0.041-1.737,0.105L12.707,5.15c-0.716,0.217-1.401,0.502-2.05,0.849L6.464,4.005C5.554,4.73,4.73,5.554,4.005,6.464l1.994,4.192c-0.347,0.648-0.632,1.334-0.849,2.05l-4.378,1.557C0.708,14.834,0.667,15.412,0.667,16s0.041,1.165,0.105,1.736l4.378,1.558c0.217,0.715,0.502,1.401,0.849,2.049l-1.994,4.193c0.725,0.909,1.549,1.733,2.459,2.458l4.192-1.993c0.648,0.347,1.334,0.633,2.05,0.851l1.557,4.377c0.571,0.064,1.148,0.104,1.737,0.104c0.588,0,1.165-0.04,1.736-0.104l1.558-4.377c0.715-0.218,1.399-0.504,2.049-0.851l4.193,1.993c0.909-0.725,1.733-1.549,2.458-2.458l-1.993-4.193c0.347-0.647,0.633-1.334,0.851-2.049L31.229,17.736zM16,20.871c-2.69,0-4.872-2.182-4.872-4.871c0-2.69,2.182-4.872,4.872-4.872c2.689,0,4.871,2.182,4.871,4.872C20.871,18.689,18.689,20.871,16,20.871z"></path><title>Link options.</title></g></g></g></g><!--z-index:55--><g   id="j_170" ><path  stroke="#707070" d="M 2699 1538 L 3299 1938" id="v-2178" stroke-width="2" stroke-dasharray="30 30" fill="none" style="opacity: 1;"></path><path  fill="black" stroke="black" d="M 0 0 0 0" transform="matrix(0.832050296610249,0.5547001928166209,-0.5547001928166209,0.832050296610249,2699,1538)"></path><path  fill="#707070" stroke="#707070" d="M 20 0 L 0 10 L 20 20 z" id="v-2180" transform="matrix(-0.8320503335416466,-0.55470013741952,0.55470013741952,-0.8320503335416466,3293.4529453205964,1946.3205076392992)" style="opacity: 1;"></path><path  d="M 2699 1538 L 3299 1938" id="v-2179" fill="none" style="cursor: auto; pointer-events: visiblepainted;"></path><g ><g id="v-2172"  label-idx="0" cursor="move" transform="matrix(1,0,0,1,2999,1738)" style="cursor: default; opacity: 1;"><rect joint-selector="rect" id="v-2175" fill="#ffffff" rx="3" ry="3" pointer-events="none" width="167.44357299804688" height="60.57423400878906" transform="matrix(1,0,0,1,-83.7,-30.3)"></rect><text joint-selector="text" id="v-2174" font-size="24px" xml:space="preserve" y="0.8em" fill="#707070" text-anchor="middle" pointer-events="none" font-family="Open Sans" font-weight="normal" transform="matrix(1,0,0,1,0,-24.1)"><tspan dy="0" >Uses to display</tspan><tspan dy="1.2em" x="0" >map</tspan></text></g><g id="v-2173"  label-idx="1" cursor="move" transform="matrix(1,0,0,1,2989,1778.800048828125)" style="cursor: default; opacity: 1;"><rect joint-selector="rect" id="v-2177" fill="#ffffff" rx="3" ry="3"  width="0" height="0" transform="matrix(1,0,0,1,0,0)" display="none"></rect><text joint-selector="text" id="v-2176" fill="#000000" font-size="14" text-anchor="middle" pointer-events="none"></text></g></g><g  display="none" style="display: none;"></g><g  id="v-2182" display="none"><g  id="v-2170"><path  end="source" d="M 26 0 L 0 13 L 26 26 z"></path></g><g  id="v-2171"><path  end="target" d="M 26 0 L 0 13 L 26 26 z"></path></g></g><g  id="v-2181" display="none"><g  id="v-2169" transform="translate(2732.2820117735137, 1560.1880078490092) "><g  event="remove"><circle r="11"></circle><path transform="scale(.8) translate(-16, -16)" d="M24.778,21.419 19.276,15.917 24.777,10.415 21.949,7.585 16.447,13.087 10.945,7.585 8.117,10.415 13.618,15.917 8.116,21.419 10.946,24.248 16.447,18.746 21.948,24.248z"></path><title>Remove link.</title></g><g  event="link:options"><circle r="11" transform="translate(25)"></circle><path fill="white" transform="scale(.55) translate(29, -16)" d="M31.229,17.736c0.064-0.571,0.104-1.148,0.104-1.736s-0.04-1.166-0.104-1.737l-4.377-1.557c-0.218-0.716-0.504-1.401-0.851-2.05l1.993-4.192c-0.725-0.91-1.549-1.734-2.458-2.459l-4.193,1.994c-0.647-0.347-1.334-0.632-2.049-0.849l-1.558-4.378C17.165,0.708,16.588,0.667,16,0.667s-1.166,0.041-1.737,0.105L12.707,5.15c-0.716,0.217-1.401,0.502-2.05,0.849L6.464,4.005C5.554,4.73,4.73,5.554,4.005,6.464l1.994,4.192c-0.347,0.648-0.632,1.334-0.849,2.05l-4.378,1.557C0.708,14.834,0.667,15.412,0.667,16s0.041,1.165,0.105,1.736l4.378,1.558c0.217,0.715,0.502,1.401,0.849,2.049l-1.994,4.193c0.725,0.909,1.549,1.733,2.459,2.458l4.192-1.993c0.648,0.347,1.334,0.633,2.05,0.851l1.557,4.377c0.571,0.064,1.148,0.104,1.737,0.104c0.588,0,1.165-0.04,1.736-0.104l1.558-4.377c0.715-0.218,1.399-0.504,2.049-0.851l4.193,1.993c0.909-0.725,1.733-1.549,2.458-2.458l-1.993-4.193c0.347-0.647,0.633-1.334,0.851-2.049L31.229,17.736zM16,20.871c-2.69,0-4.872-2.182-4.872-4.871c0-2.69,2.182-4.872,4.872-4.872c2.689,0,4.871,2.182,4.871,4.872C20.871,18.689,18.689,20.871,16,20.871z"></path><title>Link options.</title></g></g></g></g><!--z-index:56--><g   id="j_171" ><path  stroke="#707070" d="M 2699 1452 L 2989 1535 C 2995.6666666666665 1537 3002.333333333333 1537 3009 1535 L 3299 1452" id="v-2196" stroke-width="2" stroke-dasharray="30 30" fill="none" style="opacity: 1;"></path><path  fill="black" stroke="black" d="M 0 0 0 0" transform="matrix(0.9615275757491836,0.2747084292006668,-0.2747084292006668,0.9615275757491836,2699,1452.2900390625)"></path><path  fill="#707070" stroke="#707070" d="M 20 0 L 0 10 L 20 20 z" id="v-2198" transform="matrix(-0.9615275666042731,0.27470846120945186,-0.27470846120945186,-0.9615275666042731,3301.747125903137,1461.9053004289483)" style="opacity: 1;"></path><path  d="M 2699 1452 L 2989 1535 C 2995.6666666666665 1537 3002.333333333333 1537 3009 1535 L 3299 1452" id="v-2197" fill="none" style="cursor: auto; pointer-events: visiblepainted;"></path><g ><g id="v-2190"  label-idx="0" cursor="move" transform="matrix(1,0,0,1,2999,1536.5)" style="cursor: default; opacity: 1;"><rect joint-selector="rect" id="v-2193" fill="#ffffff" rx="3" ry="3" pointer-events="none" width="167.44357299804688" height="60.57423400878906" transform="matrix(1,0,0,1,-83.7,-30.3)"></rect><text joint-selector="text" id="v-2192" font-size="24px" xml:space="preserve" y="0.8em" fill="#707070" text-anchor="middle" pointer-events="none" font-family="Open Sans" font-weight="normal" transform="matrix(1,0,0,1,0,-24.1)"><tspan dy="0" >Uses to display</tspan><tspan dy="1.2em" x="0" >basemaps</tspan></text></g><g id="v-2191"  label-idx="1" cursor="move" transform="matrix(1,0,0,1,2989,1577.300048828125)" style="cursor: default; opacity: 1;"><rect joint-selector="rect" id="v-2195" fill="#ffffff" rx="3" ry="3"  width="0" height="0" transform="matrix(1,0,0,1,0,0)" display="none"></rect><text joint-selector="text" id="v-2194" fill="#000000" font-size="14" text-anchor="middle" pointer-events="none"></text></g></g><g  display="none" style="display: none;"><g  transform="translate(2999, 1538)" id="v-2229"><circle  idx="0" r="10"></circle><path  idx="0" d="M16,5.333c-7.732,0-14,4.701-14,10.5c0,1.982,0.741,3.833,2.016,5.414L2,25.667l5.613-1.441c2.339,1.317,5.237,2.107,8.387,2.107c7.732,0,14-4.701,14-10.5C30,10.034,23.732,5.333,16,5.333z" transform="translate(5, -33)"></path><path  idx="0" transform="scale(.8) translate(9.5, -37)" d="M24.778,21.419 19.276,15.917 24.777,10.415 21.949,7.585 16.447,13.087 10.945,7.585 8.117,10.415 13.618,15.917 8.116,21.419 10.946,24.248 16.447,18.746 21.948,24.248z"><title>Remove vertex.</title></path></g></g><g  id="v-2200" display="none"><g  id="v-2188"><path  end="source" d="M 26 0 L 0 13 L 26 26 z"></path></g><g  id="v-2189"><path  end="target" d="M 26 0 L 0 13 L 26 26 z"></path></g></g><g  id="v-2199" display="none"><g  id="v-2186" transform="translate(2737.4559498905946, 1463.0063580721358) "><g  event="remove"><circle r="11"></circle><path transform="scale(.8) translate(-16, -16)" d="M24.778,21.419 19.276,15.917 24.777,10.415 21.949,7.585 16.447,13.087 10.945,7.585 8.117,10.415 13.618,15.917 8.116,21.419 10.946,24.248 16.447,18.746 21.948,24.248z"></path><title>Remove link.</title></g><g  event="link:options"><circle r="11" transform="translate(25)"></circle><path fill="white" transform="scale(.55) translate(29, -16)" d="M31.229,17.736c0.064-0.571,0.104-1.148,0.104-1.736s-0.04-1.166-0.104-1.737l-4.377-1.557c-0.218-0.716-0.504-1.401-0.851-2.05l1.993-4.192c-0.725-0.91-1.549-1.734-2.458-2.459l-4.193,1.994c-0.647-0.347-1.334-0.632-2.049-0.849l-1.558-4.378C17.165,0.708,16.588,0.667,16,0.667s-1.166,0.041-1.737,0.105L12.707,5.15c-0.716,0.217-1.401,0.502-2.05,0.849L6.464,4.005C5.554,4.73,4.73,5.554,4.005,6.464l1.994,4.192c-0.347,0.648-0.632,1.334-0.849,2.05l-4.378,1.557C0.708,14.834,0.667,15.412,0.667,16s0.041,1.165,0.105,1.736l4.378,1.558c0.217,0.715,0.502,1.401,0.849,2.049l-1.994,4.193c0.725,0.909,1.549,1.733,2.459,2.458l4.192-1.993c0.648,0.347,1.334,0.633,2.05,0.851l1.557,4.377c0.571,0.064,1.148,0.104,1.737,0.104c0.588,0,1.165-0.04,1.736-0.104l1.558-4.377c0.715-0.218,1.399-0.504,2.049-0.851l4.193,1.993c0.909-0.725,1.733-1.549,2.458-2.458l-1.993-4.193c0.347-0.647,0.633-1.334,0.851-2.049L31.229,17.736zM16,20.871c-2.69,0-4.872-2.182-4.872-4.871c0-2.69,2.182-4.872,4.872-4.872c2.689,0,4.871,2.182,4.871,4.872C20.871,18.689,18.689,20.871,16,20.871z"></path><title>Link options.</title></g></g></g></g><!--z-index:57--><g   id="j_172" ><path  stroke="#707070" d="M 2474 1538 L 2474 1612 C 2474 1618.6666666666665 2474 1625.3333333333333 2474 1632 L 2474 1845 C 2474 1851.6666666666665 2474 1858.333333333333 2474 1865 L 2474 1938" id="v-2215" stroke-width="2" stroke-dasharray="30 30" fill="none" style="opacity: 1;"></path><path  fill="black" stroke="black" d="M 0 0 0 0" transform="matrix(6.123233995736765e-17,0.9999999999999999,-0.9999999999999999,6.123233995736765e-17,2474,1538)"></path><path  fill="#707070" stroke="#707070" d="M 20 0 L 0 10 L 20 20 z" id="v-2217" transform="matrix(-1.8369701987210294e-16,-0.9999999999999999,0.9999999999999999,-1.8369701987210294e-16,2464,1938.0000000000002)" style="opacity: 1;"></path><path  d="M 2474 1538 L 2474 1612 C 2474 1618.6666666666665 2474 1625.3333333333333 2474 1632 L 2474 1845 C 2474 1851.6666666666665 2474 1858.333333333333 2474 1865 L 2474 1938" id="v-2216" fill="none" style="cursor: auto; pointer-events: visiblepainted;"></path><g ><g id="v-2209"  label-idx="0" cursor="move" transform="matrix(1,0,0,1,2474,1738)" style="cursor: default; opacity: 1;"><rect joint-selector="rect" id="v-2212" fill="#ffffff" rx="3" ry="3" pointer-events="none" width="193.02845764160156" height="60.57423400878906" transform="matrix(1,0,0,1,-96.5,-30.3)"></rect><text joint-selector="text" id="v-2211" font-size="24px" xml:space="preserve" y="0.8em" fill="#707070" text-anchor="middle" pointer-events="none" font-family="Open Sans" font-weight="normal" transform="matrix(1,0,0,1,0,-24.1)"><tspan dy="0" >Retrieves FMU</tspan><tspan dy="1.2em" x="0" >information from</tspan></text></g><g id="v-2210"  label-idx="1" cursor="move" transform="matrix(1,0,0,1,2464,1778.800048828125)" style="cursor: default; opacity: 1;"><rect joint-selector="rect" id="v-2214" fill="#ffffff" rx="3" ry="3"  width="0" height="0" transform="matrix(1,0,0,1,0,0)" display="none"></rect><text joint-selector="text" id="v-2213" fill="#000000" font-size="14" text-anchor="middle" pointer-events="none"></text></g></g><g  display="none" style="display: none;"><g  transform="translate(2474, 1622)" id="v-2230"><circle  idx="0" r="10"></circle><path  idx="0" d="M16,5.333c-7.732,0-14,4.701-14,10.5c0,1.982,0.741,3.833,2.016,5.414L2,25.667l5.613-1.441c2.339,1.317,5.237,2.107,8.387,2.107c7.732,0,14-4.701,14-10.5C30,10.034,23.732,5.333,16,5.333z" transform="translate(5, -33)"></path><path  idx="0" transform="scale(.8) translate(9.5, -37)" d="M24.778,21.419 19.276,15.917 24.777,10.415 21.949,7.585 16.447,13.087 10.945,7.585 8.117,10.415 13.618,15.917 8.116,21.419 10.946,24.248 16.447,18.746 21.948,24.248z"><title>Remove vertex.</title></path></g><g  transform="translate(2474, 1855)" id="v-2231"><circle  idx="1" r="10"></circle><path  idx="1" d="M16,5.333c-7.732,0-14,4.701-14,10.5c0,1.982,0.741,3.833,2.016,5.414L2,25.667l5.613-1.441c2.339,1.317,5.237,2.107,8.387,2.107c7.732,0,14-4.701,14-10.5C30,10.034,23.732,5.333,16,5.333z" transform="translate(5, -33)"></path><path  idx="1" transform="scale(.8) translate(9.5, -37)" d="M24.778,21.419 19.276,15.917 24.777,10.415 21.949,7.585 16.447,13.087 10.945,7.585 8.117,10.415 13.618,15.917 8.116,21.419 10.946,24.248 16.447,18.746 21.948,24.248z"><title>Remove vertex.</title></path></g></g><g  id="v-2219" display="none"><g  id="v-2207"><path  end="source" d="M 26 0 L 0 13 L 26 26 z"></path></g><g  id="v-2208"><path  end="target" d="M 26 0 L 0 13 L 26 26 z"></path></g></g><g  id="v-2218" display="none"><g  id="v-2204" transform="translate(2474, 1578) "><g  event="remove"><circle r="11"></circle><path transform="scale(.8) translate(-16, -16)" d="M24.778,21.419 19.276,15.917 24.777,10.415 21.949,7.585 16.447,13.087 10.945,7.585 8.117,10.415 13.618,15.917 8.116,21.419 10.946,24.248 16.447,18.746 21.948,24.248z"></path><title>Remove link.</title></g><g  event="link:options"><circle r="11" transform="translate(25)"></circle><path fill="white" transform="scale(.55) translate(29, -16)" d="M31.229,17.736c0.064-0.571,0.104-1.148,0.104-1.736s-0.04-1.166-0.104-1.737l-4.377-1.557c-0.218-0.716-0.504-1.401-0.851-2.05l1.993-4.192c-0.725-0.91-1.549-1.734-2.458-2.459l-4.193,1.994c-0.647-0.347-1.334-0.632-2.049-0.849l-1.558-4.378C17.165,0.708,16.588,0.667,16,0.667s-1.166,0.041-1.737,0.105L12.707,5.15c-0.716,0.217-1.401,0.502-2.05,0.849L6.464,4.005C5.554,4.73,4.73,5.554,4.005,6.464l1.994,4.192c-0.347,0.648-0.632,1.334-0.849,2.05l-4.378,1.557C0.708,14.834,0.667,15.412,0.667,16s0.041,1.165,0.105,1.736l4.378,1.558c0.217,0.715,0.502,1.401,0.849,2.049l-1.994,4.193c0.725,0.909,1.549,1.733,2.459,2.458l4.192-1.993c0.648,0.347,1.334,0.633,2.05,0.851l1.557,4.377c0.571,0.064,1.148,0.104,1.737,0.104c0.588,0,1.165-0.04,1.736-0.104l1.558-4.377c0.715-0.218,1.399-0.504,2.049-0.851l4.193,1.993c0.909-0.725,1.733-1.549,2.458-2.458l-1.993-4.193c0.347-0.647,0.633-1.334,0.851-2.049L31.229,17.736zM16,20.871c-2.69,0-4.872-2.182-4.872-4.871c0-2.69,2.182-4.872,4.872-4.872c2.689,0,4.871,2.182,4.871,4.872C20.871,18.689,18.689,20.871,16,20.871z"></path><title>Link options.</title></g></g></g></g><!--z-index:58--><!--z-index:59--><!--z-index:60--><!--z-index:61--><!--z-index:62--><!--z-index:63--><!--z-index:64--><!--z-index:65--><!--z-index:66--><!--z-index:67--><!--z-index:68--><!--z-index:69--><!--z-index:70--><!--z-index:71--><!--z-index:72--><!--z-index:73--><!--z-index:74--><!--z-index:75--><!--z-index:76--><!--z-index:77--><!--z-index:78--></g><g ></g><g ></g><g ></g></g></svg>