<svg xmlns="http://www.w3.org/2000/svg" xmlns:xlink="http://www.w3.org/1999/xlink" version="1.1" viewBox="0 0 2620 2358" style="background: #ffffff"><g id="v-3"  transform="matrix(1,0,0,1,0,0)"><g id="j_157"    transform="translate(20,2313)"><g id="v-2596"><text  id="v-2597" font-size="22px" y="0.8em" xml:space="preserve" font-weight="normal" text-anchor="start" fill="#aaaaaa" pointer-events="none" font-family="Open Sans" transform="matrix(1,0,0,1,0,0)" display="block"><tspan id="v-2598"  dy="0em" x="0">Wednesday, 12 October 2022 at 14:53 New Zealand Daylight Time</tspan></text></g></g><g id="j_156"    transform="translate(20,2267)"><g id="v-2592"><text  id="v-2593" font-size="36px" y="0.8em" xml:space="preserve" font-weight="normal" text-anchor="start" fill="#000000" pointer-events="none" font-family="Open Sans" transform="matrix(1,0,0,1,0,0)" display="block"><tspan id="v-2594"  dy="0em" x="0">[System Context] Plan Limits</tspan></text></g></g><g id="j_148"    transform="translate(988,1009)" style="cursor: default !important"><g id="v-2447"><rect  id="v-2448" width="490" height="413" rx="0" ry="0" fill="#ffffff" stroke="#444444" stroke-width="2" stroke-dasharray="20,20" pointer-events="none"></rect><text  id="v-2449" font-size="24px" y="374" xml:space="preserve" font-weight="normal" fill="#444444" x="10" text-anchor="start" pointer-events="visible" font-family="Open Sans" transform="matrix(1,0,0,1,15,0)"><tspan id="v-2452"  dy="0em" x="0">EOP</tspan></text><text  id="v-2450" font-size="19px" y="398" xml:space="preserve" font-weight="normal" fill="#444444" x="10" text-anchor="start" pointer-events="visible" font-family="Open Sans" transform="matrix(1,0,0,1,15,0)"><tspan id="v-2453"  dy="0em" x="0">[Enterprise]</tspan></text><image  id="v-2451" pointer-events="visible"></image></g></g><g id="j_150"    transform="translate(1838,1009)" style="cursor: default !important"><g id="v-2467"><rect  id="v-2468" width="490" height="1094" rx="0" ry="0" fill="#ffffff" stroke="#cccccc" stroke-width="2" stroke-dasharray="5,5" pointer-events="none"></rect><text  id="v-2469" font-size="24px" y="1079" xml:space="preserve" font-weight="normal" fill="#cccccc" x="10" text-anchor="start" pointer-events="visible" font-family="Open Sans" transform="matrix(1,0,0,1,15,0)"><tspan id="v-2472"  dy="0em" x="0">GWRC</tspan></text><text  id="v-2470" font-size="19px" y="1079" display="none" xml:space="preserve" font-weight="normal" fill="#cccccc" x="10" text-anchor="start" pointer-events="visible" font-family="Open Sans" transform="matrix(1,0,0,1,15,0)"><tspan id="v-2473"  dy="0em" x="0" style="fill-opacity: 0; stroke-opacity: 0;">-</tspan></text><image  id="v-2471" pointer-events="visible"></image></g></g><g id="j_145"    transform="translate(1838,309)" style="cursor: default !important"><g id="v-2406"><rect  id="v-2407" width="490" height="394" rx="0" ry="0" fill="#ffffff" stroke="#cccccc" stroke-width="2" stroke-dasharray="5,5" pointer-events="none"></rect><text  id="v-2408" font-size="24px" y="379" xml:space="preserve" font-weight="normal" fill="#cccccc" x="10" text-anchor="start" pointer-events="visible" font-family="Open Sans" transform="matrix(1,0,0,1,15,0)"><tspan id="v-2411"  dy="0em" x="0">Toitū Te Whenua LINZ</tspan></text><text  id="v-2409" font-size="19px" y="379" display="none" xml:space="preserve" font-weight="normal" fill="#cccccc" x="10" text-anchor="start" pointer-events="visible" font-family="Open Sans" transform="matrix(1,0,0,1,15,0)"><tspan id="v-2412"  dy="0em" x="0" style="fill-opacity: 0; stroke-opacity: 0;">-</tspan></text><image  id="v-2410" pointer-events="visible"></image></g></g><g id="j_144"    transform="translate(1858,329)" style="cursor: default !important" ondblclick="structurizrElementDoubleClicked(event, undefined, undefined)"><g  id="v-2395" style="opacity: 1;"><rect  id="v-2396" rx="20" ry="20" stroke="#8a8a8a" stroke-width="2" pointer-events="visiblePainted" fill="#999999" width="450" height="300"></rect><text  id="v-2397" font-size="34" y="0.8em" xml:space="preserve" font-weight="bold" text-anchor="middle" pointer-events="visible" font-family="Open Sans" fill="#ffffff" transform="matrix(1,0,0,1,225,90)"><tspan id="v-2402"  dy="0em" x="0">LINZ Basemaps System</tspan></text><text  id="v-2398" font-size="19" y="0.8em" xml:space="preserve" text-anchor="middle" font-family="Open Sans" fill="#ffffff" transform="matrix(1,0,0,1,225,132.5)"><tspan id="v-2403"  dy="0em" x="0">[Software System]</tspan></text><text  id="v-2399" font-size="24" y="0.8em" xml:space="preserve" text-anchor="middle" font-family="Open Sans" fill="#ffffff" transform="matrix(1,0,0,1,225,180)"><tspan id="v-2404"  dy="0em" x="0">The LINZ Basemaps</tspan></text><text  id="v-2400" font-weight="bold" text-anchor="middle" font-family="Open Sans" fill="#ffffff" font-size="24" transform="matrix(1,0,0,1,225,270)" y="0.8em" display="block" xml:space="preserve"><tspan id="v-2413"  dy="0em" x="0" style="fill-opacity: 0; stroke-opacity: 0;">-</tspan></text><image  id="v-2401"></image></g></g><g id="j_146"    transform="translate(208,979)" style="cursor: default !important"><g  id="v-2417" style="opacity: 1;"><rect  x="0" y="160" width="400" height="240" rx="70" id="v-2419" stroke="#073b6f" stroke-width="2" pointer-events="visiblePainted" fill="#08427b"></rect><circle  cx="200" cy="88.88888888888889" r="88.88888888888889" id="v-2418" stroke="#073b6f" stroke-width="2" pointer-events="visiblePainted" fill="#08427b"></circle><line  x1="80" y1="266.6666666666667" x2="80" y2="400" style="stroke-width:2px" id="v-2425" stroke="#073b6f"></line><line  x1="320" y1="266.6666666666667" x2="320" y2="400" style="stroke-width:2px" id="v-2426" stroke="#073b6f"></line><text  id="v-2420" font-size="34px" y="0.8em" xml:space="preserve" font-weight="bold" text-anchor="middle" pointer-events="visible" font-family="Open Sans" fill="#ffffff" transform="matrix(1,0,0,1,200,190)"><tspan id="v-2427"  dy="0em" x="0">User</tspan></text><text  id="v-2421" font-size="19px" y="0.8em" xml:space="preserve" text-anchor="middle" font-family="Open Sans" fill="#ffffff" transform="matrix(1,0,0,1,200,232.5)"><tspan id="v-2428"  dy="0em" x="0">[Person]</tspan></text><text  id="v-2422" font-size="24px" y="0.8em" xml:space="preserve" text-anchor="middle" font-family="Open Sans" fill="#ffffff" transform="matrix(1,0,0,1,200,280)"><tspan id="v-2429"  dy="0em" x="0">A person wanting to understand</tspan><tspan id="v-2430"  dy="1.2em" x="0">what NRPlan Limits apply to a</tspan><tspan id="v-2431"  dy="1.2em" x="0">area.</tspan></text><text  id="v-2423" font-weight="bold" text-anchor="middle" font-family="Open Sans" fill="#ffffff" font-size="24" transform="matrix(1,0,0,1,200,371.2)" display="block"></text><image  id="v-2424"></image></g></g><g id="j_147"    transform="translate(1008,1029)" style="cursor: zoom-in !important" ondblclick="structurizrElementDoubleClicked(event, 'SystemContainers', undefined)"><g  id="v-2435" style="opacity: 1;"><rect  id="v-2436" rx="1" ry="1" stroke="#0f5eaa" stroke-width="2" pointer-events="visiblePainted" fill="#1168bd" width="450" height="300"></rect><text  id="v-2437" font-size="34" y="0.8em" xml:space="preserve" font-weight="bold" text-anchor="middle" pointer-events="visible" font-family="Open Sans" fill="#ffffff" transform="matrix(1,0,0,1,225,75)"><tspan id="v-2442"  dy="0em" x="0">Plan Limits</tspan></text><text  id="v-2438" font-size="19" y="0.8em" xml:space="preserve" text-anchor="middle" font-family="Open Sans" fill="#ffffff" transform="matrix(1,0,0,1,225,117.5)"><tspan id="v-2443"  dy="0em" x="0">[Software System]</tspan></text><text  id="v-2439" font-size="24" y="0.8em" xml:space="preserve" text-anchor="middle" font-family="Open Sans" fill="#ffffff" transform="matrix(1,0,0,1,225,165)"><tspan id="v-2444"  dy="0em" x="0">The system for prodiving Plan Limits</tspan><tspan id="v-2445"  dy="1.2em" x="0">information.</tspan></text><text  id="v-2440" font-weight="bold" text-anchor="middle" font-family="Open Sans" fill="#ffffff" font-size="24" transform="matrix(1,0,0,1,225,270)" y="0.8em" xml:space="preserve" display="block"><tspan id="v-2454"  dy="0em" x="0">+</tspan></text><image  id="v-2441"></image></g></g><g id="j_149"    transform="translate(1858,1029)" style="cursor: default !important" ondblclick="structurizrElementDoubleClicked(event, undefined, undefined)"><g  id="v-2456" style="opacity: 1;"><rect  id="v-2457" rx="20" ry="20" stroke="#8a8a8a" stroke-width="2" pointer-events="visiblePainted" fill="#999999" width="450" height="300"></rect><text  id="v-2458" font-size="34" y="0.8em" xml:space="preserve" font-weight="bold" text-anchor="middle" pointer-events="visible" font-family="Open Sans" fill="#ffffff" transform="matrix(1,0,0,1,225,90)"><tspan id="v-2463"  dy="0em" x="0">GWRC GIS System</tspan></text><text  id="v-2459" font-size="19" y="0.8em" xml:space="preserve" text-anchor="middle" font-family="Open Sans" fill="#ffffff" transform="matrix(1,0,0,1,225,132.5)"><tspan id="v-2464"  dy="0em" x="0">[Software System]</tspan></text><text  id="v-2460" font-size="24" y="0.8em" xml:space="preserve" text-anchor="middle" font-family="Open Sans" fill="#ffffff" transform="matrix(1,0,0,1,225,180)"><tspan id="v-2465"  dy="0em" x="0">The GWRC GIS system(s)</tspan></text><text  id="v-2461" font-weight="bold" text-anchor="middle" font-family="Open Sans" fill="#ffffff" font-size="24" transform="matrix(1,0,0,1,225,270)" y="0.8em" display="block" xml:space="preserve"><tspan id="v-2474"  dy="0em" x="0" style="fill-opacity: 0; stroke-opacity: 0;">-</tspan></text><image  id="v-2462"></image></g></g><g id="j_151"    transform="translate(1858,1729)" style="cursor: default !important"><g  id="v-2478" style="opacity: 1;"><rect  id="v-2479" rx="10" ry="10" stroke="#e6d292" stroke-width="2" pointer-events="visiblePainted" fill="#ffe9a2" x="10" y="0" width="150" height="75"></rect><rect  id="v-2480" rx="5" ry="5" stroke="#e6d292" stroke-width="2" pointer-events="visiblePainted" fill="#ffe9a2" x="0" y="37.5" width="450" height="262.5"></rect><text  id="v-2481" font-size="34" y="0.8em" xml:space="preserve" font-weight="bold" text-anchor="middle" pointer-events="visible" font-family="Open Sans" fill="#ffffff" transform="matrix(1,0,0,1,225,108.8)"><tspan id="v-2486"  dy="0em" x="0">GWRC NRPlan</tspan></text><text  id="v-2482" font-size="19" y="0.8em" xml:space="preserve" text-anchor="middle" font-family="Open Sans" fill="#ffffff" transform="matrix(1,0,0,1,225,151.3)"><tspan id="v-2487"  dy="0em" x="0">[Documents]</tspan></text><text  id="v-2483" font-size="24" y="0.8em" xml:space="preserve" text-anchor="middle" font-family="Open Sans" fill="#ffffff" transform="matrix(1,0,0,1,225,198.8)"><tspan id="v-2488"  dy="0em" x="0">The Natural Resources Plan</tspan></text><text  id="v-2484" font-weight="bold" text-anchor="middle" font-family="Open Sans" fill="#ffffff" font-size="24" transform="matrix(1,0,0,1,225,271.1)" display="block"></text><image  id="v-2485"></image></g></g><g id="j_152"   ><path  stroke="#707070" id="v-2511" stroke-width="2" stroke-dasharray="30 30" fill="none" d="M 1415 1329 1886 1716" style="opacity: 1;"></path><path  fill="black" stroke="black" transform="translate(1415,1329) scale(1,1) rotate(39.45593261718747)"></path><path  fill="#707070" stroke="#707070" id="v-2513" d="M 20 0 L 0 10 L 20 20 z" transform="translate(1894.645098759666,1736.72112295927) scale(1,1) rotate(-140.5440673828125)" style="opacity: 1;"></path><path  id="v-2512" fill="none" d="M 1415 1329 1886 1716" style="cursor: default !important"></path><title ></title><g ><g  id="v-2496" label-idx="0" cursor="move" transform="translate(1650.5, 1522.5)" style="opacity: 1;"><rect id="v-2498" fill="#ffffff" rx="3" ry="3" stroke="#ffffff" stroke-width="20px" pointer-events="none" width="191.06040954589844" height="118.80380249023438" transform="matrix(1,0,0,1,-95.5,-59.4)"></rect><text id="v-2497" font-size="24px" y="0.8em" xml:space="preserve" text-anchor="middle" pointer-events="none" fill="#707070" font-family="Open Sans" font-weight="normal" transform="matrix(1,0,0,1,0,-52.8)"><tspan id="v-2499"  dy="0em" x="0">Plan limits pulled</tspan><tspan id="v-2500"  dy="1.2em" x="0">out of, manually</tspan><tspan id="v-2501"  dy="1.2em" x="0">digitized and</tspan><tspan id="v-2502"  dy="1.2em" x="0">stored</tspan></text></g><g  id="v-2503" label-idx="1" cursor="move" transform="translate(1650.5, 1592.1)" style="opacity: 1;"><rect id="v-2505" fill="#ffffff" rx="3" ry="3" pointer-events="none" width="0" height="0" transform="matrix(1,0,0,1,0,0)"></rect><text id="v-2504" font-size="19px" y="0.8em" display="none" xml:space="preserve" text-anchor="middle" pointer-events="none" fill="#707070" font-family="Open Sans" font-weight="normal" transform="matrix(1,0,0,1,0,0)"><tspan id="v-2506"  dy="0em" x="0" style="fill-opacity: 0; stroke-opacity: 0;">-</tspan></text></g><g  id="v-2507" label-idx="2" cursor="move" transform="translate(1650.5, 1616.1)" style="opacity: 1;"><rect id="v-2509" fill="#ffffff" rx="3" ry="3" pointer-events="none"  display="block" width="0" height="0" transform="matrix(1,0,0,1,0,0)"></rect><text id="v-2508" font-size="19px" y="0.8em" display="block" xml:space="preserve" text-anchor="middle" pointer-events="none" fill="#707070" font-family="Open Sans" font-weight="normal"  transform="matrix(1,0,0,1,0,0)"><tspan id="v-2510"  dy="0em" x="0" style="fill-opacity: 0; stroke-opacity: 0;">-</tspan></text></g></g><g  display="none"></g><g  id="v-2515" display="none"><g  id="v-2493"><path  end="source" d="M 26 0 L 0 13 L 26 26 z"></path></g><g  id="v-2494"><path  end="target" d="M 26 0 L 0 13 L 26 26 z"></path></g></g><g  id="v-2514" display="none"><g  id="v-2492" transform="translate(1445.9056396484375, 1354.393798828125) "><g  event="remove"><circle r="11"></circle><path transform="scale(.8) translate(-16, -16)" d="M24.778,21.419 19.276,15.917 24.777,10.415 21.949,7.585 16.447,13.087 10.945,7.585 8.117,10.415 13.618,15.917 8.116,21.419 10.946,24.248 16.447,18.746 21.948,24.248z"></path><title>Remove link.</title></g><g  event="link:options"><circle r="11" transform="translate(25)"></circle><path fill="white" transform="scale(.55) translate(29, -16)" d="M31.229,17.736c0.064-0.571,0.104-1.148,0.104-1.736s-0.04-1.166-0.104-1.737l-4.377-1.557c-0.218-0.716-0.504-1.401-0.851-2.05l1.993-4.192c-0.725-0.91-1.549-1.734-2.458-2.459l-4.193,1.994c-0.647-0.347-1.334-0.632-2.049-0.849l-1.558-4.378C17.165,0.708,16.588,0.667,16,0.667s-1.166,0.041-1.737,0.105L12.707,5.15c-0.716,0.217-1.401,0.502-2.05,0.849L6.464,4.005C5.554,4.73,4.73,5.554,4.005,6.464l1.994,4.192c-0.347,0.648-0.632,1.334-0.849,2.05l-4.378,1.557C0.708,14.834,0.667,15.412,0.667,16s0.041,1.165,0.105,1.736l4.378,1.558c0.217,0.715,0.502,1.401,0.849,2.049l-1.994,4.193c0.725,0.909,1.549,1.733,2.459,2.458l4.192-1.993c0.648,0.347,1.334,0.633,2.05,0.851l1.557,4.377c0.571,0.064,1.148,0.104,1.737,0.104c0.588,0,1.165-0.04,1.736-0.104l1.558-4.377c0.715-0.218,1.399-0.504,2.049-0.851l4.193,1.993c0.909-0.725,1.733-1.549,2.458-2.458l-1.993-4.193c0.347-0.647,0.633-1.334,0.851-2.049L31.229,17.736zM16,20.871c-2.69,0-4.872-2.182-4.872-4.871c0-2.69,2.182-4.872,4.872-4.872c2.689,0,4.871,2.182,4.871,4.872C20.871,18.689,18.689,20.871,16,20.871z"></path><title>Link options.</title></g></g></g></g><g id="j_153"   ><path  stroke="#707070" id="v-2537" stroke-width="2" stroke-dasharray="30 30" fill="none" d="M 1458 1179 1838 1179" style="opacity: 1;"></path><path  fill="black" stroke="black" transform="translate(1458,1179) scale(1,1) rotate(0)"></path><path  fill="#707070" stroke="#707070" id="v-2539" d="M 20 0 L 0 10 L 20 20 z" transform="translate(1858.0000000000002,1189) scale(1,1) rotate(-180)" style="opacity: 1;"></path><path  id="v-2538" fill="none" d="M 1458 1179 1838 1179" style="cursor: default !important"></path><title ></title><g ><g  id="v-2523" label-idx="0" cursor="move" transform="translate(1648, 1179)" style="opacity: 1;"><rect id="v-2525" fill="#ffffff" rx="3" ry="3" stroke="#ffffff" stroke-width="20px" pointer-events="none" width="130.43310546875" height="90.00379943847656" transform="matrix(1,0,0,1,-65.2,-45)"></rect><text id="v-2524" font-size="24px" y="0.8em" xml:space="preserve" text-anchor="middle" pointer-events="none" fill="#707070" font-family="Open Sans" font-weight="normal" transform="matrix(1,0,0,1,0,-38.4)"><tspan id="v-2526"  dy="0em" x="0">Geospatial</tspan><tspan id="v-2527"  dy="1.2em" x="0">boundaries</tspan><tspan id="v-2528"  dy="1.2em" x="0">pulled from</tspan></text></g><g  id="v-2529" label-idx="1" cursor="move" transform="translate(1648, 1236.6)" style="opacity: 1;"><rect id="v-2531" fill="#ffffff" rx="3" ry="3" pointer-events="none" width="0" height="0" transform="matrix(1,0,0,1,0,0)"></rect><text id="v-2530" font-size="19px" y="0.8em" display="none" xml:space="preserve" text-anchor="middle" pointer-events="none" fill="#707070" font-family="Open Sans" font-weight="normal" transform="matrix(1,0,0,1,0,0)"><tspan id="v-2532"  dy="0em" x="0" style="fill-opacity: 0; stroke-opacity: 0;">-</tspan></text></g><g  id="v-2533" label-idx="2" cursor="move" transform="translate(1648, 1260.6)" style="opacity: 1;"><rect id="v-2535" fill="#ffffff" rx="3" ry="3" pointer-events="none"  display="block" width="0" height="0" transform="matrix(1,0,0,1,0,0)"></rect><text id="v-2534" font-size="19px" y="0.8em" display="block" xml:space="preserve" text-anchor="middle" pointer-events="none" fill="#707070" font-family="Open Sans" font-weight="normal"  transform="matrix(1,0,0,1,0,0)"><tspan id="v-2536"  dy="0em" x="0" style="fill-opacity: 0; stroke-opacity: 0;">-</tspan></text></g></g><g  display="none"></g><g  id="v-2541" display="none"><g  id="v-2520"><path  end="source" d="M 26 0 L 0 13 L 26 26 z"></path></g><g  id="v-2521"><path  end="target" d="M 26 0 L 0 13 L 26 26 z"></path></g></g><g  id="v-2540" display="none"><g  id="v-2519" transform="translate(1498, 1179) "><g  event="remove"><circle r="11"></circle><path transform="scale(.8) translate(-16, -16)" d="M24.778,21.419 19.276,15.917 24.777,10.415 21.949,7.585 16.447,13.087 10.945,7.585 8.117,10.415 13.618,15.917 8.116,21.419 10.946,24.248 16.447,18.746 21.948,24.248z"></path><title>Remove link.</title></g><g  event="link:options"><circle r="11" transform="translate(25)"></circle><path fill="white" transform="scale(.55) translate(29, -16)" d="M31.229,17.736c0.064-0.571,0.104-1.148,0.104-1.736s-0.04-1.166-0.104-1.737l-4.377-1.557c-0.218-0.716-0.504-1.401-0.851-2.05l1.993-4.192c-0.725-0.91-1.549-1.734-2.458-2.459l-4.193,1.994c-0.647-0.347-1.334-0.632-2.049-0.849l-1.558-4.378C17.165,0.708,16.588,0.667,16,0.667s-1.166,0.041-1.737,0.105L12.707,5.15c-0.716,0.217-1.401,0.502-2.05,0.849L6.464,4.005C5.554,4.73,4.73,5.554,4.005,6.464l1.994,4.192c-0.347,0.648-0.632,1.334-0.849,2.05l-4.378,1.557C0.708,14.834,0.667,15.412,0.667,16s0.041,1.165,0.105,1.736l4.378,1.558c0.217,0.715,0.502,1.401,0.849,2.049l-1.994,4.193c0.725,0.909,1.549,1.733,2.459,2.458l4.192-1.993c0.648,0.347,1.334,0.633,2.05,0.851l1.557,4.377c0.571,0.064,1.148,0.104,1.737,0.104c0.588,0,1.165-0.04,1.736-0.104l1.558-4.377c0.715-0.218,1.399-0.504,2.049-0.851l4.193,1.993c0.909-0.725,1.733-1.549,2.458-2.458l-1.993-4.193c0.347-0.647,0.633-1.334,0.851-2.049L31.229,17.736zM16,20.871c-2.69,0-4.872-2.182-4.872-4.871c0-2.69,2.182-4.872,4.872-4.872c2.689,0,4.871,2.182,4.871,4.872C20.871,18.689,18.689,20.871,16,20.871z"></path><title>Link options.</title></g></g></g></g><g id="j_154"   ><path  stroke="#707070" id="v-2559" stroke-width="2" stroke-dasharray="30 30" fill="none" d="M 608 1179 988 1179" style="opacity: 1;"></path><path  fill="black" stroke="black" transform="translate(608,1179) scale(1,1) rotate(0)"></path><path  fill="#707070" stroke="#707070" id="v-2561" d="M 20 0 L 0 10 L 20 20 z" transform="translate(1008.0000000000002,1189) scale(1,1) rotate(-180)" style="opacity: 1;"></path><path  id="v-2560" fill="none" d="M 608 1179 988 1179" style="cursor: default !important"></path><title ></title><g ><g  id="v-2547" label-idx="0" cursor="move" transform="translate(798, 1179)" style="opacity: 1;"><rect id="v-2549" fill="#ffffff" rx="3" ry="3" stroke="#ffffff" stroke-width="20px" pointer-events="none" width="53.83757019042969" height="32.403804779052734" transform="matrix(1,0,0,1,-26.9,-16.2)"></rect><text id="v-2548" font-size="24px" y="0.8em" xml:space="preserve" text-anchor="middle" pointer-events="none" fill="#707070" font-family="Open Sans" font-weight="normal" transform="matrix(1,0,0,1,0,-9.6)"><tspan id="v-2550"  dy="0em" x="0">Uses</tspan></text></g><g  id="v-2551" label-idx="1" cursor="move" transform="translate(798, 1210.2)" style="opacity: 1;"><rect id="v-2553" fill="#ffffff" rx="3" ry="3" pointer-events="none" width="0" height="0" transform="matrix(1,0,0,1,0,0)"></rect><text id="v-2552" font-size="19px" y="0.8em" display="none" xml:space="preserve" text-anchor="middle" pointer-events="none" fill="#707070" font-family="Open Sans" font-weight="normal" transform="matrix(1,0,0,1,0,0)"><tspan id="v-2554"  dy="0em" x="0" style="fill-opacity: 0; stroke-opacity: 0;">-</tspan></text></g><g  id="v-2555" label-idx="2" cursor="move" transform="translate(798, 1234.2)" style="opacity: 1;"><rect id="v-2557" fill="#ffffff" rx="3" ry="3" pointer-events="none"  display="block" width="0" height="0" transform="matrix(1,0,0,1,0,0)"></rect><text id="v-2556" font-size="19px" y="0.8em" display="block" xml:space="preserve" text-anchor="middle" pointer-events="none" fill="#707070" font-family="Open Sans" font-weight="normal"  transform="matrix(1,0,0,1,0,0)"><tspan id="v-2558"  dy="0em" x="0" style="fill-opacity: 0; stroke-opacity: 0;">-</tspan></text></g></g><g  display="none"></g><g  id="v-2563" display="none"><g  id="v-2544"><path  end="source" d="M 26 0 L 0 13 L 26 26 z"></path></g><g  id="v-2545"><path  end="target" d="M 26 0 L 0 13 L 26 26 z"></path></g></g><g  id="v-2562" display="none"><g  id="v-2543" transform="translate(648, 1179) "><g  event="remove"><circle r="11"></circle><path transform="scale(.8) translate(-16, -16)" d="M24.778,21.419 19.276,15.917 24.777,10.415 21.949,7.585 16.447,13.087 10.945,7.585 8.117,10.415 13.618,15.917 8.116,21.419 10.946,24.248 16.447,18.746 21.948,24.248z"></path><title>Remove link.</title></g><g  event="link:options"><circle r="11" transform="translate(25)"></circle><path fill="white" transform="scale(.55) translate(29, -16)" d="M31.229,17.736c0.064-0.571,0.104-1.148,0.104-1.736s-0.04-1.166-0.104-1.737l-4.377-1.557c-0.218-0.716-0.504-1.401-0.851-2.05l1.993-4.192c-0.725-0.91-1.549-1.734-2.458-2.459l-4.193,1.994c-0.647-0.347-1.334-0.632-2.049-0.849l-1.558-4.378C17.165,0.708,16.588,0.667,16,0.667s-1.166,0.041-1.737,0.105L12.707,5.15c-0.716,0.217-1.401,0.502-2.05,0.849L6.464,4.005C5.554,4.73,4.73,5.554,4.005,6.464l1.994,4.192c-0.347,0.648-0.632,1.334-0.849,2.05l-4.378,1.557C0.708,14.834,0.667,15.412,0.667,16s0.041,1.165,0.105,1.736l4.378,1.558c0.217,0.715,0.502,1.401,0.849,2.049l-1.994,4.193c0.725,0.909,1.549,1.733,2.459,2.458l4.192-1.993c0.648,0.347,1.334,0.633,2.05,0.851l1.557,4.377c0.571,0.064,1.148,0.104,1.737,0.104c0.588,0,1.165-0.04,1.736-0.104l1.558-4.377c0.715-0.218,1.399-0.504,2.049-0.851l4.193,1.993c0.909-0.725,1.733-1.549,2.458-2.458l-1.993-4.193c0.347-0.647,0.633-1.334,0.851-2.049L31.229,17.736zM16,20.871c-2.69,0-4.872-2.182-4.872-4.871c0-2.69,2.182-4.872,4.872-4.872c2.689,0,4.871,2.182,4.871,4.872C20.871,18.689,18.689,20.871,16,20.871z"></path><title>Link options.</title></g></g></g></g><g id="j_155"   ><path  stroke="#707070" id="v-2584" stroke-width="2" stroke-dasharray="30 30" fill="none" d="M 1415 1029 1886 642" style="opacity: 1;"></path><path  fill="black" stroke="black" transform="translate(1415,1029) scale(1,1) rotate(-39.45592498779296)"></path><path  fill="#707070" stroke="#707070" id="v-2586" d="M 20 0 L 0 10 L 20 20 z" transform="translate(1907.3547899514574,636.7211485643534) scale(1,1) rotate(-219.4559326171875)" style="opacity: 1;"></path><path  id="v-2585" fill="none" d="M 1415 1029 1886 642" style="cursor: default !important"></path><title ></title><g ><g  id="v-2571" label-idx="0" cursor="move" transform="translate(1650.5, 835.5)" style="opacity: 1;"><rect id="v-2573" fill="#ffffff" rx="3" ry="3" stroke="#ffffff" stroke-width="20px" pointer-events="none" width="187.2306365966797" height="61.20380401611328" transform="matrix(1,0,0,1,-93.6,-30.6)"></rect><text id="v-2572" font-size="24px" y="0.8em" xml:space="preserve" text-anchor="middle" pointer-events="none" fill="#707070" font-family="Open Sans" font-weight="normal" transform="matrix(1,0,0,1,0,-24)"><tspan id="v-2574"  dy="0em" x="0">Loads basemaps</tspan><tspan id="v-2575"  dy="1.2em" x="0">from</tspan></text></g><g  id="v-2576" label-idx="1" cursor="move" transform="translate(1650.5, 878.7)" style="opacity: 1;"><rect id="v-2578" fill="#ffffff" rx="3" ry="3" pointer-events="none" width="216.2330780029297" height="25.75687026977539" transform="matrix(1,0,0,1,-108.1,-12.8)"></rect><text id="v-2577" font-size="19px" y="0.8em" xml:space="preserve" text-anchor="middle" pointer-events="none" fill="#707070" font-family="Open Sans" font-weight="normal" transform="matrix(1,0,0,1,0,-8.1)"><tspan id="v-2579"  dy="0em" x="0">[JSON and WEBP/HTTPS]</tspan></text></g><g  id="v-2580" label-idx="2" cursor="move" transform="translate(1650.5, 902.7)" style="opacity: 1;"><rect id="v-2582" fill="#ffffff" rx="3" ry="3" pointer-events="none"  display="block" width="0" height="0" transform="matrix(1,0,0,1,0,0)"></rect><text id="v-2581" font-size="19px" y="0.8em" display="block" xml:space="preserve" text-anchor="middle" pointer-events="none" fill="#707070" font-family="Open Sans" font-weight="normal"  transform="matrix(1,0,0,1,0,0)"><tspan id="v-2583"  dy="0em" x="0" style="fill-opacity: 0; stroke-opacity: 0;">-</tspan></text></g></g><g  display="none"></g><g  id="v-2588" display="none"><g  id="v-2568"><path  end="source" d="M 26 0 L 0 13 L 26 26 z"></path></g><g  id="v-2569"><path  end="target" d="M 26 0 L 0 13 L 26 26 z"></path></g></g><g  id="v-2587" display="none"><g  id="v-2567" transform="translate(1445.9056396484375, 1003.606201171875) "><g  event="remove"><circle r="11"></circle><path transform="scale(.8) translate(-16, -16)" d="M24.778,21.419 19.276,15.917 24.777,10.415 21.949,7.585 16.447,13.087 10.945,7.585 8.117,10.415 13.618,15.917 8.116,21.419 10.946,24.248 16.447,18.746 21.948,24.248z"></path><title>Remove link.</title></g><g  event="link:options"><circle r="11" transform="translate(25)"></circle><path fill="white" transform="scale(.55) translate(29, -16)" d="M31.229,17.736c0.064-0.571,0.104-1.148,0.104-1.736s-0.04-1.166-0.104-1.737l-4.377-1.557c-0.218-0.716-0.504-1.401-0.851-2.05l1.993-4.192c-0.725-0.91-1.549-1.734-2.458-2.459l-4.193,1.994c-0.647-0.347-1.334-0.632-2.049-0.849l-1.558-4.378C17.165,0.708,16.588,0.667,16,0.667s-1.166,0.041-1.737,0.105L12.707,5.15c-0.716,0.217-1.401,0.502-2.05,0.849L6.464,4.005C5.554,4.73,4.73,5.554,4.005,6.464l1.994,4.192c-0.347,0.648-0.632,1.334-0.849,2.05l-4.378,1.557C0.708,14.834,0.667,15.412,0.667,16s0.041,1.165,0.105,1.736l4.378,1.558c0.217,0.715,0.502,1.401,0.849,2.049l-1.994,4.193c0.725,0.909,1.549,1.733,2.459,2.458l4.192-1.993c0.648,0.347,1.334,0.633,2.05,0.851l1.557,4.377c0.571,0.064,1.148,0.104,1.737,0.104c0.588,0,1.165-0.04,1.736-0.104l1.558-4.377c0.715-0.218,1.399-0.504,2.049-0.851l4.193,1.993c0.909-0.725,1.733-1.549,2.458-2.458l-1.993-4.193c0.347-0.647,0.633-1.334,0.851-2.049L31.229,17.736zM16,20.871c-2.69,0-4.872-2.182-4.872-4.871c0-2.69,2.182-4.872,4.872-4.872c2.689,0,4.871,2.182,4.871,4.872C20.871,18.689,18.689,20.871,16,20.871z"></path><title>Link options.</title></g></g></g></g></g><defs id="v-4"></defs></svg>